<svg width="187" height="169" viewBox="0 0 187 169" fill="none" xmlns="http://www.w3.org/2000/svg">
<path d="M48.22 167.216C90.3143 155.828 131.821 136.344 168.201 111.597C192.935 94.7759 191.022 68.5129 175.405 54.6734C155.309 36.8562 110.789 12.9048 76.5004 2.26248C48.6633 -6.37344 22.9434 10.6482 15.4013 37.4216C10.9727 53.1374 7.41087 69.1383 4.78557 85.3695C2.29478 100.75 0.725588 114.765 0.0530745 129.695C-1.21723 157.829 20.4726 174.726 48.22 167.216Z" fill="#123274"/>
<path d="M104.26 64.8978L103.845 67.8773C101.739 65.4617 99.0243 64.1841 94.9119 64.1841C82.7344 64.1841 76.0917 75.4732 76.3413 87.5409C76.5609 97.9766 81.7163 102.523 89.6217 102.523C93.8139 102.523 96.7884 101.246 99.5883 98.83L99.2539 101.81H114.201L119.282 64.8928H104.26V64.8978ZM95.5108 92.9409C93.2151 92.9409 91.8326 91.0244 91.7528 87.0468C91.638 81.6518 93.8489 73.7714 98.116 73.7714C100.487 73.7714 101.874 75.7577 101.959 79.8751C102.069 85.2002 99.8578 92.9359 95.5108 92.9359V92.9409Z" fill="#FFD100"/>
<path d="M136.894 75.1883C136.874 74.1253 138.761 73.766 140.977 73.766C145.563 73.766 149.471 75.3281 152.026 76.6057L153.473 66.3098C150.689 65.4564 146.551 64.1787 140.697 64.1787C129.233 64.1787 121.023 68.7203 121.198 77.2396C121.438 88.7383 136.6 87.6753 136.66 90.7296C136.68 91.6529 135.507 92.2218 132.976 92.2218C129.658 92.2218 124.497 91.2986 120.085 88.3191L118.583 99.6781C123.209 101.664 128.13 102.518 132.717 102.518C144.814 102.518 152.53 97.1228 152.356 88.6734C152.111 77.0299 136.954 78.093 136.894 75.1834V75.1883Z" fill="#FFD100"/>
<path d="M50.0449 127.432H64.7078L67.0784 116.652H51.2577L50.0449 127.432Z" fill="#FFD100"/>
<path d="M55.6245 90.2706L53.154 111.496H66.8487L78.4622 57.1069H60.0363C60.0363 57.1069 60.0363 57.1169 60.0363 57.1219L59.7369 59.1731C56.6626 79.3757 52.4304 86.1432 49.91 85.1601C45.064 83.2735 48.328 66.4497 51.0529 57.1069H32.8865C30.7555 64.4084 29.378 74.8691 29.902 81.4719C30.5758 89.9462 35.3969 97.5871 43.9061 97.5871C48.2831 97.5871 52.2357 95.2664 55.6245 90.2706Z" fill="#FFD100"/>
</svg>
