<svg width="500" height="500" viewBox="0 0 500 500" fill="none" xmlns="http://www.w3.org/2000/svg">
<path d="M243.02 157.34H274.87V102.45H243.02V157.34Z" fill="#461082"/>
<path d="M154.17 158.21H179.32V89.69H154.17V158.21Z" fill="#461082"/>
<path d="M153.88 94.6398C153.88 94.4298 159.63 94.2598 166.72 94.2598C173.81 94.2598 179.57 94.4298 179.57 94.6398C179.57 94.8498 173.82 95.0198 166.72 95.0198C159.62 95.0198 153.88 94.8498 153.88 94.6398Z" fill="#FAFAFA"/>
<path d="M155.27 97.8898C155.27 97.6798 160.71 97.5098 167.42 97.5098C174.13 97.5098 179.57 97.6798 179.57 97.8898C179.57 98.0998 174.13 98.2698 167.42 98.2698C160.71 98.2698 155.27 98.0998 155.27 97.8898Z" fill="#FAFAFA"/>
<path d="M166 144.7C165.79 144.7 165.62 135.62 165.62 124.43C165.62 113.24 165.79 104.16 166 104.16C166.21 104.16 166.38 113.23 166.38 124.43C166.38 135.63 166.24 144.7 166 144.7Z" fill="#FAFAFA"/>
<path d="M154.17 151C154.17 150.79 159.69 150.62 166.48 150.62C173.27 150.62 178.8 150.79 178.8 151C178.8 151.21 173.28 151.38 166.48 151.38C159.68 151.38 154.17 151.18 154.17 151Z" fill="#FAFAFA"/>
<path d="M154.17 153.91C154.17 153.7 159.82 153.53 166.79 153.53C173.76 153.53 179.41 153.7 179.41 153.91C179.41 154.12 173.76 154.29 166.79 154.29C159.82 154.29 154.17 154.12 154.17 153.91Z" fill="#FAFAFA"/>
<path d="M179.31 158.21H199.51V82.28H179.31V158.21Z" fill="#FF5600"/>
<path d="M179.18 117.15C180.288 117.77 181.333 118.497 182.3 119.32L189.59 124.85L196.87 130.39C197.922 131.108 198.903 131.925 199.8 132.83C198.655 132.275 197.569 131.605 196.56 130.83C194.62 129.51 191.98 127.62 189.13 125.46C186.28 123.3 183.76 121.26 181.97 119.74C180.946 118.984 180.01 118.115 179.18 117.15Z" fill="#FAFAFA"/>
<path d="M179.09 105.27C179.23 105.11 183.86 108.85 189.43 113.62C195 118.39 199.43 122.4 199.27 122.56C199.11 122.72 194.51 118.98 188.93 114.2C183.35 109.42 179 105.43 179.09 105.27Z" fill="#FAFAFA"/>
<path d="M91.5102 158.27H101.17L101.17 85.9395H91.5102L91.5102 158.27Z" fill="#461082"/>
<path d="M91.9001 95.7896C91.9001 96.0396 93.9001 96.2396 96.4301 96.2396C98.9601 96.2396 101 95.9996 101 95.7896C101 95.5796 99.0001 95.3296 96.4701 95.3296C93.9401 95.3296 91.9001 95.5396 91.9001 95.7896Z" fill="#FAFAFA"/>
<path d="M91.7102 94.2098C91.7102 94.4598 93.7102 94.6698 96.2302 94.6698C98.7502 94.6698 100.76 94.4598 100.76 94.2098C100.76 93.9598 98.7602 93.7598 96.2302 93.7598C93.7002 93.7598 91.7102 93.9998 91.7102 94.2098Z" fill="#FAFAFA"/>
<path d="M91.9001 152.67C91.9001 152.92 93.9001 153.13 96.4301 153.13C98.9601 153.13 100.96 152.92 100.96 152.67C100.96 152.42 98.9601 152.22 96.4301 152.22C93.9001 152.22 91.9001 152.42 91.9001 152.67Z" fill="#FAFAFA"/>
<path d="M91.7102 151.1C91.7102 151.35 93.7102 151.55 96.2302 151.55C98.7502 151.55 100.76 151.35 100.76 151.1C100.76 150.85 98.7602 150.64 96.2302 150.64C93.7002 150.64 91.7102 150.85 91.7102 151.1Z" fill="#FAFAFA"/>
<path d="M96.6302 141.65C96.8802 141.65 97.0802 133.37 97.0802 123.15C97.0802 112.93 96.8802 104.64 96.6302 104.64C96.3802 104.64 96.1702 112.93 96.1702 123.15C96.1702 133.37 96.3802 141.65 96.6302 141.65Z" fill="#FAFAFA"/>
<path d="M134.8 157.8H154.13V85.4698H134.8V157.8Z" fill="#FF5600"/>
<path d="M148.7 158.73C148.789 158.61 148.863 158.479 148.92 158.34C149.06 158.07 149.25 157.67 149.47 157.13C150.135 155.559 150.608 153.914 150.88 152.23C151.371 149.511 150.975 146.706 149.75 144.23C148.929 142.711 147.752 141.414 146.32 140.45C144.69 139.338 142.706 138.868 140.75 139.13C139.692 139.309 138.701 139.768 137.88 140.46C137.431 140.831 137.072 141.299 136.831 141.829C136.591 142.36 136.474 142.938 136.49 143.52C136.541 144.116 136.714 144.695 136.998 145.221C137.281 145.747 137.67 146.21 138.14 146.58C139.072 147.372 140.223 147.86 141.44 147.98C142.693 148.079 143.954 147.908 145.135 147.478C146.317 147.049 147.393 146.371 148.29 145.49C150.224 143.659 151.431 141.191 151.69 138.54C151.955 135.809 151.614 133.053 150.69 130.47C149.82 127.728 148.173 125.296 145.95 123.47C144.749 122.521 143.295 121.947 141.77 121.82C140.978 121.744 140.179 121.843 139.429 122.109C138.68 122.375 137.997 122.802 137.43 123.36C136.835 123.972 136.48 124.778 136.43 125.63C136.41 126.466 136.643 127.289 137.1 127.99C138.002 129.353 139.402 130.308 141 130.65C142.544 130.951 144.139 130.846 145.631 130.347C147.122 129.847 148.459 128.97 149.51 127.8C151.444 125.504 152.603 122.655 152.82 119.66C153.151 116.816 152.868 113.935 151.99 111.21C151.147 108.54 149.372 106.261 146.99 104.79C145.863 104.063 144.58 103.611 143.246 103.472C141.911 103.333 140.563 103.511 139.31 103.99C138.674 104.236 138.111 104.641 137.675 105.166C137.239 105.691 136.945 106.319 136.82 106.99C136.704 107.624 136.722 108.275 136.872 108.902C137.022 109.528 137.3 110.117 137.69 110.63C138.479 111.537 139.523 112.186 140.686 112.493C141.848 112.799 143.076 112.75 144.21 112.35C146.231 111.649 148.011 110.386 149.34 108.71C151.69 105.922 153.048 102.433 153.2 98.79C153.289 96.0597 152.672 93.3525 151.41 90.93C150.64 89.4093 149.626 88.0245 148.41 86.83C148.093 86.5218 147.759 86.2313 147.41 85.96C147.296 85.8593 147.168 85.7751 147.03 85.71C148.72 87.2323 150.11 89.0569 151.13 91.09C152.306 93.4727 152.857 96.1157 152.73 98.77C152.53 102.279 151.181 105.625 148.89 108.29C147.627 109.852 145.95 111.027 144.05 111.68C143.056 112.02 141.984 112.06 140.968 111.793C139.953 111.526 139.038 110.965 138.34 110.18C138.023 109.755 137.796 109.269 137.673 108.754C137.549 108.238 137.531 107.703 137.62 107.18C137.732 106.643 137.979 106.144 138.337 105.729C138.696 105.314 139.155 104.998 139.67 104.81C140.807 104.393 142.025 104.248 143.229 104.385C144.432 104.522 145.586 104.938 146.6 105.6C148.806 106.98 150.44 109.111 151.2 111.6C152.026 114.202 152.288 116.949 151.97 119.66C151.769 122.467 150.683 125.138 148.87 127.29C147.925 128.339 146.726 129.128 145.388 129.58C144.05 130.032 142.618 130.132 141.23 129.87C139.87 129.574 138.677 128.764 137.9 127.61C137.518 127.089 137.33 126.452 137.368 125.807C137.407 125.163 137.669 124.552 138.11 124.08C138.585 123.619 139.156 123.268 139.781 123.05C140.406 122.833 141.071 122.754 141.73 122.82C143.081 122.928 144.369 123.436 145.43 124.28C147.524 126.008 149.07 128.308 149.88 130.9C150.78 133.357 151.122 135.984 150.88 138.59C150.665 141.05 149.559 143.347 147.77 145.05C146.961 145.861 145.986 146.489 144.913 146.891C143.84 147.293 142.693 147.46 141.55 147.38C139.42 147.2 137.35 145.58 137.22 143.63C137.205 143.153 137.298 142.679 137.494 142.244C137.69 141.809 137.983 141.425 138.35 141.12C139.071 140.495 139.949 140.079 140.89 139.92C142.668 139.64 144.487 140.025 146 141C147.366 141.894 148.494 143.105 149.29 144.53C150.501 146.892 150.928 149.579 150.51 152.2C150.283 153.87 149.874 155.509 149.29 157.09C148.91 158.15 148.66 158.71 148.7 158.73Z" fill="#FAFAFA"/>
<path d="M101.01 157.83H134.54V91.9596H101.01V157.83Z" fill="#E1C7C7"/>
<path d="M102.16 102.9C102.16 103.16 109.43 103.36 118.39 103.36C127.35 103.36 134.62 103.16 134.62 102.9C134.62 102.64 127.35 102.45 118.39 102.45C109.43 102.45 102.16 102.65 102.16 102.9Z" fill="#E0E0E0"/>
<path d="M101.75 107.9C101.75 108.15 108.92 108.35 117.75 108.35C126.58 108.35 133.75 108.15 133.75 107.9C133.75 107.65 126.58 107.44 117.75 107.44C108.92 107.44 101.75 107.65 101.75 107.9Z" fill="#E0E0E0"/>
<path d="M100.67 150.39C100.67 150.64 108.22 150.84 117.54 150.84C126.86 150.84 134.41 150.64 134.41 150.39C134.41 150.14 126.86 149.93 117.54 149.93C108.22 149.93 100.67 150.14 100.67 150.39Z" fill="#E0E0E0"/>
<path d="M101.12 144.52C101.12 144.77 108.48 144.97 117.56 144.97C126.64 144.97 134 144.77 134 144.52C134 144.27 126.64 144.06 117.56 144.06C108.48 144.06 101.12 144.27 101.12 144.52Z" fill="#E0E0E0"/>
<path d="M199.49 157.34H218.82V85.0098H199.49V157.34Z" fill="#461082"/>
<path d="M213.38 158.27C213.474 158.147 213.551 158.012 213.61 157.87C213.75 157.61 213.93 157.2 214.16 156.67C214.825 155.096 215.295 153.447 215.56 151.76C216.052 149.057 215.655 146.268 214.43 143.81C213.62 142.275 212.441 140.966 211 140C209.37 138.888 207.386 138.418 205.43 138.68C204.366 138.849 203.369 139.31 202.55 140.01C202.102 140.379 201.745 140.846 201.506 141.375C201.267 141.903 201.152 142.48 201.17 143.06C201.221 143.657 201.394 144.238 201.677 144.766C201.961 145.294 202.35 145.758 202.82 146.13C203.754 146.919 204.904 147.407 206.12 147.53C207.374 147.627 208.635 147.454 209.816 147.023C210.998 146.591 212.073 145.912 212.97 145.03C214.904 143.2 216.108 140.73 216.36 138.08C216.634 135.349 216.292 132.591 215.36 130.01C214.491 127.269 212.848 124.839 210.63 123.01C209.43 122.061 207.975 121.49 206.45 121.37C205.658 121.291 204.858 121.388 204.108 121.654C203.357 121.92 202.675 122.349 202.11 122.91C201.513 123.516 201.158 124.32 201.11 125.17C201.091 126.008 201.321 126.832 201.77 127.54C202.678 128.896 204.076 129.849 205.67 130.2C207.215 130.501 208.812 130.396 210.305 129.897C211.798 129.397 213.137 128.52 214.19 127.35C216.125 125.05 217.284 122.198 217.5 119.2C217.83 116.359 217.547 113.481 216.67 110.76C215.833 108.087 214.057 105.806 211.67 104.34C210.543 103.613 209.26 103.161 207.927 103.021C206.593 102.88 205.244 103.054 203.99 103.53C203.362 103.776 202.805 104.175 202.368 104.69C201.932 105.205 201.63 105.82 201.49 106.48C201.378 107.116 201.398 107.768 201.55 108.396C201.701 109.024 201.98 109.615 202.37 110.13C203.159 111.035 204.201 111.682 205.361 111.989C206.522 112.296 207.747 112.247 208.88 111.85C210.907 111.149 212.69 109.882 214.02 108.2C216.371 105.413 217.726 101.923 217.87 98.2798C217.962 95.5504 217.349 92.8434 216.09 90.4198C215.32 88.9019 214.307 87.5203 213.09 86.3298C212.773 86.0212 212.44 85.7307 212.09 85.4598C211.86 85.2798 211.73 85.1898 211.72 85.2098C213.412 86.7266 214.803 88.5483 215.82 90.5798C216.992 92.9639 217.539 95.6065 217.41 98.2598C217.223 101.77 215.876 105.118 213.58 107.78C212.319 109.35 210.636 110.529 208.73 111.18C207.735 111.518 206.663 111.555 205.647 111.286C204.632 111.017 203.718 110.455 203.02 109.67C202.704 109.244 202.478 108.759 202.356 108.243C202.234 107.727 202.218 107.192 202.31 106.67C202.423 106.135 202.671 105.637 203.03 105.224C203.388 104.811 203.846 104.497 204.36 104.31C205.496 103.888 206.716 103.74 207.919 103.878C209.123 104.015 210.278 104.433 211.29 105.1C213.493 106.484 215.125 108.613 215.89 111.1C216.716 113.705 216.978 116.456 216.66 119.17C216.446 121.974 215.362 124.641 213.56 126.8C212.614 127.847 211.414 128.634 210.076 129.084C208.738 129.534 207.307 129.633 205.92 129.37C204.56 129.081 203.366 128.274 202.59 127.12C202.208 126.599 202.02 125.961 202.059 125.317C202.097 124.672 202.359 124.061 202.8 123.59C203.273 123.125 203.843 122.771 204.469 122.553C205.095 122.335 205.761 122.259 206.42 122.33C207.769 122.44 209.055 122.945 210.12 123.78C212.211 125.511 213.756 127.81 214.57 130.4C215.469 132.857 215.81 135.484 215.57 138.09C215.348 140.551 214.244 142.849 212.46 144.56C211.651 145.371 210.676 145.999 209.603 146.401C208.53 146.803 207.383 146.97 206.24 146.89C204.11 146.71 202.04 145.09 201.91 143.14C201.892 142.661 201.985 142.185 202.181 141.748C202.377 141.311 202.671 140.925 203.04 140.62C203.764 140.001 204.642 139.59 205.58 139.43C207.378 139.168 209.209 139.581 210.72 140.59C212.091 141.484 213.224 142.699 214.02 144.13C215.231 146.492 215.658 149.178 215.24 151.8C215.001 153.44 214.585 155.049 214 156.6C213.59 157.69 213.35 158.25 213.38 158.27Z" fill="#FAFAFA"/>
<path d="M64.64 157.34H91.5L91.5 81.3598H64.64L64.64 157.34Z" fill="#FF5600"/>
<path d="M218.82 157.34H243.94V89.6898H218.82V157.34Z" fill="#FF5600"/>
<path d="M244.57 123.43C245.789 124.528 247.131 125.481 248.57 126.27C250.153 127.051 251.87 127.526 253.63 127.67C255.778 127.832 257.933 127.457 259.9 126.58C262.02 125.67 263.96 124.51 265.9 123.83C267.634 123.126 269.537 122.952 271.37 123.33C272.608 123.606 273.722 124.28 274.54 125.25C274.864 125.583 275.083 126.004 275.17 126.46C275.1 126.46 274.91 126.04 274.32 125.46C273.478 124.636 272.409 124.082 271.25 123.87C269.521 123.59 267.749 123.809 266.14 124.5C264.26 125.19 262.36 126.35 260.14 127.29C258.061 128.218 255.777 128.594 253.51 128.38C251.672 128.198 249.89 127.647 248.27 126.76C247.182 126.171 246.197 125.411 245.35 124.51C245.026 124.201 244.761 123.835 244.57 123.43Z" fill="#FAFAFA"/>
<path d="M244 130.12C245.217 131.221 246.56 132.174 248 132.96C249.579 133.743 251.293 134.218 253.05 134.36C255.198 134.522 257.353 134.147 259.32 133.27C261.44 132.37 263.38 131.2 265.32 130.52C267.059 129.821 268.964 129.648 270.8 130.02C272.055 130.311 273.18 131.006 274 132C274.324 132.331 274.54 132.753 274.62 133.21C274.56 133.21 274.37 132.79 273.78 132.21C272.936 131.386 271.868 130.83 270.71 130.61C268.977 130.339 267.203 130.561 265.59 131.25C263.72 131.93 261.81 133.1 259.59 134.04C257.509 134.96 255.226 135.332 252.96 135.12C251.122 134.938 249.34 134.387 247.72 133.5C246.631 132.914 245.641 132.158 244.79 131.26C244.455 130.935 244.187 130.548 244 130.12Z" fill="#FAFAFA"/>
<path d="M244.42 108.46C244.42 108.24 251.34 108.07 259.86 108.07C268.38 108.07 275.31 108.24 275.31 108.46C275.31 108.68 268.4 108.84 259.86 108.84C251.32 108.84 244.42 108.67 244.42 108.46Z" fill="#FAFAFA"/>
<path d="M233 100.59C232.309 100.308 231.548 100.245 230.82 100.41C230.45 100.505 230.106 100.681 229.812 100.924C229.518 101.168 229.282 101.474 229.12 101.82C228.992 102.247 228.983 102.702 229.096 103.134C229.209 103.566 229.439 103.958 229.76 104.268C230.081 104.578 230.482 104.794 230.918 104.891C231.353 104.988 231.807 104.964 232.23 104.82C232.569 104.641 232.865 104.392 233.098 104.088C233.331 103.784 233.496 103.433 233.58 103.06C233.717 102.326 233.622 101.568 233.31 100.89C233.31 100.89 233.56 100.98 233.79 101.36C234.106 101.907 234.219 102.548 234.11 103.17C234.042 103.644 233.866 104.096 233.595 104.491C233.325 104.886 232.967 105.214 232.55 105.45C231.996 105.679 231.386 105.741 230.797 105.63C230.207 105.518 229.663 105.237 229.23 104.822C228.798 104.406 228.496 103.873 228.361 103.289C228.225 102.704 228.264 102.093 228.47 101.53C228.687 101.102 229.001 100.73 229.386 100.443C229.771 100.157 230.218 99.9641 230.69 99.8798C231.311 99.7521 231.956 99.8403 232.52 100.13C232.94 100.35 233.07 100.56 233 100.59Z" fill="#FAFAFA"/>
<path d="M231.42 150.57C231.21 150.57 231.03 141.08 231.03 129.39C231.03 117.7 231.21 108.21 231.42 108.21C231.63 108.21 231.8 117.69 231.8 129.39C231.8 141.09 231.63 150.57 231.42 150.57Z" fill="#FAFAFA"/>
<path d="M301.11 156.95H41.1501V171.79H301.11V156.95Z" fill="#37474F"/>
<path d="M301.11 156.95H278.41V171.79H301.11V156.95Z" fill="#E0E0E0"/>
<path d="M428 340.799C435 337.209 443.15 336.739 450.87 338.019C455.02 338.699 459.35 339.939 462.17 343.019C464.99 346.099 465.53 351.619 462.29 354.299C460.36 355.899 457.67 356.139 455.17 356.109C449.12 356.039 442.41 354.969 437.58 358.609C434.82 360.689 432.99 364.14 429.7 365.16C426.41 366.18 422.83 364.25 421.12 361.35C419.41 358.45 419.36 354.799 420.12 351.519C420.52 349.247 421.44 347.097 422.807 345.238C424.173 343.379 425.951 341.86 428 340.799Z" fill="#EBEBEB"/>
<path d="M412 310C416.26 316.07 424.53 314.06 428.36 310.35C432.19 306.64 433.81 301.27 435.29 296.14C438.66 284.43 442.06 272.14 439.55 260.22C438.944 256.604 437.357 253.224 434.96 250.45C432.46 247.81 428.6 246.24 425.08 247.17C420.91 248.27 418.32 252.35 416.45 256.23C410.932 267.705 408.045 280.267 408 293C408 298.92 408.67 305.13 412 310Z" fill="#EBEBEB"/>
<path d="M400.35 318.75C404.97 313.26 405.85 305.27 403.79 298.4C401.73 291.53 397.09 285.69 391.74 280.92C385.442 275.315 378.112 270.991 370.16 268.19C367.084 266.946 363.775 266.383 360.46 266.54C357.17 266.86 353.85 268.54 352.32 271.47C350.05 275.8 352.22 281.05 354.58 285.34C358.732 292.893 363.469 300.108 368.75 306.92C373 312.4 377.86 317.8 384.34 320.27C390.82 322.74 397.54 322.46 400.97 317.97" fill="#EBEBEB"/>
<path d="M411.75 401.68C411.97 400.775 412.097 399.85 412.13 398.92C412.33 396.92 412.57 394.39 412.86 391.39C413.237 387.677 413.805 383.985 414.56 380.33C415.544 375.897 416.882 371.55 418.56 367.33C420.205 363.099 422.448 359.125 425.22 355.53C427.468 352.597 430.346 350.205 433.64 348.53C435.871 347.422 438.264 346.676 440.73 346.32C441.658 346.285 442.58 346.151 443.48 345.92C442.549 345.818 441.611 345.818 440.68 345.92C438.122 346.114 435.619 346.764 433.29 347.84C429.825 349.48 426.783 351.896 424.4 354.9C421.525 358.54 419.2 362.584 417.5 366.9C415.784 371.195 414.445 375.632 413.5 380.16C412.783 383.857 412.292 387.594 412.03 391.35C411.79 394.55 411.7 397.14 411.66 398.93C411.59 399.847 411.62 400.769 411.75 401.68Z" fill="#E0E0E0"/>
<path d="M412.26 395.88C412.341 395.458 412.368 395.028 412.34 394.6C412.34 393.6 412.34 392.43 412.34 390.94C412.34 387.76 412.34 383.16 412.5 377.48C412.78 366.12 413.76 353.89 415.65 336.65C417.44 320.43 419.84 301.57 422.38 289.3C422.92 286.51 423.47 284 423.98 281.8C424.49 279.6 424.89 277.7 425.3 276.16C425.71 274.62 425.93 273.54 426.16 272.6C426.284 272.19 426.358 271.767 426.38 271.34C426.183 271.72 426.031 272.123 425.93 272.54L424.87 276.05C424.4 277.57 423.92 279.46 423.36 281.66C422.8 283.86 422.18 286.35 421.59 289.13C418.452 303.637 416.092 318.301 414.52 333.06C412.62 350.34 411.77 366.06 411.7 377.46C411.63 383.16 411.75 387.77 411.9 390.95C411.99 392.44 412.06 393.65 412.12 394.61C412.121 395.037 412.168 395.463 412.26 395.88Z" fill="#E0E0E0"/>
<path d="M412.34 365.54C412.445 364.268 412.445 362.991 412.34 361.72C412.125 358.245 411.734 354.784 411.17 351.35C410.333 346.253 409.208 341.209 407.8 336.24C406.154 330.13 404.041 324.156 401.48 318.37C396.24 305.94 389.13 295.78 382.93 289.48C381.564 288.039 380.107 286.686 378.57 285.43C377.9 284.86 377.31 284.3 376.7 283.85L375 282.68C373.982 281.91 372.905 281.222 371.78 280.62C371.6 280.87 376.34 283.62 382.34 290.04C388.34 296.46 395.23 306.5 400.43 318.82C402.939 324.575 405.061 330.491 406.78 336.53C408.229 341.466 409.427 346.472 410.37 351.53C411.16 355.84 411.62 359.36 411.89 361.79C411.943 363.049 412.094 364.303 412.34 365.54Z" fill="#E0E0E0"/>
<path d="M383.02 419.06L386.06 460.71H439.56L442.6 419.06H383.02Z" fill="#E0E0E0"/>
<path d="M448.99 402.65H377.85V419.07H448.99V402.65Z" fill="#E0E0E0"/>
<path d="M377.85 459.12V463.67H381.19H447.81V459.12H377.85Z" fill="#EBEBEB"/>
<path d="M384.47 471.68L381.19 463.67H445.26L441.44 471.68H384.47Z" fill="#E0E0E0"/>
<path d="M441.61 432.67C441.544 432.81 441.46 432.941 441.36 433.06L440.56 434.12L437.44 438.12L437.3 438.29L437.17 438.11L429.51 427.52H430C427.73 430.74 425.19 434.34 422.46 438.19L422.23 438.53L421.96 438.21L413 427.56H413.52L413.02 428.18L405.02 438.18L404.75 438.51L404.51 438.17L396.96 427.49H397.4C393.69 431.73 390.53 435.32 388.11 438.08L387.95 438.27L387.82 438.05L384.91 433.17L384.17 431.87C384.073 431.724 383.996 431.566 383.94 431.4C384.06 431.523 384.164 431.661 384.25 431.81L385.08 433.07L388.13 437.86H387.84L397 427.17L397.23 426.9L397.44 427.19L405 437.81H404.49L412.49 427.81L412.99 427.19L413.24 426.87L413.5 427.19L422.42 437.85H421.92L429.53 427.22L429.76 426.91L429.97 427.22L437.47 437.93H437.2L440.44 434.04L441.31 433.04C441.401 432.909 441.501 432.786 441.61 432.67Z" fill="#F5F5F5"/>
<path d="M443.35 418.79C443.35 418.97 429.94 419.12 413.41 419.12C396.88 419.12 383.41 418.97 383.41 418.79C383.41 418.61 396.82 418.45 413.41 418.45C430 418.45 443.35 418.6 443.35 418.79Z" fill="#F5F5F5"/>
<path d="M446.05 464.12C446.05 464.3 431.48 464.45 413.51 464.45C395.54 464.45 381 464.3 381 464.12C381 463.94 395.56 463.79 413.54 463.79C431.52 463.79 446.05 463.93 446.05 464.12Z" fill="#F5F5F5"/>
<path d="M277.19 72.2198L283.32 70.4598C283.32 70.4598 284.8 75.6098 290.18 74.1598C291.221 73.901 292.155 73.325 292.854 72.5115C293.553 71.6981 293.981 70.6876 294.08 69.6198C294.174 68.7212 294.053 67.8131 293.728 66.9701C293.403 66.1271 292.883 65.3731 292.21 64.7698C290.68 63.3598 287.95 62.4498 284.03 64.3698L280.03 50.5398L286.09 48.7998L288.42 56.8998C291.121 56.9084 293.744 57.8035 295.886 59.4475C298.029 61.0915 299.573 63.3935 300.28 65.9998C302.85 74.9998 295.41 79.3598 291.96 80.3498C289.33 81.1298 280.18 83.0698 277.19 72.2198Z" fill="#EBEBEB"/>
<path d="M283.726 40.1654L277.574 41.9316L279.225 47.6794L285.376 45.9132L283.726 40.1654Z" fill="#EBEBEB"/>
<path d="M453.11 159.51L447.53 156.42C447.53 156.42 450.12 151.73 445.3 148.95C444.379 148.386 443.303 148.127 442.226 148.21C441.149 148.292 440.125 148.712 439.3 149.41C438.598 149.976 438.041 150.702 437.675 151.526C437.308 152.35 437.142 153.249 437.19 154.15C437.27 156.23 438.56 158.8 442.69 160.22L435.69 172.81L430.17 169.75L434.26 162.38C432.361 160.461 431.144 157.971 430.799 155.293C430.454 152.615 430.999 149.897 432.35 147.56C436.87 139.4 445.24 141.56 448.35 143.29C450.83 144.62 458.67 149.72 453.11 159.51Z" fill="#EBEBEB"/>
<path d="M425.813 177.555L431.412 180.656L434.309 175.425L428.711 172.324L425.813 177.555Z" fill="#EBEBEB"/>
<path d="M54.5901 418.89L62.4101 470.31H107.87L118.42 419.63L54.5901 418.89Z" fill="#EBEBEB"/>
<path d="M112.06 451.84C112.06 451.99 100.41 452.11 86.0601 452.11C71.7101 452.11 60.0601 451.99 60.0601 451.84C60.0601 451.69 71.7101 451.57 86.0601 451.57C100.41 451.57 112.06 451.69 112.06 451.84Z" fill="#FAFAFA"/>
<path d="M112.24 449.31C112.24 449.46 100.51 449.58 86.0501 449.58C71.5901 449.58 59.8601 449.46 59.8601 449.31C59.8601 449.16 71.5801 449.05 86.0501 449.05C100.52 449.05 112.24 449.16 112.24 449.31Z" fill="#FAFAFA"/>
<path d="M112.15 446.46C112.15 446.6 100.42 446.72 85.96 446.72C71.5 446.72 59.77 446.6 59.77 446.46C59.77 446.32 71.49 446.19 85.96 446.19C100.43 446.19 112.15 446.31 112.15 446.46Z" fill="#FAFAFA"/>
<path d="M67.6301 467.37C66.9947 465.254 66.5298 463.09 66.2401 460.9C65.7689 458.737 65.4779 456.54 65.3701 454.33C66.0034 456.45 66.4682 458.616 66.7601 460.81C67.2305 462.969 67.5215 465.163 67.6301 467.37Z" fill="#FAFAFA"/>
<path d="M70.7201 466.83C70.4026 464.737 70.2156 462.626 70.1601 460.51C69.9245 458.405 69.8243 456.287 69.8601 454.17C70.3622 456.234 70.6405 458.346 70.6901 460.47C70.9248 462.583 70.9349 464.715 70.7201 466.83Z" fill="#FAFAFA"/>
<path d="M76.36 466.82C75.2978 462.552 74.7837 458.167 74.83 453.77C75.4934 458.1 76.0037 462.453 76.36 466.82Z" fill="#FAFAFA"/>
<path d="M80.32 467.09C79.624 462.732 79.4795 458.304 79.89 453.91C80.1275 456.098 80.2377 458.298 80.22 460.5C80.3768 462.693 80.4102 464.893 80.32 467.09Z" fill="#FAFAFA"/>
<path d="M87.32 466.83C86.9839 464.764 86.8233 462.673 86.84 460.58C86.6771 458.495 86.6972 456.401 86.9 454.32C87.2306 456.383 87.3878 458.47 87.37 460.56C87.5325 462.647 87.5158 464.745 87.32 466.83Z" fill="#FAFAFA"/>
<path d="M92.4401 467.1C92.1857 464.956 92.1121 462.795 92.2201 460.64C92.1481 458.481 92.2552 456.32 92.5401 454.18C92.7882 456.324 92.8585 458.484 92.75 460.64C92.822 462.798 92.7183 464.958 92.4401 467.1Z" fill="#FAFAFA"/>
<path d="M97.2301 466.41C97.188 464.153 97.3184 461.897 97.6201 459.66C97.7465 457.406 98.0542 455.165 98.5401 452.96C98.5821 455.217 98.4517 457.473 98.1501 459.71C98.0217 461.964 97.714 464.205 97.2301 466.41Z" fill="#FAFAFA"/>
<path d="M103.42 465.74C103.43 463.799 103.686 461.867 104.18 459.99C104.511 458.08 105.079 456.219 105.87 454.45C105.594 456.358 105.204 458.248 104.7 460.11C104.376 462.008 103.949 463.888 103.42 465.74Z" fill="#FAFAFA"/>
<path d="M49.3701 408.7V418.33C49.3701 418.827 49.4682 419.319 49.6588 419.779C49.8494 420.238 50.1287 420.655 50.4808 421.006C50.8329 421.357 51.2507 421.635 51.7105 421.825C52.1703 422.014 52.6629 422.111 53.1601 422.11H119C120.004 422.11 120.966 421.712 121.677 421.003C122.387 420.295 122.787 419.333 122.79 418.33V408.7H49.3701Z" fill="#EBEBEB"/>
<path d="M116.36 429.51L117.9 422.11H55.0801L55.6201 425.18" fill="#E0E0E0"/>
<path d="M59.2801 408.75C59.2801 408.75 33.6901 379.25 36.5301 378.18C39.3701 377.11 62.1201 393.47 62.1201 393.47C62.1201 393.47 42.5801 349.75 46.4901 346.55C50.4001 343.35 71.0001 385.29 71.0001 385.29C71.0001 385.29 67.8001 324.16 71.0001 323.45C74.2001 322.74 85.9301 384.58 85.9301 384.58C85.9301 384.58 103.35 328.07 108.32 328.07C113.29 328.07 103 382.45 103 382.45C103 382.45 123.62 347.62 126.82 352.24C130.02 356.86 112.24 394.53 112.24 394.53C112.24 394.53 138.24 372.85 139.24 375.7C140.24 378.55 111.16 408.75 111.16 408.75H59.2801Z" fill="#F5F5F5"/>
<path d="M55.7101 364.32C55.8901 364.24 60.4301 373.97 65.8501 386.06C71.2701 398.15 75.5201 408 75.3501 408.06C75.1801 408.12 70.6301 398.41 65.2101 386.32C59.7901 374.23 55.5301 364.4 55.7101 364.32Z" fill="#E0E0E0"/>
<path d="M76.38 369.76C76.58 369.76 77.38 378.32 78.07 388.92C78.76 399.52 79.25 408.11 79.07 408.12C78.89 408.13 78.13 399.56 77.39 388.96C76.65 378.36 76.19 369.77 76.38 369.76Z" fill="#E0E0E0"/>
<path d="M104.9 342.38C104.885 342.616 104.835 342.849 104.75 343.07C104.6 343.59 104.42 344.24 104.19 345.02C103.65 346.8 102.93 349.21 102.05 352.14C100.25 358.14 97.82 366.48 95.35 375.73C92.88 384.98 90.8301 393.42 89.4001 399.53C88.7101 402.53 88.13 404.96 87.71 406.77C87.52 407.56 87.3601 408.21 87.2301 408.77C87.1872 409.001 87.1166 409.226 87.02 409.44C87.0077 409.204 87.0313 408.968 87.09 408.74C87.19 408.2 87.3001 407.55 87.4401 406.74C87.7601 405.01 88.26 402.52 88.92 399.44C90.23 393.3 92.2 384.84 94.67 375.57C97.14 366.3 99.6701 357.99 101.58 352.01C102.58 349.01 103.34 346.61 103.93 344.95C104.21 344.19 104.43 343.56 104.62 343.05C104.684 342.815 104.778 342.59 104.9 342.38Z" fill="#E0E0E0"/>
<path d="M117.23 373.89C117.39 374 112.4 381.45 106.08 390.53C99.7602 399.61 94.5002 406.87 94.3402 406.76C94.1802 406.65 99.1802 399.2 105.5 390.13C111.82 381.06 117.08 373.78 117.23 373.89Z" fill="#E0E0E0"/>
<path d="M67.9201 408.13C67.1033 407.702 66.3495 407.164 65.6801 406.53C63.9779 405.118 62.3522 403.615 60.8101 402.03C59.262 400.445 57.8031 398.776 56.4401 397.03C55.8141 396.352 55.2948 395.584 54.9001 394.75C55.0601 394.62 57.7201 397.85 61.3101 401.52C64.9001 405.19 68.0501 408 67.9201 408.13Z" fill="#E0E0E0"/>
<path d="M83.46 396.41C83.65 396.41 84.06 399.11 84.37 402.49C84.68 405.87 84.77 408.62 84.58 408.64C84.39 408.66 83.98 405.93 83.67 402.56C83.36 399.19 83.27 396.42 83.46 396.41Z" fill="#E0E0E0"/>
<path d="M360 280.15C359.617 279.404 359.392 278.587 359.34 277.75C359.094 275.722 359.337 273.664 360.05 271.75C360.757 269.845 361.901 268.133 363.39 266.75C363.977 266.149 364.682 265.675 365.46 265.36C365.52 265.44 364.72 265.95 363.67 267.03C362.305 268.433 361.248 270.106 360.57 271.942C359.891 273.778 359.605 275.736 359.73 277.69C359.85 279.21 360.12 280.12 360 280.15Z" fill="#FAFAFA"/>
<path d="M361.49 285.83C361.34 285.83 361.08 285.3 360.92 284.57C360.76 283.84 360.73 283.22 360.92 283.19C361.11 283.16 361.33 283.72 361.49 284.45C361.65 285.18 361.64 285.79 361.49 285.83Z" fill="#FAFAFA"/>
<path d="M353.48 215.11C355.46 217.792 357.299 220.576 358.99 223.45C360.834 226.232 362.53 229.109 364.07 232.07C362.086 229.385 360.243 226.597 358.55 223.72C356.713 220.939 355.021 218.065 353.48 215.11Z" fill="#263238"/>
<path d="M348 202.36C348 202.21 348.77 202.36 349.06 203.2C349.35 204.04 348.93 204.61 348.81 204.52C348.69 204.43 348.81 203.94 348.57 203.38C348.33 202.82 347.91 202.5 348 202.36Z" fill="#263238"/>
<path d="M369.78 190.84C369.92 190.84 371.17 199.39 372.58 209.98C373.99 220.57 375 229.18 374.86 229.2C374.72 229.22 373.46 220.65 372.06 210.05C370.66 199.45 369.63 190.85 369.78 190.84Z" fill="#263238"/>
<path d="M401.46 208.52C401.59 208.58 399.54 213.73 396.87 220.03C394.2 226.33 391.94 231.38 391.8 231.33C391.66 231.28 393.72 226.12 396.39 219.82C399.06 213.52 401.33 208.47 401.46 208.52Z" fill="#263238"/>
<path d="M405.69 199.42C405.82 199.48 405.69 200.01 405.49 200.6C405.29 201.19 404.93 201.6 404.8 201.6C404.67 201.6 404.8 201.02 405 200.43C405.2 199.84 405.55 199.37 405.69 199.42Z" fill="#263238"/>
<path d="M428.22 221.51C428.3 221.63 422.51 225.7 415.3 230.61C408.09 235.52 402.17 239.4 402.09 239.29C402.01 239.18 407.79 235.09 415.01 230.18C422.23 225.27 428.14 221.39 428.22 221.51Z" fill="#263238"/>
<path d="M417.39 244.68C415.54 244.99 413.666 245.134 411.79 245.11C409.918 245.254 408.036 245.221 406.17 245.01C408.02 244.7 409.894 244.56 411.77 244.59C413.642 244.445 415.524 244.475 417.39 244.68Z" fill="#263238"/>
<path d="M357.45 241.25C357.37 241.37 351.45 237.62 344.2 232.87C336.95 228.12 331.15 224.17 331.2 224.05C331.25 223.93 337.2 227.68 344.45 232.43C351.7 237.18 357.53 241.13 357.45 241.25Z" fill="#263238"/>
<path d="M350.94 248.59C349.123 248.647 347.305 248.529 345.51 248.24C343.697 248.117 341.899 247.826 340.14 247.37C341.957 247.313 343.775 247.43 345.57 247.72C347.383 247.841 349.181 248.133 350.94 248.59Z" fill="#263238"/>
<path d="M108.86 275.07C108.96 275.18 108.63 275.64 108.39 276.26C108.15 276.88 108.05 277.44 107.91 277.45C107.77 277.46 107.6 276.81 107.91 276.07C108.22 275.33 108.78 275 108.86 275.07Z" fill="white"/>
<path d="M92.3901 228.13C94.369 230.815 96.2113 233.599 97.9101 236.47C99.7463 239.255 101.438 242.132 102.98 245.09C100.999 242.406 99.1561 239.623 97.4601 236.75C95.6215 233.967 93.9292 231.089 92.3901 228.13Z" fill="#263238"/>
<path d="M86.8801 215.38C86.8801 215.24 87.6401 215.43 87.9301 216.22C88.2201 217.01 87.8001 217.63 87.6801 217.54C87.5601 217.45 87.6801 216.97 87.4401 216.4C87.2001 215.83 86.8201 215.52 86.8801 215.38Z" fill="#263238"/>
<path d="M108.69 203.86C108.83 203.86 110.08 212.41 111.49 223.01C112.9 233.61 113.91 242.2 113.77 242.22C113.63 242.24 112.38 233.67 110.97 223.07C109.56 212.47 108.54 203.88 108.69 203.86Z" fill="#263238"/>
<path d="M140.37 221.55C140.5 221.55 138.45 226.75 135.78 233.05C133.11 239.35 130.85 244.41 130.71 244.35C130.57 244.29 132.64 239.14 135.3 232.85C137.96 226.56 140.24 221.49 140.37 221.55Z" fill="#263238"/>
<path d="M144.6 212.45C144.73 212.5 144.6 213.03 144.4 213.62C144.2 214.21 143.85 214.62 143.71 214.62C143.57 214.62 143.71 214.04 143.92 213.44C144.13 212.84 144.47 212.39 144.6 212.45Z" fill="#263238"/>
<path d="M167.13 234.53C167.21 234.65 161.43 238.73 154.21 243.63C146.99 248.53 141.08 252.43 141 252.31C140.92 252.19 146.7 248.11 153.92 243.2C161.14 238.29 167.05 234.41 167.13 234.53Z" fill="#263238"/>
<path d="M156.3 257.7C154.451 258.022 152.576 258.166 150.7 258.13C148.828 258.268 146.947 258.238 145.08 258.04C146.929 257.718 148.804 257.574 150.68 257.61C152.552 257.471 154.433 257.501 156.3 257.7Z" fill="#263238"/>
<path d="M96.3601 254.27C96.2801 254.39 90.3601 250.64 83.1101 245.89C75.8601 241.14 70.1101 237.19 70.1101 237.07C70.1101 236.95 76.1101 240.7 83.3601 245.46C90.6101 250.22 96.4401 254.15 96.3601 254.27Z" fill="#263238"/>
<path d="M89.8501 261.61C88.0363 261.672 86.2207 261.555 84.4301 261.26C82.6153 261.151 80.8162 260.86 79.0601 260.39C80.874 260.34 82.6886 260.461 84.4801 260.75C86.2935 260.864 88.0917 261.152 89.8501 261.61Z" fill="#263238"/>
<path d="M460.34 470.28C460.34 470.43 364.82 470.54 247.01 470.54C129.2 470.54 33.6599 470.43 33.6599 470.28C33.6599 470.13 129.16 470 247 470C364.84 470 460.34 470.14 460.34 470.28Z" fill="#263238"/>
<path d="M305.81 237.91L301.12 149.42C300.74 142.23 300.34 134.94 298.12 128.09C295.9 121.24 291.63 114.75 285.24 111.43C278.85 108.11 270.24 108.68 265.24 113.95L268.71 118.73C265.883 172.91 264.683 227.133 265.11 281.4C265.11 285.46 265.27 289.81 267.65 293.1C271.65 298.62 279.75 298.56 286.55 297.95C292.36 297.42 298.96 296.44 302.21 291.59C303.45 289.508 304.25 287.193 304.56 284.79C307.46 269.39 306.64 253.56 305.81 237.91Z" fill="#263238"/>
<path d="M257.06 119.08C258.9 115.08 264.25 113.4 268.48 114.77C272.71 116.14 275.86 119.85 277.73 123.89C278.56 125.532 279.011 127.34 279.05 129.18C279.061 130.098 278.858 131.007 278.457 131.833C278.056 132.659 277.468 133.381 276.74 133.94C275.92 134.451 274.984 134.747 274.019 134.8C273.053 134.852 272.091 134.66 271.22 134.24C269.487 133.377 268.042 132.029 267.06 130.36" fill="#FF5600"/>
<path d="M294.54 171C292.82 151.9 282.72 133.32 266.54 123C250.36 112.68 228.24 111.66 212.05 121.94C201.75 128.48 194.35 138.94 190.1 150.4C185.85 161.86 187.69 171.29 187.79 183.48C187.79 189.8 188.64 206.78 194.09 209.97L279.18 225.24C290.09 209.43 296.26 190.05 294.54 171Z" fill="#263238"/>
<path d="M237.48 126C213.02 126.25 193.34 146.2 192.17 170.2C191.17 191.2 190.58 212.43 191.47 220.01C194.15 242.88 214.47 252.77 220.82 253.33C221.47 253.39 221.21 253.33 220.89 253.33C220.913 253.345 220.933 253.366 220.947 253.39C220.96 253.415 220.968 253.442 220.97 253.47L218.52 280.28C217.97 297.75 234.77 397.28 252.52 397.96C270.27 398.64 277.29 298.8 278.18 281.29L283.5 171.69C284.09 146.58 263.42 125.77 237.48 126Z" fill="#9A4E27"/>
<path d="M220.89 253.4C220.89 253.4 220.89 253.4 220.82 253.4C220.06 253.34 220.51 253.38 220.89 253.4Z" fill="#9A4E27"/>
<path d="M198.92 186.62C198.879 187.58 199.214 188.518 199.855 189.233C200.496 189.949 201.391 190.386 202.35 190.45C202.82 190.511 203.298 190.478 203.755 190.352C204.213 190.226 204.64 190.01 205.013 189.717C205.385 189.423 205.696 189.058 205.925 188.643C206.155 188.228 206.299 187.771 206.35 187.3C206.397 186.34 206.064 185.401 205.424 184.685C204.784 183.968 203.889 183.532 202.93 183.47C202.459 183.409 201.981 183.442 201.523 183.568C201.065 183.693 200.637 183.909 200.263 184.203C199.89 184.496 199.579 184.861 199.348 185.276C199.117 185.691 198.972 186.148 198.92 186.62Z" fill="#263238"/>
<path d="M198.1 176.51C198.32 177.12 201.71 176.62 205.3 178.38C208.89 180.14 210.73 183.1 211.3 182.88C211.58 182.79 211.51 181.88 210.74 180.52C209.649 178.737 208.06 177.312 206.17 176.42C204.318 175.486 202.225 175.137 200.17 175.42C198.72 175.69 198 176.23 198.1 176.51Z" fill="#263238"/>
<path d="M237.37 187.89C237.323 188.85 237.656 189.789 238.296 190.505C238.935 191.222 239.831 191.658 240.79 191.72C241.26 191.78 241.737 191.746 242.194 191.619C242.651 191.493 243.078 191.277 243.45 190.983C243.822 190.69 244.133 190.326 244.363 189.911C244.593 189.497 244.738 189.041 244.79 188.57C244.831 187.61 244.496 186.672 243.855 185.957C243.214 185.241 242.318 184.804 241.36 184.74C240.89 184.68 240.414 184.714 239.957 184.841C239.501 184.968 239.075 185.184 238.704 185.477C238.332 185.771 238.023 186.135 237.794 186.549C237.565 186.964 237.421 187.419 237.37 187.89Z" fill="#263238"/>
<path d="M237.48 182.63C238.09 182.91 240.48 180.21 244.59 178.97C248.7 177.73 252.32 178.57 252.59 177.97C252.75 177.71 252.03 177.09 250.45 176.68C248.268 176.164 245.988 176.247 243.85 176.92C241.736 177.54 239.833 178.73 238.35 180.36C237.38 181.61 237.19 182.51 237.48 182.63Z" fill="#263238"/>
<path d="M221.72 206.77C221.72 206.55 219.28 206.03 215.27 205.37C214.27 205.22 213.27 204.99 213.15 204.29C213.03 203.59 213.41 202.49 213.96 201.34L217.32 193.81C222 183.07 225.43 174.23 224.99 174.05C224.55 173.87 220.4 182.43 215.72 193.16C214.59 195.81 213.51 198.33 212.49 200.74C212.05 201.87 211.33 203.14 211.78 204.67C211.917 205.031 212.133 205.356 212.414 205.621C212.695 205.886 213.032 206.084 213.4 206.2C213.962 206.373 214.543 206.477 215.13 206.51C219.18 206.88 221.7 207 221.72 206.77Z" fill="#263238"/>
<path d="M221 253.38C221 253.38 236.41 255.22 256.25 244.54C256.25 244.54 249.25 264.39 220.34 260.6L221 253.38Z" fill="#8C3F17"/>
<path d="M237.13 162.52C237.61 163.52 241.56 162.72 246.28 162.89C251 163.06 254.9 164 255.45 162.99C255.69 162.51 254.95 161.56 253.35 160.65C251.192 159.545 248.813 158.94 246.39 158.88C243.966 158.819 241.56 159.304 239.35 160.3C237.72 161.12 236.92 162 237.13 162.52Z" fill="#263238"/>
<path d="M198 170.39C198.67 171.31 201.47 170.49 204.79 170.58C208.11 170.67 210.89 171.41 211.58 170.5C211.88 170.06 211.48 169.15 210.28 168.26C208.663 167.186 206.769 166.605 204.828 166.589C202.887 166.573 200.984 167.122 199.35 168.17C198.13 169 197.7 170 198 170.39Z" fill="#263238"/>
<path d="M262.44 181.91C262.56 181.97 262.02 183.06 260.77 183.78C260.42 184.037 260.021 184.22 259.598 184.316C259.175 184.412 258.736 184.421 258.31 184.34C258.31 184.18 259.38 184.01 260.5 183.34C261.62 182.67 262.32 181.82 262.44 181.91Z" fill="#8C3F17"/>
<path d="M263.05 186.45C262.99 186.58 262.05 186.21 260.79 186.11C260.03 186.152 259.269 186.152 258.51 186.11C259.191 185.653 260.025 185.485 260.83 185.64C262.19 185.7 263.13 186.33 263.05 186.45Z" fill="#8C3F17"/>
<path d="M196.49 184.88C196.49 185.02 195.69 185 194.76 184.88C193.83 184.76 193.11 184.47 193.13 184.33C193.15 184.19 193.93 184.2 194.85 184.33C195.77 184.46 196.51 184.74 196.49 184.88Z" fill="#8C3F17"/>
<path d="M195.68 185.06C195.77 185.17 195.35 185.62 194.75 186.06C194.15 186.5 193.59 186.76 193.51 186.64C193.43 186.52 193.84 186.08 194.44 185.64C195.04 185.2 195.6 184.94 195.68 185.06Z" fill="#8C3F17"/>
<path d="M243.56 217C243.721 215.856 243.562 214.691 243.101 213.632C242.641 212.573 241.896 211.662 240.95 211C240.95 210.95 241.39 211 241.95 211.41C242.665 211.916 243.228 212.607 243.58 213.41C243.935 214.217 244.06 215.106 243.94 215.98C243.84 216.62 243.62 217 243.56 217Z" fill="#8C3F17"/>
<path d="M209.53 127.93C204.426 131.432 200.107 135.957 196.847 141.218C193.586 146.479 191.455 152.361 190.59 158.49L192.27 168.75C192.89 164.04 193.19 158.75 198.09 153.62C201.38 150.19 207.47 146.97 213.93 145.33C232.42 140.62 238.65 133.91 246.81 121.83C234.84 118.83 219.75 121 209.53 127.93Z" fill="#263238"/>
<path d="M289.34 155.05C284.19 136.52 267.34 121.81 248.34 119.17L246.83 121.83L232.83 138.25C231.66 139.61 230.44 141.08 230.18 142.85C229.83 145.23 231.3 147.54 233.18 149.07C237.63 152.71 243.87 152.94 249.62 153.07C255.37 153.2 261.62 153.7 265.85 157.64C271.07 162.55 270.96 170.88 269.2 177.83C267.394 186.124 266.815 194.638 267.48 203.1C268.12 209.49 276.57 193.97 282.12 197.19C283.67 198.09 279.49 223.19 281.12 222.39C282.75 221.59 282.56 212.61 283.12 210.93C285.97 201.85 288.83 192.73 290.35 183.34C291.87 173.95 291.89 164.22 289.34 155.05Z" fill="#263238"/>
<path d="M273.59 203.25C274.02 197.25 280.69 193.32 285.86 196.46C288.7 198.18 290.86 201.57 290.42 207.98C289.35 225.06 272.42 220.46 272.42 219.98C272.42 219.67 273.09 210.31 273.59 203.25Z" fill="#9A4E27"/>
<path d="M278 213.81C278.08 213.76 278.29 214.04 278.77 214.31C279.458 214.656 280.253 214.724 280.99 214.5C282.84 213.96 284.55 211.19 284.84 208.12C284.982 206.66 284.794 205.187 284.29 203.81C284.166 203.264 283.91 202.757 283.546 202.332C283.182 201.907 282.72 201.577 282.2 201.37C281.864 201.257 281.499 201.266 281.169 201.394C280.838 201.521 280.563 201.761 280.39 202.07C280.13 202.53 280.22 202.88 280.13 202.9C280.04 202.92 279.78 202.59 279.96 201.9C280.09 201.492 280.354 201.139 280.71 200.9C281.204 200.581 281.803 200.466 282.38 200.58C283.071 200.765 283.703 201.125 284.216 201.623C284.729 202.122 285.105 202.744 285.31 203.43C285.939 204.958 286.186 206.615 286.03 208.26C285.69 211.7 283.71 214.8 281.2 215.35C280.733 215.45 280.249 215.446 279.784 215.337C279.319 215.228 278.884 215.017 278.51 214.72C278 214.23 278 213.84 278 213.81Z" fill="#8C3F17"/>
<path d="M277.91 132.62C280.207 135.295 282.246 138.181 284 141.24C285.939 144.537 287.611 147.985 289 151.55C290.697 155.921 291.973 160.445 292.81 165.06C294.361 173.461 294.269 182.083 292.54 190.45C292.399 191.212 292.218 191.966 292 192.71C291.8 193.42 291.62 194.09 291.45 194.71C291.167 195.784 290.816 196.839 290.4 197.87C290.1 198.69 289.85 199.34 289.66 199.87C289.586 200.102 289.488 200.326 289.37 200.54C289.416 200.298 289.483 200.06 289.57 199.83C289.73 199.32 289.94 198.66 290.21 197.83C290.598 196.791 290.931 195.733 291.21 194.66C291.37 194.03 291.53 193.36 291.71 192.66C291.924 191.917 292.094 191.162 292.22 190.4C293.833 182.077 293.874 173.527 292.34 165.19C291.506 160.608 290.254 156.113 288.6 151.76C287.236 148.208 285.604 144.765 283.72 141.46C283.32 140.75 282.93 140.08 282.57 139.46C282.21 138.84 281.79 138.27 281.44 137.72L280.44 136.21C280.14 135.75 279.82 135.35 279.56 134.98L278.33 133.28C278.169 133.074 278.028 132.853 277.91 132.62Z" fill="#455A64"/>
<path d="M279.56 137.82C279.557 137.997 279.526 138.172 279.47 138.34C279.324 138.835 279.094 139.302 278.79 139.72C277.567 141.167 275.936 142.213 274.11 142.72C271.85 143.46 269.11 144.13 266.11 144.8C262.815 145.523 259.473 146.014 256.11 146.27C252.725 146.523 249.324 146.422 245.96 145.97C243.209 145.598 240.506 144.927 237.9 143.97C236.146 143.331 234.455 142.531 232.85 141.58C232.28 141.25 231.85 140.96 231.57 140.76C231.29 140.56 231.14 140.45 231.15 140.43C231.16 140.41 231.79 140.79 232.95 141.43C234.582 142.305 236.281 143.051 238.03 143.66C240.626 144.554 243.306 145.181 246.03 145.53C249.363 145.944 252.73 146.028 256.08 145.78C262.178 145.26 268.208 144.127 274.08 142.4C275.861 141.938 277.47 140.969 278.71 139.61C279.082 139.059 279.368 138.456 279.56 137.82Z" fill="#455A64"/>
<path d="M276.48 131.92C276.48 131.92 276.4 132.06 276.2 132.27C275.916 132.589 275.616 132.893 275.3 133.18C274.146 134.244 272.874 135.173 271.51 135.95C266.942 138.453 261.809 139.745 256.6 139.7C251.434 139.626 246.298 138.908 241.31 137.56C239.39 137.08 237.85 136.65 236.79 136.34C236.234 136.204 235.689 136.026 235.16 135.81C235.727 135.881 236.288 135.992 236.84 136.14L241.39 137.2C246.369 138.436 251.471 139.107 256.6 139.2C261.726 139.235 266.783 138.016 271.33 135.65C273.172 134.589 274.898 133.339 276.48 131.92Z" fill="#455A64"/>
<path d="M273 130C272.612 130.178 272.206 130.315 271.79 130.41C271 130.66 269.84 130.95 268.4 131.25C260.849 132.814 253.053 132.77 245.52 131.12C244.08 130.8 242.93 130.5 242.15 130.24C241.731 130.146 241.325 130.001 240.94 129.81C241.367 129.846 241.789 129.927 242.2 130.05C243 130.24 244.2 130.49 245.6 130.76C253.105 132.196 260.809 132.241 268.33 130.89C269.77 130.64 270.94 130.4 271.74 130.22C272.149 130.095 272.573 130.022 273 130Z" fill="#455A64"/>
<path d="M250.19 115.47C250.092 115.89 249.951 116.298 249.77 116.69C249.344 117.777 248.863 118.841 248.33 119.88C244.824 126.806 239.674 132.766 233.33 137.24C232.379 137.919 231.394 138.549 230.38 139.13C230.018 139.362 229.632 139.557 229.23 139.71C229.536 139.422 229.871 139.167 230.23 138.95C230.92 138.5 231.9 137.82 233.07 136.95C239.244 132.36 244.34 126.476 248 119.71C248.71 118.42 249.24 117.36 249.59 116.61C249.744 116.207 249.945 115.824 250.19 115.47Z" fill="#455A64"/>
<path d="M189.49 152.15C189.49 152.15 189.57 151.99 189.78 151.71C189.99 151.43 190.29 151.02 190.71 150.51C191.883 149.061 193.128 147.673 194.44 146.35C196.383 144.371 198.505 142.576 200.78 140.99C202.136 140.065 203.549 139.227 205.01 138.48C206.585 137.693 208.216 137.025 209.89 136.48C215.781 134.578 221.997 133.897 228.16 134.48C230.018 134.654 231.863 134.954 233.68 135.38C234.32 135.52 234.81 135.67 235.15 135.76C235.324 135.797 235.492 135.858 235.65 135.94C235.65 135.94 234.93 135.82 233.65 135.58C231.829 135.232 229.989 134.988 228.14 134.85C222.028 134.389 215.884 135.119 210.05 137C204.254 138.978 198.999 142.278 194.7 146.64C193.02 148.28 191.7 149.64 190.87 150.64L189.87 151.78C189.63 152 189.5 152.17 189.49 152.15Z" fill="#455A64"/>
<path d="M202.31 133.8C202.72 133.472 203.159 133.181 203.62 132.93C204.133 132.601 204.664 132.301 205.21 132.03C205.85 131.7 206.56 131.3 207.4 130.96C208.289 130.538 209.201 130.164 210.13 129.84C211.13 129.44 212.21 129.13 213.35 128.78C218.353 127.367 223.568 126.855 228.75 127.27C229.94 127.39 231.07 127.49 232.11 127.68C233.15 127.87 234.11 128.04 235.01 128.25C235.91 128.46 236.67 128.68 237.36 128.88C237.951 129.04 238.532 129.233 239.1 129.46C239.599 129.617 240.084 129.814 240.55 130.05C240.035 129.964 239.53 129.83 239.04 129.65C238.56 129.5 237.98 129.32 237.28 129.16C236.58 129 235.81 128.76 234.93 128.61C234.05 128.46 233.09 128.24 232.05 128.11C231.01 127.98 229.89 127.86 228.71 127.75C226.151 127.589 223.583 127.626 221.03 127.86C218.482 128.127 215.958 128.588 213.48 129.24C212.35 129.58 211.26 129.87 210.28 130.24C209.3 130.61 208.37 130.95 207.55 131.24C206.73 131.53 205.99 131.94 205.35 132.24C204.71 132.54 204.16 132.82 203.72 133.06C203.271 133.345 202.8 133.593 202.31 133.8Z" fill="#455A64"/>
<path d="M287.11 218.11C287.43 217.94 287.93 218.11 288.51 218.73C289.312 219.636 289.845 220.748 290.05 221.94C290.212 222.826 290.212 223.734 290.05 224.62C289.861 225.729 289.42 226.779 288.76 227.69C288.009 228.728 287.003 229.554 285.84 230.09C284.458 230.744 282.889 230.889 281.41 230.5C279.967 230.102 278.698 229.237 277.8 228.04C277.032 227.029 276.527 225.844 276.33 224.59C276.181 223.599 276.231 222.588 276.477 221.616C276.722 220.645 277.158 219.731 277.76 218.93C278.456 217.951 279.402 217.177 280.5 216.69C281.27 216.38 281.81 216.42 282.03 216.69C282.5 217.26 281.55 218.69 281.03 220.69C280.737 221.645 280.737 222.665 281.03 223.62C281.156 224.045 281.378 224.437 281.677 224.764C281.977 225.091 282.347 225.347 282.76 225.51C283.118 225.598 283.494 225.577 283.84 225.45C284.288 225.281 284.699 225.026 285.05 224.7C285.746 224.005 286.199 223.104 286.34 222.13C286.74 220.11 286.45 218.44 287.11 218.11Z" fill="#FF5600"/>
<path d="M234.73 218C234.235 216.65 233.351 215.477 232.19 214.63C231.176 213.921 229.971 213.537 228.735 213.529C227.498 213.521 226.288 213.889 225.265 214.584C224.243 215.279 223.455 216.269 223.008 217.422C222.56 218.575 222.474 219.836 222.76 221.04L222.52 221.32C222.378 221.627 222.334 221.97 222.395 222.304C222.456 222.637 222.618 222.943 222.86 223.18C223.354 223.644 223.95 223.986 224.6 224.18C226.424 224.979 228.414 225.322 230.4 225.18C231.389 225.094 232.336 224.74 233.138 224.154C233.94 223.569 234.567 222.775 234.95 221.86C235.329 220.587 235.252 219.221 234.73 218Z" fill="#FF5600"/>
<path d="M236.2 216.43C236.2 216.89 232.79 217.29 228.9 218.81C225.01 220.33 222.19 222.29 221.9 221.94C221.77 221.78 222.32 221.05 223.44 220.14C226.428 217.789 230.056 216.395 233.85 216.14C235.3 216.06 236.19 216.23 236.2 216.43Z" fill="#263238"/>
<path d="M219 275L165.73 285.89C158.84 286.59 144.35 296.96 140.49 302.71C116.82 337.92 124.39 428.55 124.39 429.71L191.33 386.91L219 275Z" fill="#FF5600"/>
<path d="M164.05 286.75L219 275C219 275 238.48 387.77 252.52 387.5C266.56 387.23 287.52 267.64 287.52 267.64L337.23 283.77C337.23 283.77 327.52 366.84 325.23 381.65C322.94 396.46 319.5 470.28 319.5 470.28L193.68 470C193.68 470 191.59 412.23 183.24 383.76C174.89 355.29 164.05 286.75 164.05 286.75Z" fill="#FF5600"/>
<path d="M284 269.22L336.89 281.81C343.76 282.73 357.89 293.56 361.59 299.43C384.12 335.37 373.66 425.72 373.59 426.88L308.08 382L284 269.22Z" fill="#FF5600"/>
<path d="M265.58 403.37C265.464 403.546 265.326 403.707 265.17 403.85L263.91 405.17C262.81 406.31 261.18 407.91 259.13 409.86C255.03 413.77 249.19 418.98 242.41 424.33C235.63 429.68 229.18 434.13 224.41 437.2C222.03 438.73 220.08 439.94 218.72 440.74L217.15 441.66C216.973 441.781 216.782 441.878 216.58 441.95C216.74 441.81 216.91 441.683 217.09 441.57L218.61 440.57C219.94 439.72 221.86 438.46 224.2 436.89C228.9 433.75 235.29 429.25 242.06 423.89C248.83 418.53 254.7 413.4 258.86 409.57C260.94 407.65 262.6 406.09 263.75 404.99L265.08 403.75C265.234 403.607 265.401 403.479 265.58 403.37Z" fill="#263238"/>
<path d="M267.61 372.59C267.592 372.726 267.559 372.861 267.51 372.99C267.42 373.27 267.3 373.66 267.14 374.14C266.81 375.14 266.3 376.64 265.61 378.54C264.92 380.44 264.05 382.76 262.99 385.43C262.46 386.76 261.87 388.18 261.23 389.68C260.605 391.293 259.836 392.846 258.93 394.32C258.687 394.717 258.409 395.091 258.1 395.44C257.802 395.806 257.467 396.142 257.1 396.44C256.351 397.111 255.43 397.562 254.44 397.74C253.382 397.85 252.314 397.684 251.339 397.258C250.365 396.832 249.517 396.161 248.88 395.31C245.794 391.96 243.24 388.155 241.31 384.03C239.192 379.489 237.381 374.812 235.89 370.03C234.27 365.08 232.62 359.96 231.05 354.67C224.67 333.54 220.12 314.06 217.27 299.88C215.83 292.8 214.83 287.03 214.13 283.05C213.82 281.05 213.57 279.53 213.39 278.46C213.323 277.953 213.263 277.553 213.21 277.26C213.194 277.123 213.194 276.986 213.21 276.85C213.253 276.98 213.283 277.114 213.3 277.25L213.54 278.44C213.73 279.51 214.01 281.05 214.37 283.02C215.13 287.02 216.19 292.74 217.67 299.81C220.61 313.96 225.21 333.4 231.58 354.52C233.16 359.8 234.81 364.92 236.41 369.87C237.895 374.631 239.688 379.291 241.78 383.82C243.67 387.9 246.169 391.669 249.19 395C249.778 395.803 250.564 396.44 251.472 396.849C252.38 397.257 253.379 397.423 254.37 397.33C255.294 397.173 256.154 396.757 256.85 396.13C257.219 395.835 257.555 395.499 257.85 395.13C258.148 394.795 258.419 394.437 258.66 394.06C259.563 392.609 260.333 391.079 260.96 389.49C261.627 387.996 262.223 386.586 262.75 385.26C263.84 382.6 264.75 380.26 265.45 378.41C266.15 376.56 266.69 375.07 267.07 374.05L267.49 372.91C267.55 372.72 267.61 372.59 267.61 372.59Z" fill="#263238"/>
<path d="M206.84 304.63C206.278 303.055 205.4 301.613 204.26 300.39C203.684 299.786 202.965 299.336 202.171 299.081C201.376 298.826 200.53 298.774 199.71 298.93C198.1 299.35 196.71 300.83 195.11 300.67C192.91 300.45 192 297.61 190.03 296.62C189.547 296.417 189.025 296.324 188.502 296.348C187.979 296.372 187.467 296.512 187.005 296.758C186.542 297.004 186.141 297.35 185.828 297.77C185.516 298.191 185.302 298.676 185.2 299.19L185.45 299.26C184.454 299.757 183.686 300.616 183.3 301.66C183.218 301.918 183.188 302.191 183.211 302.461C183.235 302.732 183.311 302.995 183.437 303.235C183.562 303.476 183.734 303.689 183.942 303.864C184.15 304.038 184.391 304.169 184.65 304.25C186.04 304.5 187.23 302.89 188.65 303.08C190.21 303.3 190.65 305.44 191.89 306.34C193.39 307.41 195.45 306.47 197.03 305.54C198.61 304.61 200.72 303.72 202.17 304.84C202.851 305.542 203.376 306.38 203.71 307.3C204.17 308.16 205 309 205.96 308.86C206.366 308.756 206.728 308.524 206.991 308.198C207.254 307.871 207.405 307.469 207.42 307.05C207.422 306.208 207.223 305.379 206.84 304.63Z" fill="white"/>
<path d="M364.13 370.62C363.567 369.048 362.693 367.606 361.56 366.38C360.983 365.778 360.264 365.33 359.469 365.076C358.674 364.823 357.829 364.773 357.01 364.93C355.4 365.35 354.06 366.82 352.4 366.66C350.2 366.45 349.3 363.6 347.32 362.66C346.838 362.455 346.317 362.36 345.795 362.383C345.272 362.405 344.761 362.544 344.299 362.789C343.837 363.035 343.436 363.38 343.124 363.801C342.813 364.221 342.6 364.706 342.5 365.22L342.74 365.3C341.743 365.791 340.973 366.647 340.59 367.69C340.427 368.215 340.478 368.783 340.733 369.27C340.988 369.758 341.426 370.124 341.95 370.29C343.33 370.54 344.52 368.92 345.95 369.12C347.38 369.32 347.9 371.47 349.19 372.38C350.69 373.44 352.74 372.5 354.33 371.57C355.92 370.64 358.01 369.75 359.46 370.88C360.142 371.579 360.67 372.414 361.01 373.33C361.47 374.19 362.29 375.04 363.26 374.89C363.667 374.788 364.03 374.556 364.293 374.229C364.556 373.903 364.706 373.499 364.72 373.08C364.723 372.224 364.521 371.38 364.13 370.62Z" fill="white"/>
<path d="M180.45 338.88C181.67 339.88 183.6 339.11 184.52 337.88C185.44 336.65 185.73 335 186.33 333.55C186.93 332.1 188.09 330.65 189.66 330.6C190.28 330.6 190.89 330.79 191.5 330.71C193.1 330.52 193.84 328.71 194.73 327.37C196.2 325.14 199.21 323.77 201.67 324.84C204.13 325.91 204.93 329.84 202.72 331.35C200.77 332.68 197.57 331.81 196.26 333.77C194.95 335.73 196.69 338.6 195.16 340.25C193.63 341.9 190.56 340.46 188.73 341.8C187.13 342.97 187.53 345.54 188.66 347.17C189.79 348.8 191.48 350.07 192.23 351.91C193.64 355.34 191.23 359.19 188.39 361.56C187.522 362.39 186.424 362.94 185.24 363.14C182.79 363.35 180.91 361.02 179.91 358.77C178.593 355.758 177.961 352.492 178.058 349.207C178.155 345.922 178.978 342.699 180.47 339.77" fill="white"/>
<path d="M314.63 311.29C316.16 310.95 316.76 308.97 316.35 307.45C315.94 305.93 314.84 304.72 314.08 303.35C313.32 301.98 312.91 300.16 313.85 298.91C314.22 298.41 314.76 298.06 315.08 297.53C315.92 296.16 314.97 294.46 314.48 292.93C313.65 290.38 314.48 287.17 316.82 285.93C319.16 284.69 322.76 286.49 322.57 289.16C322.39 291.51 319.72 293.47 320.44 295.72C321.16 297.97 324.44 298.39 324.83 300.62C325.22 302.85 322.12 304.35 322.03 306.62C321.96 308.62 324.21 309.89 326.19 310.02C328.17 310.15 330.19 309.63 332.13 310.18C335.69 311.18 337.22 315.48 337.28 319.18C337.393 320.377 337.138 321.581 336.55 322.63C335.2 324.68 332.2 324.7 329.82 324.09C326.645 323.244 323.697 321.704 321.189 319.583C318.68 317.461 316.672 314.81 315.31 311.82" fill="white"/>
<path d="M231 389.94C229.692 388.574 228.092 387.521 226.32 386.86C224.51 386.34 222.26 386.86 221.32 388.49C220.86 389.33 220.8 390.35 220.32 391.17C218.97 393.47 215.5 392.93 213.13 394.17C210.13 395.74 209.78 400.76 212.61 402.69C211.38 405.21 210.24 407.93 210.47 410.69C210.7 413.45 212.71 416.34 215.47 416.58C216.88 416.7 218.3 416.16 219.7 416.41C221.31 416.69 222.54 417.94 223.87 418.9C225.2 419.86 227.05 420.54 228.42 419.64C230.42 418.28 230.02 414.27 232.42 413.81C234.53 413.4 236.8 416.44 238.42 415.02C239.42 414.15 238.85 412.49 239.36 411.28C240.16 409.41 242.82 409.57 244.65 408.67C245.624 408.178 246.38 407.342 246.772 406.324C247.164 405.305 247.164 404.178 246.771 403.16C246.379 402.142 245.622 401.306 244.648 400.814C243.674 400.323 242.552 400.211 241.5 400.5C238.15 401.5 236.62 406.08 233.16 406.5C230.86 406.76 228.29 405 226.39 406.32C225.29 407.08 224.93 408.61 223.82 409.32C223.138 409.67 222.351 409.753 221.611 409.553C220.872 409.353 220.233 408.885 219.82 408.24C219.436 407.564 219.21 406.81 219.158 406.034C219.106 405.259 219.23 404.481 219.52 403.76C220.32 401.43 222.13 399.61 223.88 397.88C224.69 397.08 225.74 396.22 226.81 396.57C227.44 396.76 227.87 397.32 228.44 397.65C230.18 398.65 232.44 396.86 232.72 394.88C233 392.9 231.96 390.98 230.94 389.25" fill="white"/>
<path d="M144.67 361.44C143.362 360.074 141.762 359.021 139.99 358.36C138.18 357.83 135.93 358.36 134.99 359.99C134.53 360.83 134.47 361.84 133.99 362.67C132.64 364.96 129.17 364.43 126.8 365.67C123.8 367.24 123.45 372.26 126.28 374.19C125.05 376.71 123.91 379.43 124.14 382.19C124.37 384.95 126.38 387.84 129.14 388.07C130.55 388.19 131.97 387.66 133.37 387.91C134.98 388.19 136.21 389.44 137.54 390.4C138.87 391.36 140.72 392.04 142.08 391.13C144.08 389.78 143.69 385.77 146.08 385.3C148.19 384.89 150.46 387.94 152.08 386.51C153.08 385.65 152.51 383.99 153.02 382.78C153.82 380.91 156.48 381.06 158.31 380.17C159.284 379.678 160.04 378.842 160.432 377.823C160.824 376.805 160.824 375.678 160.431 374.66C160.039 373.642 159.282 372.806 158.308 372.314C157.334 371.823 156.212 371.711 155.16 372C151.81 373 150.28 377.58 146.82 378C144.52 378.26 141.95 376.5 140.05 377.82C138.95 378.57 138.59 380.1 137.48 380.82C136.795 381.187 135.996 381.281 135.244 381.083C134.492 380.884 133.844 380.408 133.43 379.75C133.046 379.072 132.82 378.316 132.768 377.539C132.716 376.762 132.84 375.983 133.13 375.26C133.93 372.93 135.74 371.12 137.49 369.38C138.3 368.59 139.35 367.73 140.42 368.07C141.05 368.27 141.48 368.83 142.05 369.15C143.79 370.15 146.05 368.37 146.33 366.38C146.61 364.39 145.57 362.49 144.55 360.76" fill="white"/>
<path d="M313.86 345.87C312.551 344.509 310.956 343.457 309.19 342.79C307.38 342.27 305.12 342.79 304.19 344.42C303.73 345.26 303.67 346.28 303.19 347.1C301.83 349.4 298.36 348.86 296 350.1C293 351.66 292.65 356.69 295.47 358.62C294.24 361.14 293.11 363.86 293.33 366.62C293.55 369.38 295.57 372.26 298.33 372.5C299.74 372.62 301.17 372.09 302.56 372.33C304.17 372.62 305.4 373.87 306.73 374.82C308.06 375.77 309.92 376.46 311.28 375.56C313.28 374.2 312.88 370.2 315.28 369.73C317.4 369.32 319.66 372.36 321.28 370.94C322.28 370.07 321.7 368.41 322.22 367.21C323.01 365.34 325.68 365.49 327.5 364.59C328.502 364.116 329.288 363.281 329.699 362.252C330.111 361.222 330.118 360.076 329.72 359.041C329.321 358.007 328.546 357.162 327.55 356.676C326.554 356.19 325.411 356.098 324.35 356.42C321 357.42 319.47 362 316.01 362.42C313.71 362.67 311.15 360.92 309.24 362.23C308.15 362.99 307.79 364.52 306.68 365.23C305.994 365.596 305.194 365.689 304.442 365.488C303.69 365.288 303.042 364.809 302.63 364.15C302.247 363.473 302.02 362.72 301.966 361.945C301.913 361.17 302.033 360.392 302.32 359.67C303.13 357.34 304.93 355.52 306.69 353.79C307.49 353 308.54 352.14 309.62 352.48C310.24 352.68 310.67 353.24 311.24 353.56C312.99 354.56 315.24 352.78 315.53 350.79C315.82 348.8 314.76 346.89 313.74 345.16" fill="white"/>
<path d="M237.72 461.47C238.325 461.473 238.924 461.353 239.482 461.119C240.04 460.885 240.545 460.54 240.966 460.106C241.387 459.671 241.716 459.156 241.933 458.592C242.151 458.027 242.252 457.424 242.23 456.82C242.05 454.67 240.32 452.42 241.46 450.6C242.39 449.12 244.62 449.09 245.8 447.81C247.55 445.92 246.18 442.38 248.04 440.6C249.04 439.6 250.55 439.6 251.93 439.6C253.54 439.6 255.47 439.81 256.23 441.24C256.89 442.49 256.23 444.09 255.18 445.05C254.052 445.909 252.843 446.656 251.57 447.28C250.937 447.604 250.387 448.071 249.963 448.644C249.54 449.216 249.255 449.879 249.13 450.58C249.04 451.93 249.89 453.13 250.4 454.39C250.91 455.65 250.85 457.39 249.61 457.97C249.078 458.087 248.556 458.248 248.05 458.45C247.4 458.87 247.3 459.74 247.05 460.45C246.12 462.72 243.24 463.33 240.8 463.63C240.206 463.75 239.594 463.75 239 463.63C238.707 463.555 238.442 463.394 238.241 463.167C238.039 462.941 237.91 462.66 237.87 462.36C237.87 461.76 238.52 461.18 239.07 461.45" fill="white"/>
<path d="M159.91 294.17C159.41 292.91 158.55 291.71 158.65 290.35L159.54 287.95L151.48 292.76L151.75 296.58C151.442 297.999 150.98 299.381 150.37 300.7C149.8 301.39 148.54 301.2 148.54 301.2C148 300.93 147.32 301.51 147.35 302.11C147.389 302.41 147.518 302.692 147.719 302.919C147.921 303.145 148.186 303.306 148.48 303.38C149.071 303.5 149.679 303.5 150.27 303.38C152.72 303.08 155.6 302.47 156.53 300.2C156.82 299.49 156.92 298.62 157.53 298.2C157.99 297.9 158.6 297.94 159.1 297.72C160.37 297.2 160.41 295.42 159.91 294.17Z" fill="white"/>
<path d="M309.05 435.27C309.122 434.673 309.073 434.068 308.907 433.491C308.74 432.914 308.459 432.376 308.08 431.909C307.701 431.443 307.232 431.057 306.702 430.775C306.171 430.494 305.589 430.322 304.99 430.27C302.84 430.18 300.39 431.62 298.73 430.27C297.38 429.17 297.63 426.95 296.51 425.62C294.85 423.62 291.17 424.57 289.63 422.5C288.81 421.4 288.96 419.88 289.14 418.5C289.36 416.9 289.8 415.01 291.31 414.43C292.64 413.93 294.14 414.79 294.96 415.95C295.67 417.178 296.263 418.47 296.73 419.81C296.972 420.485 297.37 421.093 297.891 421.584C298.412 422.076 299.042 422.438 299.73 422.64C301.05 422.91 302.36 422.21 303.67 421.87C304.98 421.53 306.73 421.79 307.12 423.09C307.172 423.636 307.265 424.178 307.4 424.71C307.74 425.39 308.59 425.61 309.25 425.98C311.4 427.19 311.64 430.13 311.63 432.58C311.666 433.185 311.577 433.791 311.37 434.36C311.268 434.649 311.08 434.899 310.832 435.078C310.583 435.257 310.286 435.355 309.98 435.36C309.38 435.3 308.89 434.56 309.22 434.06" fill="white"/>
<path d="M175.55 327.27L148.73 341C150.21 364.68 148.31 401.49 147.16 415.2L139 420.39C137.3 435.32 152.34 468.97 167.2 473.16C182.06 477.35 196.32 472.97 200.2 464.37C210.2 442.13 188.55 366.51 188.55 366.51L175.55 327.27Z" fill="#9A4E27"/>
<path d="M175.55 327.27L148.73 341C150.21 364.68 148.31 401.49 147.16 415.2L139 420.39C137.3 435.32 152.34 468.97 167.2 473.16C182.06 477.35 196.32 472.97 200.2 464.37C210.2 442.13 188.55 366.51 188.55 366.51L175.55 327.27Z" fill="#9A4E27"/>
<path d="M175.55 327.27C175.55 327.27 173.26 317.37 168.69 313.18C168.69 313.18 161.98 310.7 155.84 308.74C149.7 306.78 139.84 309.02 131.41 308.74C122.98 308.46 86.1299 305.26 86.1299 305.26C86.1299 305.26 82.2299 305.26 80.4199 306.93C80.4199 306.93 70.4199 304.42 67.1699 313.07V314.6L69.8199 316.27C69.8199 316.27 82.0899 316.12 84.7399 316.27C87.3899 316.42 114.02 327.27 114.02 327.27C114.02 327.27 121.69 331.75 126.15 331.89C130.61 332.03 129.21 331.61 138.56 333.28C147.91 334.95 148.73 341 148.73 341L175.55 327.27Z" fill="#9A4E27"/>
<path d="M136.88 320.6C136.71 320.649 136.536 320.683 136.36 320.7C136.01 320.7 135.5 320.8 134.84 320.85C132.974 320.992 131.101 321.036 129.23 320.98C127.931 320.961 126.634 320.85 125.35 320.65C123.97 320.41 122.52 320.04 121.01 319.65C118.01 318.8 114.72 317.72 111.32 316.51C109.92 316.01 108.55 315.51 107.23 315.01H107.32L98 315H97.76V314.76C97.891 313.004 98.5934 311.339 99.76 310.02C100.679 309.035 101.847 308.316 103.14 307.94C103.955 307.692 104.799 307.554 105.65 307.53C105.947 307.499 106.248 307.516 106.54 307.58C105.412 307.637 104.296 307.839 103.22 308.18C101.993 308.583 100.893 309.3 100.03 310.26C98.9541 311.54 98.3163 313.131 98.21 314.8L97.99 314.56H107.33H107.38L111.45 316.05C114.85 317.25 118.11 318.34 121.1 319.22C122.6 319.65 124.03 320.03 125.38 320.29C126.644 320.497 127.92 320.624 129.2 320.67C131.56 320.79 133.47 320.75 134.79 320.67L136.31 320.61C136.499 320.579 136.691 320.576 136.88 320.6Z" fill="#8C3F17"/>
<path d="M128.87 326.86C128.671 326.859 128.473 326.835 128.28 326.79C127.89 326.73 127.28 326.63 126.6 326.48C125.15 326.18 123.06 325.71 120.5 325.02C115.36 323.66 108.5 321.11 100.95 318.23C98.7999 317.39 96.7099 316.57 94.7199 315.73C93.7199 315.31 92.7199 314.91 91.8199 314.44C90.9344 314.039 89.9941 313.773 89.0299 313.65C87.2586 313.385 85.4709 313.244 83.6799 313.23C82.0299 313.23 80.5299 313.23 79.2299 313.23H79.0799V313.08C78.7616 311.477 78.8685 309.818 79.3899 308.27C79.8299 307.2 80.3899 306.86 80.3899 306.9C80.2829 307.003 80.1827 307.113 80.0899 307.23C79.8381 307.564 79.6392 307.935 79.4999 308.33C79.0615 309.86 79.0099 311.475 79.3499 313.03L79.1799 312.9C80.4999 312.82 81.9999 312.77 83.6599 312.79C85.4698 312.782 87.2779 312.906 89.0699 313.16C90.0838 313.288 91.0719 313.572 91.9999 314C92.9099 314.44 93.8899 314.84 94.8699 315.26C96.8699 316.08 98.9499 316.9 101.1 317.73C108.63 320.61 115.47 323.22 120.56 324.66C123.1 325.39 125.17 325.92 126.61 326.27L128.26 326.68C128.472 326.707 128.678 326.767 128.87 326.86Z" fill="#8C3F17"/>
<path d="M149 338.1C149.033 338.19 149.053 338.284 149.06 338.38C149.06 338.59 149.13 338.86 149.17 339.2C149.26 339.93 149.42 341 149.55 342.39C149.86 345.16 150.17 349.18 150.34 354.16C150.51 359.14 150.5 365.08 150.22 371.66C149.94 378.24 149.4 385.46 148.65 393.02C147.799 400.1 147.398 407.228 147.45 414.36C147.557 420.181 148.569 425.95 150.45 431.46C151.726 435.167 153.567 438.655 155.91 441.8C156.32 442.37 156.72 442.8 157.06 443.24C157.34 443.587 157.637 443.921 157.95 444.24L158.51 444.86L158.69 445.08C157.612 444.114 156.628 443.05 155.75 441.9C153.322 438.78 151.414 435.288 150.1 431.56C148.165 426.026 147.122 420.22 147.01 414.36C146.917 407.223 147.291 400.088 148.13 393C148.88 385.45 149.44 378.24 149.74 371.67C150.04 365.1 150.1 359.17 149.97 354.2C149.84 349.23 149.59 345.2 149.35 342.44C149.25 341.05 149.12 339.97 149.07 339.24C149.07 338.9 149.07 338.63 149 338.41C148.984 338.307 148.984 338.202 149 338.1Z" fill="#8C3F17"/>
<path d="M319.57 327L347.25 338.82C347.39 362.54 351.8 399.14 353.87 412.75L362.4 417.42C365.11 432.19 352.4 466.79 337.86 471.99C323.32 477.19 308.79 473.78 304.36 465.46C292.89 443.94 309.36 367.03 309.36 367.03L319.57 327Z" fill="#9A4E27"/>
<path d="M319.57 327C319.57 327 321.17 317 325.45 312.47C325.45 312.47 331.98 309.54 337.96 307.18C343.94 304.82 353.96 306.37 362.34 305.51C370.72 304.65 407.28 299 407.28 299C407.28 299 411.17 298.73 413.09 300.28C413.09 300.28 422.94 297.09 426.73 305.5L426.83 307.03L424.3 308.87C424.3 308.87 412.05 309.56 409.42 309.87C406.79 310.18 380.95 322.87 380.95 322.87C380.95 322.87 373.61 327.87 369.17 328.3C364.73 328.73 366.09 328.23 356.88 330.54C347.67 332.85 347.25 338.88 347.25 338.88L319.57 327Z" fill="#9A4E27"/>
<path d="M357.69 317.74C357.866 317.716 358.044 317.716 358.22 317.74L359.74 317.69C361.06 317.69 362.97 317.55 365.31 317.28C366.582 317.143 367.845 316.926 369.09 316.63C370.43 316.28 371.83 315.8 373.3 315.27C376.22 314.2 379.4 312.89 382.7 311.45L386.7 309.69H386.75L396.07 309.09L395.87 309.34C395.654 307.681 394.911 306.135 393.75 304.93C392.821 304.038 391.677 303.401 390.43 303.08C389.331 302.812 388.201 302.687 387.07 302.71C387.357 302.619 387.659 302.578 387.96 302.59C388.81 302.557 389.661 302.637 390.49 302.83C391.802 303.123 393.012 303.758 394 304.67C395.247 305.913 396.057 307.527 396.31 309.27V309.51H396.06L386.75 310.18H386.84C385.55 310.77 384.22 311.36 382.84 311.95C379.53 313.39 376.34 314.69 373.39 315.74C371.91 316.26 370.49 316.74 369.13 317.07C367.862 317.354 366.575 317.551 365.28 317.66C363.416 317.842 361.543 317.925 359.67 317.91C359.01 317.91 358.5 317.91 358.15 317.86C357.992 317.84 357.837 317.8 357.69 317.74Z" fill="#8C3F17"/>
<path d="M366.1 323.44C366.278 323.348 366.466 323.278 366.66 323.23L368.29 322.71C369.69 322.26 371.73 321.6 374.21 320.71C379.21 318.93 385.83 315.87 393.21 312.48C395.29 311.48 397.32 310.54 399.21 309.58C400.16 309.1 401.11 308.64 401.98 308.13C402.886 307.658 403.856 307.321 404.86 307.13C406.634 306.761 408.432 306.517 410.24 306.4C411.89 306.27 413.39 306.21 414.72 306.2L414.56 306.35C414.785 304.774 414.621 303.167 414.08 301.67C413.919 301.283 413.696 300.925 413.42 300.61C413.319 300.501 413.212 300.398 413.1 300.3C413.1 300.3 413.73 300.55 414.24 301.59C414.867 303.103 415.088 304.755 414.88 306.38V306.52H414.73C413.42 306.52 411.92 306.64 410.28 306.79C408.498 306.937 406.727 307.201 404.98 307.58C404.022 307.774 403.098 308.111 402.24 308.58C401.34 309.11 400.4 309.58 399.44 310.07C397.52 311.07 395.49 312 393.44 312.98C386.11 316.37 379.44 319.38 374.44 321.09C371.93 321.95 369.87 322.56 368.44 322.96C367.73 323.15 367.17 323.3 366.79 323.38C366.564 323.435 366.332 323.455 366.1 323.44Z" fill="#8C3F17"/>
<path d="M346.79 336C346.799 336.096 346.799 336.194 346.79 336.29C346.79 336.51 346.79 336.78 346.79 337.12C346.79 337.86 346.73 338.94 346.72 340.33C346.67 343.11 346.72 347.14 346.9 352.11C347.08 357.08 347.58 362.98 348.33 369.52C349.08 376.06 350.13 383.21 351.38 390.69C352.718 397.728 353.593 404.847 354 412C354.285 417.858 353.64 423.724 352.09 429.38C351.03 433.188 349.365 436.8 347.16 440.08C346.356 441.283 345.446 442.411 344.44 443.45C344.486 443.365 344.539 443.285 344.6 443.21L345.12 442.56C345.35 442.28 345.63 441.92 345.94 441.48C346.25 441.04 346.62 440.56 346.99 439.96C349.114 436.662 350.716 433.057 351.74 429.27C353.227 423.641 353.831 417.815 353.53 412C353.099 404.881 352.213 397.796 350.88 390.79C349.62 383.3 348.58 376.13 347.88 369.58C347.18 363.03 346.73 357.11 346.57 352.13C346.41 347.15 346.44 343.13 346.57 340.33C346.57 338.94 346.69 337.86 346.73 337.13C346.73 336.79 346.78 336.51 346.79 336.3C346.779 336.2 346.779 336.1 346.79 336Z" fill="#8C3F17"/>
<path d="M292.69 309.88C292.07 302.41 295.89 295.41 298.32 288.33C303.24 274.03 302.89 266.07 303.78 237.91L280.86 232.6C280.1 241.99 281.45 238.32 280.56 248.48C279.67 258.64 277.09 268.82 271.65 277.48C267.77 283.65 262.31 289.37 261.58 296.62C260.51 307.11 269.73 316.16 270.32 326.69C271.13 341.31 255.32 353.36 257.23 367.87C257.66 371.08 259.17 374.38 262.04 375.87C264.11 376.95 266.55 376.95 268.88 376.92L284.26 376.71C285.91 376.71 287.73 376.6 288.91 375.44C290.82 373.58 289.81 370.44 289.42 367.79C287.69 356.38 299.91 347.02 300.2 335.48C300.43 326.51 293.43 318.8 292.69 309.88Z" fill="#263238"/>
<path d="M286 144.26C285.867 144.408 285.72 144.542 285.56 144.66C285.25 144.91 284.82 145.3 284.22 145.74C282.533 147.013 280.751 148.157 278.89 149.16C272.735 152.519 265.877 154.386 258.869 154.61C251.86 154.834 244.897 153.409 238.54 150.45C236.622 149.566 234.774 148.54 233.01 147.38C232.38 146.98 231.93 146.62 231.61 146.38C231.436 146.276 231.278 146.148 231.14 146C231.326 146.083 231.503 146.184 231.67 146.3C232 146.49 232.48 146.83 233.12 147.2C234.914 148.291 236.778 149.263 238.7 150.11C245.028 152.941 251.918 154.297 258.847 154.076C265.777 153.854 272.565 152.06 278.7 148.83C280.558 147.854 282.355 146.765 284.08 145.57C284.7 145.16 285.15 144.79 285.47 144.57C285.633 144.444 285.811 144.34 286 144.26Z" fill="white"/>
<path d="M381.083 143.696C410.692 138.974 430.868 111.144 426.147 81.5343C421.425 51.9248 393.594 31.7491 363.985 36.4706C334.375 41.192 314.2 69.0227 318.921 98.6322C323.643 128.242 351.473 148.417 381.083 143.696Z" fill="#FAFAFA"/>
<path d="M322.63 128C322.63 128.05 323.22 128.09 324.17 128.48C325.518 129.048 326.655 130.023 327.42 131.27C327.955 132.108 328.297 133.054 328.42 134.04C328.55 135.173 328.348 136.319 327.84 137.34C327.301 138.525 326.415 139.518 325.3 140.19C324.185 140.861 322.892 141.179 321.593 141.101C320.293 141.023 319.048 140.553 318.021 139.753C316.994 138.953 316.234 137.861 315.84 136.62C315.456 135.548 315.39 134.388 315.65 133.28C315.892 132.317 316.343 131.42 316.97 130.65C317.882 129.505 319.125 128.67 320.53 128.26C321.53 127.99 322.11 128.02 322.11 127.97C321.971 127.946 321.829 127.946 321.69 127.97C321.517 127.952 321.343 127.952 321.17 127.97C320.938 127.991 320.707 128.028 320.48 128.08C319.232 128.391 318.09 129.029 317.169 129.926C316.248 130.824 315.583 131.951 315.24 133.19C314.945 134.377 315 135.624 315.4 136.78C315.841 138.053 316.618 139.183 317.65 140.05C318.76 140.993 320.138 141.564 321.59 141.68C323.042 141.741 324.476 141.335 325.68 140.52C326.815 139.783 327.722 138.744 328.3 137.52C328.84 136.42 329.046 135.186 328.89 133.97C328.698 132.699 328.17 131.501 327.362 130.501C326.553 129.501 325.493 128.735 324.29 128.28C324.074 128.191 323.849 128.124 323.62 128.08C323.454 128.033 323.283 128.007 323.11 128C322.951 127.97 322.789 127.97 322.63 128Z" fill="#263238"/>
<path d="M311.38 143.3C311.38 143.3 311.67 143.3 312.15 143.54C312.821 143.824 313.387 144.31 313.77 144.93C314.037 145.351 314.208 145.826 314.27 146.32C314.348 146.895 314.254 147.479 314 148C313.734 148.597 313.293 149.099 312.734 149.438C312.176 149.777 311.527 149.938 310.875 149.899C310.223 149.86 309.598 149.622 309.085 149.219C308.571 148.815 308.192 148.264 308 147.64C307.804 147.109 307.769 146.531 307.9 145.98C308.019 145.497 308.245 145.046 308.56 144.66C309.013 144.09 309.631 143.675 310.33 143.47C310.83 143.33 311.13 143.35 311.12 143.32H310.91C310.827 143.306 310.743 143.306 310.66 143.32C310.542 143.327 310.424 143.347 310.31 143.38C309.686 143.531 309.114 143.848 308.655 144.296C308.195 144.745 307.866 145.31 307.7 145.93C307.548 146.521 307.575 147.145 307.78 147.72C307.999 148.355 308.386 148.918 308.9 149.35C309.462 149.829 310.163 150.113 310.9 150.16C311.628 150.194 312.347 149.99 312.95 149.58C313.512 149.217 313.962 148.704 314.25 148.1C314.521 147.552 314.626 146.937 314.55 146.33C314.471 145.809 314.28 145.311 313.99 144.87C313.574 144.235 312.963 143.751 312.25 143.49C312.144 143.446 312.033 143.412 311.92 143.39C311.834 143.378 311.746 143.378 311.66 143.39C311.45 143.29 311.38 143.29 311.38 143.3Z" fill="#263238"/>
<path d="M318.52 94.2798C318.52 94.2798 318.52 93.9798 318.52 93.3998C318.52 92.8198 318.52 91.9498 318.52 90.8298C318.52 90.2598 318.52 89.6298 318.52 88.9298C318.52 88.2298 318.62 87.4698 318.68 86.6498C318.74 85.8298 318.81 84.9398 318.89 83.9898C318.916 83.499 318.979 83.0109 319.08 82.5298C319.17 82.0298 319.26 81.5298 319.36 80.9898C320.219 75.8441 321.851 70.8578 324.2 66.1998C327.247 60.0142 331.457 54.4734 336.6 49.8798L338.79 47.9998C339.56 47.3998 340.38 46.8498 341.19 46.2598L342.42 45.3798C342.823 45.0701 343.247 44.7894 343.69 44.5398L346.38 42.9798L347.74 42.1898C348.22 41.9798 348.74 41.7598 349.19 41.5298L352.13 40.1998C353.13 39.7798 354.19 39.4698 355.23 39.0998L356.81 38.5598C357.07 38.4798 357.33 38.3698 357.6 38.2998L358.42 38.1098C360.631 37.5193 362.88 37.0783 365.15 36.7898C366.31 36.6598 367.47 36.4598 368.64 36.3798L372.21 36.2898C372.81 36.2898 373.41 36.2298 374.02 36.2898L375.83 36.4298C377.04 36.5298 378.27 36.5798 379.49 36.7298C381.961 37.0836 384.406 37.598 386.81 38.2698L388.65 38.7898C388.95 38.8798 389.26 38.9498 389.56 39.0498L390.46 39.3998L394.06 40.7998C395.24 41.3298 396.38 41.9598 397.56 42.5398C398.13 42.8498 398.74 43.0998 399.3 43.4598L401 44.4498C403.268 45.8717 405.439 47.4418 407.5 49.1498L410.5 51.9398L411.25 52.6398C411.48 52.8898 411.7 53.1598 411.93 53.4098L413.21 54.9998L414.58 56.5598L415.8 58.2398L417 59.8898L417.61 60.7398L418.14 61.6498L420.26 65.2898C420.85 66.5698 421.43 67.8598 422.03 69.1498C424.225 74.4861 425.604 80.1227 426.12 85.8698C426.505 91.6192 426.023 97.3938 424.69 103L423.55 107.09C423.043 108.423 422.533 109.733 422.02 111.02L421.63 112.02L421.16 112.95L420.22 114.82L419.28 116.67L418.17 118.42L417.07 120.16L416.52 121.02L415.89 121.83L413.39 125.05C411.621 127.054 409.724 128.941 407.71 130.7L406.22 132C405.72 132.44 405.16 132.78 404.64 133.18C403.57 133.93 402.54 134.73 401.45 135.44L398.11 137.38L397.28 137.86C397 138.01 396.7 138.13 396.42 138.27L394.68 139.06C392.409 140.102 390.07 140.99 387.68 141.72C386.49 142.06 385.29 142.3 384.11 142.59L382.34 143C381.75 143.13 381.14 143.17 380.55 143.26L377.01 143.72C375.84 143.83 374.66 143.8 373.5 143.85C371.21 143.923 368.918 143.839 366.64 143.6L365.8 143.54L364.98 143.4L363.34 143.11C362.25 142.91 361.16 142.77 360.1 142.51L356.99 141.64L355.46 141.22L353.99 140.65L351.1 139.53C350.623 139.352 350.158 139.142 349.71 138.9L348.36 138.22C347.47 137.76 346.57 137.34 345.71 136.87L343.25 135.31C337.434 131.578 332.392 126.76 328.4 121.12C327.96 120.5 327.5 119.9 327.09 119.3L326 117.45L324.95 115.65C324.78 115.36 324.59 115.07 324.45 114.77L324.03 113.88C323.49 112.69 322.97 111.56 322.47 110.48C321.97 109.4 321.69 108.29 321.32 107.28C321.14 106.77 320.97 106.28 320.81 105.8C320.629 105.343 320.488 104.871 320.39 104.39L319.77 101.8C319.59 100.99 319.38 100.26 319.26 99.5698C319.14 98.8798 319.08 98.2498 319 97.6898C318.85 96.5798 318.73 95.6898 318.65 95.1498C318.57 94.6098 318.51 94.2798 318.51 94.2798C318.51 94.2798 318.51 94.5698 318.6 95.1498C318.69 95.7298 318.77 96.5898 318.9 97.7098C318.97 98.2698 319.05 98.8998 319.14 99.5898C319.23 100.28 319.45 101.02 319.63 101.83C319.81 102.64 320.01 103.51 320.22 104.44C320.321 104.923 320.458 105.397 320.63 105.86L321.13 107.34C321.5 108.34 321.8 109.46 322.27 110.56L323.82 113.98C323.95 114.28 324.09 114.58 324.23 114.89C324.37 115.2 324.56 115.47 324.73 115.77L325.73 117.58L326.82 119.46C327.24 120.07 327.69 120.68 328.13 121.3C332.12 126.994 337.177 131.861 343.02 135.63L345.49 137.2C346.35 137.68 347.26 138.11 348.15 138.57L349.51 139.26C349.961 139.505 350.429 139.719 350.91 139.9L353.82 141.04C354.31 141.23 354.82 141.43 355.3 141.61L356.84 142.04L359.97 142.92C361.03 143.19 362.13 143.33 363.23 143.54L364.88 143.83L365.71 143.97L366.56 144.03C368.854 144.281 371.163 144.371 373.47 144.3C374.64 144.3 375.82 144.3 377.01 144.17L380.58 143.71C381.18 143.63 381.78 143.58 382.38 143.46L384.16 143.04C385.35 142.75 386.57 142.52 387.76 142.17C390.172 141.435 392.534 140.543 394.83 139.5L396.57 138.7L397.45 138.3L398.28 137.81L401.65 135.81C402.75 135.1 403.79 134.3 404.87 133.54C405.4 133.14 405.97 132.79 406.47 132.35L407.97 131.03C410.008 129.263 411.926 127.362 413.71 125.34L416.23 122.09L416.87 121.27L417.43 120.4L418.54 118.64L419.65 116.88L420.65 115.01L421.6 113.13L422.08 112.19L422.46 111.19C422.98 109.87 423.46 108.55 424.01 107.19C424.56 105.83 424.78 104.44 425.17 103.06C426.521 97.3921 427.013 91.5537 426.63 85.7398C426.096 79.9861 424.707 74.3442 422.51 68.9998L420.72 65.0998L418.58 61.4198C418.4 61.1198 418.23 60.8098 418.04 60.5098L417.43 59.6498L416.2 57.9498L415 56.2098L413.63 54.6398L412.26 53.0798L411.57 52.2998L410.82 51.5998L407.82 48.7798C405.731 47.0433 403.529 45.4465 401.23 43.9998L399.54 42.9998C398.98 42.6398 398.36 42.3798 397.78 42.0698C396.59 41.4898 395.44 40.8498 394.25 40.3198L390.61 38.9098L389.71 38.5598C389.41 38.4598 389.09 38.3798 388.79 38.2998L386.94 37.7798C384.513 37.1008 382.045 36.583 379.55 36.2298C378.31 36.0798 377.08 36.0398 375.86 35.9298L374 35.7798C373.39 35.7798 372.78 35.7798 372.18 35.7798L368.58 35.8798C367.4 35.9498 366.23 36.1598 365.07 36.2998C362.778 36.5891 360.51 37.0368 358.28 37.6398L357.46 37.8298C357.19 37.9098 356.92 38.0098 356.66 38.0998L355.07 38.6398C354.02 39.0198 352.96 39.3298 351.95 39.7498L348.95 41.1098L347.5 41.7798C347.03 42.0298 346.58 42.3098 346.12 42.5698L343.42 44.1398C342.975 44.3939 342.547 44.6779 342.14 44.9898L340.91 45.8798C340.09 46.4798 339.27 47.0498 338.49 47.6498C337.71 48.2498 337.02 48.9498 336.29 49.5798C331.103 54.2121 326.861 59.805 323.8 66.0498C321.476 70.7634 319.887 75.8052 319.09 80.9998C318.99 81.5298 318.91 82.0498 318.82 82.5498C318.717 83.0302 318.657 83.5188 318.64 84.0098C318.57 85.0098 318.51 85.8498 318.45 86.6798C318.39 87.5098 318.32 88.2698 318.31 88.9698C318.3 89.6698 318.36 90.2998 318.38 90.8698C318.38 91.9898 318.45 92.8698 318.47 93.4398C318.49 94.0098 318.52 94.2798 318.52 94.2798Z" fill="#263238"/>
<path d="M359.22 78.13H366.91C366.91 78.13 366.91 71.67 373.63 71.55C374.922 71.5108 376.194 71.8749 377.269 72.5918C378.344 73.3086 379.169 74.3426 379.63 75.55C380.039 76.5575 380.203 77.6481 380.108 78.7314C380.012 79.8148 379.66 80.8598 379.08 81.78C377.78 83.93 374.92 85.89 369.73 84.98V102.33H377.34V92.14C377.34 92.14 388 89.38 388 77.62C388 66.37 377.91 63.75 373.59 63.75C370.33 63.75 359.07 64.55 359.22 78.13Z" fill="#461082"/>
<path d="M377.46 105.88H369.74V113.09H377.46V105.88Z" fill="#461082"/>
<path d="M415.8 271.557C415.859 271.573 415.911 271.609 415.948 271.657C415.986 271.706 416.006 271.766 416.006 271.827C416.006 271.888 415.986 271.948 415.948 271.997C415.911 272.046 415.859 272.081 415.8 272.097L388.99 278.247L387.71 278.547L373.99 281.687L332.18 272.097C332.121 272.081 332.069 272.046 332.031 271.997C331.994 271.948 331.974 271.888 331.974 271.827C331.974 271.766 331.994 271.706 332.031 271.657C332.069 271.609 332.121 271.573 332.18 271.557L373.41 262.097C373.791 262.007 374.189 262.007 374.57 262.097L387.7 265.097L388.98 265.397L415.8 271.557Z" fill="#263238"/>
<path d="M397.4 271.827C396.93 270.267 386.64 269.027 373.99 269.027C361.34 269.027 351.05 270.267 350.58 271.827V291.447C350.58 291.535 350.597 291.622 350.631 291.702C350.665 291.783 350.714 291.856 350.777 291.918C350.839 291.979 350.913 292.027 350.994 292.06C351.076 292.093 351.162 292.109 351.25 292.107H396.77C396.857 292.109 396.944 292.093 397.026 292.06C397.107 292.027 397.181 291.979 397.243 291.918C397.305 291.856 397.355 291.783 397.389 291.702C397.423 291.622 397.44 291.535 397.44 291.447V271.827H397.4Z" fill="#263238"/>
<path opacity="0.2" d="M397.4 271.827C396.93 270.267 386.64 269.027 373.99 269.027C361.34 269.027 351.05 270.267 350.58 271.827V291.447C350.58 291.535 350.597 291.622 350.631 291.702C350.665 291.783 350.714 291.856 350.777 291.918C350.839 291.979 350.913 292.027 350.994 292.06C351.076 292.093 351.162 292.109 351.25 292.107H396.77C396.857 292.109 396.944 292.093 397.026 292.06C397.107 292.027 397.181 291.979 397.243 291.918C397.305 291.856 397.355 291.783 397.389 291.702C397.423 291.622 397.44 291.535 397.44 291.447V271.827H397.4Z" fill="white"/>
<path opacity="0.2" d="M416.99 271.827L414.81 272.327L388.99 266.407L387.71 266.107L373.99 262.937L333.18 272.297L331 271.797L373.41 262.067C373.791 261.978 374.189 261.978 374.57 262.067L387.7 265.067L388.98 265.367L416.99 271.827Z" fill="white"/>
<path d="M389.99 285.337V289.477H389.66L389.42 286.927L389.17 289.477H388.63L388.38 286.927L388.13 289.477H387.59L387.34 286.927L387.1 289.477H386.77V285.337C386.774 285.021 386.871 284.713 387.049 284.452C387.227 284.19 387.477 283.987 387.77 283.867V265.107L389.05 265.407V283.867C389.331 283.996 389.57 284.203 389.736 284.464C389.903 284.725 389.991 285.028 389.99 285.337Z" fill="#461082"/>
<path d="M160.8 278.557C160.859 278.573 160.911 278.609 160.948 278.657C160.986 278.706 161.006 278.766 161.006 278.827C161.006 278.888 160.986 278.948 160.948 278.997C160.911 279.046 160.859 279.081 160.8 279.097L133.99 285.247L132.71 285.547L118.99 288.687L77.18 279.097C77.1208 279.081 77.0686 279.046 77.0314 278.997C76.9943 278.948 76.9741 278.888 76.9741 278.827C76.9741 278.766 76.9943 278.706 77.0314 278.657C77.0686 278.609 77.1208 278.573 77.18 278.557L118.41 269.097C118.791 269.007 119.189 269.007 119.57 269.097L132.7 272.097L133.98 272.397L160.8 278.557Z" fill="#263238"/>
<path d="M142.4 278.827C141.93 277.267 131.64 276.027 118.99 276.027C106.34 276.027 96.0501 277.267 95.5801 278.827V298.447C95.5801 298.535 95.5975 298.622 95.6313 298.702C95.665 298.783 95.7146 298.856 95.7769 298.918C95.8393 298.979 95.9132 299.027 95.9944 299.06C96.0757 299.093 96.1626 299.109 96.2501 299.107H141.77C141.858 299.109 141.944 299.093 142.026 299.06C142.107 299.027 142.181 298.979 142.243 298.918C142.306 298.856 142.355 298.783 142.389 298.702C142.423 298.622 142.44 298.535 142.44 298.447V278.827H142.4Z" fill="#263238"/>
<path opacity="0.2" d="M142.4 278.827C141.93 277.267 131.64 276.027 118.99 276.027C106.34 276.027 96.0501 277.267 95.5801 278.827V298.447C95.5801 298.535 95.5975 298.622 95.6313 298.702C95.665 298.783 95.7146 298.856 95.7769 298.918C95.8393 298.979 95.9132 299.027 95.9944 299.06C96.0757 299.093 96.1626 299.109 96.2501 299.107H141.77C141.858 299.109 141.944 299.093 142.026 299.06C142.107 299.027 142.181 298.979 142.243 298.918C142.306 298.856 142.355 298.783 142.389 298.702C142.423 298.622 142.44 298.535 142.44 298.447V278.827H142.4Z" fill="white"/>
<path opacity="0.2" d="M161.99 278.827L159.81 279.327L133.99 273.407L132.71 273.107L118.99 269.937L78.18 279.297L76 278.797L118.41 269.067C118.791 268.978 119.189 268.978 119.57 269.067L132.7 272.067L133.98 272.367L161.99 278.827Z" fill="white"/>
<path d="M134.99 292.337V296.477H134.66L134.42 293.927L134.17 296.477H133.63L133.38 293.927L133.13 296.477H132.59L132.34 293.927L132.1 296.477H131.77V292.337C131.774 292.021 131.871 291.713 132.049 291.452C132.227 291.19 132.477 290.987 132.77 290.867V272.107L134.05 272.407V290.867C134.331 290.996 134.57 291.203 134.736 291.464C134.903 291.725 134.991 292.028 134.99 292.337Z" fill="#FF5600"/>
</svg>
