<svg width="500" height="500" viewBox="0 0 500 500" fill="none" xmlns="http://www.w3.org/2000/svg">
<path d="M249.99 474.2C381.848 474.2 488.74 412.487 488.74 336.36C488.74 260.233 381.848 198.52 249.99 198.52C118.132 198.52 11.24 260.233 11.24 336.36C11.24 412.487 118.132 474.2 249.99 474.2Z" fill="#F5F5F5"/>
<path d="M385.32 427.74C410.94 427.74 431.71 415.746 431.71 400.95C431.71 386.154 410.94 374.16 385.32 374.16C359.699 374.16 338.93 386.154 338.93 400.95C338.93 415.746 359.699 427.74 385.32 427.74Z" fill="#E0E0E0"/>
<path d="M45.73 334.76L169.59 406.26C171.172 407.064 172.921 407.483 174.695 407.483C176.469 407.483 178.218 407.064 179.8 406.26L413 271.61C415.82 269.98 415.82 267.34 413 265.71L289.18 194.2C287.597 193.401 285.848 192.985 284.075 192.985C282.302 192.985 280.553 193.401 278.97 194.2L45.73 328.86C42.91 330.49 42.91 333.13 45.73 334.76Z" fill="#E0E0E0"/>
<path d="M94.7899 67.79L87.7899 71.79C87.8296 71.4381 87.8496 71.0842 87.8499 70.73V68.42C87.8499 64.25 85.3199 62.33 82.1899 64.14C80.8091 65.01 79.6515 66.1916 78.8099 67.59C78.2999 62.3 74.7399 60.03 70.4099 62.52C65.7299 65.23 61.9399 72.47 61.9399 78.71V82.22C61.9115 83.627 62.156 85.0261 62.6599 86.34L56.8299 89.7C55.8732 90.3844 55.0907 91.2839 54.5453 92.326C53.9999 93.3682 53.7069 94.5239 53.6899 95.7C53.6899 98.02 55.0899 99.08 56.8299 98.08L94.8299 76.16C95.7855 75.4746 96.5672 74.5749 97.1125 73.5329C97.6578 72.491 97.9514 71.3359 97.9699 70.16C97.9299 67.85 96.5199 66.78 94.7899 67.79Z" fill="#EBEBEB"/>
<path d="M139.8 80.0001L134.51 83.0001C134.541 82.7345 134.558 82.4675 134.56 82.2001V80.5001C134.56 77.3501 132.64 75.9101 130.28 77.2701C129.241 77.9249 128.37 78.8157 127.74 79.8701C127.35 75.8701 124.66 74.1701 121.39 76.0501C117.86 78.0501 115 83.5601 115 88.2701V90.9101C114.981 91.9749 115.165 93.0335 115.54 94.0301L111.15 96.5601C110.429 97.0779 109.839 97.7573 109.428 98.5439C109.016 99.3305 108.794 100.202 108.78 101.09C108.78 102.84 109.84 103.64 111.15 102.88L139.8 86.3401C140.523 85.8239 141.114 85.1449 141.526 84.3579C141.937 83.571 142.158 82.6982 142.17 81.8101C142.17 80.0701 141.11 79.2701 139.8 80.0001Z" fill="#EBEBEB"/>
<path d="M415.73 370.78C415.73 370.78 415.24 356.78 420.52 345.02C425.8 333.26 434.22 325.2 442.92 323.19C451.62 321.18 459.92 328.19 451.34 335.19C442.76 342.19 426.87 350.31 422.26 372.25L415.73 370.78Z" fill="#FF5600"/>
<g opacity="0.15">
<path d="M415.73 370.78C415.73 370.78 415.24 356.78 420.52 345.02C425.8 333.26 434.22 325.2 442.92 323.19C451.62 321.18 459.92 328.19 451.34 335.19C442.76 342.19 426.87 350.31 422.26 372.25L415.73 370.78Z" fill="black"/>
</g>
<path d="M417.78 366.81H417.68C417.557 366.779 417.451 366.701 417.385 366.592C417.32 366.483 417.3 366.353 417.33 366.23C423.21 341.98 439.47 329.8 447.25 326.75C447.364 326.722 447.484 326.736 447.587 326.791C447.691 326.845 447.772 326.935 447.813 327.045C447.855 327.154 447.855 327.275 447.814 327.384C447.773 327.494 447.693 327.585 447.59 327.64C439.98 330.64 424.04 342.59 418.25 366.46C418.225 366.564 418.164 366.655 418.078 366.719C417.992 366.783 417.887 366.815 417.78 366.81Z" fill="white"/>
<path d="M456.23 361.67C455.51 363.4 453.66 364.34 451.94 365.09C450.22 365.84 448.35 366.64 447.46 368.28C445.65 371.6 448.88 376.12 446.93 379.36C446.472 380.009 445.886 380.559 445.209 380.975C444.532 381.391 443.777 381.665 442.99 381.78C441.7 382.06 440.38 382.09 439.07 382.24C438.445 382.242 437.821 382.209 437.2 382.14C435.37 381.782 433.473 382.035 431.8 382.86C429.24 384.39 428.53 387.69 427.02 390.26C426.083 391.783 424.828 393.084 423.34 394.075C421.852 395.066 420.166 395.723 418.4 396C415.46 396.46 411.03 395.92 410.23 394.64C409.63 393.64 411.23 390.64 411.23 389.48C411.251 386.532 411.549 383.592 412.12 380.7C412.429 379.389 412.581 378.046 412.57 376.7C412.52 375.19 412.48 373.7 412.45 372.18C412.42 370.66 412.01 369.28 412.55 367.62C413.143 366.059 413.962 364.593 414.98 363.27C415.933 361.937 416.897 360.603 417.87 359.27C418.961 357.675 420.244 356.221 421.69 354.94C422.997 353.88 424.507 353.099 426.127 352.645C427.747 352.191 429.443 352.073 431.11 352.3C433.86 352.68 436.58 354.15 439.4 353.95C442.22 353.75 444.82 352.95 447.63 353.07C449.116 353.07 450.583 353.409 451.919 354.061C453.255 354.712 454.425 355.659 455.34 356.83C455.876 357.501 456.237 358.294 456.393 359.138C456.548 359.983 456.492 360.852 456.23 361.67Z" fill="#FF5600"/>
<path d="M412.46 387.25C412.406 387.237 412.355 387.213 412.31 387.181C412.266 387.148 412.228 387.107 412.199 387.059C412.17 387.012 412.151 386.959 412.142 386.905C412.134 386.85 412.137 386.794 412.15 386.74C418.3 360.94 445.2 356.53 451.53 356.82C451.585 356.822 451.639 356.836 451.689 356.859C451.739 356.883 451.784 356.916 451.821 356.957C451.859 356.998 451.887 357.046 451.906 357.098C451.925 357.15 451.933 357.205 451.93 357.26C451.928 357.315 451.914 357.369 451.891 357.419C451.867 357.469 451.834 357.514 451.793 357.551C451.752 357.588 451.704 357.617 451.652 357.636C451.6 357.654 451.545 357.663 451.49 357.66C445.3 357.38 418.99 361.66 412.97 386.93C412.958 386.985 412.936 387.037 412.904 387.083C412.871 387.129 412.83 387.168 412.783 387.198C412.735 387.227 412.682 387.247 412.627 387.256C412.571 387.265 412.515 387.263 412.46 387.25Z" fill="white"/>
<path d="M442.11 373.48C442.027 373.468 441.95 373.429 441.89 373.37C439.34 371.275 436.358 369.769 433.159 368.958C429.959 368.147 426.62 368.052 423.38 368.68C423.326 368.689 423.27 368.688 423.216 368.675C423.162 368.663 423.111 368.64 423.066 368.608C423.021 368.576 422.983 368.535 422.953 368.489C422.924 368.442 422.904 368.39 422.895 368.335C422.886 368.281 422.887 368.225 422.9 368.171C422.912 368.117 422.935 368.066 422.967 368.021C422.999 367.976 423.04 367.938 423.087 367.908C423.133 367.879 423.186 367.859 423.24 367.85C426.609 367.201 430.08 367.304 433.404 368.153C436.729 369.002 439.825 370.575 442.47 372.76C442.536 372.822 442.58 372.903 442.596 372.992C442.612 373.081 442.599 373.173 442.558 373.254C442.518 373.335 442.452 373.401 442.372 373.441C442.291 373.482 442.199 373.496 442.11 373.48Z" fill="white"/>
<path d="M63.7901 303.3C66.1101 289 62.2701 258.53 43.0001 260C38.8001 260.3 34.4801 264.54 39.0001 270.54C42.6601 275.46 46.5101 280.25 49.5101 285.62C52.6601 291.27 52.5101 297.87 53.6301 304.21C54.1101 306.87 55.1101 310.09 57.7701 310.59C58.6152 310.683 59.4695 310.537 60.2352 310.167C61.001 309.797 61.6472 309.22 62.1001 308.5C62.9841 307.048 63.5404 305.42 63.7301 303.73L63.7901 303.3Z" fill="#FF5600"/>
<path opacity="0.15" d="M63.7901 303.3C66.1101 289 62.2701 258.53 43.0001 260C38.8001 260.3 34.4801 264.54 39.0001 270.54C42.6601 275.46 46.5101 280.25 49.5101 285.62C52.6601 291.27 52.5101 297.87 53.6301 304.21C54.1101 306.87 55.1101 310.09 57.7701 310.59C58.6152 310.683 59.4695 310.537 60.2352 310.167C61.001 309.797 61.6472 309.22 62.1001 308.5C62.9841 307.048 63.5404 305.42 63.7301 303.73L63.7901 303.3Z" fill="black"/>
<path d="M57.7499 302.11C57.6226 302.073 57.5153 301.987 57.4515 301.871C57.3878 301.754 57.3728 301.617 57.4099 301.49C62.0499 284.61 49.2499 266.36 45.6299 263.49C45.5254 263.409 45.4572 263.29 45.4404 263.159C45.4235 263.028 45.4593 262.895 45.5399 262.79C45.6225 262.688 45.7414 262.621 45.8719 262.605C46.0023 262.588 46.1342 262.622 46.24 262.7C49.97 265.62 63.1599 284.3 58.3699 301.7C58.3526 301.764 58.3228 301.824 58.2821 301.876C58.2415 301.929 58.1908 301.972 58.1331 302.005C58.0755 302.037 58.0119 302.058 57.9461 302.066C57.8803 302.074 57.8136 302.068 57.7499 302.05V302.11Z" fill="white"/>
<path d="M56 292C56 291.74 56 291.47 56 291.2C55.9624 289.199 55.2587 287.267 54 285.71C53.4999 285.143 52.9324 284.639 52.31 284.21C50.0681 282.63 47.4845 281.602 44.77 281.21C43.5461 281.106 42.3323 280.906 41.14 280.61C37.75 279.51 35.14 276.22 32.21 274.26C29 272 20.89 270 18.18 274.32C16.18 277.44 22.18 281.54 26.27 285.68C30.36 289.82 32.59 293.95 29.67 297.92C27.16 301.32 26.52 304.78 31.83 308.48C36.55 311.76 43.28 310.95 43.46 316.77C43.56 320.09 47.2 325.11 52.72 324.24C54.6 323.94 56.84 321.71 57.97 320.29C59.2082 318.682 60.0878 316.827 60.55 314.85C61.2803 312.042 61.4098 309.112 60.93 306.25C60.7344 304.819 60.2768 303.436 59.58 302.17C58.77 300.86 57.24 299.88 56.07 298.86C55.8947 298.722 55.7427 298.557 55.62 298.37C55.4514 297.979 55.4163 297.543 55.52 297.13C55.7955 295.433 55.9559 293.719 56 292Z" fill="#FF5600"/>
<path d="M54.44 315.55C54.3402 315.523 54.2516 315.464 54.1869 315.384C54.1222 315.303 54.0848 315.204 54.08 315.1C53.26 299.1 32.94 279.42 24.59 275.41C24.5309 275.381 24.478 275.341 24.4343 275.292C24.3907 275.243 24.3573 275.185 24.3359 275.123C24.3146 275.061 24.3057 274.995 24.3098 274.929C24.314 274.863 24.331 274.799 24.36 274.74C24.3878 274.681 24.4271 274.629 24.4754 274.585C24.5238 274.542 24.5804 274.508 24.6418 274.487C24.7033 274.465 24.7683 274.456 24.8333 274.46C24.8982 274.464 24.9617 274.481 25.02 274.51C33.54 278.59 54.24 298.66 55.08 315.05C55.0841 315.115 55.0751 315.181 55.0535 315.242C55.0319 315.304 54.9983 315.361 54.9545 315.409C54.9107 315.458 54.8577 315.497 54.7985 315.524C54.7394 315.552 54.6753 315.568 54.61 315.57C54.5526 315.574 54.495 315.567 54.44 315.55Z" fill="white"/>
<path d="M35.1899 301.3C35.1182 301.276 35.0526 301.237 34.9974 301.185C34.9422 301.133 34.8987 301.07 34.8699 301C34.8234 300.877 34.8266 300.74 34.8788 300.619C34.931 300.497 35.0282 300.401 35.1499 300.35C39.8732 298.803 44.9477 298.681 49.7399 300C49.8649 300.037 49.9705 300.122 50.034 300.236C50.0975 300.35 50.114 300.484 50.0799 300.61C50.0448 300.737 49.961 300.845 49.8468 300.911C49.7326 300.976 49.5971 300.994 49.4699 300.96C44.8661 299.728 40.0042 299.853 35.4699 301.32C35.3764 301.339 35.2797 301.332 35.1899 301.3Z" fill="white"/>
<path d="M53.9999 310.09C52.2699 311.43 52.4599 313.34 54.5599 314.55L169.88 381.14C171.18 381.798 172.617 382.141 174.075 382.141C175.532 382.141 176.969 381.798 178.27 381.14L398.67 253.9C400.8 252.67 400.97 250.73 399.16 249.39C400.244 250.208 401.137 251.253 401.776 252.452C402.415 253.65 402.785 254.974 402.86 256.33V261.87C402.784 263.328 402.364 264.747 401.634 266.01C400.904 267.274 399.885 268.347 398.66 269.14L178.29 396.37C176.988 397.031 175.549 397.375 174.09 397.375C172.63 397.375 171.191 397.031 169.89 396.37L54.5699 329.79C53.3464 328.998 52.3285 327.927 51.6 326.665C50.8715 325.403 50.4534 323.986 50.3799 322.53V316.97C50.457 315.631 50.82 314.325 51.4444 313.138C52.0688 311.951 52.9402 310.912 53.9999 310.09Z" fill="#FF5600"/>
<path opacity="0.5" d="M53.9999 310.09C52.2699 311.43 52.4599 313.34 54.5599 314.55L169.88 381.14C171.18 381.798 172.617 382.141 174.075 382.141C175.532 382.141 176.969 381.798 178.27 381.14L398.67 253.9C400.8 252.67 400.97 250.73 399.16 249.39C400.244 250.208 401.137 251.253 401.776 252.452C402.415 253.65 402.785 254.974 402.86 256.33V261.87C402.784 263.328 402.364 264.747 401.634 266.01C400.904 267.274 399.885 268.347 398.66 269.14L178.29 396.37C176.988 397.031 175.549 397.375 174.09 397.375C172.63 397.375 171.191 397.031 169.89 396.37L54.5699 329.79C53.3464 328.998 52.3285 327.927 51.6 326.665C50.8715 325.403 50.4534 323.986 50.3799 322.53V316.97C50.457 315.631 50.82 314.325 51.4444 313.138C52.0688 311.951 52.9402 310.912 53.9999 310.09Z" fill="black"/>
<path d="M54.5599 314.55L169.88 381.14C171.18 381.798 172.617 382.141 174.075 382.141C175.532 382.141 176.969 381.798 178.27 381.14L398.67 253.9C400.98 252.56 400.98 250.39 398.67 249.06L283.35 182.46C282.049 181.802 280.612 181.459 279.155 181.459C277.697 181.459 276.26 181.802 274.96 182.46L54.5599 309.71C52.2499 311.05 52.2499 313.22 54.5599 314.55ZM257.22 199.68C259.22 198.53 261.22 199.2 263.22 200.35L368.08 260.89C370.08 262.03 370.08 263.89 368.08 265.04L196.52 364.11C195.403 364.673 194.17 364.966 192.92 364.966C191.67 364.966 190.437 364.673 189.32 364.11L84.4699 303.57C82.4699 302.42 82.4699 300.57 84.4699 299.42L257.22 199.68Z" fill="#FF5600"/>
<path opacity="0.3" d="M54.5599 314.55L169.88 381.14C171.18 381.798 172.617 382.141 174.075 382.141C175.532 382.141 176.969 381.798 178.27 381.14L398.67 253.9C400.98 252.56 400.98 250.39 398.67 249.06L283.35 182.46C282.049 181.802 280.612 181.459 279.155 181.459C277.697 181.459 276.26 181.802 274.96 182.46L54.5599 309.71C52.2499 311.05 52.2499 313.22 54.5599 314.55ZM257.22 199.68C259.22 198.53 261.22 199.2 263.22 200.35L368.08 260.89C370.08 262.03 370.08 263.89 368.08 265.04L196.52 364.11C195.403 364.673 194.17 364.966 192.92 364.966C191.67 364.966 190.437 364.673 189.32 364.11L84.4699 303.57C82.4699 302.42 82.4699 300.57 84.4699 299.42L257.22 199.68Z" fill="black"/>
<path d="M399.16 249.38C400.244 250.198 401.137 251.243 401.776 252.442C402.415 253.64 402.785 254.964 402.86 256.32V261.86C402.783 263.317 402.362 264.736 401.632 265.999C400.902 267.263 399.884 268.336 398.66 269.13L178.29 396.37C176.993 397.052 175.545 397.396 174.08 397.37V382.13C175.539 382.162 176.982 381.817 178.27 381.13L398.67 253.89C400.8 252.66 401 250.72 399.16 249.38Z" fill="#FF5600"/>
<path opacity="0.6" d="M399.16 249.38C400.244 250.198 401.137 251.243 401.776 252.442C402.415 253.64 402.785 254.964 402.86 256.32V261.86C402.783 263.317 402.362 264.736 401.632 265.999C400.902 267.263 399.884 268.336 398.66 269.13L178.29 396.37C176.993 397.052 175.545 397.396 174.08 397.37V382.13C175.539 382.162 176.982 381.817 178.27 381.13L398.67 253.89C400.8 252.66 401 250.72 399.16 249.38Z" fill="black"/>
<path d="M330 222.3C328.44 221.4 328.44 219.95 330 219.05C330.87 218.607 331.833 218.375 332.81 218.375C333.787 218.375 334.75 218.607 335.62 219.05C337.17 219.95 337.17 221.4 335.62 222.3C334.748 222.739 333.786 222.967 332.81 222.967C331.834 222.967 330.872 222.739 330 222.3Z" fill="black"/>
<path d="M123.12 346.14C120.728 346.186 118.363 345.622 116.25 344.5C114.32 343.38 113.25 341.87 113.25 340.24C113.25 338.61 114.31 337.1 116.25 335.99C118.381 334.91 120.737 334.348 123.126 334.35C125.515 334.352 127.87 334.917 130 336C131.93 337.11 133 338.62 133 340.25C133 341.88 131.94 343.39 130 344.51C127.883 345.63 125.515 346.191 123.12 346.14ZM123.12 335.33C120.902 335.285 118.709 335.808 116.75 336.85C115.14 337.78 114.26 338.98 114.26 340.24C114.26 341.5 115.14 342.7 116.75 343.63C118.724 344.631 120.907 345.152 123.12 345.152C125.333 345.152 127.516 344.631 129.49 343.63C131.1 342.7 131.98 341.5 131.98 340.24C131.98 338.98 131.1 337.78 129.49 336.85C127.53 335.811 125.338 335.288 123.12 335.33Z" fill="#E6E6E6"/>
<path d="M332.72 233.07L311 220.53C309.71 219.79 309.64 218.61 310.86 217.91C311.569 217.564 312.351 217.391 313.14 217.405C313.929 217.419 314.703 217.619 315.4 217.99L337.11 230.53C338.41 231.27 338.47 232.45 337.26 233.15C336.549 233.491 335.769 233.661 334.98 233.647C334.192 233.633 333.418 233.436 332.72 233.07Z" fill="black"/>
<path d="M257.22 199.68C259.22 198.53 261.22 199.2 263.22 200.35L368.08 260.89C370.08 262.03 370.08 263.89 368.08 265.04L196.52 364.11C195.403 364.673 194.17 364.966 192.92 364.966C191.67 364.966 190.437 364.673 189.32 364.11L84.47 303.57C82.47 302.42 82.47 300.57 84.47 299.42L257.22 199.68Z" fill="#FAFAFA"/>
<path d="M90.7699 265.09L87.3199 263.09C87.2252 263.052 87.1472 262.981 87.0999 262.89L84.9399 257.67L87.7499 256.04L87.6699 256.29L90.7699 265.09Z" fill="#FF5600"/>
<g opacity="0.4">
<path d="M90.7699 265.09L87.3199 263.09C87.2252 263.052 87.1472 262.981 87.0999 262.89L84.9399 257.67L87.7499 256.04L87.6699 256.29L90.7699 265.09Z" fill="black"/>
</g>
<path d="M87.3198 256.3L90.5998 264.92C90.6461 265.002 90.7152 265.069 90.7987 265.113C90.8822 265.157 90.9767 265.176 91.0707 265.168C91.1647 265.159 91.2542 265.124 91.3286 265.066C91.4029 265.007 91.4589 264.929 91.4898 264.84L94.9998 251.89L87.3198 256.3Z" fill="#FF5600"/>
<path opacity="0.2" d="M87.3198 256.3L90.5998 264.92C90.6461 265.002 90.7152 265.069 90.7987 265.113C90.8822 265.157 90.9767 265.176 91.0707 265.168C91.1647 265.159 91.2542 265.124 91.3286 265.066C91.4029 265.007 91.4589 264.929 91.4898 264.84L94.9998 251.89L87.3198 256.3Z" fill="black"/>
<path d="M140.11 136.14C140.071 135.34 139.843 134.56 139.445 133.865C139.047 133.17 138.49 132.579 137.82 132.14L136 131.09C135.288 130.73 134.502 130.542 133.705 130.542C132.907 130.542 132.121 130.73 131.41 131.09L73.4199 164.55C72.7482 164.987 72.1901 165.578 71.7919 166.273C71.3937 166.969 71.1668 167.749 71.1299 168.55V255.55C71.1668 256.351 71.3937 257.131 71.7919 257.826C72.1901 258.522 72.7482 259.113 73.4199 259.55L75.2899 260.63C75.9995 260.99 76.7841 261.178 77.5799 261.178C78.3757 261.178 79.1603 260.99 79.8699 260.63L137.67 227.23C138.389 226.772 138.986 226.147 139.413 225.409C139.839 224.671 140.082 223.841 140.12 222.99L140.11 136.14Z" fill="#FF5600"/>
<path opacity="0.3" d="M79.9998 260.51L137.67 227.22C138.382 226.755 138.975 226.129 139.401 225.392C139.827 224.656 140.073 223.829 140.12 222.98V136.32C140.12 134.76 139.03 134.13 137.68 134.91L79.9998 168.17C79.2873 168.635 78.6943 169.261 78.2687 169.998C77.843 170.734 77.5968 171.561 77.5498 172.41V259.1C77.5498 260.66 78.6498 261.29 79.9998 260.51Z" fill="black"/>
<path d="M86.36 248.81L131.36 222.86C131.899 222.508 132.347 222.033 132.668 221.476C132.99 220.918 133.175 220.293 133.21 219.65V147.65C133.21 146.46 132.38 145.99 131.36 146.58L86.36 172.56C85.8189 172.91 85.3684 173.384 85.0451 173.942C84.7219 174.5 84.5351 175.126 84.5 175.77V247.77C84.5 248.92 85.33 249.4 86.36 248.81Z" fill="#FF5600"/>
<path opacity="0.5" d="M71.1299 255.57C71.1668 256.371 71.3937 257.151 71.7919 257.847C72.1901 258.542 72.7482 259.133 73.4199 259.57L75.2899 260.65C75.9347 260.978 76.6419 261.164 77.3644 261.197C78.0869 261.229 78.8081 261.108 79.4799 260.84C78.3999 261.25 77.5799 260.63 77.5799 259.33V172.25C77.6098 171.452 77.8402 170.675 78.2499 169.99L71.7999 166.26C71.3857 166.943 71.1549 167.722 71.1299 168.52V255.57Z" fill="black"/>
<path opacity="0.1" d="M140.1 136C140.1 134.89 139.1 134.08 137.67 134.9L79.8698 168.27C79.1867 168.691 78.6303 169.288 78.2598 170L71.8098 166.28C72.186 165.578 72.7415 164.988 73.4198 164.57L131.36 131.11C132.071 130.75 132.857 130.562 133.655 130.562C134.452 130.562 135.238 130.75 135.95 131.11L137.82 132.19C138.462 132.613 139 133.175 139.395 133.834C139.79 134.494 140.031 135.234 140.1 136Z" fill="black"/>
<path d="M133.78 195.05C127.64 195.23 111.23 194.32 111.23 194.32C106.154 191.51 101.924 187.393 98.9782 182.395C96.0326 177.397 94.4794 171.701 94.4799 165.9V160.81C94.4421 156.115 96.007 151.547 98.9161 147.862C101.825 144.176 105.904 141.593 110.48 140.54C113.243 139.912 116.112 139.915 118.874 140.548C121.636 141.18 124.221 142.426 126.435 144.194C128.65 145.961 130.439 148.204 131.669 150.757C132.899 153.309 133.538 156.106 133.54 158.94C133.54 161.44 133.98 163.7 135.87 165.51C136.919 166.423 138.07 167.212 139.3 167.86C141.053 168.822 142.61 170.104 143.89 171.64C144.528 172.411 144.999 173.305 145.275 174.267C145.55 175.229 145.623 176.238 145.49 177.23C145.234 178.497 144.624 179.666 143.73 180.6C143.641 180.645 143.565 180.711 143.507 180.792C143.45 180.873 143.413 180.967 143.4 181.065C143.388 181.164 143.399 181.264 143.434 181.357C143.469 181.451 143.526 181.534 143.6 181.6C145.24 184.14 145.92 187.53 144.54 190.23C143.606 191.92 142.109 193.23 140.31 193.93C138.526 194.626 136.634 195.008 134.72 195.06L133.78 195.05Z" fill="#263238"/>
<path d="M103.65 197.48C103.369 199.734 102.49 201.873 101.104 203.673C99.7189 205.474 97.8771 206.871 95.7699 207.72L87.3299 248.25L84.5099 249.87L84.4099 201.87C86.8699 189.65 91.0899 188.23 98.6599 186.04C98.6499 186.07 104.8 190 103.65 197.48Z" fill="#B16668"/>
<path d="M174 195.78C170.097 202.592 165.845 209.197 161.26 215.57C160.12 217.08 156.95 221.26 155.26 221.68C153.15 222.2 151.35 220.53 150.26 219.76C146.43 217.1 126.62 197.4 126.62 197.4C120.45 188.8 122.01 183.32 122.84 183.32C123.67 183.32 130 181.66 135.42 186.95C139.51 190.95 153.51 205.42 153.51 205.42C156.82 201.54 158.99 199.62 162.29 195.72C163.89 193.83 166.29 191.79 166.45 189.18C166.433 187.987 166.326 186.797 166.13 185.62C165.929 182.899 166.101 180.164 166.64 177.49C166.653 177.368 166.687 177.25 166.74 177.14C166.83 176.99 166.967 176.874 167.13 176.81C167.434 176.724 167.758 176.741 168.051 176.859C168.344 176.977 168.59 177.188 168.75 177.46C169.058 178.011 169.227 178.629 169.24 179.26C169.256 179.893 169.391 180.517 169.64 181.1C169.696 181.217 169.778 181.319 169.88 181.4C169.995 181.468 170.126 181.502 170.26 181.5C171.02 181.5 171.42 180.69 171.69 180.09C172.342 178.695 172.871 177.247 173.27 175.76C173.54 174.76 174.01 173.76 174.35 172.76C174.495 172.155 174.819 171.608 175.28 171.19C175.733 170.96 176.239 170.857 176.746 170.89C177.253 170.924 177.741 171.093 178.16 171.38C178.666 171.626 179.145 171.925 179.59 172.27C180.879 173.46 181.731 175.048 182.01 176.78C182.371 178.782 182.237 180.842 181.62 182.78C180.837 185.51 179.552 188.071 177.83 190.33C176.5 192.15 175.1 193.87 174 195.78Z" fill="#B16668"/>
<path d="M130.34 209.58L129.94 217.86L131.16 222.95L111.42 234.35L91.4199 245.87L98.1399 224.57L95.7199 207.73C95.9799 207.51 98.9399 204.53 99.8999 197.49C100.8 190.76 99.1199 186.75 98.5999 186.08C98.8699 185.99 104.87 184.37 104.87 184.37L117.66 183.37L122.96 183.29C127.499 186.611 131.049 191.105 133.23 196.29C136.41 204.07 130.34 209.58 130.34 209.58Z" fill="#FAFAFA"/>
<path opacity="0.1" d="M102.39 234.13C103.24 230.34 107.92 228.29 106.07 226.76C104.22 225.23 99.4898 215.63 98.9998 211.22C98.7019 207.8 98.7019 204.36 98.9998 200.94C97.8298 206.67 95.3598 209.17 95.1298 209.37L97.5498 226.21L90.8298 247.51L108.21 237.51C104.2 237.55 101.9 236.3 102.39 234.13Z" fill="black"/>
<path opacity="0.9" d="M127.09 150.27C126.71 153.98 122.56 157.89 116.38 161.34C110.2 164.79 105.54 164.66 105.54 164.66C121.19 156.56 125 146.8 125 146.8C127.09 147.71 127.09 150.27 127.09 150.27Z" fill="#FF5600"/>
<path d="M127.09 150.27C128.37 151.56 130.09 154.94 129.95 166.27C129.8 175.85 126.72 178.27 125.16 178.93C123.6 179.59 120.6 179.23 117.67 178.76V183.43C117.67 183.43 121.67 187.93 121.39 190.56C121.11 193.19 117.1 195.14 109.57 189.56C105.91 186.83 104.88 184.42 104.88 184.42V171.84C104.88 171.84 103.17 173.52 100.24 170.99C97.8099 168.9 96.9798 165.36 98.8398 163.44C99.3225 162.983 99.9068 162.648 100.545 162.462C101.182 162.276 101.855 162.244 102.508 162.369C103.16 162.494 103.774 162.772 104.297 163.181C104.821 163.59 105.24 164.117 105.52 164.72C105.52 164.72 110.18 164.86 116.37 161.41C122.56 157.96 126.7 154 127.09 150.27Z" fill="#B16668"/>
<path d="M118.89 163.53C118.915 163.855 118.81 164.176 118.598 164.424C118.386 164.671 118.085 164.824 117.76 164.85C117.433 164.858 117.117 164.738 116.877 164.516C116.638 164.293 116.496 163.986 116.48 163.66C116.459 163.495 116.472 163.327 116.519 163.168C116.565 163.008 116.644 162.859 116.751 162.732C116.857 162.604 116.989 162.499 117.138 162.425C117.286 162.35 117.449 162.307 117.615 162.298C117.781 162.289 117.947 162.315 118.103 162.373C118.259 162.431 118.401 162.521 118.521 162.636C118.641 162.752 118.735 162.891 118.799 163.045C118.862 163.198 118.893 163.364 118.89 163.53Z" fill="#263238"/>
<path d="M119.05 171.76L122.25 172.76C122.196 172.974 122.099 173.176 121.965 173.352C121.83 173.527 121.662 173.674 121.469 173.782C121.276 173.891 121.063 173.959 120.844 173.983C120.624 174.006 120.401 173.985 120.19 173.92C119.757 173.777 119.397 173.473 119.184 173.07C118.972 172.667 118.923 172.198 119.05 171.76Z" fill="#9A4A4D"/>
<path d="M129.09 160.14L126.64 158.47C126.74 158.308 126.873 158.167 127.029 158.057C127.185 157.947 127.362 157.87 127.548 157.83C127.735 157.789 127.928 157.787 128.116 157.824C128.303 157.86 128.481 157.933 128.64 158.04C128.972 158.264 129.204 158.608 129.288 158.999C129.371 159.391 129.301 159.799 129.09 160.14Z" fill="#263238"/>
<path d="M128.55 163C128.551 163.235 128.484 163.465 128.356 163.662C128.228 163.858 128.046 164.013 127.831 164.107C127.616 164.201 127.378 164.23 127.147 164.191C126.915 164.151 126.701 164.044 126.529 163.884C126.358 163.723 126.238 163.516 126.183 163.288C126.128 163.06 126.142 162.82 126.222 162.6C126.301 162.379 126.444 162.186 126.632 162.046C126.82 161.906 127.046 161.824 127.28 161.81C127.441 161.805 127.602 161.831 127.754 161.888C127.905 161.945 128.044 162.031 128.162 162.142C128.279 162.252 128.374 162.385 128.441 162.532C128.508 162.68 128.545 162.838 128.55 163Z" fill="#263238"/>
<path d="M123.12 161.73L123.11 169.57L126.92 168.37L123.12 161.73Z" fill="#9A4A4D"/>
<path d="M117.67 178.73C114.59 178.35 108.24 176.58 107.24 174.08C107.645 175.344 108.426 176.454 109.48 177.26C111.39 178.87 117.69 180.65 117.69 180.65L117.67 178.73Z" fill="#9A4A4D"/>
<path d="M105.56 168.6C106.199 168.6 106.812 168.346 107.264 167.894C107.716 167.442 107.97 166.829 107.97 166.19C107.97 165.551 107.716 164.938 107.264 164.486C106.812 164.034 106.199 163.78 105.56 163.78V168.6Z" fill="#263238"/>
<path d="M188.26 328.62L184.81 326.62C184.717 326.578 184.64 326.508 184.59 326.42L182.42 321.2L185.24 319.57L185.15 319.82L188.26 328.62Z" fill="#FF5600"/>
<g opacity="0.4">
<path d="M188.26 328.62L184.81 326.62C184.717 326.578 184.64 326.508 184.59 326.42L182.42 321.2L185.24 319.57L185.15 319.82L188.26 328.62Z" fill="black"/>
</g>
<path d="M184.81 319.83L188.09 328.45C188.136 328.532 188.205 328.6 188.289 328.643C188.372 328.687 188.467 328.706 188.561 328.698C188.655 328.689 188.744 328.654 188.819 328.596C188.893 328.538 188.949 328.459 188.98 328.37L192.44 315.42L184.81 319.83Z" fill="#FF5600"/>
<path opacity="0.2" d="M184.81 319.83L188.09 328.45C188.136 328.532 188.205 328.6 188.289 328.643C188.372 328.687 188.467 328.706 188.561 328.698C188.655 328.689 188.744 328.654 188.819 328.596C188.893 328.538 188.949 328.459 188.98 328.37L192.44 315.42L184.81 319.83Z" fill="black"/>
<path d="M237.59 199.67C237.553 198.869 237.326 198.089 236.928 197.394C236.53 196.698 235.972 196.107 235.3 195.67L233.43 194.59C232.72 194.23 231.936 194.042 231.14 194.042C230.344 194.042 229.56 194.23 228.85 194.59L170.91 228.05C170.237 228.487 169.677 229.077 169.277 229.773C168.877 230.468 168.649 231.249 168.61 232.05V319.1C168.649 319.901 168.877 320.682 169.277 321.378C169.677 322.073 170.237 322.663 170.91 323.1L172.77 324.18C173.481 324.54 174.267 324.728 175.065 324.728C175.862 324.728 176.648 324.54 177.36 324.18L235.16 290.77C235.877 290.313 236.472 289.69 236.897 288.953C237.322 288.217 237.563 287.389 237.6 286.54L237.59 199.67Z" fill="#FF5600"/>
<path opacity="0.6" d="M183.84 312.34L228.84 286.39C229.378 286.038 229.827 285.564 230.148 285.006C230.469 284.448 230.655 283.823 230.69 283.18V211.18C230.69 210 229.86 209.52 228.84 210.11L183.84 236.11C183.306 236.461 182.861 236.933 182.541 237.487C182.222 238.041 182.036 238.662 182 239.3V311.3C182 312.45 182.82 312.93 183.84 312.34Z" fill="white"/>
<path opacity="0.1" d="M168.61 319.1C168.649 319.901 168.877 320.682 169.277 321.378C169.677 322.073 170.237 322.663 170.91 323.1L172.77 324.18C173.417 324.505 174.126 324.69 174.85 324.722C175.573 324.755 176.296 324.635 176.97 324.37C175.89 324.78 175.07 324.16 175.07 322.86V235.86C175.098 235.061 175.333 234.282 175.75 233.6L169.29 229.87C168.88 230.555 168.65 231.332 168.62 232.13L168.61 319.1Z" fill="black"/>
<path opacity="0.6" d="M237.59 199.54C237.59 198.43 236.53 197.62 235.15 198.44L177.36 231.81C176.679 232.228 176.12 232.817 175.74 233.52L169.29 229.8C169.673 229.099 170.231 228.51 170.91 228.09L228.85 194.62C229.561 194.265 230.345 194.081 231.14 194.081C231.935 194.081 232.719 194.265 233.43 194.62L235.31 195.7C235.953 196.128 236.492 196.696 236.887 197.361C237.281 198.025 237.522 198.77 237.59 199.54Z" fill="white"/>
<path d="M230.65 283.18V259.39C228.2 251.85 223.03 245.87 214.98 246.63L222.41 265.29L228 286.83L228.76 286.39C229.306 286.042 229.762 285.57 230.091 285.012C230.419 284.454 230.611 283.826 230.65 283.18Z" fill="#EBEBEB"/>
<path d="M192.2 250.21C190.31 251.05 189.2 253.78 188.48 255.71C187.326 258.702 186.651 261.858 186.48 265.06L187.37 291.14L187.05 310.48L228.05 286.83C228.05 286.83 227.49 268.19 227.49 261.48C227.49 261.18 227.49 260.87 227.49 260.56C227.295 257.265 226.026 254.125 223.877 251.621C221.727 249.116 218.817 247.384 215.59 246.69C213.26 246.16 199.35 247.96 199.35 247.96L192.23 250.21H192.2Z" fill="#461082"/>
<path d="M215.81 274.65C215.762 273.903 215.658 273.161 215.5 272.43C215.3 271.624 215.179 270.8 215.14 269.97C215.165 269.128 215.255 268.288 215.41 267.46C215.85 264.64 215.99 261.46 213.89 259.22C213.67 258.98 212.95 258.99 213.2 259.45C213.941 260.704 214.404 262.102 214.56 263.55C214.612 265.012 214.498 266.474 214.22 267.91C214.085 268.696 214.025 269.493 214.04 270.29C214.117 271.021 214.244 271.746 214.42 272.46C214.584 273.136 214.715 273.821 214.81 274.51C214.81 274.85 214.88 275.2 214.89 275.51C214.845 275.909 214.845 276.311 214.89 276.71C214.96 276.97 215.34 277.19 215.51 276.9C215.795 276.187 215.898 275.413 215.81 274.65Z" fill="#EBEBEB"/>
<path d="M213.09 261.56C213.01 260.86 212.72 259.65 211.88 259.48C211.74 259.48 211.68 259.6 211.71 259.71C211.878 260.069 212.019 260.44 212.13 260.82C212.199 261.233 212.232 261.651 212.23 262.07C212.221 262.946 212.11 263.819 211.9 264.67C211.6 265.84 210.9 266.9 210.6 268.07C210.112 269.417 210.088 270.888 210.53 272.25C210.59 272.39 210.79 272.48 210.87 272.32C211.156 271.483 211.298 270.604 211.29 269.72C211.38 268.981 211.558 268.256 211.82 267.56C212.305 266.543 212.69 265.481 212.97 264.39C213.144 263.457 213.184 262.504 213.09 261.56Z" fill="#EBEBEB"/>
<path d="M202.9 218.67C202.9 221.01 203.594 223.297 204.894 225.242C206.194 227.188 208.041 228.704 210.203 229.6C212.364 230.495 214.743 230.729 217.038 230.273C219.333 229.816 221.441 228.69 223.095 227.035C224.749 225.381 225.876 223.273 226.333 220.978C226.789 218.683 226.555 216.305 225.659 214.143C224.764 211.981 223.248 210.134 221.302 208.834C219.357 207.534 217.07 206.84 214.73 206.84C211.592 206.84 208.583 208.086 206.365 210.305C204.146 212.524 202.9 215.533 202.9 218.67Z" fill="#263238"/>
<path d="M194.28 227.08C194.28 227.08 196.2 236.08 196.97 237.57C197.48 238.482 198.322 239.162 199.32 239.47L199.19 233.13L194.28 227.08Z" fill="#263238"/>
<path d="M196.75 214.16C196.673 213.875 196.538 213.609 196.352 213.38C196.166 213.151 195.933 212.963 195.67 212.83C195.306 212.696 194.916 212.645 194.53 212.68C193.435 212.719 192.382 213.112 191.53 213.8C191.116 214.147 190.779 214.577 190.543 215.063C190.307 215.549 190.176 216.08 190.16 216.62C190.214 217.348 190.426 218.056 190.78 218.695C191.134 219.333 191.621 219.888 192.21 220.32C191.697 220.58 191.292 221.012 191.065 221.54C190.838 222.068 190.805 222.659 190.97 223.21C191.225 224.043 191.719 224.784 192.39 225.34C192.914 225.919 193.497 226.442 194.13 226.9C194.563 227.111 195.038 227.224 195.52 227.23C196.304 227.281 197.085 227.371 197.86 227.5L197.41 222.5C197.29 221.14 197.16 219.78 197.04 218.42C197.04 217.82 196.91 217.21 196.88 216.61C196.923 215.807 196.876 215.002 196.74 214.21L196.75 214.16Z" fill="#263238"/>
<path d="M199 227.5C198.28 227.93 197.25 226.5 196.35 225.61C195.45 224.72 192.55 223.4 191.09 226.46C189.63 229.52 192.38 233.71 194.67 234.46C198.67 235.7 199.22 233.16 199.22 233.16L199.51 249.16C204.43 255.47 218.08 254.98 212.39 248.4V242.71C214.152 242.99 215.939 243.081 217.72 242.98C220.63 242.53 222.46 240.24 223.34 237.09C224.76 232.03 225.34 227.95 224.09 218.01C222.78 207.1 210.09 207.01 203.25 211.3C196.41 215.59 199 227.5 199 227.5Z" fill="#7C4A4A"/>
<path d="M212 258.22C206.974 255.46 202.662 251.563 199.41 246.84V244.73C199.41 244.73 193.56 245.88 191.55 247.81C189.54 249.74 189.55 250.48 189.55 250.48L192.43 250.21C192.43 250.21 194.43 249.71 197.9 252.86C202.36 256.91 209.43 260.22 212 258.22Z" fill="#EBEBEB"/>
<path d="M212.35 245.26V248.37C212.857 249.541 213.142 250.795 213.19 252.07C213.086 254.164 212.692 256.234 212.02 258.22C212.02 258.22 213.18 258.22 214.72 256.48C217.31 253.6 216.64 248.77 216.41 247.27C216.18 245.77 214.53 244.51 212.34 243.96L212.35 245.26Z" fill="#EBEBEB"/>
<path d="M195.25 218.17C195.05 217.11 195.64 216.08 195.51 215.02C195.38 213.96 194.7 213.47 194.4 212.58C194.195 211.941 194.14 211.263 194.239 210.599C194.337 209.935 194.588 209.302 194.97 208.75C195.362 208.204 195.866 207.748 196.449 207.413C197.032 207.079 197.681 206.873 198.35 206.81C198.701 206.758 199.059 206.778 199.403 206.867C199.746 206.956 200.068 207.114 200.35 207.33C200.302 206.464 200.58 205.611 201.13 204.94C201.82 204.064 202.81 203.476 203.91 203.29C204.487 203.215 205.073 203.245 205.64 203.38C205.8 203.38 207.14 203.8 207.11 203.98C207.252 203.237 207.614 202.554 208.149 202.02C208.684 201.485 209.367 201.123 210.11 200.98C210.852 200.865 211.611 200.946 212.313 201.215C213.014 201.483 213.634 201.929 214.11 202.51C214.711 202.059 215.419 201.773 216.164 201.68C216.91 201.587 217.667 201.69 218.36 201.98C219.058 202.245 219.685 202.67 220.19 203.22C220.441 203.493 220.662 203.791 220.85 204.11C221.03 204.41 221.05 204.79 221.22 205.06C222.32 204.68 223.503 204.611 224.64 204.86C225.619 205.122 226.494 205.679 227.145 206.455C227.797 207.232 228.193 208.19 228.28 209.2C228.433 210.341 228.143 211.497 227.47 212.43C227.012 213.004 226.405 213.442 225.716 213.694C225.026 213.946 224.28 214.004 223.56 213.86C223.395 214.641 223.019 215.362 222.474 215.945C221.929 216.527 221.235 216.95 220.467 217.168C219.699 217.385 218.886 217.388 218.117 217.177C217.347 216.966 216.65 216.549 216.1 215.97C215.792 216.564 215.342 217.073 214.79 217.45C213.757 218.061 212.533 218.26 211.36 218.01C210.223 217.819 209.174 217.277 208.36 216.46C208.301 217.15 208.022 217.803 207.565 218.323C207.108 218.843 206.496 219.203 205.82 219.35C204.456 219.603 203.053 219.556 201.71 219.21C202.34 220.027 202.637 221.053 202.54 222.08C202.484 222.591 202.255 223.068 201.891 223.432C201.528 223.795 201.051 224.024 200.54 224.08C200.815 225.153 200.815 226.277 200.54 227.35C200.461 227.786 200.239 228.184 199.91 228.48C198.66 229.43 197.18 226.3 196.43 225.63C195.97 225.2 196 224.22 195.97 223.63C195.94 223.04 195.97 222.46 195.97 221.88C196.054 221.512 196.111 221.137 196.14 220.76C195.9 219.86 195.42 219.05 195.25 218.17Z" fill="#263238"/>
<path d="M194.38 213.63L190 211.28C190.139 210.985 190.336 210.722 190.58 210.505C190.824 210.289 191.11 210.124 191.419 210.021C191.729 209.919 192.056 209.88 192.381 209.907C192.706 209.934 193.022 210.027 193.31 210.18C193.897 210.508 194.335 211.049 194.534 211.691C194.733 212.333 194.678 213.028 194.38 213.63Z" fill="#263238"/>
<path d="M212.35 242.68C212.35 242.68 205.86 241.37 203.59 240.17C202.255 239.472 201.16 238.389 200.45 237.06C200.789 238.388 201.394 239.633 202.23 240.72C203.89 242.84 212.35 244.41 212.35 244.41V242.68Z" fill="#9C5353"/>
<path d="M212 225.88C211.988 226.134 211.902 226.379 211.752 226.585C211.603 226.791 211.396 226.948 211.157 227.037C210.919 227.127 210.66 227.144 210.412 227.087C210.163 227.031 209.937 226.902 209.762 226.718C209.586 226.534 209.468 226.303 209.422 226.052C209.377 225.802 209.406 225.544 209.506 225.31C209.606 225.076 209.772 224.876 209.984 224.736C210.197 224.595 210.445 224.52 210.7 224.52C210.875 224.524 211.047 224.562 211.207 224.633C211.367 224.703 211.511 224.804 211.632 224.931C211.752 225.057 211.847 225.206 211.91 225.369C211.974 225.532 212.004 225.705 212 225.88Z" fill="#263238"/>
<path d="M210.65 221L207.87 222.54C207.671 222.158 207.627 221.713 207.748 221.299C207.869 220.885 208.146 220.535 208.52 220.32C208.703 220.221 208.905 220.159 209.113 220.14C209.321 220.12 209.531 220.143 209.73 220.206C209.929 220.27 210.113 220.373 210.271 220.509C210.429 220.646 210.558 220.813 210.65 221Z" fill="#263238"/>
<path d="M211.76 234.86L214.76 235.98C214.697 236.179 214.594 236.363 214.459 236.521C214.323 236.679 214.157 236.809 213.971 236.902C213.785 236.996 213.581 237.05 213.373 237.064C213.165 237.077 212.957 237.049 212.76 236.98C212.347 236.831 212.009 236.524 211.822 236.127C211.634 235.729 211.612 235.274 211.76 234.86Z" fill="#9C5353"/>
<path d="M223.26 222.05L220.72 220.05C220.838 219.878 220.99 219.733 221.167 219.622C221.343 219.511 221.541 219.437 221.747 219.405C221.953 219.374 222.163 219.384 222.365 219.437C222.567 219.489 222.755 219.582 222.92 219.71C223.271 219.978 223.504 220.373 223.567 220.811C223.631 221.248 223.521 221.693 223.26 222.05Z" fill="#263238"/>
<path d="M222.48 225.51C222.482 225.684 222.451 225.857 222.386 226.019C222.321 226.181 222.226 226.328 222.104 226.453C221.982 226.577 221.837 226.677 221.676 226.745C221.516 226.813 221.344 226.849 221.17 226.85C220.901 226.858 220.636 226.785 220.408 226.642C220.181 226.498 220.001 226.289 219.893 226.043C219.785 225.796 219.753 225.523 219.802 225.258C219.85 224.994 219.976 224.749 220.164 224.557C220.353 224.364 220.594 224.233 220.857 224.178C221.121 224.124 221.395 224.15 221.644 224.252C221.893 224.355 222.105 224.529 222.254 224.753C222.403 224.977 222.482 225.241 222.48 225.51Z" fill="#263238"/>
<path d="M215.85 224.27L216.27 232.1L220.36 230.7L215.85 224.27Z" fill="#9C5353"/>
<path d="M241.34 286L240.34 285.14C240.193 285.045 240.026 284.986 239.853 284.966C239.679 284.947 239.503 284.969 239.34 285.03L228.5 288C227.955 288.183 227.455 288.481 227.036 288.875C226.617 289.268 226.287 289.748 226.07 290.28L218.27 312.77C218.171 312.953 218.131 313.161 218.156 313.367C218.181 313.573 218.27 313.767 218.41 313.92L219.41 314.81C219.556 314.905 219.722 314.966 219.896 314.986C220.069 315.007 220.245 314.988 220.41 314.93L231.31 312C231.854 311.818 232.353 311.521 232.772 311.13C233.191 310.738 233.521 310.261 233.74 309.73L241.54 287.24C241.73 286.63 241.63 286.21 241.34 286Z" fill="#461082"/>
<path d="M219.27 313.61L227.07 291.12C227.288 290.59 227.618 290.112 228.038 289.721C228.457 289.329 228.956 289.032 229.5 288.85L240.34 285.85C241.34 285.58 241.88 286.15 241.54 287.14L233.74 309.63C233.521 310.161 233.191 310.638 232.772 311.03C232.353 311.421 231.854 311.718 231.31 311.9L220.47 314.85C219.47 315.17 218.93 314.6 219.27 313.61Z" fill="#EBEBEB"/>
<path d="M228.32 289.47C227.763 289.898 227.331 290.468 227.07 291.12L219.27 313.61C219.18 313.79 219.143 313.991 219.163 314.191C219.182 314.391 219.257 314.581 219.38 314.74L218.38 313.91C218.239 313.758 218.148 313.565 218.121 313.359C218.094 313.153 218.132 312.944 218.23 312.76L226.03 290.26C226.27 289.648 226.667 289.11 227.18 288.7L228.32 289.47Z" fill="#263238"/>
<path d="M173.61 308.2L183.7 296.63C183.7 296.63 211.26 300.98 214.35 301.03C217.44 301.08 219.7 298.16 221.69 295.61C222.505 294.805 223.556 294.283 224.69 294.12L223.61 297.23C223.48 297.59 224.91 298.07 225.09 298.13C226.017 298.434 226.985 298.595 227.96 298.61C230.142 298.662 232.311 298.26 234.33 297.43C235.411 296.875 236.561 296.465 237.75 296.21C237.955 296.162 238.171 296.187 238.36 296.28C238.66 296.46 238.69 296.87 238.68 297.22C238.55 300.931 237.067 304.467 234.51 307.16C233.958 307.747 233.348 308.276 232.69 308.74C229.02 311.29 224.48 311.26 220.22 310.97C218.613 310.87 217.003 310.81 215.39 310.79C205.26 310.71 178.3 309.36 173.61 308.2Z" fill="#7C4A4A"/>
<path d="M207.09 300.16L214.35 301.03C212.93 302.75 211.88 308.41 213.15 310.76H204.21C203.28 306.66 203.65 303 207.09 300.16Z" fill="#461082"/>
<path d="M185.26 294.63C183.07 294.26 192.06 296.11 197.5 297.16C202.36 298.1 206.65 298.67 207.09 300.16C207.09 300.16 204.21 306.39 205.09 310.51C205.09 310.51 204.53 311.28 199.85 311.51C195.17 311.74 175.53 310.41 172.91 308.91C170.29 307.41 169.34 305.51 170.02 301.31L185.26 294.63Z" fill="#EBEBEB"/>
<path d="M170 301.3C170.05 300.51 172.28 280 175 265.64C176.85 255.96 181.94 251.64 189.5 250.48L192.17 250.06C196.88 253.06 193.25 267.83 188.53 275.9L185.73 297.16L173.31 307.66C169.63 306.92 169.93 302.42 170 301.3Z" fill="#EBEBEB"/>
<path d="M272.3 216.67L268.85 214.67C268.759 214.626 268.683 214.556 268.63 214.47L266.46 209.25L269.28 207.62L269.19 207.87L272.3 216.67Z" fill="#FF5600"/>
<g opacity="0.4">
<path d="M272.3 216.67L268.85 214.67C268.759 214.626 268.683 214.556 268.63 214.47L266.46 209.25L269.28 207.62L269.19 207.87L272.3 216.67Z" fill="white"/>
</g>
<path d="M268.85 207.88L272.13 216.5C272.176 216.582 272.245 216.649 272.329 216.693C272.412 216.737 272.507 216.756 272.601 216.748C272.695 216.739 272.784 216.704 272.859 216.646C272.933 216.588 272.989 216.509 273.02 216.42L276.48 203.47L268.85 207.88Z" fill="#FF5600"/>
<path opacity="0.6" d="M268.85 207.88L272.13 216.5C272.176 216.582 272.245 216.649 272.329 216.693C272.412 216.737 272.507 216.756 272.601 216.748C272.695 216.739 272.784 216.704 272.859 216.646C272.933 216.588 272.989 216.509 273.02 216.42L276.48 203.47L268.85 207.88Z" fill="white"/>
<path d="M321.63 87.72C321.593 86.9194 321.366 86.1391 320.968 85.4435C320.57 84.748 320.012 84.1572 319.34 83.72L317.48 82.64C316.769 82.2798 315.982 82.092 315.185 82.092C314.388 82.092 313.601 82.2798 312.89 82.64L255 116.13C254.327 116.567 253.767 117.157 253.367 117.853C252.968 118.548 252.739 119.329 252.7 120.13V207.18C252.739 207.981 252.968 208.762 253.367 209.457C253.767 210.153 254.327 210.743 255 211.18L256.86 212.26C257.571 212.62 258.358 212.808 259.155 212.808C259.952 212.808 260.739 212.62 261.45 212.26L319.25 178.85C319.967 178.393 320.563 177.77 320.987 177.033C321.412 176.297 321.653 175.469 321.69 174.62L321.63 87.72Z" fill="#FF5600"/>
<path opacity="0.6" d="M261.53 212.1L319.2 178.81C319.911 178.345 320.503 177.718 320.926 176.982C321.35 176.245 321.595 175.419 321.64 174.57V87.9101C321.64 86.3501 320.55 85.7201 319.2 86.5001L261.53 119.77C260.816 120.231 260.222 120.855 259.796 121.59C259.37 122.326 259.124 123.151 259.08 124V210.69C259.08 212.25 260.17 212.88 261.53 212.1Z" fill="white"/>
<path opacity="0.6" d="M267.88 200.39L312.88 174.44C313.419 174.088 313.867 173.614 314.188 173.056C314.509 172.498 314.695 171.873 314.73 171.23V99.2301C314.73 98.0501 313.9 97.5701 312.88 98.1601L267.88 124.16C267.341 124.512 266.893 124.987 266.572 125.544C266.25 126.102 266.065 126.727 266.03 127.37V199.37C266 200.5 266.86 201 267.88 200.39Z" fill="white"/>
<path opacity="0.4" d="M252.65 207.15C252.689 207.951 252.918 208.732 253.317 209.427C253.717 210.123 254.277 210.713 254.95 211.15L256.81 212.23C257.457 212.555 258.166 212.739 258.89 212.772C259.613 212.805 260.336 212.685 261.01 212.42C259.93 212.83 259.11 212.21 259.11 210.9V123.9C259.132 123.101 259.363 122.322 259.78 121.64L253.32 117.91C252.91 118.595 252.68 119.372 252.65 120.17V207.15Z" fill="white"/>
<path opacity="0.8" d="M321.63 87.5901C321.63 86.4801 320.57 85.6701 319.2 86.4901L261.4 119.86C260.719 120.278 260.16 120.868 259.78 121.57L253.33 117.85C253.713 117.149 254.271 116.56 254.95 116.14L312.89 82.6701C313.601 82.3153 314.385 82.1306 315.18 82.1306C315.975 82.1306 316.759 82.3153 317.47 82.6701L319.35 83.7501C319.995 84.1769 320.535 84.744 320.93 85.409C321.324 86.074 321.564 86.8196 321.63 87.5901Z" fill="white"/>
<path d="M313.509 113.975C316.055 103.187 309.374 92.3775 298.586 89.8313C287.798 87.2851 276.988 93.9663 274.442 104.754C271.896 115.542 278.577 126.352 289.365 128.898C300.153 131.444 310.963 124.763 313.509 113.975Z" fill="#263238"/>
<path d="M287.48 113.92C287.48 113.92 284.21 112.57 284.25 110.54C284.248 110.279 284.304 110.021 284.414 109.785C284.524 109.549 284.686 109.34 284.887 109.174C285.088 109.008 285.324 108.889 285.577 108.826C285.83 108.763 286.094 108.758 286.35 108.81C287.24 110.034 288.293 111.131 289.48 112.07C290.72 112.81 288.48 114.44 287.48 113.92Z" fill="#FF5600"/>
<path d="M276.81 138.91C272 139.91 268.48 141.22 266.03 152.91V199.28C266.03 200.44 266.83 200.92 267.83 200.37L268.83 199.79L276.51 163C276.83 162.86 283.96 157 285.18 149.06C286.32 141.6 276.81 138.91 276.81 138.91Z" fill="#823F29"/>
<path d="M305.11 134.63C308.05 134.43 309.2 134.75 311.49 137.01C312.693 138.192 313.766 139.499 314.69 140.91V157.58L305.57 156.97L305.11 134.63Z" fill="#FF5600"/>
<path opacity="0.1" d="M305.11 134.63C308.05 134.43 309.2 134.75 311.49 137.01C312.693 138.192 313.766 139.499 314.69 140.91V157.58L305.57 156.97L305.11 134.63Z" fill="black"/>
<path d="M311.49 171.61L312.49 162.99C313.73 162.05 314.49 160.64 315.49 158.42C316.338 155.82 316.239 153.004 315.21 150.47C314.1 147.87 313.5 146.61 312.99 145.66C310.992 141.579 308.325 137.861 305.1 134.66L299.22 135.01L286.63 136.52L276.8 138.94C283.89 148.94 276.5 163.02 276.5 163.02L280.17 175.02C280.17 175.02 275.92 184.19 273.51 190.92C274.722 192.51 276.368 193.715 278.25 194.39L312.18 174.8C311.91 173.65 311.66 172.56 311.49 171.61Z" fill="#FF5600"/>
<path opacity="0.05" d="M286.14 160.55C286.14 160.77 287.58 164.12 292.81 165.24C298.04 166.36 302.38 164.55 304.71 161.71C304.71 161.71 302.71 168.87 292.92 166.97C286.44 165.72 286.14 160.55 286.14 160.55Z" fill="black"/>
<path opacity="0.05" d="M284.17 179.57C286.802 179.981 289.478 180.018 292.12 179.68C292.77 179.6 293.53 179.42 293.81 178.82C294.23 177.91 293.22 177.02 292.37 176.49C289.715 174.812 287.274 172.817 285.1 170.55C283.716 169.239 282.628 167.646 281.91 165.88C280.91 163.09 281.55 160.04 281.76 157.09C281.929 154.777 281.841 152.453 281.5 150.16C281.262 148 280.481 145.936 279.23 144.16C281.65 153.22 276.51 163.03 276.51 163.03L280.18 175.03C280.18 175.03 279.67 176.11 278.92 177.81C280.535 178.74 282.32 179.339 284.17 179.57Z" fill="black"/>
<path d="M311.49 171.61C311.01 172.25 308.03 176 299.29 177.03C290.55 178.06 280.18 175.03 280.18 175.03C280.18 175.03 275.1 183.75 273.02 191.46C272.18 194.56 271.32 198.41 271.32 198.41L312.19 174.81L311.49 171.61Z" fill="#EBEBEB"/>
<path d="M276.81 138.91C275.076 138.863 273.368 139.34 271.91 140.28C269.41 141.85 267.91 143.78 266.03 150.95V174.27C266.03 174.27 268.56 176.93 274.29 176.12C274.13 175.85 277.29 162.4 277.29 162.4C279.659 157.951 280.684 152.91 280.24 147.89C279.61 141.39 276.81 138.91 276.81 138.91Z" fill="#FF5600"/>
<path opacity="0.1" d="M276.81 138.91C275.076 138.863 273.368 139.34 271.91 140.28C269.41 141.85 267.91 143.78 266.03 150.95V174.27C266.03 174.27 268.56 176.93 274.29 176.12C274.13 175.85 277.29 162.4 277.29 162.4C279.659 157.951 280.684 152.91 280.24 147.89C279.61 141.39 276.81 138.91 276.81 138.91Z" fill="black"/>
<path d="M308.61 101.84C309.9 103.13 311.66 106.52 311.48 117.84C311.32 127.41 308.24 129.84 306.68 130.49C305.12 131.14 302.12 130.79 299.2 130.33V135C299.2 135 303.2 139.49 302.92 142.13C302.64 144.77 298.63 146.7 291.11 141.13C287.44 138.4 286.54 136.96 286.54 136.96L286.39 123.41C286.39 123.41 284.68 125.09 281.75 122.56C279.33 120.48 278.49 116.93 280.35 115.02C280.833 114.564 281.417 114.228 282.055 114.042C282.692 113.856 283.365 113.824 284.018 113.949C284.67 114.074 285.284 114.352 285.808 114.761C286.331 115.17 286.75 115.697 287.03 116.3C287.03 116.3 291.7 116.43 297.88 112.98C304.06 109.53 308.22 105.56 308.61 101.84Z" fill="#823F29"/>
<path d="M286.64 136.49L280.28 138.05C280.28 138.05 287.33 147.05 296.96 147.89C306.59 148.73 309.22 143.41 302.09 134.81L299.23 134.98L286.64 136.49Z" fill="#823F29"/>
<path d="M273.92 109.37C273.92 114.16 273.17 124.19 281.24 129.43C288.53 134.17 292.09 130.16 292.09 130.16C291.454 130.358 290.783 130.416 290.123 130.327C289.464 130.239 288.831 130.008 288.27 129.65C286.45 128.35 286.42 126.18 286.42 123.35C285.927 123.805 285.336 124.142 284.694 124.336C284.051 124.53 283.373 124.575 282.71 124.468C282.047 124.361 281.418 124.105 280.868 123.719C280.319 123.333 279.865 122.827 279.54 122.24C279.477 122.14 279.42 122.037 279.37 121.93C277.06 117.56 273.92 109.37 273.92 109.37Z" fill="#263238"/>
<path d="M300.41 115.1C300.413 115.335 300.348 115.566 300.221 115.764C300.095 115.962 299.913 116.119 299.698 116.214C299.483 116.31 299.245 116.34 299.013 116.302C298.781 116.263 298.565 116.157 298.393 115.997C298.221 115.837 298.1 115.63 298.044 115.402C297.988 115.173 298.001 114.933 298.081 114.712C298.16 114.491 298.303 114.298 298.491 114.157C298.68 114.016 298.905 113.934 299.14 113.92C299.464 113.912 299.778 114.031 300.015 114.251C300.253 114.472 300.394 114.776 300.41 115.1Z" fill="#263238"/>
<path d="M300.58 123.34L303.78 124.34C303.725 124.555 303.627 124.756 303.491 124.932C303.356 125.108 303.187 125.255 302.993 125.363C302.8 125.471 302.586 125.54 302.366 125.563C302.145 125.587 301.922 125.565 301.71 125.5C301.276 125.36 300.915 125.055 300.703 124.651C300.492 124.247 300.448 123.776 300.58 123.34Z" fill="#AB4C29"/>
<path d="M310.61 111.72L308.16 110.05C308.261 109.889 308.394 109.749 308.55 109.64C308.707 109.531 308.883 109.454 309.069 109.414C309.256 109.374 309.448 109.372 309.635 109.407C309.823 109.442 310.001 109.515 310.16 109.62C310.49 109.846 310.72 110.19 310.804 110.58C310.888 110.971 310.818 111.379 310.61 111.72Z" fill="#263238"/>
<path d="M310.07 114.55C310.083 114.711 310.065 114.872 310.015 115.026C309.966 115.179 309.886 115.321 309.78 115.443C309.675 115.565 309.547 115.665 309.402 115.736C309.258 115.808 309.101 115.85 308.94 115.86C308.615 115.871 308.3 115.753 308.062 115.532C307.824 115.311 307.683 115.005 307.67 114.68C307.656 114.519 307.675 114.358 307.724 114.205C307.774 114.051 307.854 113.909 307.959 113.787C308.065 113.665 308.193 113.566 308.337 113.494C308.482 113.422 308.639 113.38 308.8 113.37C309.124 113.359 309.44 113.477 309.678 113.698C309.916 113.919 310.057 114.226 310.07 114.55Z" fill="#263238"/>
<path d="M304.25 113.3L304.24 121.15L308.05 119.94L304.25 113.3Z" fill="#AB4C29"/>
<path d="M299.2 130.31C296.11 129.93 289.76 128.15 288.76 125.65C289.162 126.915 289.944 128.026 291 128.83C292.91 130.44 299.21 132.23 299.21 132.23L299.2 130.31Z" fill="#AB4C29"/>
<path d="M287.08 120.18C287.693 120.141 288.269 119.869 288.69 119.42C289.11 118.972 289.344 118.38 289.344 117.765C289.344 117.15 289.11 116.558 288.69 116.11C288.269 115.661 287.693 115.39 287.08 115.35V120.18Z" fill="#263238"/>
<path d="M201.08 147.45L197.32 140.38L200.32 131.65V126.3L191.06 131.65V137L195.06 143.9C195.124 144.005 195.218 144.089 195.33 144.14L201.08 147.45Z" fill="#263238"/>
<path d="M216.65 97.9199C216.598 96.9583 216.321 96.0224 215.839 95.1884C215.358 94.3543 214.687 93.6456 213.88 93.1199L211.62 91.8099C210.759 91.3756 209.809 91.1494 208.845 91.1494C207.881 91.1494 206.931 91.3756 206.07 91.8099L182 105.72C181.191 106.247 180.518 106.957 180.035 107.792C179.552 108.628 179.273 109.566 179.22 110.53V138.35C179.273 139.314 179.552 140.252 180.035 141.087C180.518 141.923 181.191 142.633 182 143.16L184.26 144.47C185.121 144.904 186.071 145.13 187.035 145.13C187.999 145.13 188.949 144.904 189.81 144.47L196.92 140.36L200.92 147.24C200.978 147.338 201.062 147.417 201.163 147.469C201.265 147.52 201.378 147.542 201.492 147.532C201.605 147.521 201.713 147.479 201.803 147.409C201.893 147.34 201.961 147.247 202 147.14L206.14 135L213.88 130.54C214.686 130.011 215.357 129.301 215.838 128.465C216.32 127.63 216.598 126.693 216.65 125.73V97.9199Z" fill="#37474F"/>
<path d="M179.2 138.35C179.253 139.314 179.532 140.252 180.015 141.087C180.498 141.923 181.171 142.633 181.98 143.16L184.24 144.47C185.023 144.864 185.881 145.088 186.756 145.126C187.632 145.164 188.506 145.015 189.32 144.69C188.01 145.18 187.01 144.45 187.01 142.86V115C187.041 114.031 187.324 113.087 187.83 112.26L180 107.79C179.494 108.617 179.211 109.561 179.18 110.53L179.2 138.35Z" fill="#263238"/>
<path d="M216.56 97.13C216.24 95.96 215.16 95.58 213.88 96.32L189.79 110.23C188.952 110.731 188.262 111.445 187.79 112.3L180 107.8C180.478 106.95 181.167 106.237 182 105.73L206.08 91.81C206.942 91.3757 207.894 91.1494 208.86 91.1494C209.826 91.1494 210.778 91.3757 211.64 91.81L213.9 93.12C214.592 93.5731 215.185 94.1623 215.642 94.8516C216.099 95.541 216.412 96.3161 216.56 97.13Z" fill="#455A64"/>
<path d="M206.44 122.51C207.875 119.309 208.605 115.838 208.58 112.33C209.285 111.244 209.875 110.088 210.34 108.88C209.746 109.589 209.076 110.23 208.34 110.79C209.094 109.743 209.622 108.552 209.89 107.29C209.243 108.19 208.491 109.009 207.65 109.73C207.28 109.45 206.829 109.299 206.365 109.299C205.901 109.299 205.45 109.45 205.08 109.73C202.8 111.04 201.13 114.84 201.64 117.48C198.71 118.98 196.12 118.61 194.38 116.77C193.46 119.41 193.9 121.92 195.47 122.41C194.988 122.695 194.425 122.812 193.87 122.74C193.87 124.94 195 126.3 196.7 125.74C196.249 126.185 195.706 126.526 195.11 126.74C195.161 127.095 195.304 127.431 195.525 127.715C195.745 127.998 196.036 128.219 196.368 128.357C196.7 128.494 197.062 128.542 197.418 128.497C197.774 128.452 198.113 128.315 198.4 128.1C197.21 130.26 195.389 132.004 193.18 133.1C194.103 133.303 195.057 133.32 195.986 133.148C196.915 132.976 197.801 132.62 198.59 132.1C202.07 130.1 204.75 126.45 206.46 122.52" fill="#F5F5F5"/>
<path d="M283.09 289.91L279.33 282.84L282.33 274.11V268.77L273.08 274.11V279.46L277.08 286.35C277.138 286.46 277.234 286.545 277.35 286.59L283.09 289.91Z" fill="#263238"/>
<path d="M298.66 240.39C298.609 239.427 298.332 238.489 297.851 237.654C297.369 236.818 296.698 236.107 295.89 235.58L293.63 234.27C292.769 233.836 291.819 233.61 290.855 233.61C289.891 233.61 288.941 233.836 288.08 234.27L264 248.18C263.191 248.706 262.517 249.416 262.034 250.252C261.551 251.088 261.272 252.026 261.22 252.99V280.82C261.272 281.784 261.551 282.722 262.034 283.558C262.517 284.394 263.191 285.104 264 285.63L266.26 286.93C267.119 287.369 268.07 287.598 269.035 287.598C270 287.598 270.951 287.369 271.81 286.93L278.92 282.82L282.92 289.7C282.976 289.799 283.06 289.879 283.16 289.931C283.261 289.983 283.374 290.005 283.487 289.995C283.6 289.984 283.708 289.941 283.797 289.871C283.886 289.801 283.953 289.707 283.99 289.6L288.19 277.48L295.93 273.02C296.738 272.493 297.409 271.782 297.891 270.947C298.372 270.111 298.649 269.173 298.7 268.21L298.66 240.39Z" fill="#37474F"/>
<path d="M261.21 280.82C261.262 281.784 261.541 282.722 262.024 283.558C262.507 284.394 263.181 285.104 263.99 285.63L266.25 286.93C267.031 287.324 267.887 287.547 268.761 287.585C269.635 287.623 270.508 287.475 271.32 287.15C270.02 287.65 269.02 286.91 269.02 285.33V257.5C269.052 256.534 269.334 255.593 269.84 254.77L262 250.26C261.503 251.087 261.224 252.026 261.19 252.99L261.21 280.82Z" fill="#263238"/>
<path d="M298.57 239.6C298.25 238.42 297.17 238.04 295.89 238.78L271.8 252.7C270.96 253.198 270.269 253.913 269.8 254.77L262 250.26C262.475 249.408 263.164 248.694 264 248.19L288.08 234.28C288.941 233.846 289.891 233.62 290.855 233.62C291.819 233.62 292.769 233.846 293.63 234.28L295.9 235.58C296.593 236.035 297.188 236.626 297.647 237.317C298.105 238.008 298.42 238.784 298.57 239.6Z" fill="#455A64"/>
<path d="M284.12 253.88C286.32 252.61 286.58 252.47 287.45 252.02C287.915 251.746 288.433 251.576 288.97 251.52C289.309 251.489 289.648 251.585 289.92 251.79C290.212 252.023 290.426 252.341 290.53 252.7C290.723 253.304 290.818 253.936 290.81 254.57C290.81 255.7 290.86 256.04 290.86 258.97C290.86 261.9 290.86 262.25 290.81 263.43C290.8 264.168 290.706 264.903 290.53 265.62C290.393 266.183 290.188 266.727 289.92 267.24C289.666 267.734 289.346 268.191 288.97 268.6C288.525 269.09 288.014 269.514 287.45 269.86C286.58 270.42 286.32 270.58 284.12 271.86C281.92 273.14 281.67 273.27 280.8 273.72C280.335 273.994 279.817 274.164 279.28 274.22C278.941 274.253 278.601 274.157 278.33 273.95C278.034 273.72 277.821 273.401 277.72 273.04C277.522 272.437 277.424 271.805 277.43 271.17C277.43 270.04 277.43 269.7 277.43 266.77C277.43 263.84 277.43 263.49 277.43 262.31C277.442 261.571 277.539 260.836 277.72 260.12C277.853 259.556 278.058 259.012 278.33 258.5C278.581 258.004 278.901 257.546 279.28 257.14C279.725 256.65 280.236 256.226 280.8 255.88C281.67 255.32 281.93 255.16 284.12 253.88ZM284.12 251.88C281.89 253.17 281.61 253.34 280.74 253.88C279.997 254.339 279.324 254.901 278.74 255.55C278.163 256.183 277.672 256.889 277.28 257.65C276.868 258.439 276.552 259.275 276.34 260.14C276.101 261.082 275.97 262.048 275.95 263.02C275.95 264.21 275.95 264.59 275.95 267.56C275.95 270.53 275.95 270.91 275.95 272.05C275.948 272.879 276.08 273.703 276.34 274.49C276.505 275.041 276.833 275.529 277.28 275.89C277.698 276.207 278.218 276.356 278.74 276.31C279.444 276.241 280.126 276.023 280.74 275.67C281.61 275.22 281.89 275.07 284.12 273.78C286.35 272.49 286.64 272.32 287.51 271.78C288.253 271.321 288.926 270.759 289.51 270.11C290.102 269.479 290.604 268.769 291 268C291.437 267.216 291.773 266.379 292 265.51C292.23 264.567 292.358 263.601 292.38 262.63C292.38 261.44 292.38 261.06 292.38 258.08C292.38 255.1 292.38 254.74 292.38 253.6C292.379 252.772 292.251 251.949 292 251.16C291.821 250.6 291.471 250.111 291 249.76C290.587 249.443 290.069 249.293 289.55 249.34C288.845 249.41 288.164 249.628 287.55 249.98C286.68 250.43 286.4 250.58 284.16 251.87" fill="white"/>
<path d="M284.12 257.23C281.79 258.58 279.9 262.23 279.9 265.3C279.9 268.37 281.79 269.83 284.12 268.49C286.45 267.15 288.34 263.49 288.34 260.42C288.34 257.35 286.46 255.89 284.12 257.23ZM284.12 266.51C282.61 267.39 281.38 266.46 281.38 264.44C281.395 263.415 281.651 262.407 282.127 261.499C282.603 260.59 283.286 259.806 284.12 259.21C285.64 258.33 286.86 259.26 286.86 261.28C286.847 262.306 286.592 263.314 286.116 264.223C285.64 265.132 284.956 265.915 284.12 266.51Z" fill="white"/>
<path d="M289.5 253.91C289.494 254.28 289.4 254.644 289.226 254.97C289.052 255.297 288.804 255.578 288.5 255.79C287.96 256.11 287.5 255.79 287.5 255.05C287.508 254.679 287.603 254.315 287.777 253.987C287.95 253.659 288.198 253.376 288.5 253.16C289.05 252.85 289.5 253.16 289.5 253.91Z" fill="white"/>
<path d="M130.92 302.61L127.16 295.54L130.16 286.81V281.46L120.9 286.81V292.15L124.9 299.05C124.967 299.153 125.06 299.236 125.17 299.29L130.92 302.61Z" fill="#263238"/>
<path d="M146.5 253.08C146.446 252.117 146.166 251.179 145.683 250.344C145.2 249.508 144.528 248.798 143.72 248.27L141.46 246.97C140.601 246.531 139.65 246.302 138.685 246.302C137.72 246.302 136.769 246.531 135.91 246.97L111.82 260.88C111.013 261.406 110.342 262.114 109.861 262.948C109.379 263.783 109.102 264.718 109.05 265.68V293.51C109.102 294.473 109.38 295.41 109.862 296.245C110.343 297.081 111.014 297.792 111.82 298.32L114.08 299.62C114.939 300.059 115.89 300.288 116.855 300.288C117.82 300.288 118.771 300.059 119.63 299.62L126.74 295.52L130.74 302.4C130.796 302.498 130.88 302.579 130.98 302.631C131.081 302.683 131.194 302.705 131.307 302.695C131.42 302.684 131.528 302.641 131.617 302.571C131.706 302.501 131.773 302.407 131.81 302.3L136.01 290.18L143.74 285.72C144.548 285.192 145.22 284.482 145.703 283.646C146.186 282.811 146.466 281.873 146.52 280.91L146.5 253.08Z" fill="#37474F"/>
<path d="M109.05 293.51C109.102 294.473 109.38 295.41 109.862 296.245C110.343 297.081 111.014 297.792 111.82 298.32L114.08 299.62C114.863 300.013 115.72 300.237 116.596 300.277C117.471 300.317 118.345 300.171 119.16 299.85C117.85 300.34 116.86 299.6 116.86 298.02V270.19C116.894 269.226 117.173 268.287 117.67 267.46L109.86 263C109.363 263.827 109.084 264.766 109.05 265.73V293.51Z" fill="#263238"/>
<path d="M146.41 252.29C146.08 251.11 145.01 250.74 143.73 251.48L119.63 265.39C118.81 265.897 118.137 266.611 117.68 267.46L109.87 263C110.33 262.153 111.002 261.44 111.82 260.93L135.9 247C136.762 246.566 137.715 246.339 138.68 246.339C139.646 246.339 140.598 246.566 141.46 247L143.73 248.31C144.42 248.761 145.013 249.345 145.473 250.029C145.933 250.712 146.252 251.481 146.41 252.29Z" fill="#455A64"/>
<path d="M129.57 289.21L133.14 287.14V275.2L135.64 273.76L135.91 269.61L133.14 271.2V268.92C133.14 267.98 133.29 267.52 133.97 267.13L135.91 266.01V261.86L133.43 263.29C132.207 263.937 131.194 264.92 130.511 266.122C129.827 267.325 129.501 268.698 129.57 270.08V273.27L127.71 274.34V278.39L129.57 277.31V289.21Z" fill="white"/>
<path d="M399.78 143.75L396 136.68L399 127.95V122.6L389.79 128V133.34L393.79 140.24C393.854 140.345 393.948 140.429 394.06 140.48L399.78 143.75Z" fill="#263238"/>
<path d="M430.06 95.6301C430.011 94.6611 429.734 93.7174 429.253 92.8749C428.772 92.0324 428.1 91.3148 427.29 90.7801L425 89.4601C424.143 89.0132 423.191 88.7798 422.225 88.7798C421.259 88.7798 420.307 89.0132 419.45 89.4601L380.64 112.06C379.832 112.598 379.16 113.318 378.679 114.162C378.198 115.006 377.921 115.95 377.87 116.92V134.53C377.919 135.5 378.196 136.446 378.677 137.29C379.158 138.134 379.83 138.853 380.64 139.39L382.89 140.71C383.748 141.149 384.697 141.378 385.66 141.378C386.623 141.378 387.573 141.149 388.43 140.71L395.53 136.56L399.53 143.51C399.586 143.609 399.67 143.689 399.77 143.741C399.871 143.793 399.984 143.815 400.097 143.805C400.21 143.794 400.318 143.752 400.407 143.681C400.496 143.611 400.563 143.517 400.6 143.41L404.79 131.17L427.28 118.1C428.09 117.565 428.762 116.848 429.243 116.005C429.724 115.163 430.001 114.219 430.05 113.25L430.06 95.6301Z" fill="#37474F"/>
<path d="M377.91 134.11C377.962 135.071 378.239 136.007 378.721 136.841C379.202 137.675 379.873 138.384 380.68 138.91L382.94 140.22C383.723 140.614 384.581 140.838 385.457 140.876C386.332 140.914 387.206 140.765 388.02 140.44C386.71 140.94 385.72 140.2 385.72 138.61V121.15C385.753 120.183 386.031 119.239 386.53 118.41L378.72 113.9C378.222 114.729 377.943 115.673 377.91 116.64V134.11Z" fill="#263238"/>
<path d="M430 94.58C429.67 93.39 428.6 93.01 427.32 93.75L388.5 116.36C387.661 116.869 386.972 117.59 386.5 118.45L378.71 113.9C379.167 113.045 379.839 112.325 380.66 111.81L419.48 89.2C420.339 88.7611 421.29 88.5322 422.255 88.5322C423.22 88.5322 424.171 88.7611 425.03 89.2L427.29 90.52C427.993 90.9786 428.595 91.5747 429.061 92.2725C429.527 92.9703 429.846 93.7553 430 94.58Z" fill="#455A64"/>
<path d="M398 115.46C398.037 115.431 398.083 115.415 398.13 115.415C398.177 115.415 398.223 115.431 398.26 115.46C398.299 115.505 398.329 115.557 398.348 115.614C398.367 115.67 398.375 115.73 398.37 115.79V129.24C398.367 129.396 398.33 129.55 398.26 129.69C398.209 129.821 398.118 129.933 398 130.01L396.91 130.64C396.874 130.671 396.828 130.688 396.78 130.688C396.732 130.688 396.686 130.671 396.65 130.64C396.611 130.595 396.581 130.543 396.562 130.486C396.543 130.429 396.536 130.369 396.54 130.31V124.82L392.46 127.17V132.67C392.456 132.829 392.419 132.986 392.35 133.13C392.297 133.257 392.206 133.365 392.09 133.44L391 134.07C390.964 134.101 390.918 134.118 390.87 134.118C390.822 134.118 390.776 134.101 390.74 134.07C390.7 134.024 390.671 133.969 390.653 133.911C390.636 133.852 390.632 133.79 390.64 133.73V120.28C390.639 120.121 390.673 119.964 390.74 119.82C390.797 119.692 390.887 119.582 391 119.5L392.09 118.87C392.127 118.841 392.173 118.825 392.22 118.825C392.267 118.825 392.313 118.841 392.35 118.87C392.389 118.915 392.419 118.967 392.438 119.024C392.457 119.08 392.465 119.14 392.46 119.2V124.55L396.54 122.2V116.85C396.542 116.69 396.58 116.533 396.65 116.39C396.704 116.26 396.794 116.149 396.91 116.07L398 115.46Z" fill="#FAFAFA"/>
<path d="M400 123.46C400.002 122.681 400.079 121.904 400.23 121.14C400.376 120.393 400.597 119.662 400.89 118.96C401.148 118.321 401.484 117.716 401.89 117.16C402.268 116.67 402.732 116.253 403.26 115.93C403.666 115.665 404.146 115.539 404.63 115.57C405.034 115.617 405.407 115.809 405.68 116.11C406.003 116.484 406.233 116.93 406.35 117.41C406.519 118.025 406.599 118.662 406.59 119.3V120.24C406.587 120.396 406.549 120.55 406.48 120.69C406.429 120.821 406.338 120.933 406.22 121.01L401.71 123.61C401.698 123.873 401.742 124.135 401.84 124.38C401.905 124.553 402.024 124.7 402.18 124.8C402.333 124.883 402.509 124.911 402.68 124.88C402.886 124.854 403.085 124.782 403.26 124.67C403.523 124.528 403.763 124.346 403.97 124.13C404.14 123.948 404.288 123.747 404.41 123.53C404.482 123.399 404.566 123.276 404.66 123.16C404.758 123.079 404.875 123.023 405 123L406.08 122.38C406.119 122.35 406.166 122.334 406.215 122.334C406.264 122.334 406.311 122.35 406.35 122.38C406.39 122.426 406.42 122.48 406.438 122.539C406.455 122.598 406.459 122.659 406.45 122.72C406.418 123.018 406.347 123.31 406.24 123.59C406.085 124.019 405.887 124.431 405.65 124.82C405.365 125.291 405.03 125.731 404.65 126.13C404.27 126.561 403.82 126.926 403.32 127.21C402.913 127.474 402.435 127.61 401.95 127.6C401.559 127.549 401.202 127.353 400.95 127.05C400.629 126.638 400.403 126.16 400.29 125.65C400.103 124.935 400.005 124.199 400 123.46ZM403.31 118.46C403.057 118.607 402.83 118.797 402.64 119.02C402.459 119.245 402.305 119.49 402.18 119.75C402.053 120.001 401.955 120.266 401.89 120.54C401.827 120.779 401.783 121.023 401.76 121.27L404.81 119.51C404.791 119.308 404.758 119.107 404.71 118.91C404.671 118.732 404.589 118.567 404.47 118.43C404.412 118.368 404.343 118.318 404.265 118.284C404.188 118.25 404.105 118.231 404.02 118.23C403.777 118.237 403.539 118.306 403.33 118.43L403.31 118.46Z" fill="#FAFAFA"/>
<path d="M409.89 122.62C409.887 122.776 409.85 122.93 409.78 123.07C409.729 123.201 409.638 123.313 409.52 123.39L408.52 123.98C408.484 124.011 408.438 124.028 408.39 124.028C408.343 124.028 408.296 124.011 408.26 123.98C408.221 123.935 408.191 123.883 408.172 123.826C408.153 123.769 408.146 123.71 408.15 123.65V110C408.153 109.841 408.191 109.684 408.26 109.54C408.311 109.411 408.402 109.303 408.52 109.23L409.52 108.63C409.557 108.601 409.603 108.585 409.65 108.585C409.697 108.585 409.743 108.601 409.78 108.63C409.82 108.677 409.851 108.731 409.87 108.789C409.888 108.847 409.895 108.909 409.89 108.97V122.62Z" fill="#FAFAFA"/>
<path d="M413.51 120.53C413.507 120.686 413.469 120.84 413.4 120.98C413.349 121.108 413.262 121.219 413.15 121.3L412.15 121.89C412.114 121.921 412.068 121.938 412.02 121.938C411.972 121.938 411.926 121.921 411.89 121.89C411.851 121.845 411.821 121.793 411.802 121.736C411.783 121.679 411.776 121.619 411.78 121.56V107.89C411.783 107.73 411.821 107.574 411.89 107.43C411.941 107.301 412.032 107.192 412.15 107.12L413.15 106.52C413.186 106.492 413.23 106.476 413.275 106.476C413.321 106.476 413.365 106.492 413.4 106.52C413.439 106.565 413.469 106.617 413.488 106.674C413.507 106.731 413.515 106.79 413.51 106.85V120.53Z" fill="#FAFAFA"/>
<path d="M418.47 107.19C418.874 106.938 419.335 106.793 419.81 106.77C420.194 106.769 420.566 106.904 420.86 107.15C421.168 107.424 421.408 107.767 421.56 108.15C421.748 108.667 421.849 109.211 421.86 109.76C421.86 109.88 421.86 110.04 421.86 110.23V111.39C421.86 111.58 421.86 111.74 421.86 111.87C421.828 112.546 421.724 113.216 421.55 113.87C421.387 114.509 421.155 115.13 420.86 115.72C420.575 116.284 420.222 116.811 419.81 117.29C419.435 117.744 418.981 118.127 418.47 118.42C418.071 118.681 417.607 118.826 417.13 118.84C416.765 118.84 416.411 118.713 416.13 118.48C415.812 118.214 415.571 117.869 415.43 117.48C415.244 116.963 415.139 116.42 415.12 115.87C415.12 115.75 415.12 115.6 415.12 115.42C415.12 115.24 415.12 115.04 415.12 114.85C415.12 114.66 415.12 114.46 415.12 114.26C415.12 114.06 415.12 113.9 415.12 113.77C415.144 113.094 415.244 112.423 415.42 111.77C415.592 111.124 415.83 110.497 416.13 109.9C416.396 109.333 416.732 108.803 417.13 108.32C417.511 107.872 417.964 107.49 418.47 107.19ZM420.11 110.93C420.101 110.588 420.033 110.25 419.91 109.93C419.836 109.739 419.698 109.58 419.52 109.48C419.366 109.4 419.189 109.378 419.02 109.42C418.828 109.473 418.643 109.55 418.47 109.65C418.273 109.768 418.089 109.905 417.92 110.06C417.723 110.248 417.555 110.463 417.42 110.7C417.247 110.98 417.116 111.283 417.03 111.6C416.92 111.984 416.856 112.381 416.84 112.78C416.84 112.9 416.84 113.04 416.84 113.21V114.21C416.84 114.383 416.84 114.513 416.84 114.6C416.839 114.942 416.904 115.282 417.03 115.6C417.101 115.795 417.239 115.958 417.42 116.06C417.582 116.116 417.758 116.116 417.92 116.06C418.114 116.011 418.299 115.934 418.47 115.83C418.669 115.716 418.854 115.578 419.02 115.42C419.214 115.233 419.382 115.022 419.52 114.79C419.689 114.509 419.821 114.206 419.91 113.89C420.019 113.505 420.086 113.109 420.11 112.71C420.11 112.6 420.11 112.47 420.11 112.29V111.29C420.12 111.17 420.11 111 420.11 110.93Z" fill="#FAFAFA"/>
<path d="M424.89 111.56C424.926 111.529 424.972 111.512 425.02 111.512C425.068 111.512 425.114 111.529 425.15 111.56C425.188 111.606 425.216 111.658 425.233 111.715C425.25 111.772 425.256 111.831 425.25 111.89V113.72C425.252 113.879 425.218 114.036 425.15 114.18C425.093 114.308 425.004 114.418 424.89 114.5L423.73 115.17C423.694 115.201 423.648 115.218 423.6 115.218C423.553 115.218 423.506 115.201 423.47 115.17C423.431 115.125 423.401 115.073 423.382 115.016C423.363 114.959 423.356 114.899 423.36 114.84V113C423.362 112.84 423.4 112.683 423.47 112.54C423.524 112.41 423.614 112.299 423.73 112.22L424.89 111.56ZM425.19 109.56C425.187 109.719 425.149 109.876 425.08 110.02C425.029 110.149 424.938 110.257 424.82 110.33L423.82 110.93C423.785 110.958 423.741 110.974 423.695 110.974C423.65 110.974 423.606 110.958 423.57 110.93C423.53 110.883 423.5 110.829 423.481 110.771C423.462 110.713 423.455 110.651 423.46 110.59V101.36C423.462 101.2 423.5 101.043 423.57 100.9C423.621 100.771 423.708 100.66 423.82 100.58L424.82 99.9899C424.856 99.9589 424.903 99.9419 424.95 99.9419C424.998 99.9419 425.044 99.9589 425.08 99.9899C425.119 100.035 425.149 100.087 425.168 100.144C425.187 100.201 425.195 100.26 425.19 100.32V109.56Z" fill="#FAFAFA"/>
<path d="M406.32 211.66C413.47 211.66 417.06 214.03 420.05 220.56C422.91 226.81 432.05 244.68 431.57 249.07C431.09 253.46 412.86 272.13 412.86 272.13L407.65 265.91L419 247.25L407.91 231.53L406.32 211.66Z" fill="#B0605F"/>
<path d="M406.93 211.67C406.93 211.67 413.93 210.95 417.22 215.09C420.51 219.23 423.7 227.67 423.7 227.67C423.7 227.67 420.44 237.05 411.78 238.21C403.12 239.37 406.93 211.67 406.93 211.67Z" fill="#455A64"/>
<path d="M388.85 404C388.85 404 389.66 406.42 390.1 408.53C390.45 410.21 390.94 413.02 390.35 414.28C389.76 415.54 387.41 416.36 383.79 416.33C381.45 416.33 377.79 417.88 375.29 419.25C372.79 420.62 367.29 421.25 364.6 420.92C361.38 420.55 358.05 418.71 357.53 417.4C357.01 416.09 356.53 414.29 365.29 411.55C365.36 411.55 375.84 408.17 379.51 404.19L388.85 404Z" fill="#263238"/>
<path d="M388.85 401L379.51 401.19V401.88C379.516 402.686 379.328 403.482 378.96 404.199C378.593 404.916 378.058 405.534 377.4 406C372.86 409.15 365.4 411.56 365.29 411.58L363.89 412.04C362.38 413.24 363.66 415.28 367.26 415.6C370.86 415.92 382.07 412.21 384.55 411.03C385.85 410.448 386.951 409.498 387.715 408.296C388.48 407.094 388.874 405.694 388.85 404.27C388.84 403.06 388.85 401 388.85 401Z" fill="#B0605F"/>
<path d="M413.47 390.45C414.13 390.72 414.26 391.97 414.29 394.45C414.29 396.33 414.64 399.62 412.38 400.21C410.12 400.8 406.86 400.39 405.48 398.58C403.75 396.33 402.59 394.35 400.11 391.58C397.96 389.18 395.62 386.94 394.82 383.63C394.09 380.63 394.82 379.38 396.88 378.58C398.94 377.78 400.88 378.43 403.72 380.79C404.519 381.325 405.374 381.771 406.27 382.12C408.17 382.71 412.81 390.19 413.47 390.45Z" fill="#263238"/>
<path d="M413.53 388.15L413.45 391.2C413.45 391.2 411.37 395.2 405.61 391.2C405.48 390.9 404.97 385.01 404.97 385.01L413.53 388.15Z" fill="#B0605F"/>
<path d="M406.27 382.13C405.372 381.785 404.517 381.339 403.72 380.8C401.39 380.07 396.5 380.92 398.72 384.23C400.558 386.981 402.903 389.356 405.63 391.23C408.24 392.49 409.15 390.93 409.15 390.93L408.23 383.79C407.715 383.092 407.043 382.523 406.27 382.13Z" fill="#B0605F"/>
<path d="M419 346.6C419 336.55 416.75 332.12 416.75 332.12C416.75 332.12 417.86 318.29 419 305.35C421.72 274.58 419.13 273.12 414.77 262.59C414.77 262.59 377.38 257.59 374.97 273.59C369.7 308.75 371.44 332.9 371.79 340.04C372.14 347.18 372.99 351.37 375.15 366.31C376.78 377.68 379.56 401.84 379.56 401.84C384.74 404.78 388.56 408.96 388.9 401.49C389.24 394.02 394.23 370.41 394.12 362.19C394.025 356.098 393.124 350.045 391.44 344.19C391.44 344.19 394.8 311.42 395.66 306.19C395.66 306.19 396.61 316.64 396.96 323.77C397.31 330.9 399.27 337.77 400.96 351.04C402.46 362.55 404.96 386.6 404.96 386.6C410.14 389.53 413.07 394.66 413.54 388.13C414.01 381.6 419 356.42 419 346.6Z" fill="#B0605F"/>
<path opacity="0.1" d="M395.61 306.21L397.76 292.7C402.078 292.19 406.237 290.765 409.96 288.52C409.96 288.52 407.28 292.52 400.17 294.16L398 309.82L397.12 326.22L395.61 306.21Z" fill="black"/>
<path d="M389.59 205.11L391.04 220.21L404.53 219.37L403.45 202.63L389.59 205.11Z" fill="#B0605F"/>
<path d="M416.65 218.06C415.28 214.06 412.49 211.72 406.32 211.66L404.04 211.73C403.61 213.95 396.96 215.73 390.4 213.48C389.47 213.71 386.93 214.17 385.5 214.36L382.36 214.81C377.58 216.35 375.47 224.51 375.01 237.44C374.85 241.84 375.35 246.72 376.27 255.81C375.76 269.01 374.92 280.11 374.92 280.11C374.92 280.11 382.86 283.46 399.08 281.36C413.6 279.49 418.08 272.12 417.57 273.19C416.28 267.555 414.5 262.044 412.25 256.72L411.25 251.4C418.9 232.94 418.69 224 416.65 218.06Z" fill="#FF5600"/>
<path d="M411.25 251.4C411.25 251.4 410.35 257.64 398.73 258.81C381.73 260.53 376.27 255.81 376.27 255.81L376.06 260.81C374.16 271.21 368.99 296.92 369.31 307.91C369.31 307.91 372.93 309.29 375.95 303.02C375.95 303.02 375.54 307.91 382.74 310.58C388.69 312.78 395.03 309.79 396.89 309.37L397.06 308C397.06 308 410.85 311.5 419.63 303.74C419.63 303.74 422.7 286.47 419.63 274.16C417.68 266.34 414.06 260.24 412.24 256.74L411.25 251.4Z" fill="#455A64"/>
<path d="M411.21 308C407.21 308.43 402.36 307 402.14 305.37C401.92 303.74 404.89 290.97 404.89 290.97C409.229 289.849 413.052 287.272 415.72 283.67C409.22 288.29 400.4 287.61 400.4 287.61L397.06 308C401.721 309.027 406.549 309.027 411.21 308Z" fill="#37474F"/>
<path d="M411.25 251.4C411.25 251.4 409.87 255.71 402.14 257.64C386.99 261.42 376.27 255.81 376.27 255.81C376.044 257.554 375.953 259.312 376 261.07C376 261.07 388.09 266.92 399.94 264.07C411.79 261.22 412.38 257.16 412.38 257.16C412.38 257.16 411.77 253.35 411.25 251.4Z" fill="#37474F"/>
<path d="M385.5 214.36C379.17 215.14 374.39 216.62 371.39 222.36C365.85 233 360.61 242.44 356.92 246.36C352.98 250.51 337.65 255.73 334.01 255.15C330.37 254.57 326.95 250.76 325.08 251.83C323.21 252.9 327.53 255.63 327.31 256.53C327.09 257.43 320.31 256.45 317.17 254.29C314.03 252.13 312.23 258.29 316.26 262.99C320.29 267.69 327.73 268.88 335.97 267.26C344.21 265.64 359.61 261.89 365.58 256.4C371.483 251.111 376.583 244.99 380.72 238.23C391.05 225.53 385.5 214.36 385.5 214.36Z" fill="#B0605F"/>
<path d="M386.48 214.22C386.48 214.22 378.68 213.64 374.92 217.41C371.16 221.18 367.76 228 367.76 228C367.76 228 370 235.21 380.76 238.26C383.467 236.298 385.484 233.529 386.52 230.35C388.44 224.73 387.86 216.36 386.48 214.22Z" fill="#455A64"/>
<path d="M372.32 176.09C372.205 175.381 372.205 174.659 372.32 173.95C372.485 173.03 372.85 172.158 373.387 171.394C373.925 170.63 374.623 169.992 375.432 169.526C376.241 169.059 377.143 168.775 378.073 168.693C379.004 168.611 379.941 168.732 380.82 169.05C380.56 167.664 380.771 166.231 381.42 164.979C382.069 163.726 383.118 162.727 384.4 162.14C385.399 161.764 386.463 161.591 387.529 161.632C388.596 161.673 389.643 161.928 390.61 162.38C391.769 162.787 392.733 163.615 393.31 164.7C393.995 163.558 395 162.642 396.2 162.066C397.401 161.489 398.744 161.277 400.063 161.456C401.383 161.635 402.621 162.197 403.624 163.072C404.628 163.947 405.353 165.097 405.71 166.38C407.76 165.92 410.66 166.83 411.58 168.87C412.58 171.19 411.35 174.06 411.83 176.5C412.14 178.07 412.83 179.55 413.1 181.14C413.399 182.922 413.57 184.723 413.61 186.53C413.9 193.98 396.61 198.82 396.94 203.93L387.72 192.71C387.72 192.25 386.42 191.08 386.13 190.71C385.57 189.97 385.08 189.18 384.58 188.4C382.94 185.91 380.84 184.6 378.22 183.32C376.414 182.487 374.852 181.206 373.68 179.6C372.957 178.553 372.491 177.35 372.32 176.09Z" fill="#263238"/>
<path d="M379.59 188.55C379.59 188.55 376.59 192.99 376.99 193.46C377.689 193.924 378.464 194.262 379.28 194.46L379.59 188.55Z" fill="#B36F6F"/>
<path d="M388.72 174.49C385.81 175.96 380.79 178.69 379.5 189.2C378.18 199.99 380.62 203.74 382.12 205.2C383.12 206.2 388.34 206.5 391.06 205.67C394.47 204.67 401.84 201.05 405.3 195.48C409.36 188.93 410.2 180.19 405.51 176.77C398.9 171.91 391.17 173.24 388.72 174.49Z" fill="#B0605F"/>
<path d="M387.44 174.17C386.212 174.621 385.069 175.277 384.06 176.11C383.557 176.532 383.151 177.057 382.87 177.65C382.642 178.2 382.556 178.798 382.62 179.39C382.706 180.198 383.002 180.97 383.48 181.628C383.957 182.286 384.598 182.807 385.34 183.14C384.949 183.674 384.681 184.288 384.555 184.938C384.429 185.588 384.447 186.258 384.61 186.9C385.141 188.39 386.059 189.712 387.27 190.73C387.327 190.803 387.403 190.858 387.49 190.89C387.575 190.901 387.662 190.894 387.744 190.87C387.827 190.845 387.904 190.805 387.97 190.75C389.79 189.53 390.92 187.42 393.49 188.27C396.88 189.38 396.57 193.81 393.91 196.08C393.221 196.729 392.366 197.175 391.439 197.367C390.512 197.559 389.55 197.491 388.66 197.17C388.66 197.17 388.75 202.62 393.49 204.77C393.49 204.77 398.75 206.46 403.6 204.9C405.38 202.63 408.38 199.73 410.84 197.14C418.96 188.61 419.43 176.21 407.45 172.29C407.04 172.16 406.62 172.03 406.2 171.92C400.393 170.424 394.245 171.004 388.82 173.56C388.36 173.78 387.9 174 387.44 174.17Z" fill="#263238"/>
<path d="M387.06 194.53C386.747 194.422 386.458 194.253 386.21 194.033C385.963 193.813 385.762 193.546 385.619 193.247C385.475 192.948 385.393 192.624 385.376 192.293C385.359 191.962 385.408 191.632 385.52 191.32C385.758 190.69 386.235 190.179 386.846 189.896C387.458 189.614 388.156 189.583 388.79 189.81L387.06 194.53Z" fill="#263238"/>
</svg>
