<svg width="750" height="500" viewBox="0 0 750 500" fill="none" xmlns="http://www.w3.org/2000/svg">
<path d="M673.733 339.783H492.987C489.755 339.783 487.125 337.153 487.125 333.921V70.6471C487.125 67.4147 489.755 64.7854 492.987 64.7854H673.733C676.966 64.7854 679.596 67.4147 679.596 70.6471V333.921C679.596 337.153 676.966 339.783 673.733 339.783ZM492.987 65.0354C489.893 65.0354 487.375 67.5529 487.375 70.6471V333.921C487.375 337.015 489.893 339.533 492.987 339.533H673.733C676.828 339.533 679.346 337.015 679.346 333.921V70.6471C679.346 67.5529 676.828 65.0354 673.733 65.0354H492.987Z" fill="#E2BDAB"/>
<path d="M465.306 339.783H284.559C281.327 339.783 278.697 337.153 278.697 333.921V70.6471C278.697 67.4147 281.327 64.7854 284.559 64.7854H465.306C468.538 64.7854 471.168 67.4147 471.168 70.6471V333.921C471.168 337.153 468.538 339.783 465.306 339.783ZM284.559 65.0354C281.465 65.0354 278.947 67.5529 278.947 70.6471V333.921C278.947 337.015 281.465 339.533 284.559 339.533H465.306C468.4 339.533 470.918 337.015 470.918 333.921V70.6471C470.918 67.5529 468.4 65.0354 465.306 65.0354H284.559Z" fill="#E2BDAB"/>
<path d="M257.012 339.783H76.2656C73.0332 339.783 70.4038 337.153 70.4038 333.921V70.6471C70.4038 67.4147 73.0332 64.7854 76.2656 64.7854H257.012C260.245 64.7854 262.874 67.4147 262.874 70.6471V333.921C262.874 337.153 260.245 339.783 257.012 339.783ZM76.2656 65.0354C73.1714 65.0354 70.6538 67.5529 70.6538 70.6471V333.921C70.6538 337.015 73.1714 339.533 76.2656 339.533H257.012C260.107 339.533 262.624 337.015 262.624 333.921V70.6471C262.624 67.5529 260.107 65.0354 257.012 65.0354H76.2656Z" fill="#E2BDAB"/>
<path d="M750 400.852H0V400.973H750V400.852Z" fill="#E2BDAB"/>
<path d="M709.356 430.228H653.626V430.649H709.356V430.228Z" fill="#FDD5C1"/>
<path d="M509.67 434.794H495.043V435.215H509.67V434.794Z" fill="#FDD5C1"/>
<path d="M113.319 417.431H40.6445V417.852H113.319V417.431Z" fill="#FDD5C1"/>
<path d="M138.955 417.431H128.299V417.852H138.955V417.431Z" fill="#FDD5C1"/>
<path d="M331.198 424.535H173.585V424.956H331.198V424.535Z" fill="#FDD5C1"/>
<path d="M430.321 320.762C429.764 318.076 428.7 315.578 427.244 313.36L429.894 310.159L424.228 304.493L421.027 307.143C418.809 305.688 416.312 304.623 413.626 304.066L413.237 299.94H405.224L404.835 304.066C402.15 304.623 399.652 305.688 397.434 307.143L394.233 304.493L388.567 310.159L391.217 313.36C389.761 315.578 388.697 318.076 388.14 320.762L384.014 321.151V329.163L388.14 329.552C388.697 332.238 389.761 334.735 391.217 336.953L388.567 340.154L394.233 345.821L397.434 343.17C399.652 344.626 402.15 345.69 404.835 346.247L405.224 350.373H413.237L413.626 346.248C416.312 345.691 418.809 344.626 421.027 343.17L424.228 345.821L429.894 340.154L427.244 336.954C428.7 334.735 429.764 332.238 430.321 329.552L434.447 329.163V321.151L430.321 320.762ZM420.078 325.157C420.078 331.148 415.222 336.004 409.231 336.004C403.239 336.004 398.383 331.148 398.383 325.157C398.383 319.166 403.239 314.309 409.231 314.309C415.222 314.309 420.078 319.166 420.078 325.157Z" fill="#FF5600" fill-opacity="0.1"/>
<path d="M388.743 368.642C388.139 365.728 386.984 363.02 385.405 360.614L388.28 357.143L382.135 350.997L378.663 353.871C376.257 352.293 373.549 351.138 370.636 350.534L370.214 346.059H361.524L361.102 350.534C358.189 351.138 355.48 352.293 353.075 353.871L349.603 350.997L343.458 357.143L346.332 360.615C344.753 363.02 343.599 365.728 342.995 368.642L338.52 369.064V377.754L342.995 378.175C343.599 381.088 344.753 383.796 346.332 386.202L343.458 389.674L349.603 395.819L353.075 392.945C355.48 394.524 358.189 395.678 361.102 396.282L361.524 400.757H370.214L370.636 396.282C373.549 395.679 376.257 394.524 378.663 392.945L382.135 395.819L388.28 389.674L385.405 386.203C386.984 383.796 388.139 381.088 388.743 378.175L393.217 377.754V369.064L388.743 368.642ZM377.634 373.408C377.634 379.906 372.366 385.173 365.869 385.173C359.371 385.173 354.104 379.906 354.104 373.408C354.104 366.911 359.371 361.644 365.869 361.644C372.366 361.644 377.634 366.911 377.634 373.408Z" fill="#FF5600" fill-opacity="0.1"/>
<path d="M686.872 430.97C686.858 430.525 685.36 386.317 678.169 379.325C671.175 372.526 663.148 379.072 662.811 379.353L662.09 378.49C662.181 378.413 671.24 371.018 678.954 378.518C686.468 385.825 687.938 429.096 687.996 430.935L686.872 430.97Z" fill="#BAAEA8"/>
<path d="M687.489 439.658C687.437 439.129 682.575 386.586 701.763 364.564L702.612 365.303C683.741 386.96 688.559 439.025 688.609 439.548L687.489 439.658Z" fill="#BAAEA8"/>
<path d="M686.78 434.1L685.657 434.025C685.696 433.429 689.412 374.291 675.337 361.345L676.099 360.517C690.568 373.826 686.941 431.645 686.78 434.1Z" fill="#BAAEA8"/>
<path d="M688.612 434.067L687.487 434.058C687.501 432.429 687.951 394.113 698.835 387.876C701.255 386.488 703.624 386.257 705.877 387.189C712.459 389.911 715.72 401.624 715.856 402.121L714.77 402.417C714.738 402.301 711.518 390.739 705.446 388.228C703.532 387.438 701.497 387.647 699.395 388.852C689.067 394.77 688.615 433.675 688.612 434.067Z" fill="#BAAEA8"/>
<path d="M684.373 434.094L683.25 434.031C683.267 433.728 684.892 403.751 676.802 393.189C674.842 390.631 672.714 389.411 670.466 389.568C665.165 389.939 660.72 397.696 660.676 397.774L659.696 397.22C659.889 396.879 664.481 388.859 670.386 388.446C673.027 388.258 675.49 389.626 677.696 392.506C686.04 403.399 684.445 432.847 684.373 434.094Z" fill="#BAAEA8"/>
<path d="M686.147 438.172C685.927 435.264 680.858 366.816 689.776 354.755L690.681 355.424C682.01 367.152 687.216 437.378 687.269 438.086L686.147 438.172Z" fill="#BAAEA8"/>
<path d="M708.303 394.125C708.303 394.125 702.953 396.098 704.544 400.754C706.134 405.41 723.051 413.073 723.051 413.073C723.051 413.073 730.136 406.579 723.629 396.018C717.123 385.457 708.447 390.793 708.303 394.125Z" fill="#77AF8F"/>
<path d="M685.045 385.262C685.045 385.262 690.742 385.023 691.066 389.933C691.39 394.843 678.724 408.426 678.724 408.426C678.724 408.426 669.686 405.158 671.627 392.906C673.569 380.655 683.629 382.242 685.045 385.262Z" fill="#77AF8F"/>
<path d="M680.222 361.76C680.222 361.76 684.02 361.352 683.714 359.039C683.409 356.725 668.95 350.771 660.419 360.399C660.419 360.399 665.881 369.782 673.777 369.905C681.674 370.027 680.222 361.76 680.222 361.76Z" fill="#77AF8F"/>
<path d="M687.3 356.142C687.3 356.142 683.861 357.805 682.897 355.679C681.933 353.554 691.054 340.854 703.387 344.513C703.387 344.513 703.714 355.366 697.077 359.646C690.441 363.926 687.3 356.142 687.3 356.142Z" fill="#77AF8F"/>
<path d="M669.317 392.254C669.317 392.254 671.938 390.138 669.109 389.104C666.28 388.071 652.4 388.365 652.255 402.115C652.255 402.115 668.422 404.801 670.423 399.564C672.424 394.326 669.317 392.254 669.317 392.254Z" fill="#77AF8F"/>
<path d="M702.283 361.415C702.283 361.415 699.662 359.299 702.491 358.266C705.32 357.232 719.2 357.526 719.345 371.276C719.345 371.276 703.179 373.963 701.178 368.725C699.177 363.487 702.283 361.415 702.283 361.415Z" fill="#77AF8F"/>
<path d="M693.737 372.491C693.737 372.491 693.506 369.918 695.584 370.927C697.661 371.935 704.897 379.742 697.396 387.15C697.396 387.15 687.299 379.672 689.119 375.778C690.939 371.883 693.737 372.491 693.737 372.491Z" fill="#77AF8F"/>
<path d="M666.974 376.158C666.974 376.158 668.541 374.104 666.246 373.85C663.951 373.595 653.667 376.34 656.062 386.607C656.062 386.607 668.591 385.665 669.128 381.4C669.665 377.135 666.974 376.158 666.974 376.158Z" fill="#77AF8F"/>
<path d="M699.145 453.899H673.873L667.15 422.894H705.229L699.145 453.899Z" fill="#FF5600"/>
<path d="M707.422 422.445H664.858V431.361H707.422V422.445Z" fill="#E6E6E6"/>
<path d="M202.264 49.9142L166.186 57.0124C164.283 57.3868 163.044 59.233 163.419 61.136L172.925 109.45C173.299 111.353 175.145 112.592 177.048 112.218L213.125 105.12C215.028 104.745 216.267 102.899 215.893 100.996L206.387 52.6819C206.013 50.7789 204.167 49.5398 202.264 49.9142Z" fill="#E6E6E6"/>
<path d="M174.798 67.8076L198.383 63.1672C199.344 62.9781 200.278 63.6048 200.467 64.5658L200.503 64.75C200.692 65.7107 200.066 66.6441 199.105 66.8331L175.52 71.4735C174.558 71.6627 173.624 71.0357 173.435 70.0743L173.399 69.8913C173.21 68.9303 173.837 67.9967 174.798 67.8076Z" fill="#FF5600" fill-opacity="0.1"/>
<path d="M176.643 77.1864L200.23 72.5458C201.19 72.3568 202.124 72.9833 202.313 73.9439L202.349 74.1282C202.538 75.0892 201.911 76.0229 200.95 76.2119L177.365 80.8524C176.404 81.0415 175.47 80.4147 175.281 79.4537L175.245 79.2698C175.056 78.309 175.682 77.3755 176.643 77.1864Z" fill="#FF5600" fill-opacity="0.1"/>
<path d="M178.489 86.5653L202.074 81.9248C203.035 81.7357 203.969 82.3625 204.158 83.3236L204.194 83.5074C204.383 84.4682 203.757 85.4017 202.796 85.5907L179.21 90.2312C178.249 90.4203 177.315 89.7935 177.126 88.8324L177.09 88.6489C176.901 87.688 177.528 86.7543 178.489 86.5653Z" fill="#FF5600" fill-opacity="0.1"/>
<path d="M180.334 95.944L191.115 93.8228C192.076 93.6337 193.009 94.2604 193.199 95.2214L193.235 95.4053C193.424 96.3662 192.797 97.2998 191.836 97.4888L181.055 99.61C180.094 99.7991 179.161 99.1724 178.972 98.2114L178.935 98.0273C178.746 97.0665 179.373 96.133 180.334 95.944Z" fill="#FF5600" fill-opacity="0.1"/>
<path d="M71.8549 430.97C71.8407 430.525 70.3428 386.317 63.1521 379.325C56.1584 372.526 48.1313 379.072 47.7939 379.353L47.0728 378.49C47.1636 378.413 56.2226 371.018 63.9369 378.518C71.4506 385.825 72.9205 429.096 72.9793 430.935L71.8549 430.97Z" fill="#BAAEA8"/>
<path d="M72.4721 439.658C72.4204 439.129 67.5577 386.586 86.7462 364.564L87.5947 365.303C68.7244 386.96 73.5416 439.025 73.5921 439.548L72.4721 439.658Z" fill="#BAAEA8"/>
<path d="M71.7627 434.1L70.6395 434.025C70.6791 433.429 74.395 374.291 60.3198 361.345L61.0816 360.517C75.5512 373.826 71.9243 431.645 71.7627 434.1Z" fill="#BAAEA8"/>
<path d="M73.5951 434.067L72.4697 434.058C72.4834 432.429 72.934 394.113 83.818 387.876C86.2375 386.488 88.6067 386.257 90.8603 387.189C97.4415 389.911 100.703 401.624 100.839 402.121L99.7528 402.417C99.7209 402.301 96.5007 390.739 90.4289 388.228C88.515 387.438 86.4795 387.647 84.3776 388.852C74.0495 394.77 73.5985 433.675 73.5951 434.067Z" fill="#BAAEA8"/>
<path d="M69.3564 434.094L68.2333 434.031C68.2502 433.728 69.8751 403.751 61.785 393.189C59.8249 390.631 57.697 389.411 55.4489 389.568C50.1481 389.939 45.703 397.696 45.6589 397.774L44.6787 397.22C44.8716 396.879 49.464 388.859 55.3687 388.446C58.0103 388.258 60.4727 389.626 62.6785 392.506C71.0226 403.399 69.4284 432.847 69.3564 434.094Z" fill="#BAAEA8"/>
<path d="M71.1305 438.172C70.9102 435.264 65.8419 366.816 74.7596 354.755L75.6641 355.424C66.993 367.152 72.1993 437.378 72.2526 438.086L71.1305 438.172Z" fill="#BAAEA8"/>
<path d="M93.2852 394.125C93.2852 394.125 87.9353 396.098 89.526 400.754C91.1165 405.41 108.033 413.073 108.033 413.073C108.033 413.073 115.118 406.579 108.612 396.018C102.105 385.457 93.4299 390.793 93.2852 394.125Z" fill="#77AF8F"/>
<path d="M70.0281 385.262C70.0281 385.262 75.725 385.023 76.0488 389.933C76.3725 394.843 63.7073 408.426 63.7073 408.426C63.7073 408.426 54.669 405.158 56.6101 392.906C58.5515 380.655 68.6124 382.242 70.0281 385.262Z" fill="#77AF8F"/>
<path d="M65.2051 361.76C65.2051 361.76 69.0033 361.352 68.6975 359.039C68.3917 356.725 53.9327 350.771 45.4019 360.399C45.4019 360.399 50.8643 369.782 58.7605 369.905C66.6566 370.027 65.2051 361.76 65.2051 361.76Z" fill="#77AF8F"/>
<path d="M72.2826 356.142C72.2826 356.142 68.8435 357.805 67.8794 355.679C66.9154 353.554 76.0374 340.854 88.3698 344.513C88.3698 344.513 88.6965 355.366 82.06 359.646C75.4236 363.926 72.2826 356.142 72.2826 356.142Z" fill="#77AF8F"/>
<path d="M54.3 392.254C54.3 392.254 56.9213 390.138 54.0924 389.104C51.2634 388.071 37.3829 388.365 37.2383 402.115C37.2383 402.115 53.4048 404.801 55.4059 399.564C57.407 394.326 54.3 392.254 54.3 392.254Z" fill="#77AF8F"/>
<path d="M87.2664 361.415C87.2664 361.415 84.6452 359.299 87.474 358.266C90.3028 357.232 104.183 357.526 104.328 371.276C104.328 371.276 88.1615 373.963 86.1605 368.725C84.1595 363.487 87.2664 361.415 87.2664 361.415Z" fill="#77AF8F"/>
<path d="M78.7201 372.491C78.7201 372.491 78.4894 369.918 80.5665 370.927C82.6436 371.935 89.8798 379.742 82.3789 387.15C82.3789 387.15 72.2819 379.672 74.1018 375.778C75.9219 371.883 78.7201 372.491 78.7201 372.491Z" fill="#77AF8F"/>
<path d="M51.9567 376.158C51.9567 376.158 53.5238 374.104 51.229 373.85C48.9341 373.595 38.6496 376.34 41.0447 386.607C41.0447 386.607 53.5739 385.665 54.1109 381.4C54.6479 377.135 51.9567 376.158 51.9567 376.158Z" fill="#77AF8F"/>
<path d="M84.1276 453.899H58.8555L52.1333 422.894H90.2114L84.1276 453.899Z" fill="#FF5600"/>
<path d="M92.405 422.445H49.8408V431.361H92.405V422.445Z" fill="#E6E6E6"/>
<path d="M437.058 375.364C436.779 374.018 436.245 372.765 435.515 371.653L436.844 370.049L434.003 367.208L432.398 368.536C431.286 367.807 430.034 367.273 428.687 366.994L428.492 364.925H424.475L424.28 366.994C422.933 367.273 421.681 367.807 420.569 368.536L418.964 367.208L416.124 370.049L417.452 371.654C416.723 372.765 416.189 374.018 415.91 375.364L413.841 375.559V379.577L415.91 379.772C416.189 381.118 416.723 382.37 417.452 383.482L416.124 385.087L418.964 387.928L420.569 386.599C421.681 387.329 422.933 387.863 424.28 388.142L424.475 390.211H428.492L428.687 388.142C430.034 387.863 431.286 387.329 432.398 386.599L434.003 387.928L436.844 385.087L435.515 383.482C436.245 382.37 436.779 381.118 437.058 379.772L439.126 379.577V375.559L437.058 375.364ZM431.922 377.568C431.922 380.571 429.487 383.006 426.484 383.006C423.48 383.006 421.045 380.571 421.045 377.568C421.045 374.564 423.48 372.129 426.484 372.129C429.487 372.129 431.922 374.564 431.922 377.568Z" fill="#FF5600" fill-opacity="0.1"/>
<path d="M443.967 136.029C442.478 128.844 439.631 122.164 435.737 116.231L442.826 107.668L427.67 92.5119L419.107 99.6C413.174 95.7079 406.493 92.8598 399.309 91.3703L398.27 80.3334H376.836L375.796 91.3703C368.611 92.8602 361.931 95.7079 355.999 99.6L347.436 92.5119L332.279 107.668L339.368 116.232C335.474 122.164 332.627 128.844 331.137 136.029L320.1 137.07V158.502L331.137 159.543C332.627 166.727 335.474 173.406 339.368 179.339L332.279 187.902L347.436 203.059L355.999 195.969C361.931 199.864 368.611 202.71 375.796 204.2L376.836 215.237H398.27L399.309 204.201C406.493 202.712 413.174 199.864 419.107 195.969L427.67 203.059L442.826 187.902L435.737 179.34C439.631 173.406 442.478 166.727 443.967 159.543L455.003 158.502V137.07L443.967 136.029ZM416.569 147.786C416.569 163.81 403.578 176.801 387.552 176.801C371.527 176.801 358.536 163.81 358.536 147.786C358.536 131.761 371.527 118.769 387.552 118.769C403.578 118.769 416.569 131.76 416.569 147.786Z" fill="#FF5600" fill-opacity="0.1"/>
<path d="M315.016 107.199C314.579 105.093 313.744 103.134 312.602 101.394L314.681 98.8839L310.237 94.44L307.726 96.5183C305.987 95.3771 304.028 94.542 301.922 94.1053L301.617 90.8693H295.333L295.028 94.1053C292.921 94.5422 290.962 95.3771 289.223 96.5183L286.713 94.44L282.269 98.8839L284.347 101.395C283.205 103.134 282.371 105.093 281.934 107.199L278.698 107.504V113.788L281.934 114.093C282.371 116.2 283.205 118.158 284.347 119.898L282.269 122.408L286.713 126.852L289.223 124.774C290.962 125.916 292.921 126.75 295.028 127.187L295.333 130.423H301.617L301.922 127.187C304.028 126.751 305.987 125.916 307.726 124.774L310.237 126.852L314.681 122.408L312.602 119.898C313.744 118.158 314.579 116.2 315.016 114.093L318.251 113.788V107.504L315.016 107.199ZM306.982 110.646C306.982 115.345 303.173 119.154 298.475 119.154C293.776 119.154 289.967 115.345 289.967 110.646C289.967 105.948 293.776 102.139 298.475 102.139C303.173 102.139 306.982 105.948 306.982 110.646Z" fill="#FF5600" fill-opacity="0.1"/>
<path d="M489.107 148.143C488.827 146.792 488.291 145.536 487.559 144.421L488.892 142.811L486.042 139.961L484.432 141.294C483.317 140.562 482.061 140.026 480.71 139.746L480.514 137.671H476.484L476.289 139.746C474.938 140.027 473.682 140.562 472.566 141.294L470.956 139.961L468.106 142.811L469.439 144.421C468.707 145.536 468.172 146.792 467.892 148.143L465.816 148.339V152.369L467.892 152.565C468.172 153.915 468.707 155.171 469.439 156.287L468.106 157.897L470.956 160.747L472.566 159.414C473.682 160.146 474.938 160.681 476.289 160.961L476.484 163.037H480.514L480.71 160.961C482.061 160.681 483.317 160.146 484.432 159.414L486.042 160.747L488.892 157.897L487.559 156.287C488.291 155.171 488.827 153.915 489.107 152.565L491.182 152.369V148.339L489.107 148.143ZM483.955 150.354C483.955 153.367 481.512 155.81 478.499 155.81C475.486 155.81 473.043 153.367 473.043 150.354C473.043 147.341 475.486 144.898 478.499 144.898C481.512 144.898 483.955 147.341 483.955 150.354Z" fill="#FF5600" fill-opacity="0.1"/>
<path d="M81.1812 113.028H71.0367C70.1689 113.028 69.4653 113.731 69.4653 114.599V127.18C69.4653 128.048 70.1689 128.752 71.0367 128.752H81.1812C82.0491 128.752 82.7526 128.048 82.7526 127.18V114.599C82.7526 113.731 82.0491 113.028 81.1812 113.028Z" fill="#E2BDAB"/>
<path d="M101.166 100.799H91.0211C90.1532 100.799 89.4497 101.502 89.4497 102.37V127.18C89.4497 128.048 90.1532 128.752 91.0211 128.752H101.166C102.034 128.752 102.737 128.048 102.737 127.18V102.37C102.737 101.502 102.034 100.799 101.166 100.799Z" fill="#E2BDAB"/>
<path d="M122.68 88.722H112.535C111.667 88.722 110.964 89.4255 110.964 90.2933V127.53C110.964 128.398 111.667 129.101 112.535 129.101H122.68C123.548 129.101 124.251 128.398 124.251 127.53V90.2933C124.251 89.4255 123.548 88.722 122.68 88.722Z" fill="#E2BDAB"/>
<path d="M680.666 127.367H656.139C653.622 127.367 651.581 125.326 651.581 122.809V98.5867C651.581 94.1212 650.537 89.9356 647.452 87.9905C644.776 86.3037 641.245 88.1571 640.754 91.282C639.624 98.4807 636.263 113.074 626.886 122.149C623.974 124.969 621.764 130.766 621.764 134.82V178.117C621.764 182.354 629.215 185.789 638.271 185.789H675.403C682.591 185.789 688.419 179.962 688.419 172.774V167.163C688.419 163.036 689.685 159.078 691.585 155.415C692.96 152.763 693.681 149.815 693.681 146.818V140.383C693.681 133.194 687.854 127.367 680.666 127.367Z" fill="#FDD5C1"/>
<path d="M616.871 128.943H601.025V182.57H616.871V128.943Z" fill="#FDD5C1"/>
<path d="M575.654 74.5531L562.909 79.308C561.601 79.7961 560.145 79.1312 559.657 77.8231L554.961 65.236C554.095 62.9155 552.741 60.9429 550.76 60.5303C549.043 60.1725 547.567 61.8201 547.918 63.5392C548.727 67.4991 549.809 75.7339 546.696 82.268C545.729 84.2978 545.705 87.7386 546.491 89.8452L554.885 112.345C555.706 114.547 560.244 114.887 564.95 113.132L584.246 105.933C587.981 104.539 589.88 100.381 588.486 96.6455L587.398 93.7297C586.598 91.5853 586.489 89.2832 586.766 87.0112C586.966 85.3668 586.77 83.6949 586.188 82.1373L584.941 78.7932C583.547 75.0578 579.389 73.1594 575.654 74.5531Z" fill="#FF5600" fill-opacity="0.1"/>
<path d="M542.808 87.7402L534.574 90.8123L544.971 118.679L553.205 115.607L542.808 87.7402Z" fill="#FF5600" fill-opacity="0.1"/>
<path d="M504.566 210.331C504.012 207.659 502.953 205.176 501.506 202.971L504.141 199.787L498.507 194.153L495.324 196.788C493.118 195.341 490.635 194.282 487.964 193.728L487.577 189.625H479.609L479.223 193.728C476.552 194.282 474.068 195.341 471.863 196.788L468.68 194.153L463.045 199.787L465.68 202.971C464.233 205.176 463.175 207.659 462.621 210.331L458.518 210.717V218.685L462.621 219.072C463.175 221.743 464.233 224.226 465.68 226.431L463.045 229.615L468.68 235.249L471.863 232.613C474.068 234.061 476.552 235.12 479.223 235.673L479.609 239.776H487.577L487.964 235.674C490.635 235.12 493.118 234.061 495.324 232.613L498.507 235.249L504.141 229.615L501.506 226.432C502.953 224.226 504.012 221.743 504.566 219.072L508.668 218.685V210.717L504.566 210.331ZM494.38 214.701C494.38 220.658 489.551 225.488 483.593 225.488C477.636 225.488 472.806 220.658 472.806 214.701C472.806 208.744 477.636 203.914 483.593 203.914C489.551 203.914 494.38 208.744 494.38 214.701Z" fill="#FF5600" fill-opacity="0.1"/>
<path d="M340.767 235.954C339.993 232.218 338.513 228.746 336.489 225.661L340.174 221.21L332.295 213.331L327.843 217.015C324.759 214.992 321.286 213.511 317.551 212.737L317.011 206.999H305.868L305.327 212.737C301.592 213.512 298.119 214.992 295.036 217.015L290.584 213.331L282.705 221.21L286.39 225.662C284.366 228.746 282.886 232.218 282.111 235.954L276.373 236.495V247.637L282.111 248.178C282.886 251.913 284.366 255.385 286.39 258.469L282.705 262.921L290.584 270.8L295.036 267.114C298.119 269.139 301.592 270.619 305.327 271.393L305.868 277.131H317.011L317.551 271.394C321.286 270.62 324.759 269.139 327.843 267.114L332.295 270.8L340.174 262.921L336.489 258.47C338.513 255.385 339.993 251.913 340.767 248.178L346.505 247.637V236.495L340.767 235.954ZM326.524 242.066C326.524 250.396 319.77 257.15 311.439 257.15C303.108 257.15 296.355 250.396 296.355 242.066C296.355 233.735 303.108 226.981 311.439 226.981C319.77 226.981 326.524 233.735 326.524 242.066Z" fill="#FF5600" fill-opacity="0.1"/>
<path d="M217.607 172.465C216.896 169.035 215.537 165.846 213.678 163.014L217.062 158.927L209.828 151.692L205.74 155.076C202.908 153.218 199.719 151.858 196.29 151.147L195.794 145.879H185.563L185.066 151.147C181.637 151.859 178.448 153.218 175.617 155.076L171.529 151.692L164.294 158.927L167.678 163.015C165.82 165.846 164.461 169.035 163.749 172.465L158.481 172.961V183.192L163.749 183.689C164.461 187.118 165.82 190.306 167.678 193.138L164.294 197.226L171.529 204.46L175.617 201.076C178.448 202.935 181.637 204.294 185.066 205.005L185.563 210.273H195.794L196.29 205.005C199.719 204.295 202.908 202.935 205.74 201.076L209.828 204.46L217.062 197.226L213.678 193.139C215.537 190.306 216.896 187.118 217.607 183.689L222.875 183.192V172.961L217.607 172.465ZM204.529 178.076C204.529 185.726 198.328 191.927 190.678 191.927C183.029 191.927 176.828 185.726 176.828 178.076C176.828 170.427 183.029 164.226 190.678 164.226C198.328 164.226 204.529 170.427 204.529 178.076Z" fill="#FF5600" fill-opacity="0.1"/>
<path d="M703.52 458.815C703.52 462.202 559.486 464.947 381.811 464.947C204.136 464.947 60.1025 462.202 60.1025 458.815C60.1025 455.428 204.136 452.683 381.811 452.683C559.486 452.683 703.52 455.428 703.52 458.815Z" fill="#F5F5F5"/>
<path d="M575.642 194.809C567.469 185.73 553.483 184.996 544.404 193.17C535.325 201.344 534.591 215.33 542.765 224.409C549.075 231.418 558.843 233.43 567.15 230.233L573.059 233.268L573.719 226.279C573.812 226.198 573.912 226.13 574.004 226.047C583.083 217.874 583.816 203.888 575.642 194.809Z" fill="#FF5600"/>
<path d="M545.927 188.562C545.849 188.562 545.772 188.525 545.724 188.457C545.643 188.344 545.67 188.188 545.782 188.108C551.685 183.902 559.842 182.939 566.56 185.648C566.688 185.7 566.75 185.846 566.698 185.974C566.646 186.102 566.503 186.162 566.373 186.112C559.805 183.463 551.839 184.407 546.073 188.515C546.029 188.546 545.978 188.562 545.927 188.562Z" fill="#FF5600"/>
<path d="M572.324 189.083C572.265 189.083 572.206 189.063 572.159 189.021C571.365 188.323 570.413 187.783 569.406 187.461C569.274 187.418 569.202 187.278 569.244 187.146C569.286 187.015 569.428 186.945 569.558 186.984C570.631 187.328 571.644 187.902 572.489 188.646C572.593 188.737 572.603 188.895 572.511 188.999C572.463 189.055 572.393 189.083 572.324 189.083Z" fill="#FF5600"/>
<path d="M557.12 220.341C556.562 219.804 556.283 219.15 556.283 218.379C556.283 217.608 556.557 216.964 557.105 216.447C557.652 215.93 558.352 215.671 559.204 215.671C560.055 215.671 560.755 215.93 561.303 216.447C561.85 216.964 562.124 217.608 562.124 218.379C562.124 219.15 561.845 219.804 561.288 220.341C560.729 220.879 560.035 221.147 559.204 221.147C558.372 221.147 557.677 220.879 557.12 220.341ZM556.375 199.61H562.033L561.09 213.512H557.318L556.375 199.61Z" fill="white"/>
<path d="M345.166 37.3144C333.98 33.2357 321.607 38.9965 317.528 50.1816C313.449 61.3667 319.21 73.7405 330.395 77.8191C339.03 80.9678 348.357 78.2351 354.046 71.6866L360.52 71.5979L357.894 65.281C357.937 65.1689 357.991 65.065 358.033 64.9516C362.112 53.7668 356.351 41.393 345.166 37.3144Z" fill="#FF5600"/>
<path d="M316.619 45.5531C316.581 45.5531 316.543 45.5449 316.507 45.5268C316.383 45.4648 316.333 45.3149 316.395 45.1913C319.554 38.872 326.135 34.3124 333.161 33.5746C333.292 33.561 333.421 33.6596 333.436 33.7973C333.45 33.9345 333.351 34.0575 333.213 34.0717C326.353 34.7919 319.927 39.2446 316.842 45.415C316.798 45.5024 316.71 45.5531 316.619 45.5531Z" fill="#FF5600"/>
<path d="M339.579 33.938C339.56 33.938 339.54 33.936 339.521 33.9311C338.518 33.6923 337.453 33.663 336.44 33.8466C336.306 33.8696 336.174 33.7812 336.149 33.645C336.125 33.5092 336.215 33.3794 336.351 33.3545C337.43 33.1587 338.565 33.1899 339.637 33.4448C339.771 33.4765 339.854 33.6113 339.822 33.7461C339.794 33.8608 339.692 33.938 339.579 33.938Z" fill="#FF5600"/>
<path d="M346.049 54.6554H329.125V60.4745H346.049V54.6554Z" fill="white"/>
<path d="M350.032 57.565L347.251 60.7772L344.469 63.9894V57.565V51.1406L347.251 54.3528L350.032 57.565Z" fill="white"/>
<path d="M442.942 279.17L447.96 303.404L458.517 303.308L456.582 277.113L442.942 279.17Z" fill="#263238"/>
<path d="M449.219 301.452C450.634 302.731 453.675 302.499 455.031 301.411L455.046 299.427C455.272 297.751 455.863 296.952 457.664 297.157C458.548 297.256 459.669 298.31 460.42 299.9C461.766 302.75 463.311 303.888 463.311 303.888C463.311 303.888 471.392 307.774 474.284 308.619C476.01 309.123 478.318 309.887 479.575 311.71C479.933 312.232 480.259 312.85 480.544 313.582C480.778 314.183 480.791 315.547 480.792 315.577L460.446 315.835C460.446 315.835 458.354 314.652 457.473 314.695C455.905 314.772 455.22 316.148 455.22 316.148L447.822 316.297C447.822 316.297 447.665 315.157 447.439 313.499L447.438 313.498C447.336 312.751 447.221 311.899 447.097 310.998C446.57 307.136 446.996 302.52 446.856 301.427C446.61 299.511 449.219 301.452 449.219 301.452Z" fill="#263238"/>
<path d="M467.663 305.796C467.571 305.715 467.43 305.709 467.325 305.777C466.845 306.087 466.445 306.52 466.178 307.059C466.037 307.342 466.484 307.604 466.626 307.318C466.863 306.84 467.212 306.457 467.632 306.184C467.772 306.093 467.792 305.908 467.667 305.8L467.663 305.796Z" fill="#FF5600"/>
<path d="M466.082 304.971C465.99 304.89 465.849 304.884 465.744 304.952C465.264 305.262 464.864 305.695 464.597 306.233C464.456 306.517 464.903 306.779 465.045 306.493C465.282 306.015 465.631 305.632 466.051 305.36C466.191 305.269 466.211 305.084 466.086 304.975L466.082 304.971Z" fill="#FF5600"/>
<path d="M464.454 304.204C464.361 304.123 464.22 304.117 464.115 304.185C463.635 304.495 463.235 304.929 462.968 305.467C462.827 305.751 463.274 306.013 463.416 305.726C463.653 305.248 464.002 304.865 464.422 304.593C464.562 304.502 464.582 304.317 464.458 304.208L464.454 304.204Z" fill="#FF5600"/>
<path d="M464.066 304.937L464.019 304.467L464.268 304.442L464.018 304.457C463.948 303.755 463.876 303.028 463.931 302.303C463.995 301.461 464.225 300.746 464.616 300.18C464.904 299.761 465.265 299.558 465.627 299.557C466.104 299.58 466.43 299.995 466.576 300.376C466.823 301.02 466.771 301.798 466.433 302.511C466.107 303.202 464.816 304.311 464.428 304.635L464.066 304.937ZM465.586 300.056C465.335 300.056 465.113 300.339 465.028 300.463C464.688 300.956 464.487 301.588 464.429 302.34C464.389 302.867 464.423 303.407 464.47 303.939C465.112 303.375 465.793 302.696 465.982 302.297C466.261 301.707 466.307 301.072 466.109 300.555C466.024 300.332 465.84 300.067 465.602 300.057L465.586 300.056Z" fill="#FF5600"/>
<path d="M464.595 304.756L464.139 304.69C463.642 304.6 461.974 304.274 461.346 303.832C460.7 303.378 460.27 302.727 460.168 302.044C460.107 301.64 460.187 301.118 460.591 300.864C460.899 300.67 461.31 300.682 461.775 300.908C462.394 301.207 462.947 301.715 463.419 302.416C463.823 303.018 464.118 303.682 464.403 304.325L464.595 304.756ZM461.085 301.229C461.003 301.229 460.925 301.244 460.857 301.287C460.657 301.413 460.627 301.734 460.662 301.97C460.745 302.518 461.099 303.047 461.633 303.424C461.996 303.679 462.923 303.933 463.758 304.107C463.537 303.619 463.299 303.133 463.005 302.695C462.583 302.068 462.096 301.618 461.558 301.358C461.441 301.302 461.257 301.229 461.085 301.229Z" fill="#FF5600"/>
<path d="M341.623 301.751L332.357 324.699L341.195 330.475L354.113 307.604L341.623 301.751Z" fill="#263238"/>
<path d="M334.194 324.485C335.609 325.763 338.65 325.532 340.006 324.444L340.022 322.459C340.248 320.784 340.838 319.985 342.639 320.19C343.523 320.289 344.645 321.343 345.395 322.933C346.741 325.783 348.286 326.921 348.286 326.921C348.286 326.921 356.367 330.807 359.259 331.652C360.985 332.156 363.293 332.92 364.55 334.743C364.908 335.264 365.234 335.883 365.519 336.615C365.753 337.216 365.766 338.58 365.767 338.61L345.421 338.868C345.421 338.868 343.329 337.685 342.448 337.728C340.88 337.805 340.195 339.181 340.195 339.181L332.797 339.33C332.797 339.33 332.64 338.19 332.414 336.531L332.413 336.531C332.311 335.783 332.196 334.931 332.072 334.031C331.545 330.169 331.971 325.553 331.831 324.46C331.585 322.544 334.194 324.485 334.194 324.485Z" fill="#263238"/>
<path d="M352.639 328.829C352.546 328.748 352.405 328.742 352.3 328.81C351.82 329.12 351.42 329.553 351.153 330.091C351.012 330.375 351.459 330.637 351.601 330.351C351.838 329.872 352.188 329.489 352.607 329.217C352.747 329.126 352.767 328.941 352.643 328.833L352.639 328.829Z" fill="#FF5600"/>
<path d="M351.058 328.004C350.965 327.923 350.824 327.917 350.719 327.984C350.239 328.295 349.839 328.728 349.572 329.266C349.431 329.55 349.878 329.812 350.02 329.526C350.257 329.047 350.607 328.665 351.026 328.392C351.166 328.301 351.186 328.116 351.061 328.008L351.058 328.004Z" fill="#FF5600"/>
<path d="M349.429 327.237C349.336 327.156 349.195 327.15 349.09 327.218C348.61 327.528 348.21 327.961 347.943 328.5C347.803 328.783 348.249 329.045 348.391 328.759C348.628 328.281 348.978 327.898 349.397 327.626C349.538 327.534 349.557 327.349 349.433 327.241L349.429 327.237Z" fill="#FF5600"/>
<path d="M349.042 327.968L348.995 327.5C348.924 326.795 348.851 326.067 348.906 325.336C348.971 324.493 349.201 323.778 349.591 323.212C349.879 322.794 350.223 322.586 350.601 322.589C351.079 322.613 351.405 323.027 351.551 323.407C351.798 324.052 351.746 324.83 351.409 325.542C351.081 326.237 349.791 327.344 349.404 327.667L349.042 327.968ZM350.561 323.088C350.321 323.088 350.109 323.342 350.003 323.495C349.663 323.988 349.462 324.62 349.405 325.373C349.365 325.901 349.397 326.441 349.446 326.973C350.087 326.409 350.767 325.73 350.957 325.329C351.236 324.738 351.283 324.104 351.084 323.587C350.998 323.364 350.815 323.101 350.577 323.089L350.561 323.088Z" fill="#FF5600"/>
<path d="M349.577 327.807L349.113 327.723C348.616 327.632 346.944 327.304 346.32 326.864C345.675 326.411 345.246 325.76 345.143 325.077C345.082 324.675 345.161 324.153 345.565 323.897C345.872 323.702 346.294 323.718 346.751 323.94C347.37 324.24 347.923 324.748 348.394 325.449C348.804 326.059 349.1 326.728 349.386 327.376L349.577 327.807ZM346.06 324.26C345.978 324.26 345.9 324.276 345.832 324.319C345.632 324.447 345.602 324.768 345.637 325.003C345.72 325.551 346.074 326.08 346.608 326.456C346.968 326.709 347.896 326.964 348.733 327.139C348.513 326.653 348.275 326.168 347.979 325.729C347.557 325.102 347.071 324.651 346.533 324.39C346.416 324.334 346.232 324.26 346.06 324.26Z" fill="#FF5600"/>
<path d="M361.363 176.377C361.322 177.727 353.082 254.442 353.082 254.442L332.818 320.038L348.87 324.135L379.36 254.442C381.537 239.289 387.651 203.452 390.152 187.244L398.918 169.677L366.909 161.636L361.363 176.377Z" fill="#461082"/>
<path d="M403.884 177.279C404.946 178.477 444.328 216.356 449.284 224.145C454.24 231.933 461.941 298.132 461.941 298.132L443.179 303.412L428.311 233.988C428.311 233.988 379.103 191.576 380.165 190.868C381.227 190.16 397.751 170 397.751 170L403.884 177.279Z" fill="#461082"/>
<path d="M443.517 71.292C443.517 71.292 444.048 70.8702 445.518 71.0114C446.988 71.1526 446.749 72.9526 446.948 72.8578C447.147 72.7629 448.11 72.865 448.975 73.0146C449.839 73.164 450.155 74.0811 449.944 75.8116C449.733 77.5421 447.738 84.2262 447.102 84.8107C447.102 84.8107 446.875 86.3802 446.891 86.5412C446.907 86.7022 439.958 89.011 439.958 89.011L438.917 83.3787L436.461 80.2792C436.461 80.2792 434.576 77.0479 434.716 75.2953C434.74 74.989 434.898 74.6639 434.937 74.3994C435.082 73.4203 435.973 73.6909 436.837 74.1764L437.966 74.5822C437.966 74.5822 438.356 72.1791 438.519 71.2742C438.625 70.6849 439.07 70.1664 439.676 69.9864C439.8 69.9493 439.926 69.9228 440.044 69.9148C440.829 69.8616 440.91 70.6411 440.91 70.6411C440.91 70.6411 442.156 69.9325 443.133 70.9913C443.493 71.3818 443.517 71.292 443.517 71.292Z" fill="#7A471C"/>
<path d="M411.112 75.9543C411.112 77.4955 411.561 78.7406 412.133 78.7406H428.514C429.065 78.7406 429.534 77.4955 429.534 75.9543C429.534 74.4131 429.096 73.1577 428.514 73.1577H412.132C411.602 73.1577 411.112 74.4131 411.112 75.9543Z" fill="#FF5600"/>
<path d="M427.462 75.9543C427.462 77.9139 428.065 79.5061 428.799 79.5061H448.345C449.08 79.5061 449.672 77.9241 449.672 75.9543C449.672 73.9845 449.08 72.3923 448.345 72.3923H428.759C428.024 72.3923 427.462 73.9947 427.462 75.9543Z" fill="#FF5600"/>
<path d="M446.426 75.9544C446.426 78.3121 447.15 80.2206 448.028 80.2206H468.441C469.329 80.2206 470.043 78.3223 470.043 75.9544C470.043 73.5865 469.329 71.6779 468.441 71.6779H448.028C447.15 71.6779 446.426 73.5967 446.426 75.9544Z" fill="#FF5600"/>
<path opacity="0.2" d="M468.452 71.6779C469.339 71.6779 470.054 73.5967 470.054 75.9544C470.054 78.3121 469.339 80.2206 468.452 80.2206C467.564 80.2206 466.849 78.3121 466.849 75.9544C466.849 73.5865 467.564 71.6779 468.452 71.6779Z" fill="white"/>
<path d="M467.339 75.9544C467.339 73.5967 468.053 72.1576 468.451 72.1576C468.849 72.1576 469.574 73.6069 469.574 75.9544C469.574 78.3019 468.849 79.741 468.451 79.741C468.053 79.741 467.339 78.3121 467.339 75.9544Z" fill="black"/>
<path d="M438.937 76.9785C439.844 76.629 440.541 75.7796 440.705 74.821C440.727 74.6965 440.737 74.5577 440.664 74.4546C440.542 74.2823 440.282 74.3144 440.077 74.3652C438.729 74.7001 437.381 75.035 436.032 75.3699C435.468 75.51 434.821 75.7218 434.625 76.2689C434.462 76.7234 434.688 77.2189 434.932 77.6354C435.459 78.5323 436.098 79.363 436.83 80.1017L440.894 80.626C441.052 79.1682 440.239 77.6528 438.937 76.9785Z" fill="#7A471C"/>
<path d="M315.662 180.164C313.469 179.066 311.497 177.573 309.844 175.761C308.371 174.016 307.9 172.41 308.516 171.219C309.692 168.887 314.654 169.24 319.94 172.011C325.226 174.782 328.305 178.625 327.075 180.954C326.461 182.135 324.863 182.664 322.593 182.44C321.909 182.37 321.231 182.249 320.565 182.079C318.86 181.639 317.214 180.996 315.662 180.164ZM314.708 171.326C312.081 170.673 310.127 170.903 309.656 171.822C309.301 172.495 309.741 173.652 310.824 174.925C312.364 176.618 314.204 178.011 316.252 179.032C318.26 180.133 320.454 180.855 322.724 181.161C324.39 181.333 325.591 181.026 325.943 180.363C326.707 178.977 324.148 175.661 319.339 173.141C317.871 172.358 316.317 171.749 314.708 171.326Z" fill="#263238"/>
<path d="M295.435 165.404C295.968 164.396 297.218 164.011 298.226 164.545L343.207 188.123C344.218 188.656 344.606 189.906 344.077 190.919L327.911 221.758L327.906 221.769C327.372 222.777 326.123 223.161 325.115 222.628L280.133 199.05L280.104 199.035C279.104 198.499 278.728 197.254 279.264 196.254L295.429 165.414L295.435 165.404Z" fill="#263238"/>
<path opacity="0.1" d="M295.435 165.404C295.968 164.396 297.218 164.011 298.226 164.545L343.207 188.123C344.218 188.656 344.606 189.906 344.077 190.919L327.911 221.758L327.906 221.769C327.372 222.777 326.123 223.161 325.115 222.628L280.133 199.05L280.104 199.035C279.104 198.499 278.728 197.254 279.264 196.254L295.429 165.414L295.435 165.404Z" fill="white"/>
<path d="M339.673 188.577C340.209 187.577 341.455 187.201 342.454 187.737L343.207 188.123C344.218 188.657 344.606 189.906 344.077 190.919L327.911 221.758L327.906 221.769C327.372 222.777 326.123 223.162 325.115 222.628L324.362 222.242C323.38 221.685 322.999 220.461 323.492 219.446L339.658 188.606L339.673 188.577Z" fill="#263238"/>
<path d="M342.836 187.931L297.836 164.338C296.832 163.811 295.59 164.198 295.063 165.202L287.548 179.539L287.542 179.549C287.122 180.349 287.429 181.339 288.23 181.759L329.553 203.423C330.358 203.845 331.353 203.536 331.776 202.731L339.271 188.433C339.772 187.456 340.952 187.046 341.951 187.501L342.836 187.931Z" fill="#263238"/>
<path opacity="0.2" d="M342.839 187.922L297.84 164.322C296.836 163.795 295.594 164.183 295.067 165.187L287.549 179.532L287.544 179.542C287.123 180.343 287.431 181.333 288.231 181.754L329.553 203.424C330.358 203.846 331.353 203.535 331.776 202.73L339.273 188.424C339.774 187.447 340.955 187.037 341.953 187.492L342.839 187.922Z" fill="white"/>
<path d="M311.439 191.418L307.097 199.7C306.94 199.998 306.572 200.113 306.273 199.957L302.928 198.203C302.63 198.047 302.515 197.678 302.671 197.38L307.013 189.098L311.439 191.418Z" fill="#263238"/>
<path d="M307.587 198.077L303.692 196.005C303.394 195.848 303.172 195.578 303.074 195.256C302.977 194.937 303.008 194.593 303.159 194.296L304.127 192.442C304.285 192.144 304.554 191.922 304.877 191.824C305.198 191.717 305.55 191.748 305.847 191.911L309.742 193.983C310.04 194.143 310.265 194.412 310.37 194.735C310.469 195.057 310.433 195.406 310.273 195.703L309.307 197.546C309.154 197.847 308.887 198.075 308.565 198.178C308.342 198.244 308.104 198.249 307.878 198.194C307.775 198.171 307.677 198.132 307.587 198.077ZM305.44 192.438C305.331 192.416 305.217 192.426 305.113 192.467C304.955 192.517 304.821 192.626 304.74 192.771L303.771 194.625C303.698 194.772 303.684 194.942 303.73 195.1C303.777 195.26 303.887 195.395 304.034 195.473L307.929 197.545C308.077 197.628 308.253 197.643 308.414 197.588C308.57 197.536 308.7 197.427 308.777 197.282L309.746 195.428C309.829 195.284 309.843 195.11 309.787 194.953C309.74 194.793 309.63 194.658 309.483 194.58L305.588 192.508L305.433 192.469L305.44 192.438Z" fill="white"/>
<path d="M322.936 159.19C322.095 159.411 317.066 164.714 316.029 166.248C314.993 167.781 314.816 168.817 315.495 169.412C316.174 170.008 316.963 170.61 317.182 170.624C317.402 170.638 316.307 172.223 317.518 173.128C318.728 174.033 319.398 173.911 319.398 173.911C319.398 173.911 318.913 176.306 320.519 177.072C322.125 177.837 322.888 177.113 323.156 177.241C323.423 177.368 325.087 174.662 325.087 174.662L326.819 177.747C326.819 177.747 327.754 176.93 328.739 175.338C329.724 173.747 329.969 169.074 329.969 169.074L329.358 164.842L331.226 158.946C331.226 158.946 324.038 157.495 323.973 157.657C323.907 157.818 322.936 159.19 322.936 159.19Z" fill="#7A471C"/>
<path d="M363.291 164.493C363.291 164.493 361.231 164.223 362.092 162.409C362.954 160.594 365.552 158.628 365.552 158.628L365.019 143.432L365.957 102.577L373.614 101.197L382.025 99.8158L385.767 96.8523L395.377 97.0175L399.906 99.9244L404.815 100.922C404.767 100.989 413.114 122.979 409.552 140.42C405.989 157.861 403.541 168.873 403.056 169.97C402.076 172.191 400.31 171.356 400.31 171.356L363.291 164.493Z" fill="#FF5600"/>
<path opacity="0.7" d="M363.291 164.493C363.291 164.493 361.231 164.223 362.092 162.409C362.954 160.594 365.297 159.021 365.297 159.021L365.019 143.432L365.488 123.012L365.957 102.577L373.614 101.197L382.025 99.8158L385.767 96.8523L395.304 96.9187L399.906 99.9244L404.815 100.922C404.767 100.989 413.114 122.979 409.552 140.42C405.989 157.861 403.541 168.873 403.056 169.97C402.076 172.191 400.31 171.356 400.31 171.356L363.291 164.493Z" fill="white"/>
<path opacity="0.1" d="M391.226 169.829C391.212 169.829 391.198 169.828 391.184 169.826C391.048 169.803 390.956 169.674 390.98 169.538C393.644 153.74 393.496 134.615 393.366 117.741C393.336 113.689 393.306 109.863 393.313 106.128C393.313 105.991 393.425 105.879 393.563 105.879C393.701 105.879 393.813 105.991 393.813 106.129C393.806 109.862 393.836 113.687 393.866 117.737C393.996 134.631 394.144 153.78 391.472 169.621C391.451 169.743 391.346 169.829 391.226 169.829Z" fill="#263238"/>
<path opacity="0.2" d="M382.439 100.314C382.776 101.058 388.407 109.256 388.407 109.256L393.562 106.129C393.601 106.086 388.97 110.566 388.942 110.61L387.657 110.646L382.439 100.314Z" fill="black"/>
<path opacity="0.2" d="M394.035 106.062L397.619 107.908C397.619 107.908 399.469 104.282 399.619 103.271C399.769 102.259 399.812 100.538 399.812 100.538L400.303 100.569C400.303 100.569 400.542 103.418 399.677 105.459C398.761 107.62 397.699 109.694 397.699 109.694L394.035 106.062Z" fill="black"/>
<path d="M383.737 80.1639C383.737 80.1639 375.724 73.0695 376.13 70.7706C376.536 68.4717 377.832 69.2137 377.832 69.2137C377.832 69.2137 375.133 63.5766 377.941 62.685C380.75 61.7933 380.922 62.7343 380.922 62.7343C380.922 62.7343 379.924 58.1624 382.165 56.8468C383.871 55.8326 384.536 57.9421 384.536 57.9421C384.536 57.9421 387.861 53.0367 391.701 53.199C393.597 53.3883 394.504 54.6336 394.201 56.0904C394.188 56.1536 394.172 56.2161 394.155 56.2781C394.155 56.2781 401.987 53.0799 405.54 55.2844C409.092 57.4888 404.34 59.7051 404.34 59.7051C404.34 59.7051 411.913 59.0924 413.323 62.1659C414.442 64.6067 411.043 66.1549 411.043 66.1549C411.043 66.1549 412.226 66.5876 413.223 67.5322C415.124 69.3315 413.86 72.6306 411.243 72.6639L411.183 72.6645C410.781 72.6667 410.058 72.7371 409.773 72.4541C409.773 72.4541 411.007 75.2201 408.191 76.0337C405.374 76.8475 404.121 73.5764 404.121 73.5764L383.737 80.1639Z" fill="#263238"/>
<path d="M385.896 98.0023C385.896 98.0023 386.444 94.0732 383.863 84.4325C383.864 84.4223 384.373 84.2088 384.373 84.1985C384.018 82.8504 383.636 81.6034 383.274 80.5219C383.266 80.4905 383.267 80.4802 383.267 80.4802L396.208 88.8526C395.837 91.9108 396.814 97.8553 397.419 100.37L393.883 106.048L385.896 98.0023Z" fill="#935827"/>
<path opacity="0.2" d="M396.344 93.166L388.834 91.3094C389.471 93.6698 391.489 96.4937 396.735 96.8291C396.735 96.8291 396.266 94.1925 396.344 93.166Z" fill="black"/>
<path d="M405.736 66.3903C407.216 69.4548 407.626 76.1358 402.825 74.6458C398.023 73.156 403.192 61.1226 405.736 66.3903Z" fill="#263238"/>
<path d="M383.296 74.11C384.009 82.439 384.243 87.1508 388.565 91.2922C395.067 97.5217 405.05 93.5543 406.845 85.1558C408.461 77.5964 407.025 65.2458 398.766 62.2006C390.629 59.2003 382.584 65.7811 383.296 74.11Z" fill="#935827"/>
<path d="M395.294 76.2322C395.314 77.0858 395.783 77.7624 396.342 77.7436C396.901 77.7248 397.337 77.0174 397.317 76.1638C397.296 75.3102 396.827 74.6336 396.268 74.6524C395.71 74.6712 395.273 75.3785 395.294 76.2322Z" fill="#263238"/>
<path d="M403.669 76.1981C403.689 77.0516 404.158 77.7283 404.717 77.7095C405.276 77.6907 405.712 76.9834 405.692 76.1297C405.671 75.2761 405.202 74.5994 404.643 74.6184C404.085 74.6374 403.648 75.3444 403.669 76.1981Z" fill="#263238"/>
<path d="M400.934 75.79C400.934 75.79 403.737 79.9666 404.645 81.6729C403.482 82.7744 401.424 82.3287 401.424 82.3287L400.934 75.79Z" fill="#753B0B"/>
<path d="M393.335 71.6075C393.469 71.6458 393.62 71.613 393.727 71.5078C395.01 70.2599 396.452 70.556 396.467 70.559C396.682 70.6058 396.897 70.4695 396.946 70.2548C396.995 70.04 396.859 69.8276 396.645 69.7804C396.569 69.7635 394.762 69.3918 393.17 70.9406C393.011 71.0951 393.007 71.3475 393.161 71.5042C393.211 71.5551 393.271 71.5892 393.335 71.6075Z" fill="#263238"/>
<path d="M407.315 72.4293C407.388 72.408 407.456 72.3658 407.509 72.3031C407.652 72.1339 407.633 71.8808 407.466 71.7382C405.79 70.3058 404.03 70.8307 403.948 70.844C403.737 70.9082 403.616 71.1316 403.677 71.3434C403.739 71.5546 403.958 71.6742 404.168 71.6128C404.241 71.5879 405.602 71.2013 406.947 72.3508C407.052 72.4408 407.191 72.4655 407.315 72.4293Z" fill="#263238"/>
<path d="M398.871 87.8427C398.795 87.8224 398.898 87.8535 398.871 87.8427V87.8427Z" fill="#263238"/>
<path d="M400.244 84.6477C398.914 84.1934 396.464 83.2406 395.296 81.9563C395.296 81.9563 395.072 82.3182 394.935 82.8697C394.811 83.3449 394.736 83.9513 394.88 84.5849C395.15 85.7424 396.129 87.0096 398.82 87.8244C398.857 87.8369 398.864 87.8397 398.871 87.8427L398.898 87.8497C398.898 87.8497 400.35 88.2568 401.157 84.9398C401.157 84.9398 400.799 84.8437 400.244 84.6477Z" fill="#263238"/>
<path d="M400.244 84.6477L399.707 85.5366C397.175 84.7629 395.495 83.8783 394.935 82.8696C395.072 82.3182 395.296 81.9564 395.296 81.9564C396.464 83.2406 398.914 84.1935 400.244 84.6477Z" fill="white"/>
<path d="M398.82 87.8244C396.129 87.0096 395.15 85.7424 394.88 84.585C395.787 84.8981 396.844 85.3763 397.689 86.082C398.337 86.619 398.657 87.2424 398.82 87.8244Z" fill="#DC5753"/>
<path d="M405.344 65.2769C404.094 64.1384 402.548 63.3803 400.987 62.7315C398.396 61.6547 395.678 60.8323 392.884 60.5786C390.09 60.3248 387.211 60.6584 384.651 61.8071C384.091 62.0583 383.534 62.3584 383.136 62.8253C382.758 63.2684 382.551 63.8289 382.368 64.382C381.256 67.746 380.779 71.3187 380.969 74.8568L385.642 80.6027C386.371 80.2277 387.139 79.816 387.547 79.105C387.926 78.4434 387.925 77.6364 387.875 76.8754C387.823 76.0859 387.728 75.2992 387.592 74.5198C388.324 74.9092 389.233 74.3372 389.656 73.6235C390.287 72.5564 390.279 71.241 390.22 70.0026C391.16 70.226 392.235 69.9702 392.873 69.2446C393.511 68.5189 393.598 67.321 392.967 66.5887C396.024 67.0721 399.176 66.9487 402.186 66.2278C401.971 66.6049 402.2 67.0763 402.456 67.4268C403.496 68.8473 405.075 69.8626 406.799 70.2189C407.052 70.2711 407.368 70.2863 407.514 70.0732C407.592 69.9597 407.595 69.8124 407.59 69.6749C407.528 67.9855 406.593 66.4154 405.344 65.2769Z" fill="#263238"/>
<path d="M380.169 81.1423C380.887 83.2739 382.527 84.8654 384.201 85.6475C386.72 86.8243 388.458 84.6722 388.159 82.0498C387.89 79.6896 386.256 76.2331 383.535 76.1561C380.854 76.0803 379.348 78.7051 380.169 81.1423Z" fill="#935827"/>
<path opacity="0.2" d="M385.887 81.4473C385.764 81.4473 385.657 81.3564 385.639 81.2314C385.547 80.5566 385.277 79.9155 384.861 79.3774C384.593 79.0303 384.149 78.5889 383.557 78.4585C383.033 78.3418 382.477 78.54 382.23 78.9253C382.156 79.042 382.003 79.0767 381.884 79.001C381.768 78.9267 381.734 78.772 381.808 78.6558C382.171 78.0908 382.936 77.8096 383.665 77.9702C384.404 78.1333 384.938 78.6592 385.258 79.0718C385.726 79.6787 386.03 80.4019 386.135 81.1631C386.154 81.2998 386.058 81.4263 385.922 81.4448C385.91 81.4463 385.898 81.4473 385.887 81.4473Z" fill="black"/>
<path d="M447.292 85.7288H438.071L437.416 110.833C437.416 110.833 420.805 105.165 416.896 103.504C412.987 101.842 409.289 101.089 409.289 101.089L407.564 102.048L411.112 117.666C411.112 117.666 439.05 131.155 448.403 124.145C457.756 117.136 447.292 85.7288 447.292 85.7288Z" fill="#330664"/>
<path opacity="0.2" d="M414.196 119.057C414.08 118.663 415.499 110.397 415.499 110.397L417.689 120.505L414.196 119.057Z" fill="black"/>
<path opacity="0.2" d="M364.54 130.316L364.42 135.908C364.42 135.908 385.941 123.664 389.507 119.772C394.113 114.745 394.619 111.847 394.619 111.847L364.54 130.316Z" fill="black"/>
<path opacity="0.2" d="M359.534 194.043L377.937 201.313C377.937 201.313 386.13 159.561 386.159 157.644C386.188 155.727 386.23 150.181 386.23 150.181L359.908 190.505L359.534 194.043Z" fill="black"/>
<path d="M365.143 102.296C364.368 102.287 340.512 118.022 336.615 122.173C332.717 126.325 321.138 159.385 321.138 159.385L330.655 162.422L344.429 132.117L367.09 122.319C367.09 122.319 373.009 112.602 373.189 112.159C373.369 111.717 365.143 102.296 365.143 102.296Z" fill="#330664"/>
<path d="M365.143 102.296L380.104 99.1843L383.913 98.3204C383.913 98.3204 388.592 141.119 388.001 143.835C387.409 146.551 376.199 198.232 376.199 198.232L350.477 187.493L363.988 155.956L365.143 102.296Z" fill="#330664"/>
<path opacity="0.2" d="M383.322 98.453C383.322 98.453 377.02 106.322 378.667 109.043C380.314 111.764 382.986 117.658 382.986 117.658C382.986 117.658 380.619 121.559 380.683 124.506C380.747 127.453 387.551 134.845 387.551 134.845C386.946 124.495 384.901 111.608 383.906 98.3204L383.322 98.453Z" fill="black"/>
<path opacity="0.2" d="M364.694 123.354V115.674L357.56 126.439L364.694 123.354Z" fill="black"/>
<path opacity="0.2" d="M365.967 164.146L377.472 168.98L374.799 174.046L362.734 168.471L365.967 164.146Z" fill="black"/>
<path d="M400.736 99.6757C400.736 99.6757 397.1 137.758 396.683 140.894C396.267 144.031 398.015 194.551 398.015 194.551L417.689 188.898L408.48 156.522C408.48 156.522 414.865 118.024 415.281 109.446L415.881 105.488C415.881 105.488 413.473 102.173 410.176 101.304C406.789 100.412 401.164 99.7626 400.736 99.6757Z" fill="#330664"/>
<path opacity="0.2" d="M401.334 99.7625C401.334 99.7625 407.714 107.677 406.067 110.399C404.42 113.12 401.748 119.014 401.748 119.014C401.748 119.014 404.116 122.914 404.051 125.861C403.987 128.808 397.321 134.845 397.321 134.845C398.042 124.742 399.742 112.963 400.736 99.6757L401.334 99.7625Z" fill="black"/>
<path opacity="0.2" d="M411.022 165.459L402.411 168.633L405.084 173.699L412.526 170.745L411.022 165.459Z" fill="black"/>
<path d="M129.634 454.502L116.584 439.346L179.304 385.341L260.26 386.053L323.647 338.273L397.727 338.874L440.196 315.459L504.372 314.08L545.268 274.314L658.358 211.347L668.087 228.82L557.311 290.5L512.671 333.906L445.544 335.35L402.799 358.915L330.269 358.328L266.875 406.111L186.652 405.405L129.634 454.502Z" fill="#C7B9D6"/>
<path d="M644.154 199.456L671.139 245.903C671.708 245.112 682.29 206.41 682.29 206.41L644.154 199.456Z" fill="#C7B9D6"/>
<path opacity="0.3" d="M648.398 216.891L658.398 234.215L662.883 231.692L652.79 214.384L648.398 216.891Z" fill="black"/>
<path d="M390.818 108.824L392.589 112.036C392.589 112.036 362.949 131.12 336.432 131.184L334.244 140.082L343.228 142.329C343.228 142.329 384.348 129.45 394.925 112.381L398.015 108.339L395.177 105.526L394.206 106.072L390.818 108.824Z" fill="#FF5600"/>
<path opacity="0.1" d="M606.569 254.815H606.561C606.423 254.81 606.315 254.693 606.319 254.556C606.352 253.644 606.829 252.742 607.566 252.204C608.303 251.667 609.305 251.483 610.185 251.734C610.318 251.772 610.395 251.91 610.357 252.043C610.319 252.175 610.186 252.255 610.048 252.215C609.317 252.01 608.479 252.158 607.861 252.608C607.245 253.058 606.846 253.811 606.819 254.573C606.815 254.708 606.703 254.815 606.569 254.815Z" fill="black"/>
<path d="M647.323 456.525H650.775L644.394 381.941H640.942L647.323 456.525Z" fill="#FF5600"/>
<path opacity="0.6" d="M647.323 456.525H650.775L644.394 381.941H640.942L647.323 456.525Z" fill="white"/>
<path d="M612.014 456.525H608.562L614.943 381.941H618.394L612.014 456.525Z" fill="#FF5600"/>
<path opacity="0.6" d="M612.014 456.525H608.562L614.943 381.941H618.394L612.014 456.525Z" fill="white"/>
<path d="M633.215 381.95H562.609C565.579 374.597 570.981 370.091 576.818 370.091H628.463L633.215 381.95Z" fill="#FF5600"/>
<path d="M600.163 456.525H603.615L597.234 381.941H593.783L600.163 456.525Z" fill="#FF5600"/>
<path opacity="0.6" d="M600.163 456.525H603.615L597.234 381.941H593.783L600.163 456.525Z" fill="white"/>
<path d="M564.854 456.525H561.402L567.783 381.941H571.234L564.854 456.525Z" fill="#FF5600"/>
<path opacity="0.6" d="M564.854 456.525H561.402L567.783 381.941H571.234L564.854 456.525Z" fill="white"/>
<path d="M648.981 381.95H610.175C613.555 374.597 619.692 370.091 626.334 370.091H640.068C646.71 370.091 649.981 373.921 648.981 381.95Z" fill="#FF5600"/>
<path opacity="0.5" d="M648.981 381.95H610.175C613.555 374.597 619.692 370.091 626.334 370.091H640.068C646.71 370.091 649.981 373.921 648.981 381.95Z" fill="black"/>
<path d="M630.003 333.458C628.187 331.06 623.979 325.327 623.446 319.293L623.443 319.241C623.41 318.854 623.391 318.466 623.39 318.077C623.294 315.511 623.31 312.473 623.479 308.827C623.502 308.257 623.536 307.654 623.57 307.05C623.673 305.137 623.821 303.076 624.003 300.833C624.345 296.813 624.834 292.224 625.495 287.009C625.642 285.802 626.78 283.93 626.95 282.654C627.714 276.972 622.534 272.866 616.943 273.094C615.451 273.15 613.868 273.253 612.263 273.412C605.988 274.004 600.841 274.54 595.387 275.838C593.576 276.259 591.709 276.772 589.921 277.284C583.498 279.129 580.538 287.35 580.458 293.966C580.378 300.133 584.702 312.717 587.665 323.771C588.101 330.112 584.638 333.566 585.681 335.776C586.723 337.987 617.373 331.981 630.003 339.512C630.003 339.512 631.942 336.017 630.003 333.458Z" fill="#FF5600"/>
<path opacity="0.6" d="M630.003 333.458C628.187 331.06 623.979 325.327 623.446 319.293L623.443 319.241C623.41 318.854 623.391 318.466 623.39 318.077C623.294 315.511 623.31 312.473 623.479 308.827C623.502 308.257 623.536 307.654 623.57 307.05C623.673 305.137 623.821 303.076 624.003 300.833C624.345 296.813 624.834 292.224 625.495 287.009C625.642 285.802 626.78 283.93 626.95 282.654C627.714 276.972 622.534 272.866 616.943 273.094C615.451 273.15 613.868 273.253 612.263 273.412C605.988 274.004 600.841 274.54 595.387 275.838C593.576 276.259 591.709 276.772 589.921 277.284C583.498 279.129 580.538 287.35 580.458 293.966C580.378 300.133 584.702 312.717 587.665 323.771C588.101 330.112 584.638 333.566 585.681 335.776C586.723 337.987 617.373 331.981 630.003 339.512C630.003 339.512 631.942 336.017 630.003 333.458Z" fill="white"/>
<path opacity="0.2" d="M625.121 325.446C625.121 325.446 614.305 327.822 609.271 328.051C604.238 328.28 593.347 331.711 593.347 331.711L589.474 334.114L588.108 330.918L594.629 325.02L623.253 319.219C623.603 321.612 624.917 324.965 625.121 325.446Z" fill="black"/>
<path d="M590.375 335.504C599.767 334.567 611.985 333.817 627.885 333.458C627.885 333.458 639.741 361.381 625.682 369.723C621.434 372.243 614.423 373.24 606.707 373.405C597.754 373.595 590.375 366.42 590.375 357.465V335.504Z" fill="#263238"/>
<path d="M621.083 358.502V371.621C609.391 374.994 585.123 373.71 570.697 372.532C564.2 372.002 559.204 366.576 559.204 360.057V349.293C559.204 345.724 561.41 342.534 564.751 341.277C571.744 338.647 584.471 334.727 597.784 334.933C610.693 335.132 621.083 345.592 621.083 358.502Z" fill="#263238"/>
<path d="M566.482 458.636L580.836 452.304L585.376 447.235L586.781 449.144L588.497 448.396C589.297 442.025 586.201 439.045 584.576 437.691C584.46 437.588 584.292 437.472 584.099 437.317C584.035 437.266 583.97 437.214 583.906 437.175C583.88 437.163 583.854 437.137 583.828 437.124C583.764 437.072 583.686 437.021 583.609 436.956C583.596 436.943 583.583 436.943 583.557 436.93V436.918C583.519 436.892 583.48 436.866 583.428 436.84L575.548 440.322C575.548 440.322 575.419 440.735 575.174 441.406C574.387 443.624 572.44 448.68 570.286 451.375C570.196 451.491 570.106 451.607 570.015 451.711C569.757 452.02 569.487 452.291 569.216 452.51C563.18 457.359 566.482 458.636 566.482 458.636Z" fill="#263238"/>
<path d="M569.985 451.672C572.23 452.549 575.402 450.331 577.814 447.429C579.168 445.791 580.471 443.173 581.618 441.058C582.367 439.691 583.05 438.53 583.643 437.976C583.979 437.679 584.288 437.55 584.559 437.679C584.559 437.679 584.546 437.666 584.546 437.653C584.43 437.55 584.262 437.434 584.069 437.279C584.017 437.241 583.953 437.189 583.875 437.137C583.85 437.125 583.824 437.099 583.798 437.086C583.734 437.034 583.656 436.982 583.579 436.918C583.566 436.905 583.553 436.905 583.527 436.892V436.879C583.489 436.854 583.45 436.828 583.398 436.802C582.573 436.183 581.657 435.551 581.657 435.551L574.244 437.407L574.822 440.245C573.997 443.173 572.255 448.745 570.256 451.337C570.166 451.453 570.076 451.569 569.985 451.672Z" fill="#BD7837"/>
<path d="M557.918 396.473C562.494 407.839 569.599 422.322 574.844 440.482C574.946 440.813 575.038 441.143 575.129 441.474C575.231 441.827 575.334 442.169 575.436 442.523L580.851 441.2L581.089 440.258C581.089 440.258 582.96 438.805 582.641 438.476C582.434 438.261 582.573 437.86 582.539 437.518V437.507C581.08 424.841 575.459 378.351 569.885 368.695C569.885 368.695 576.2 369.869 580.989 369.06C584.443 368.478 588.627 344.595 588.627 344.595C588.627 344.595 579.826 342.064 570.797 342.064H570.671C570.671 342.064 552.923 347.314 548.41 351.289C544.169 355.026 543.534 361.149 545.886 368.426C548.043 375.099 552.248 382.39 557.918 396.473Z" fill="#BD7837"/>
<path opacity="0.1" d="M552.846 357.034C553.897 352.904 561.501 348.865 569.356 346.7C570.632 345.047 567.368 343.094 567.368 343.094L582.831 341.695L585.53 343.637L590.144 344.598L586.032 363.073L569.141 366.03L579.827 415.618L581.089 425.416C581.089 425.416 562.99 386.566 559.204 378.305C555.418 370.044 551.025 364.194 552.846 357.034Z" fill="black"/>
<path d="M588.629 344.598C588.629 344.598 564.499 349.71 559.785 353.433C555.771 356.604 555.663 360.743 556.964 364.651C560.56 375.456 573.463 393.472 588.232 445.181L596.695 442.523C595.884 442.522 593.757 415.526 593.129 393.841C592.832 383.613 587.587 374.793 585.535 371.231C585.535 371.231 594.16 372.395 598.947 371.593C605.097 370.562 608.986 350.04 588.629 344.598Z" fill="#BD7837"/>
<path opacity="0.2" d="M586.032 372.2C586.032 372.2 582.831 366.891 578.839 364.651C578.839 364.651 583.751 364.972 586.822 371.385L585.535 371.231L586.032 372.2Z" fill="black"/>
<path d="M599.568 453.656L597.804 454.04L596.339 451.602C596.16 451.305 595.754 451.248 595.5 451.483L590.489 456.126L576.8 459.13C576.8 459.13 573.752 455.908 580.557 453.855C580.882 453.757 581.164 453.502 581.47 453.254C584.838 450.67 588.875 443.553 588.875 443.553L596.986 441.773C596.986 441.773 597.358 442.117 597.907 442.797C599.185 444.387 601.538 447.797 599.568 453.656Z" fill="#263238"/>
<path d="M597.907 442.797L597.913 442.821C596.58 441.863 592.856 448.175 589.679 450.743C586.839 453.031 583.412 454.518 581.47 453.254C584.838 450.67 589.054 441.689 589.054 441.689L595.577 440.258C595.577 440.258 597.358 442.117 597.907 442.797Z" fill="#BD7837"/>
<path d="M553.386 238.427C553.386 238.427 552.838 238.098 551.478 238.493C550.117 238.887 550.554 240.639 550.357 240.579C550.159 240.519 549.268 240.787 548.476 241.085C547.684 241.383 547.497 242.351 547.9 244.038C548.303 245.725 550.947 250.759 551.612 251.232C551.612 251.232 551.426 255.298 551.43 255.461C551.434 255.624 559.755 255.273 559.755 255.273L559.13 249.671L561.063 246.16C561.063 246.16 562.391 241.98 562.052 240.258C561.993 239.957 561.927 239.678 561.859 239.421C561.607 238.471 560.441 238.117 559.689 238.75L558.625 239.645C558.625 239.645 558.327 238.42 558.067 237.546C557.897 236.978 557.419 236.538 556.83 236.463C556.709 236.448 556.588 236.443 556.476 236.456C555.734 236.538 555.752 237.329 555.752 237.329C555.752 237.329 554.5 236.838 553.71 238.061C553.419 238.512 553.386 238.427 553.386 238.427Z" fill="#BD7837"/>
<path opacity="0.1" d="M556.027 247.664C555.932 247.664 555.841 247.609 555.799 247.517C555.611 247.102 555.624 246.588 555.836 246.108C555.993 245.752 556.251 245.415 556.646 245.048C557.038 244.685 557.473 244.369 557.939 244.107C557.328 244.056 556.702 243.917 556.167 243.551C555.837 243.325 555.64 243.063 555.585 242.769C555.479 242.212 555.639 241.666 556.003 241.343C556.469 240.928 556.991 240.538 557.594 240.086C557.985 239.794 558.407 239.479 558.858 239.122C558.966 239.038 559.124 239.055 559.21 239.164C559.296 239.272 559.277 239.429 559.169 239.515C558.713 239.874 558.288 240.192 557.893 240.487C557.299 240.932 556.786 241.315 556.335 241.717C556.057 241.964 556.019 242.374 556.077 242.676C556.114 242.873 556.3 243.036 556.448 243.138C557.121 243.598 557.97 243.647 558.974 243.633C559.111 243.584 559.249 243.54 559.388 243.499C559.489 243.47 559.593 243.506 559.657 243.588C559.719 243.67 559.724 243.782 559.672 243.87C559.515 244.126 559.203 244.131 559.065 244.133C558.298 244.42 557.587 244.858 556.986 245.415C556.641 245.734 556.422 246.019 556.293 246.31C556.141 246.654 556.127 247.028 556.255 247.31C556.312 247.436 556.257 247.584 556.131 247.641C556.097 247.656 556.062 247.664 556.027 247.664Z" fill="#263238"/>
<path opacity="0.1" d="M550.643 246.169C550.254 246.169 549.866 245.951 549.46 245.505C549.106 245.117 548.794 244.688 548.531 244.23C548.451 244.089 548.239 243.718 548.401 243.368C548.459 243.243 548.608 243.187 548.732 243.246C548.858 243.304 548.913 243.452 548.854 243.578C548.818 243.656 548.854 243.788 548.965 243.982C549.209 244.408 549.5 244.807 549.829 245.168C550.156 245.527 550.439 245.695 550.695 245.666C550.954 245.642 551.151 245.425 551.251 245.23C551.383 244.969 551.414 244.65 551.427 244.373C551.463 243.639 551.393 242.91 551.22 242.198C551.156 242.023 551.105 241.842 551.069 241.659C551.043 241.528 551.124 241.401 551.252 241.368C551.387 241.334 551.512 241.408 551.553 241.534C551.607 241.706 551.656 241.879 551.699 242.052C551.878 242.534 552.172 242.973 552.554 243.32C552.836 243.579 553.237 243.767 553.488 243.596C553.674 243.474 553.75 243.203 553.735 242.717C553.693 241.372 553.505 240.028 553.176 238.725C553.142 238.591 553.223 238.455 553.356 238.422C553.486 238.384 553.626 238.468 553.66 238.603C553.998 239.941 554.191 241.32 554.235 242.702C554.249 243.159 554.207 243.721 553.765 244.013C553.257 244.351 552.612 244.05 552.216 243.69C552.108 243.592 552.008 243.487 551.912 243.378C551.938 243.716 551.943 244.056 551.927 244.397C551.911 244.727 551.871 245.11 551.697 245.456C551.493 245.856 551.128 246.128 550.742 246.164C550.709 246.167 550.676 246.169 550.643 246.169Z" fill="#263238"/>
<path opacity="0.1" d="M555.159 244.019C555 244.019 554.834 243.99 554.667 243.934C554.312 243.814 553.993 243.585 553.767 243.286C553.684 243.176 553.706 243.019 553.815 242.936C553.927 242.853 554.083 242.874 554.166 242.984C554.332 243.203 554.566 243.372 554.827 243.46C554.96 243.504 555.159 243.546 555.345 243.495C555.497 243.452 555.622 243.346 555.664 243.223C555.709 243.092 555.855 243.025 555.981 243.068C556.112 243.113 556.181 243.255 556.136 243.385C556.041 243.663 555.79 243.89 555.48 243.976C555.378 244.004 555.27 244.019 555.159 244.019Z" fill="#263238"/>
<path opacity="0.1" d="M556.609 241.315C556.485 241.315 556.378 241.224 556.361 241.098C556.178 239.683 555.986 238.836 555.543 237.478C555.5 237.346 555.571 237.205 555.703 237.162C555.834 237.12 555.975 237.191 556.017 237.322C556.472 238.715 556.669 239.583 556.857 241.033C556.875 241.17 556.778 241.295 556.641 241.313C556.631 241.315 556.62 241.315 556.609 241.315Z" fill="#263238"/>
<path d="M560.626 252.136C560.09 252.385 566.579 277.278 566.579 277.278H592.896C592.896 277.278 581.021 292.991 580.458 293.966C579.894 294.942 560.09 294.585 555.273 287.27C550.456 279.955 550.023 252.97 550.023 252.97L560.626 252.136Z" fill="#FF5600"/>
<path opacity="0.6" d="M560.626 252.136C560.09 252.385 566.579 277.278 566.579 277.278H592.896C592.896 277.278 581.021 292.991 580.458 293.966C579.894 294.942 560.09 294.585 555.273 287.27C550.456 279.955 550.023 252.97 550.023 252.97L560.626 252.136Z" fill="white"/>
<path opacity="0.2" d="M580.46 294.361C580.46 294.361 580.768 288.948 583.585 284.054C583.585 284.054 579.222 289.616 578.568 294.361H580.46Z" fill="black"/>
<path d="M611.87 238.635C615.172 243.849 616.384 247.005 616.899 252.128C617.501 258.116 617.474 263.427 616.207 265.027C614.543 267.127 595.633 269.903 584.968 269.964C584.582 269.967 584.106 266.602 584.106 266.602C584.106 266.602 582.749 269.973 582.248 269.974C579.337 269.976 577.47 269.955 577.47 269.955C577.47 269.955 579.648 264.887 581.771 246.87C582.808 238.07 591.43 234.176 596.575 233.28C605.149 231.785 611.87 238.635 611.87 238.635Z" fill="#263238"/>
<path d="M587.337 256.676C584.327 251.986 580.96 239.13 592.383 234.585C606.644 228.913 613.562 237.855 615.233 246.956C616.905 256.056 612.061 263.218 602.453 262.968C592.845 262.718 589.419 259.919 587.337 256.676Z" fill="#263238"/>
<path d="M611.182 273.967C611.182 273.967 607.974 276.434 603.843 279.994C602.983 280.735 602.036 281.376 601.032 281.909C598.326 283.347 595.858 284.169 595.19 282.864C595.041 282.578 594.927 282.267 594.842 281.941C594.275 279.756 594.508 276.684 596.274 275.278C598.266 273.692 599.226 272.336 598.867 270.19C598.679 268.974 598.238 267.718 597.724 266.498L599.291 264.665L607.488 256.393C607.283 261.917 606.865 270.969 611.182 273.967Z" fill="#BD7837"/>
<path opacity="0.2" d="M598.934 270.661C601.189 269.323 603.662 267.002 603.365 264.35C603.233 263.233 602.993 262.175 602.725 261.497L598.146 267.559C598.522 268.536 598.659 269.182 598.934 270.661Z" fill="black"/>
<path d="M609.809 247.518C609.037 255.94 608.888 259.512 604.542 263.928C598.005 270.571 587.948 268.336 586.216 259.988C584.658 252.474 586.181 239.964 594.449 236.424C602.595 232.937 610.58 239.096 609.809 247.518Z" fill="#BD7837"/>
<path d="M599.249 250.569C599.202 251.418 598.68 252.115 598.084 252.128C597.488 252.14 597.044 251.463 597.091 250.615C597.138 249.766 597.659 249.069 598.255 249.056C598.851 249.043 599.296 249.721 599.249 250.569Z" fill="#263238"/>
<path d="M590.493 250.416C590.446 251.225 589.934 251.892 589.349 251.904C588.764 251.916 588.327 251.27 588.374 250.46C588.421 249.651 588.933 248.984 589.519 248.972C590.104 248.959 590.54 249.606 590.493 250.416Z" fill="#263238"/>
<path d="M600.44 247.46C600.324 247.483 600.204 247.462 600.108 247.394C598.613 246.327 597.063 246.897 597.045 246.903C596.815 246.988 596.568 246.888 596.498 246.673C596.428 246.458 596.56 246.212 596.793 246.124C596.874 246.093 598.819 245.376 600.675 246.701C600.86 246.833 600.883 247.096 600.727 247.287C600.651 247.379 600.548 247.438 600.44 247.46Z" fill="#263238"/>
<path d="M587.514 246.326C587.421 246.282 587.347 246.206 587.312 246.106C587.241 245.899 587.364 245.67 587.586 245.595C589.82 244.837 591.354 245.921 591.419 245.969C591.601 246.101 591.629 246.35 591.48 246.526C591.333 246.702 591.067 246.738 590.885 246.607C590.825 246.564 589.622 245.74 587.846 246.343C587.731 246.382 587.612 246.373 587.514 246.326Z" fill="#263238"/>
<path d="M602.772 240.03C600.093 242.843 601.424 253.472 608.947 254.86C617.612 252.822 610.769 231.631 602.772 240.03Z" fill="#263238"/>
<path d="M592.713 258.282C593.399 259.337 594.223 261.382 594.223 261.382C594.422 261.341 594.621 261.3 594.817 261.248C597.498 260.621 598.535 259.444 598.871 258.329C599.052 257.719 599.017 257.122 598.925 256.649C598.826 256.102 598.63 255.734 598.63 255.734C597.407 256.916 594.952 257.693 593.624 258.054C593.07 258.21 592.713 258.282 592.713 258.282Z" fill="#263238"/>
<path d="M593.624 258.054L594.093 258.956C596.617 258.359 598.314 257.6 598.925 256.649C598.826 256.102 598.63 255.734 598.63 255.734C597.407 256.916 594.952 257.693 593.624 258.054Z" fill="white"/>
<path d="M594.817 261.248C597.498 260.621 598.535 259.444 598.871 258.329C597.965 258.578 596.901 258.979 596.032 259.616C595.365 260.1 595.012 260.69 594.817 261.248Z" fill="#DC5753"/>
<path d="M592.854 249.824C592.854 249.824 591.267 253.62 589.612 255.478C590.689 256.519 592.612 255.972 592.612 255.972L592.854 249.824Z" fill="#A3632D"/>
<path d="M596.575 248.656L598.508 249.112C597.632 250.097 596.575 248.656 596.575 248.656Z" fill="#263238"/>
<path d="M587.936 248.571L589.869 249.028C588.993 250.013 587.936 248.571 587.936 248.571Z" fill="#263238"/>
<path d="M594.507 234.619C591.182 235.747 587.649 241.503 587.06 243.717C591.79 244.492 604.539 240.061 604.539 240.061C604.539 240.061 613.046 242.411 608.737 238.097C604.427 233.784 594.507 234.619 594.507 234.619Z" fill="#263238"/>
<path d="M612.357 254.382C611.362 256.109 609.746 257.194 608.263 257.566C606.034 258.125 604.883 254.541 605.644 252.307C606.329 250.297 608.519 248.966 610.689 249.404C612.826 249.836 613.494 252.407 612.357 254.382Z" fill="#BD7837"/>
<path d="M573.956 269.294L573.679 268.878C576.74 266.835 579.4 259.34 580.536 256.139C581.781 252.629 582.264 248.862 582.729 245.22L583.226 245.283C582.756 248.952 582.271 252.746 581.007 256.307C579.757 259.829 577.156 267.158 573.956 269.294Z" fill="#263238"/>
<path opacity="0.2" d="M612.734 289.821L611.367 308.314L590.375 320.805L609.527 317.661L615.363 314.139L618.382 303.741L612.734 289.821Z" fill="black"/>
<path d="M577.109 337.866C577.241 336.525 579.367 331.609 580.666 329.648C581.965 327.686 587.086 322.82 587.086 322.82L593.339 326.317C593.339 326.317 593.558 329.172 591.787 330.69C590.766 331.566 589.671 332.341 589.671 332.341C589.671 332.341 589.957 333.407 589.964 334.601C589.971 335.923 589.702 337.554 588.614 337.503C587.527 337.452 587.126 333.95 587.073 333.444C587.124 333.957 587.426 337.542 585.97 337.668C584.565 337.789 584.334 334.048 584.334 334.048C584.334 334.048 584.26 335.791 584.216 336.681C584.172 337.572 583.278 338.347 582.453 337.356C581.496 336.208 581.411 334.226 581.411 334.226C581.411 334.226 580.654 335.386 579.521 337.913C578.705 339.732 576.998 338.999 577.109 337.866Z" fill="#BD7837"/>
<path opacity="0.1" d="M586.869 334.126L587.119 334.114L586.869 334.113C586.837 333.441 586.803 332.747 586.898 332.061C587.009 331.258 587.281 330.594 587.707 330.087C587.796 329.982 587.955 329.969 588.059 330.056C588.165 330.145 588.178 330.304 588.09 330.409C587.725 330.842 587.491 331.421 587.394 332.13C587.304 332.769 587.337 333.44 587.368 334.09L586.869 334.126Z" fill="black"/>
<path opacity="0.1" d="M584.273 334.838C584.141 334.838 584.03 334.734 584.023 334.6C583.99 333.926 583.956 333.227 584.052 332.535C584.164 331.732 584.436 331.068 584.86 330.561C584.948 330.455 585.107 330.442 585.212 330.53C585.318 330.619 585.332 330.776 585.243 330.882C584.88 331.316 584.646 331.895 584.548 332.603C584.458 333.25 584.491 333.924 584.523 334.575C584.53 334.714 584.424 334.831 584.286 334.838H584.273Z" fill="black"/>
<path opacity="0.1" d="M581.438 334.59C581.306 334.59 581.195 334.486 581.188 334.352C581.155 333.678 581.121 332.979 581.217 332.287C581.329 331.484 581.601 330.82 582.025 330.313C582.113 330.207 582.272 330.194 582.377 330.282C582.483 330.371 582.497 330.528 582.408 330.634C582.045 331.068 581.811 331.647 581.713 332.355C581.623 333.002 581.656 333.676 581.688 334.327C581.695 334.466 581.589 334.583 581.451 334.59H581.438Z" fill="black"/>
<path d="M613.332 288.074C613.332 288.654 615.195 309.317 615.195 309.317C614.034 311.493 590.143 319.785 587.085 322.82L592.658 328.554C592.658 328.554 621.083 322.82 625.672 319.484C629.588 316.637 629.258 311.643 629.258 304.824C629.258 298.005 627.767 288.074 627.767 288.074H613.332Z" fill="#BD7837"/>
<path d="M615.741 275.325C609.873 277.776 614.353 309.197 614.353 309.197L591.436 319.825L595.788 328.554C595.788 328.554 619.24 323.67 626.349 322.22C633.864 320.688 630.119 304.27 629.265 289.821C628.407 275.303 622.607 272.457 615.741 275.325Z" fill="#FF5600"/>
<path opacity="0.6" d="M615.741 275.325C609.873 277.776 614.353 309.197 614.353 309.197L591.436 319.825L595.788 328.554C595.788 328.554 619.24 323.67 626.349 322.22C633.864 320.688 630.119 304.27 629.265 289.821C628.407 275.303 622.607 272.457 615.741 275.325Z" fill="white"/>
<path d="M531.376 336.681H561.968C562.496 336.678 562.92 336.332 562.916 335.908C562.915 335.828 562.899 335.749 562.868 335.674L549.259 304.474C548.915 303.582 547.891 302.974 546.728 302.969H516.118C515.6 302.969 515.18 303.306 515.181 303.722C515.181 303.809 515.2 303.895 515.237 303.977L528.845 335.177C529.194 336.065 530.216 336.673 531.376 336.681Z" fill="#263238"/>
<path opacity="0.7" d="M516.118 302.969H546.728C547.891 302.973 548.915 303.582 549.259 304.474L562.868 335.673C562.899 335.749 562.915 335.828 562.916 335.908C562.92 336.331 562.496 336.678 561.968 336.681H531.376C530.216 336.672 529.194 336.065 528.845 335.177L515.236 303.977C515.2 303.895 515.181 303.809 515.181 303.722C515.18 303.306 515.6 302.969 516.118 302.969Z" fill="white"/>
<path d="M535.076 320.52C535.737 322.017 537.077 323.046 538.076 322.836C539.075 322.627 539.342 321.263 538.7 319.761C538.058 318.26 536.703 317.255 535.704 317.465C534.705 317.674 534.407 318.983 535.076 320.52Z" fill="white"/>
<path opacity="0.3" d="M546.546 302.969H546.728C547.891 302.973 548.915 303.582 549.259 304.474L562.868 335.673C562.899 335.749 562.915 335.828 562.916 335.908C562.921 336.331 562.496 336.678 561.968 336.681H560.989L546.546 302.969Z" fill="black"/>
<path d="M591.916 336.681H560.068V334.534H589.768C590.954 334.534 591.916 335.495 591.916 336.681Z" fill="#263238"/>
<path opacity="0.7" d="M591.916 336.681H560.068V334.534H589.768C590.954 334.534 591.916 335.495 591.916 336.681Z" fill="white"/>
<path d="M531.362 455.851H487.145V342.104H488.901V454.047H529.606V342.104H531.362V455.851Z" fill="#263238"/>
<path d="M694.817 336.681H471.138V342.105H694.817V336.681Z" fill="#FF5600"/>
<path opacity="0.2" d="M694.817 336.681H471.138V342.105H694.817V336.681Z" fill="black"/>
<path opacity="0.2" d="M694.817 336.681H628.093V342.105H694.817V336.681Z" fill="black"/>
<path d="M691.571 457.039H647.354V342.104H649.11V455.216H689.815V342.104H691.571V457.039Z" fill="#263238"/>
<path d="M226.064 220.084C226.064 220.084 236.051 245.08 237.636 245.231C239.221 245.383 259.481 237.487 259.481 237.487L262.632 241.047C262.632 241.047 252.021 255.237 235.224 259.741C232.206 260.551 228.396 257.133 224.764 252.46C224.052 251.552 223.357 250.59 222.663 249.602C218.926 244.062 215.574 238.271 212.631 232.27L226.064 220.084Z" fill="#FF5600"/>
<path d="M234.271 248.008C233.325 247.74 232.775 246.756 233.043 245.81L239.817 217.324C240.22 215.974 241.436 215.029 242.844 214.974L264.555 214.52C264.791 214.491 265.031 214.509 265.259 214.574C266.205 214.842 266.755 215.826 266.487 216.772L259.713 245.258C259.311 246.61 258.095 247.557 256.686 247.617L234.975 248.062C234.739 248.091 234.499 248.073 234.271 248.008Z" fill="#263238"/>
<path opacity="0.2" d="M234.271 248.008C233.325 247.74 232.775 246.756 233.043 245.81L239.817 217.324C240.22 215.974 241.436 215.029 242.844 214.974L264.555 214.52C264.791 214.491 265.031 214.509 265.259 214.574C266.205 214.842 266.755 215.826 266.487 216.772L259.713 245.258C259.311 246.61 258.095 247.557 256.686 247.617L234.975 248.062C234.739 248.091 234.499 248.073 234.271 248.008Z" fill="white"/>
<path d="M236.497 247.963C235.551 247.695 235.001 246.711 235.268 245.765L242.043 217.279C242.445 215.932 243.655 214.986 245.06 214.92L266.781 214.475C267.017 214.446 267.256 214.465 267.485 214.529C268.431 214.797 268.98 215.781 268.712 216.728L261.929 245.213C261.526 246.561 260.316 247.507 258.911 247.572L237.191 248.017C236.958 248.045 236.723 248.026 236.497 247.963Z" fill="#263238"/>
<path opacity="0.3" d="M236.497 247.963C235.551 247.695 235.001 246.711 235.268 245.765L242.043 217.279C242.445 215.932 243.655 214.986 245.06 214.92L266.781 214.475C267.017 214.446 267.256 214.465 267.485 214.529C268.431 214.797 268.98 215.781 268.712 216.728L261.929 245.213C261.526 246.561 260.316 247.507 258.911 247.572L237.191 248.017C236.958 248.045 236.723 248.026 236.497 247.963Z" fill="white"/>
<path opacity="0.2" d="M256.098 231.173C255.98 229.925 254.872 229.009 253.624 229.128C251.856 229.224 250.348 230.439 249.876 232.145C249.792 232.428 249.764 232.724 249.794 233.016C249.919 234.254 251.024 235.155 252.262 235.03C254.029 234.935 255.54 233.725 256.018 232.021C256.098 231.746 256.125 231.458 256.098 231.173Z" fill="white"/>
<path d="M263.434 232.528C263.006 232.493 261.19 233.392 260.336 232.795C259.481 232.199 260.282 231.709 260.282 231.709C261.849 231.326 263.567 229.368 264.52 229.929C265.472 230.49 267.048 231.193 266.816 232.083C266.555 232.907 266.24 233.713 265.873 234.496C266.121 234.892 266.154 235.387 265.962 235.813C265.766 236.305 265.333 236.664 264.813 236.766C265.112 237.067 265.267 237.482 265.241 237.905C265.17 238.582 263.389 239.472 263.389 239.472C263.389 239.472 263.736 240.531 263.327 240.94C262.632 241.512 261.708 241.723 260.834 241.51C259.793 241.261 259.081 240.905 259.152 239.854C259.223 238.804 261.101 238.804 261.101 238.804C261.101 238.804 257.576 237.736 258.324 237.068C259.072 236.401 261.885 236.481 261.885 236.481C261.885 236.481 257.113 235.537 257.87 234.558C258.627 233.579 263.38 233.846 263.38 233.846C263.38 233.846 263.861 232.564 263.434 232.528Z" fill="#AC664F"/>
<path d="M191.217 447.536L198.778 447.197L201.582 427.529L190.062 427.921L191.217 447.536Z" fill="#AC664F"/>
<path d="M199.699 443.747H197.01C196.402 443.747 195.839 444.055 195.479 444.546C193.929 446.664 192.763 445.864 191.076 443.872C190.004 443.747 189.715 444.978 189.628 445.309L187.617 452.622C187.443 453.232 187.796 453.869 188.407 454.044C188.515 454.075 188.628 454.089 188.741 454.088H210.048C213.436 454.088 214.139 450.673 212.743 450.357C206.466 448.97 202.021 447.122 200.081 445.296C199.721 444.977 200.091 444.738 199.699 443.747Z" fill="#263238"/>
<path d="M204.963 446.192C205.246 445.989 205.415 445.663 205.419 445.314C205.443 445.128 205.358 444.943 205.2 444.84C204.357 444.243 200.995 445.815 200.617 445.999C200.575 446.014 200.542 446.047 200.527 446.089C200.499 446.167 200.539 446.252 200.617 446.28C201.443 446.476 202.288 446.585 203.136 446.605C203.774 446.666 204.413 446.521 204.963 446.192ZM204.989 445.095C205.057 445.137 205.092 445.218 205.077 445.297C205.063 445.549 204.941 445.782 204.743 445.938C203.979 446.509 202.136 446.263 201.144 446.078C202.54 445.464 204.524 444.77 204.989 445.095Z" fill="#FF5600"/>
<path d="M200.731 446.315C201.741 445.894 203.857 444.235 203.743 443.357C203.725 443.172 203.593 442.953 203.137 442.891C201.293 442.681 200.503 445.99 200.503 446.131C200.485 446.188 200.502 446.25 200.547 446.289C200.581 446.299 200.618 446.299 200.652 446.289L200.731 446.315ZM203.075 443.164C203.418 443.199 203.418 443.322 203.418 443.365C203.514 443.901 201.978 445.279 200.881 445.859C201.109 445.086 201.785 443.155 202.953 443.155L203.075 443.164Z" fill="#FF5600"/>
<path d="M198.71 447.909C198.665 447.909 198.619 447.897 198.577 447.871C198.46 447.797 198.425 447.643 198.499 447.527C199.038 446.67 199.959 446.077 200.96 445.941C201.093 445.928 201.223 446.018 201.242 446.155C201.26 446.292 201.165 446.418 201.028 446.437C200.17 446.553 199.383 447.06 198.922 447.792C198.875 447.868 198.793 447.909 198.71 447.909Z" fill="#FF5600"/>
<path d="M200.381 449.168C200.335 449.168 200.29 449.155 200.248 449.13C200.131 449.056 200.096 448.901 200.17 448.785C200.709 447.929 201.629 447.336 202.632 447.198C202.763 447.183 202.894 447.275 202.913 447.412C202.932 447.549 202.836 447.675 202.699 447.694C201.841 447.812 201.054 448.319 200.593 449.051C200.545 449.127 200.464 449.168 200.381 449.168Z" fill="#FF5600"/>
<path d="M202.461 450.226C202.415 450.226 202.369 450.213 202.328 450.188C202.211 450.113 202.176 449.959 202.25 449.843C202.788 448.986 203.709 448.394 204.71 448.256C204.846 448.244 204.973 448.333 204.992 448.47C205.011 448.607 204.916 448.732 204.779 448.752C203.921 448.869 203.134 449.377 202.672 450.108C202.625 450.185 202.544 450.226 202.461 450.226Z" fill="#FF5600"/>
<path opacity="0.3" d="M200.053 438.251L199.693 440.781L190.81 440.625L190.67 438.251H200.053Z" fill="black"/>
<path d="M222.722 445.591L230.929 444.552L232.737 426.011L221.479 425.697L222.722 445.591Z" fill="#AC664F"/>
<path d="M231.346 443.002H228.656C228.048 443.002 227.485 443.31 227.125 443.801C225.575 445.919 224.409 445.119 222.722 443.127C221.65 443.002 221.361 444.233 221.274 444.564L219.263 451.877C219.089 452.487 219.442 453.124 220.053 453.299C220.162 453.33 220.274 453.345 220.387 453.343H241.694C245.082 453.343 245.785 449.928 244.389 449.612C238.112 448.225 233.667 446.378 231.727 444.552C231.367 444.232 231.737 443.993 231.346 443.002Z" fill="#263238"/>
<path d="M237.181 445.082C237.464 444.878 237.634 444.553 237.638 444.204C237.662 444.017 237.576 443.833 237.418 443.73C236.575 443.133 233.213 444.704 232.836 444.889C232.794 444.904 232.761 444.937 232.746 444.979C232.718 445.057 232.758 445.142 232.836 445.17C233.662 445.365 234.506 445.474 235.355 445.495C235.992 445.555 236.632 445.411 237.181 445.082ZM237.208 443.985C237.276 444.027 237.311 444.107 237.295 444.186C237.281 444.438 237.16 444.672 236.962 444.827C236.198 445.398 234.354 445.152 233.362 444.968C234.758 444.353 236.742 443.66 237.208 443.985Z" fill="#FF5600"/>
<path d="M232.95 445.205C233.959 444.783 236.075 443.124 235.961 442.246C235.943 442.062 235.812 441.843 235.355 441.781C233.512 441.57 232.722 444.88 232.722 445.021C232.703 445.077 232.721 445.139 232.765 445.179C232.8 445.189 232.836 445.189 232.871 445.179L232.95 445.205ZM235.294 442.053C235.636 442.088 235.636 442.211 235.636 442.255C235.733 442.791 234.196 444.169 233.099 444.748C233.327 443.976 234.003 442.044 235.171 442.044L235.294 442.053Z" fill="#FF5600"/>
<path d="M230.929 446.799C230.883 446.799 230.837 446.786 230.795 446.761C230.679 446.686 230.644 446.532 230.717 446.416C231.256 445.559 232.177 444.967 233.179 444.83C233.314 444.818 233.441 444.907 233.46 445.045C233.479 445.181 233.383 445.307 233.246 445.326C232.389 445.442 231.602 445.949 231.14 446.681C231.093 446.758 231.012 446.799 230.929 446.799Z" fill="#FF5600"/>
<path d="M232.6 448.056C232.554 448.056 232.508 448.044 232.467 448.018C232.35 447.944 232.315 447.79 232.389 447.674C232.928 446.817 233.848 446.224 234.85 446.088C234.983 446.073 235.113 446.165 235.131 446.303C235.15 446.439 235.054 446.565 234.917 446.584C234.06 446.7 233.273 447.207 232.812 447.939C232.764 448.015 232.683 448.056 232.6 448.056Z" fill="#FF5600"/>
<path d="M234.68 449.115C234.634 449.115 234.588 449.103 234.546 449.077C234.43 449.003 234.395 448.849 234.468 448.732C235.007 447.876 235.927 447.283 236.929 447.145C237.06 447.133 237.192 447.223 237.211 447.359C237.23 447.496 237.134 447.622 236.998 447.642C236.14 447.759 235.353 448.267 234.891 448.998C234.844 449.074 234.763 449.115 234.68 449.115Z" fill="#FF5600"/>
<path opacity="0.3" d="M231.652 437.141L231.404 439.678L222.349 439.62L222.194 437.141H231.652Z" fill="black"/>
<path d="M205.318 273.958L226.398 274.054C226.398 274.054 233.763 315.553 233.331 362.082C234.191 389.397 233.501 439.625 233.501 439.625H219.792C219.792 439.625 211.058 398.831 214.555 366.511C213.283 360.938 211.583 351.287 210.584 346.362C207.785 333.085 205.68 319.636 204.277 306.085C201.87 280.686 205.318 273.958 205.318 273.958Z" fill="#263238"/>
<path opacity="0.2" d="M207.185 290.255C207.185 290.255 214.785 328.46 210.584 346.362C207.785 333.085 205.68 319.637 204.277 306.085L207.185 290.255Z" fill="black"/>
<path d="M187.598 263.09C185.758 272.309 178.548 283.57 177.09 295.363C174.598 315.505 185.417 340.558 188.249 364.19C183.974 399.141 190.528 441.524 189.66 440.608L203.423 440.622C203.841 437.497 206.663 390.14 208.064 362.082C209.251 337.525 211.149 275.763 211.149 275.763L187.598 263.09Z" fill="#263238"/>
<path opacity="0.2" d="M226.064 223.395C226.847 226.856 228.68 232.051 230.127 235.737C230.596 236.93 230.801 238.223 230.584 239.486C229.959 243.125 226.816 244.289 225.77 247.19C225.185 248.889 224.846 250.664 224.764 252.46C224.052 251.552 223.357 250.59 222.663 249.602L221.114 243.478L226.064 223.395Z" fill="black"/>
<path d="M224.8 244.902C232.98 239.178 226.58 234.006 227.301 225.523C227.797 219.044 223.274 213.255 216.868 212.17C215.39 211.921 213.859 211.671 212.355 211.476L211.465 211.36C207.449 210.903 203.408 210.713 199.367 210.79C197.889 210.79 196.358 210.79 194.756 210.835C193.154 210.879 191.605 210.933 190.127 211.039C185.002 211.398 181.138 215.843 181.496 220.968C181.519 221.296 181.56 221.621 181.617 221.944L187.084 258.108L180.008 278.954C201.184 288.537 229.448 282.239 228.364 278.429C225.314 267.713 223.74 252.175 224.8 244.902Z" fill="#FF5600"/>
<path d="M224.597 175.804L197.205 170.954C195.038 171.524 193.325 173.483 192.334 175.718C191.342 177.952 190.97 180.459 190.647 182.928C189.781 189.56 189.219 196.509 191.248 202.813C204.89 205.315 218.9 205.277 232.53 202.703C226.562 196.64 228.088 183.685 224.597 175.804Z" fill="#263238"/>
<path d="M197.416 210.67C197.416 210.67 200.767 213.402 205.07 217.329C205.967 218.148 206.959 218.861 208.015 219.461C210.862 221.079 213.472 222.033 214.225 220.659C214.393 220.357 214.524 220.029 214.625 219.683C215.297 217.366 215.142 214.078 213.298 212.523C211.219 210.769 210.235 209.291 210.684 207.01C210.922 205.717 211.43 204.389 212.017 203.102L209.603 201.557L201.1 192.472C201.947 197.918 202.118 207.599 197.416 210.67Z" fill="#AC664F"/>
<path opacity="0.2" d="M210.598 207.512C208.231 206.014 205.66 203.459 206.057 200.636C206.232 199.447 206.521 198.324 206.828 197.608L211.534 204.222C211.103 205.254 210.937 205.94 210.598 207.512Z" fill="black"/>
<path d="M199.687 182.463C200.255 191.481 200.305 195.301 204.813 200.149C211.593 207.443 222.403 205.363 224.506 196.499C226.399 188.521 225.153 175.113 216.43 171.081C207.835 167.109 199.12 173.444 199.687 182.463Z" fill="#AC664F"/>
<path d="M211.727 185.757C211.744 186.71 212.237 187.506 212.828 187.535C213.419 187.564 213.885 186.815 213.867 185.862C213.85 184.909 213.357 184.113 212.766 184.084C212.175 184.055 211.71 184.804 211.727 185.757Z" fill="#263238"/>
<path d="M220.866 185.97C220.884 186.893 221.377 187.665 221.966 187.695C222.556 187.724 223.019 186.999 223 186.075C222.982 185.152 222.489 184.379 221.899 184.35C221.31 184.321 220.847 185.046 220.866 185.97Z" fill="#263238"/>
<path d="M209.472 182.354C209.586 182.37 209.704 182.34 209.795 182.261C211.217 181.017 212.765 181.512 212.783 181.518C213.012 181.592 213.25 181.468 213.309 181.233C213.369 180.999 213.229 180.747 212.997 180.67C212.916 180.643 210.974 180.02 209.209 181.564C209.033 181.718 209.021 181.999 209.183 182.191C209.261 182.284 209.365 182.339 209.472 182.354Z" fill="#263238"/>
<path d="M223.239 181.519C223.33 181.492 223.407 181.426 223.45 181.329C223.538 181.127 223.445 180.866 223.243 180.745C221.22 179.53 219.671 180.366 219.606 180.403C219.422 180.505 219.371 180.759 219.492 180.971C219.613 181.182 219.86 181.27 220.044 181.169C220.104 181.135 221.316 180.508 222.925 181.474C223.029 181.536 223.142 181.549 223.239 181.519Z" fill="#263238"/>
<path d="M217.726 185.441C217.726 185.441 219.037 188.849 220.565 190.993C220.832 191.367 220.645 191.898 220.209 192.045C219.087 192.422 217.797 192.015 217.797 192.015L217.726 185.441Z" fill="#A24E3F"/>
<path d="M212.426 184.114L214.505 183.685C214.505 183.685 213.332 185.192 212.426 184.114Z" fill="#263238"/>
<path d="M221.588 184.375L223.666 183.946C223.666 183.946 222.493 185.453 221.588 184.375Z" fill="#263238"/>
<path d="M201.189 194.603C175.527 170.802 210.573 164.904 210.573 164.904C225.488 158.289 223.209 172.346 223.209 172.346C228.437 180.49 217.961 184.67 217.961 184.67C222.983 179.8 217.579 175.246 217.579 175.246C217.043 182.922 209.156 184.431 209.156 184.431C213.341 178.229 212.2 174.377 212.2 174.377C207.744 186.016 201.248 187.252 201.248 187.252L201.189 194.603Z" fill="#263238"/>
<path d="M196.757 189.716C197.767 191.591 199.46 192.799 201.032 193.241C203.396 193.906 204.735 190.113 203.99 187.704C203.319 185.536 201.02 184.048 198.69 184.45C196.394 184.846 195.602 187.572 196.757 189.716Z" fill="#AC664F"/>
<path opacity="0.2" d="M201.802 189.63C201.669 189.63 201.558 189.524 201.552 189.39C201.522 188.598 201.172 187.833 200.59 187.293C200.01 186.753 199.215 186.455 198.429 186.488C198.285 186.481 198.175 186.385 198.171 186.247C198.166 186.109 198.274 185.993 198.412 185.988C199.335 185.959 200.255 186.298 200.931 186.927C201.608 187.557 202.017 188.447 202.052 189.371C202.057 189.509 201.95 189.625 201.812 189.63H201.802Z" fill="black"/>
<path d="M214.943 194.901C212.648 194.901 211.905 192.77 211.897 192.746C211.853 192.615 211.924 192.474 212.054 192.43C212.187 192.384 212.327 192.456 212.371 192.586C212.402 192.676 213.147 194.771 215.579 194.343C215.709 194.315 215.844 194.41 215.868 194.546C215.892 194.682 215.802 194.812 215.665 194.835C215.409 194.881 215.168 194.901 214.943 194.901Z" fill="#263238"/>
<path opacity="0.2" d="M185.001 264.244L183.523 268.598C183.523 268.598 204.46 264.959 214.926 255.6C222.378 248.936 221.212 246.13 221.212 246.13L212.771 246.945L185.001 264.244Z" fill="black"/>
<path opacity="0.2" d="M193.083 233.059L191.948 251.936C188.796 253.941 186.709 251.161 186.229 248.289V242.854L193.083 233.059Z" fill="black"/>
<path d="M194.213 230.199C194.213 230.199 186.306 249.783 187.732 250.687C189.158 251.59 211.918 245.363 211.918 245.363L215.506 250.509C214.735 253.893 175.463 275.208 172.257 257.379C170.308 246.546 182.232 216.658 182.232 216.658C191.913 212.867 194.213 230.199 194.213 230.199Z" fill="#FF5600"/>
<path d="M215.847 251.01C218.538 251.223 218.632 247.17 220.032 247.011C220.846 246.933 221.644 246.729 222.396 246.408C222.396 246.408 221.511 248.844 222.396 248.649C223.282 248.454 226.125 248.313 226.825 245.992C227.525 243.672 224.992 238.711 224.416 238.021C223.84 237.33 220.811 237.542 220.811 237.542C220.811 237.542 224.07 236.701 225.86 236.453C227.649 236.205 227.989 234.16 225.492 234.612C224.467 234.798 216.374 234.859 215.497 235.691C214.62 236.524 211.369 244.706 211.369 244.706C210.164 245.396 213.225 252.259 215.847 251.01Z" fill="#AC664F"/>
<g opacity="0.3">
<path d="M220.78 237.286C219.95 237.228 219.116 237.281 218.3 237.445C218.177 237.478 218.105 237.605 218.138 237.728C218.167 237.835 218.269 237.906 218.38 237.897C219.152 237.742 219.941 237.688 220.727 237.737C221.019 237.737 221.072 237.303 220.78 237.286Z" fill="black"/>
<path d="M224.952 239.739C225.209 239.872 225.475 239.5 225.218 239.367C223.703 238.561 222.109 239.013 220.576 239.526C220.302 239.615 220.497 240.031 220.771 239.943C222.118 239.491 223.606 239.057 224.952 239.739Z" fill="black"/>
<path d="M226.139 241.741C224.832 240.961 223.221 240.891 221.852 241.555C221.744 241.623 221.712 241.765 221.78 241.872C221.834 241.959 221.939 241.999 222.038 241.971C223.263 241.374 224.704 241.427 225.882 242.113C226.13 242.263 226.396 241.891 226.139 241.741Z" fill="black"/>
<path d="M223.963 245.138C224.08 244.9 224.175 244.651 224.238 244.389C224.301 244.106 223.875 243.946 223.805 244.23C223.616 245.101 223.074 245.855 222.308 246.311C222.051 246.453 222.246 246.869 222.494 246.727H222.467C222.948 246.456 223.348 246.078 223.66 245.635C223.691 245.637 223.718 245.651 223.751 245.638C224.228 245.471 224.758 245.611 225.089 245.992C225.284 246.214 225.629 245.921 225.434 245.7C225.062 245.272 224.51 245.077 223.963 245.138Z" fill="black"/>
</g>
</svg>
