<svg xmlns="http://www.w3.org/2000/svg" viewBox="0 0 750 500"><g id="freepik--background-complete--inject-30"><path d="M437.86,453.19l-4-7.4a5.56,5.56,0,0,0-5.11-2.94,36.11,36.11,0,0,1-3.89-.12,5.61,5.61,0,0,0-5.3,2.6l-4.44,7.15-22.76-14.12,4.45-7.19a5.63,5.63,0,0,0,0-5.88c-.33-.54-.65-1.1-1-1.67s-.59-1.14-.86-1.72a5.64,5.64,0,0,0-4.9-3.3l-8.42-.26.83-26.77,8.39.26a5.61,5.61,0,0,0,5.11-3,35.33,35.33,0,0,1,2.06-3.32,5.62,5.62,0,0,0,.38-5.89l-4-7.39,23.61-12.67,4,7.4a5.6,5.6,0,0,0,5,2.94h.13c1.3,0,2.61,0,3.91.13a5.64,5.64,0,0,0,5.3-2.61l4.42-7.14,22.76,14.12-4.43,7.14a5.66,5.66,0,0,0,.05,5.92c.33.54.65,1.1.95,1.67s.6,1.15.88,1.73a5.61,5.61,0,0,0,4.88,3.3l8.41.26-.83,26.78L465,421a5.62,5.62,0,0,0-5.11,3,36.57,36.57,0,0,1-2.05,3.32,5.63,5.63,0,0,0-.37,5.88l4,7.39Zm-8.95-11.34a6.6,6.6,0,0,1,5.86,3.47l3.5,6.52,21.85-11.72-3.5-6.52a6.63,6.63,0,0,1,.44-6.92,36.93,36.93,0,0,0,2-3.23,6.57,6.57,0,0,1,6-3.49l7.41.22.77-24.77-7.42-.23a6.63,6.63,0,0,1-5.75-3.87c-.26-.57-.55-1.13-.85-1.69s-.6-1.09-.92-1.63a6.62,6.62,0,0,1-.05-6.95l3.91-6.29L441.1,361.68,437.21,368A6.59,6.59,0,0,1,431,371c-1.26-.1-2.53-.14-3.8-.12a6.59,6.59,0,0,1-6-3.46l-3.5-6.51-21.85,11.72,3.49,6.51a6.6,6.6,0,0,1-.44,6.93,34.67,34.67,0,0,0-2,3.23,6.63,6.63,0,0,1-6,3.49l-7.39-.23-.77,24.77,7.42.23a6.6,6.6,0,0,1,5.77,3.88c.27.56.55,1.12.84,1.67s.61,1.09.93,1.63a6.61,6.61,0,0,1,.05,6.92L393.76,438l21.07,13.06,3.91-6.3a6.62,6.62,0,0,1,6.24-3.07,34.1,34.1,0,0,0,3.78.12ZM428,428a21.62,21.62,0,1,1,19-31.83h0A21.62,21.62,0,0,1,428,428Zm-.06-42.25a20.63,20.63,0,1,0,18.21,10.89h0a20.67,20.67,0,0,0-18.21-10.89Z" style="fill:#ebebeb"></path><path d="M124.91,134.92l-4-7.4a5.57,5.57,0,0,0-5.1-2.94,33.81,33.81,0,0,1-3.9-.13,5.6,5.6,0,0,0-5.3,2.61l-4.44,7.15L79.44,120.09l4.45-7.19a5.63,5.63,0,0,0,0-5.88c-.33-.55-.65-1.1-1-1.67s-.6-1.14-.87-1.72a5.64,5.64,0,0,0-4.9-3.31l-8.42-.25.84-26.78,8.39.27a5.63,5.63,0,0,0,5.1-3c.63-1.14,1.32-2.26,2.06-3.33a5.61,5.61,0,0,0,.39-5.88l-4-7.4,23.61-12.66,4,7.4a5.6,5.6,0,0,0,5.11,2.93,36.4,36.4,0,0,1,3.91.13,5.63,5.63,0,0,0,5.3-2.61L127.83,42,150.6,56.15l-4.43,7.14a5.64,5.64,0,0,0,0,5.91c.34.55.65,1.11,1,1.68s.6,1.15.87,1.73a5.63,5.63,0,0,0,4.88,3.3l8.41.26-.83,26.77-8.41-.26a5.62,5.62,0,0,0-5.1,3,35.08,35.08,0,0,1-2.05,3.31,5.61,5.61,0,0,0-.38,5.88l4,7.4Zm-9-11.34a6.63,6.63,0,0,1,5.87,3.46l3.49,6.52,21.85-11.72-3.49-6.51a6.6,6.6,0,0,1,.44-6.93,33.16,33.16,0,0,0,2-3.22,6.63,6.63,0,0,1,6-3.5l7.41.23.77-24.77-7.41-.23A6.61,6.61,0,0,1,147.14,73c-.27-.56-.55-1.12-.85-1.68s-.61-1.1-.93-1.63a6.63,6.63,0,0,1,0-7l3.9-6.29L128.16,43.41l-3.9,6.28A6.61,6.61,0,0,1,118,52.77a37.11,37.11,0,0,0-3.8-.12,6.62,6.62,0,0,1-6-3.46l-3.49-6.52L82.86,54.39l3.5,6.52a6.61,6.61,0,0,1-.45,6.92,37.09,37.09,0,0,0-2,3.24,6.64,6.64,0,0,1-6,3.49l-7.4-.24L69.73,99.1l7.42.22a6.65,6.65,0,0,1,5.78,3.88c.26.57.54,1.12.84,1.68s.6,1.09.93,1.62a6.62,6.62,0,0,1,0,6.93l-3.92,6.33,21.06,13.07,3.91-6.3a6.63,6.63,0,0,1,6.24-3.07,34.2,34.2,0,0,0,3.79.12ZM115,109.74a21.8,21.8,0,0,1-6.27-.93,21.51,21.51,0,1,1,6.27.93ZM115,67.49a20.63,20.63,0,1,0,18.21,10.88A20.64,20.64,0,0,0,115,67.49Z" style="fill:#ebebeb"></path><path d="M85.13,143.89l-4.84-8.38L77.73,137a2.32,2.32,0,0,1-2.41-.08,13.27,13.27,0,0,0-1.26-.73,2.29,2.29,0,0,1-1.27-2v-3H63.11v3a2.29,2.29,0,0,1-1.27,2,12,12,0,0,0-1.25.73,2.34,2.34,0,0,1-2.42.08l-2.56-1.48-4.84,8.38,2.58,1.48a2.29,2.29,0,0,1,1.13,2.13c0,.24,0,.48,0,.72s0,.47,0,.71a2.29,2.29,0,0,1-1.12,2.12l-2.59,1.5,4.84,8.38,2.57-1.49a2.3,2.3,0,0,1,2.41.09c.41.26.82.5,1.25.72a2.31,2.31,0,0,1,1.27,2v3h9.68v-3a2.31,2.31,0,0,1,1.27-2,14,14,0,0,0,1.25-.72,2.3,2.3,0,0,1,2.41-.09l2.57,1.49,4.84-8.38-2.58-1.49a2.3,2.3,0,0,1-1.12-2.13c0-.23,0-.47,0-.71s0-.48,0-.72a2.29,2.29,0,0,1,1.13-2.13Zm-9.25,4.33A7.93,7.93,0,1,1,68,140.29,7.93,7.93,0,0,1,75.88,148.22Z" style="fill:#ebebeb"></path><path d="M360.64,253.16l-4.83-8.38-2.57,1.49a2.3,2.3,0,0,1-2.41-.09,14,14,0,0,0-1.25-.72,2.29,2.29,0,0,1-1.28-2v-3h-9.67v3a2.29,2.29,0,0,1-1.28,2,14,14,0,0,0-1.25.72,2.3,2.3,0,0,1-2.41.09l-2.57-1.49-4.83,8.38,2.58,1.49a2.29,2.29,0,0,1,1.12,2.13c0,.24,0,.48,0,.71s0,.48,0,.72a2.28,2.28,0,0,1-1.12,2.12l-2.58,1.49,4.83,8.38,2.58-1.48a2.3,2.3,0,0,1,2.41.09,14,14,0,0,0,1.25.72,2.29,2.29,0,0,1,1.27,2v3h9.67v-3a2.28,2.28,0,0,1,1.28-2c.42-.22.84-.46,1.24-.72a2.3,2.3,0,0,1,2.41-.09l2.58,1.48,4.83-8.38-2.57-1.48a2.29,2.29,0,0,1-1.12-2.13c0-.24,0-.47,0-.72s0-.47,0-.71a2.29,2.29,0,0,1,1.12-2.13Zm-9.25,4.33a7.93,7.93,0,1,1-7.92-7.93A7.92,7.92,0,0,1,351.39,257.49Z" style="fill:#ebebeb"></path><path d="M699.23,203.54l-4.84-8.38-2.56,1.49a2.32,2.32,0,0,1-2.42-.09,14,14,0,0,0-1.25-.72,2.31,2.31,0,0,1-1.27-2.05v-3h-9.68v3a2.31,2.31,0,0,1-1.27,2.05q-.65.33-1.26.72a2.3,2.3,0,0,1-2.41.09l-2.56-1.49-4.84,8.38,2.58,1.49a2.31,2.31,0,0,1,1.13,2.13c0,.24,0,.48,0,.71s0,.48,0,.72a2.3,2.3,0,0,1-1.12,2.12l-2.59,1.49,4.84,8.38,2.57-1.48a2.3,2.3,0,0,1,2.41.09,14,14,0,0,0,1.25.72,2.29,2.29,0,0,1,1.27,2v3h9.68v-3a2.29,2.29,0,0,1,1.27-2c.43-.22.84-.46,1.25-.72a2.3,2.3,0,0,1,2.41-.09l2.57,1.48,4.84-8.38-2.58-1.48a2.3,2.3,0,0,1-1.12-2.13c0-.24,0-.48,0-.72s0-.47,0-.71a2.29,2.29,0,0,1,1.13-2.13ZM690,207.87a7.93,7.93,0,1,1-7.93-7.93A7.93,7.93,0,0,1,690,207.87Z" style="fill:#ebebeb"></path><path d="M493.65,126.83c-1.38-.86-2.58-2.11-4.43-1.93-.7.07-.55-.51-.56-.9q0-10.4-.08-20.79c0-.5,0-.92.58-1.2,5.28-2.68,7.56-7.94,10.79-12.44a20.76,20.76,0,0,0,3.79-15.74c-.23-1.56.49-2.26,1.9-2.59,1.69-.39,3.38.07,4,1.23a28.08,28.08,0,0,1,3,9.08c.32,2.63-.62,5.19-.94,7.79-.23,1.9-.67,3.79-1,5.72.46.33,1,.15,1.5.16l17.57,0c2.46,0,3.67.69,4,2.33a4.7,4.7,0,0,1-2.53,5.09c-.44.22-1.23,0-1.28.71s.76.62,1.17.9c2.12,1.45,1.74,4.45-.71,6.19-.59.42-1.73.23-1.76,1.09,0,.69,1.06.68,1.55,1.17,1.72,1.68.88,4.84-1.68,6.13a7,7,0,0,0-1,.4c-.29.19-.58.41,0,.81,2.54,1.8,2.49,4.33,0,6.17l-.77.55a4.91,4.91,0,0,1-3.08.69q-13.77.07-27.54.1A3.25,3.25,0,0,1,493.65,126.83Z" style="fill:#ebebeb;fill-rule:evenodd"></path><path d="M467.5,114.7c0-4.41,0-8.81-.06-13.22,0-.89.08-1.33,1.18-1.32q8.06.06,16.11,0c1,0,1.22.35,1.21,1.28q0,13.29.1,26.59c0,1.13-.3,1.45-1.43,1.43-5.21,0-10.42,0-15.63.06-1.29,0-1.47-.43-1.46-1.56C467.57,123.51,467.51,119.1,467.5,114.7Z" style="fill:#ebebeb;fill-rule:evenodd"></path><path d="M242.33,223.28c-1.38-.86-2.58-2.11-4.42-1.93-.71.07-.55-.51-.56-.9q0-10.39-.08-20.79c0-.51,0-.92.57-1.2,5.29-2.69,7.57-8,10.79-12.45a20.67,20.67,0,0,0,3.79-15.74c-.22-1.55.5-2.26,1.91-2.58,1.69-.39,3.37.07,4,1.23a28,28,0,0,1,3,9.07c.31,2.63-.62,5.2-.94,7.8-.24,1.9-.67,3.78-1,5.71.47.34,1,.16,1.51.17l17.56-.06c2.47,0,3.68.7,4,2.34a4.68,4.68,0,0,1-2.53,5.08c-.44.22-1.23,0-1.29.71s.77.63,1.18.91c2.12,1.45,1.74,4.44-.71,6.19-.59.41-1.73.23-1.76,1.09,0,.69,1.06.68,1.55,1.16,1.71,1.69.87,4.85-1.68,6.13a10.49,10.49,0,0,0-1,.4c-.29.2-.57.42,0,.82,2.55,1.8,2.5,4.32-.05,6.17l-.76.55a4.91,4.91,0,0,1-3.08.68q-13.77.07-27.55.1A3.25,3.25,0,0,1,242.33,223.28Z" style="fill:#ebebeb;fill-rule:evenodd"></path><path d="M216.18,211.14c0-4.4,0-8.81-.06-13.21,0-.9.09-1.34,1.18-1.33,5.38.05,10.74,0,16.11,0,1.06,0,1.22.35,1.22,1.29q0,13.29.09,26.58c0,1.13-.29,1.45-1.42,1.44-5.21,0-10.42,0-15.63.06-1.3,0-1.48-.43-1.47-1.56C216.25,220,216.2,215.55,216.18,211.14Z" style="fill:#ebebeb;fill-rule:evenodd"></path><ellipse cx="644.4" cy="92.54" rx="53.48" ry="52.66" transform="translate(345.28 670.76) rotate(-70.82)" style="fill:#ebebeb"></ellipse><ellipse cx="644.4" cy="92.54" rx="41.72" ry="41.08" transform="translate(345.23 670.74) rotate(-70.81)" style="fill:#fff"></ellipse><ellipse cx="644.4" cy="92.54" rx="30.08" ry="29.62" transform="translate(345.31 670.78) rotate(-70.82)" style="fill:#ebebeb"></ellipse><path d="M662.46,92.25a18.39,18.39,0,0,1-17.94,18.57,18,18,0,0,1-18.18-18,18.39,18.39,0,0,1,17.94-18.58A18,18,0,0,1,662.46,92.25Z" style="fill:#fff"></path><path d="M652.44,92.41a8.18,8.18,0,0,1-8,8.27,8,8,0,0,1-8.09-8,8.18,8.18,0,0,1,8-8.26A8,8,0,0,1,652.44,92.41Z" style="fill:#ebebeb"></path><rect x="605.07" y="28.47" width="0.91" height="87.27" transform="translate(261.1 575.32) rotate(-62.4)" style="fill:#c7c7c7"></rect><polygon points="563.38 53.7 563.58 53.62 567.12 52.53 560.14 48.88 556.36 50.03 563.38 53.7" style="fill:#c7c7c7"></polygon><path d="M559.3,44.41l1.26,3.67,7,3.65a17,17,0,0,1-1.24-3.66Z" style="fill:#c7c7c7"></path><polygon points="646.09 91.64 644.63 94.26 640.75 93.93 643.3 91.85 643.56 88.57 646.09 91.64" style="fill:#c7c7c7"></polygon></g><g id="freepik--Floor--inject-30"><path d="M46.54,478.14c210.43-.62,446.49-.62,656.92,0-210.43.61-446.49.61-656.92,0Z" style="fill:#263238"></path></g><g id="freepik--Arrow--inject-30"><polygon points="660.07 209.93 501.11 395.33 422.83 396.63 356.69 445.86 288.86 445.86 241.88 478.14 74.98 478.14 261.42 387.43 337.91 387.32 403.82 343.63 473.95 344.43 632.82 183.06 660.07 209.93" style="fill:#FF5600"></polygon><polygon points="678.21 247.21 701.42 135.12 592.74 171.06 678.21 247.21" style="fill:#FF5600"></polygon></g><g id="freepik--character-4--inject-30"><path d="M534.27,158a4,4,0,0,1,1.3.83c1.69,1.66,1.88,4.18,1.63,6.39-.29,2.37-1.14,4.83-.62,7.21a4,4,0,0,0,1.42,2.42,3.64,3.64,0,0,0,3,.39c1.07-.23,2.29-.73,3.37-.24a3.09,3.09,0,0,1,1.56,2.3c.46,2.4-1.19,4.65-1.68,6.92a12.42,12.42,0,0,0,.64,7.28,12.12,12.12,0,0,0,4.33,5.32,12.33,12.33,0,0,0,3,1.51c1.2.38,2.47.5,3.69.83a4.37,4.37,0,0,1,2.89,2c.43.85.12,4.34-2.78,7.51-.21.23.22.59.51.43a12.78,12.78,0,0,0,1.64-1,16.55,16.55,0,0,0,7.31-13.18,17.31,17.31,0,0,0-1.82-8.12,28.36,28.36,0,0,1-2-4.26,8.66,8.66,0,0,1-.14-4.08c.48-2.6,1.58-5,1.6-7.73a14.53,14.53,0,0,0-1.74-6.86A17.16,17.16,0,0,0,550,155.3C545.22,154.23,534,157.84,534.27,158Z" style="fill:#263238"></path><path d="M534.42,158a6.7,6.7,0,0,1,2.36,1.93,5.58,5.58,0,0,1,.92,2.59,15.68,15.68,0,0,1-1,6c-.52,1.84-1,3.83-.33,5.71a4.61,4.61,0,0,0,1.41,2.09,3.49,3.49,0,0,0,2.62.65c1.71-.18,3.82-.94,5.26.45s.86,3.62.49,5.27c-.88,4-2.64,9.11.45,12.66a15.3,15.3,0,0,0,6.13,3.84c1.59.6,3.6,1.34,4.19,3.1,0,.06-.08.08-.1,0-.66-1.85-2.8-2.25-4.45-2.79a16.3,16.3,0,0,1-5.41-2.91,7.87,7.87,0,0,1-2.68-5.32,18.29,18.29,0,0,1,.68-6.24c.26-1.05.54-2.1.77-3.15a6.76,6.76,0,0,0,.14-2.93,2.28,2.28,0,0,0-2.06-1.78,11.66,11.66,0,0,0-3,.28,4.73,4.73,0,0,1-2.63-.29,4.17,4.17,0,0,1-1.62-1.41,6.7,6.7,0,0,1-1-4.72c.31-2.31,1.37-4.45,1.64-6.77a5.53,5.53,0,0,0-3-6.09A.13.13,0,0,1,534.42,158Z" style="fill:#263238"></path><path d="M551.92,154.26a14,14,0,0,1,10.18,9.64,17.22,17.22,0,0,1,.47,8.1c-.42,2.52-1.2,5-1.07,7.61.15,2.86,1.83,5.12,3.13,7.56a15.36,15.36,0,0,1,1.79,6.36,16.4,16.4,0,0,1-4.11,11.83,15.75,15.75,0,0,1-1.15,1.16s-.13,0-.08-.08a15.77,15.77,0,0,0,4.8-11.56,15.57,15.57,0,0,0-1.26-6.13c-1-2.39-2.78-4.44-3.51-7-.68-2.37-.23-4.86.27-7.22a23.14,23.14,0,0,0,.74-7.76,14.09,14.09,0,0,0-8.37-11.33c-5.18-2.12-10.81-.59-15.76,1.43-.67.27-1.33.54-2,.82-.08,0-.14-.08-.06-.12C540.88,155.3,546.38,153.13,551.92,154.26Z" style="fill:#263238"></path><path d="M532.57,156.38a2.39,2.39,0,0,1,2.36-.29c.44.35,1.38,4.67.73,5.55s-2.44,0-2.44,0Z" style="fill:#FF5600"></path><path d="M521.28,200.86c-5,15.62-18.89,43.83-26.78,38.5-11.8-8-21.34-27.43-25.13-35.3-2.13-4.41,19.39-14.54,21.28-10.53,2.69,5.7,8.27,17.58,10.31,19.13,1.08.81,10.55-12.45,15.79-18.19C524.3,186.19,522.89,195.87,521.28,200.86Z" style="fill:#f7a9a0"></path><path d="M463,194c1.63,4.67,8.69,12.91,11.16,14.25s17-9.77,16.95-12.65S484.23,177,480,174.3,461.29,189.16,463,194Z" style="fill:#f7a9a0"></path><path d="M490.3,192.35a41.12,41.12,0,0,1,2.27-11.71c1.74-4.44,4.82-10.83,2.47-11.86-4.83-2.09-12.5,13.85-12.5,13.85s-2.26,7.58,2.34,10.09A5.2,5.2,0,0,0,490.3,192.35Z" style="fill:#f7a9a0"></path><path d="M485.71,179.74c-.54,2.56-3.26.46-3.26.46s3.18,4,1.6,6.4-4.72-.33-4.95-.52c.17.22,3,3.94,1.14,6.22s-4.65-.86-4.82-1.07c.09.25,1.28,3.57-.51,5-3.08,2.42-6.35-6-9.31-7.12,0,0-2.52,4.78-2.62,4.91s-3.28-7.92-1.5-11.82a2.75,2.75,0,0,1,3-1.59s-1.34-2.43.05-4.27c.72-.94,2.86-.63,2.86-.63a3.43,3.43,0,0,1,.35-3.55c1.07-1.25,3.05-.75,3.05-.75s-.06-2.35,1.44-3.27C475.3,166.26,486.86,174.25,485.71,179.74Z" style="fill:#f7a9a0"></path><path d="M471.16,171.43s0-.09,0-.07a24.39,24.39,0,0,1,11.42,8.94c.09.13-.09.32-.21.2A49.63,49.63,0,0,0,471.16,171.43Z" style="fill:#263238"></path><path d="M467.39,175.63c-.05,0,0-.11.05-.09a22.86,22.86,0,0,1,11.86,10.52c.08.17,0,.41-.12.22C477.28,183.1,471.34,177.88,467.39,175.63Z" style="fill:#263238"></path><path d="M475.47,191.64c-2.56-4.68-6.36-8.07-10.76-11-.06,0,0-.11.06-.09,2.54.84,5.15,3,7.05,4.84a14.08,14.08,0,0,1,3.81,6.15C475.66,191.64,475.52,191.74,475.47,191.64Z" style="fill:#263238"></path><path d="M482.54,180.2c.11.16-.24.14-.14.3.41.67,2.54,5,1.3,6.14-1,1-2.95.27-3.59-.29l-1.63-1.4,1,1.88a8.87,8.87,0,0,1,1,2.67,3.19,3.19,0,0,1-.45,2.54,1.8,1.8,0,0,1-2.17.63,5.33,5.33,0,0,1-2.13-1.69l-1.61-2,.87,2.38a8.54,8.54,0,0,1,.46,2.06,3.38,3.38,0,0,1-.31,1.94,1.63,1.63,0,0,1-1.48.85,3.63,3.63,0,0,1-1.79-.9,28.91,28.91,0,0,1-3-3.21c-.49-.56-1-1.13-1.49-1.67a5.35,5.35,0,0,0-1.78-1.36,5.65,5.65,0,0,1,1.62,1.5c.47.57.91,1.17,1.36,1.77a23.57,23.57,0,0,0,2.92,3.43,4.15,4.15,0,0,0,2.11,1.15,2.3,2.3,0,0,0,2.23-1.16,4.21,4.21,0,0,0,.46-2.4,9.17,9.17,0,0,0-.49-2.3l-.74.41a6.33,6.33,0,0,0,2.51,2,2.64,2.64,0,0,0,1.76.08,2.87,2.87,0,0,0,1.4-1,4,4,0,0,0,.57-3.2,9.53,9.53,0,0,0-1.13-2.92l-.59.48c.85.68,3,1.68,4.68.41C486.27,185.34,483.17,181,482.54,180.2Z" style="fill:#263238"></path><path d="M482.45,180.2a5.42,5.42,0,0,0,1.53.49,1.18,1.18,0,0,0,1.16-.42,2.39,2.39,0,0,0,.37-1.35,15.51,15.51,0,0,0,0-1.66,4.06,4.06,0,0,1,.6,1.63,2.45,2.45,0,0,1-.36,1.84,1.64,1.64,0,0,1-1.86.52A2.88,2.88,0,0,1,482.45,180.2Z" style="fill:#263238"></path><path d="M492.57,193.49,471,213.44s20.83,29,26.67,28.29c9.3-1.11,20.16-26,23.7-36.59s3.84-21.86-6-10c-8.51,10.23-13.83,15.78-14.15,15.69S492.57,193.49,492.57,193.49Z" style="fill:#FF5600"></path><path d="M500.94,210.28a61.85,61.85,0,0,1,3.25,7.7c.48,1.3.89,2.62,1.29,3.94a29,29,0,0,1,1,4c0,.05-.06.06-.08,0-.56-1.25-1-2.57-1.47-3.86s-.93-2.6-1.37-3.91c-.9-2.61-1.9-5.18-2.72-7.82A.07.07,0,0,1,500.94,210.28Z" style="fill:#263238"></path><path d="M493.35,200.31c-1,.82-2,1.73-3,2.61s-2,1.77-2.92,2.67c-1.93,1.81-3.84,3.62-5.73,5.46l-1.55,1.52c-.54.55-1,1.16-1.57,1.71,0,0,0,.1.07.06.48-.43,1-.8,1.51-1.22s1-.89,1.5-1.35c1-.89,1.94-1.79,2.91-2.69,1.92-1.8,3.84-3.61,5.71-5.47,1.06-1.05,2.15-2.09,3.14-3.2A.07.07,0,0,0,493.35,200.31Z" style="fill:#263238"></path><path d="M521.4,205.13c-3.54,10.63-14.4,35.49-23.7,36.6-2.16.26-6.4-3.58-10.88-8.51l35.91-42a4.34,4.34,0,0,0,.61.3C524.18,194.05,523.22,199.67,521.4,205.13Z" style="opacity:0.1"></path><path d="M459.51,477.87c2.11.66,63.6-.67,65.84-2.17.87-.55-4.4-58.8-4.4-58.8l-39,.75,4.44,39s-22.69,10.75-25,12.66S457.41,477.22,459.51,477.87Z" style="fill:#f7a9a0"></path><path d="M459.51,477.87c2.11.66,63.6-.67,65.84-2.17.27-.17.35-6.08-.62-13.79-11.15,1.87-51,8-54.05,6.16-2.16-1.27-.25-3.26,1.52-4.59-5.08,2.53-9.82,5-10.8,5.79C459.12,471.17,457.41,477.22,459.51,477.87Z" style="fill:#263238"></path><path d="M485.29,447.27l38.28-.54S516,355,516.3,353.27c.4-2.25,27.57-108.76,27.57-108.76H507.33s-28.81,99.27-29.85,108.83C475.81,368.79,485.29,447.27,485.29,447.27Z" style="fill:#FF5600"></path><path d="M485.29,447.27l38.28-.54S516,355,516.3,353.27c.4-2.25,27.57-108.76,27.57-108.76H507.33s-28.81,99.27-29.85,108.83C475.81,368.79,485.29,447.27,485.29,447.27Z" style="opacity:0.6000000000000001"></path><path d="M520.13,438.09c-2.26-.17-4.55-.14-6.82-.17s-4.54,0-6.81,0c-4.54,0-9.08.11-13.62.24-1.24,0-2.48.07-3.72.13s-2.65.29-4,.34a.08.08,0,0,0,0,.16c1.11,0,2.23.17,3.35.21s2.31,0,3.47,0l6.81,0c4.54,0,9.08-.1,13.61-.29,2.57-.1,5.15-.13,7.7-.39A.12.12,0,1,0,520.13,438.09Z" style="fill:#263238"></path><path d="M535.83,253.12c-3.27,11.57-6.26,23.25-9.19,34.92s-5.84,23.35-8.75,35q-2.17,8.76-4.36,17.52c-1.41,5.69-3.06,11.4-3.41,17.28s.41,12,.91,17.94,1,12,1.53,17.93c1.05,12,2.05,23.93,3.35,35.86.17,1.5.33,3,.48,4.48,0,.13.21.13.2,0-.79-12-1.62-23.93-2.57-35.88q-.72-9-1.46-17.93c-.5-6-1.19-12-1.38-17.94a64,64,0,0,1,2.37-17.66l4.3-17.14q4.38-17.52,8.74-35c3.25-13.07,6.49-26.18,9.35-39.35C536,253.07,535.85,253.05,535.83,253.12Z" style="fill:#263238"></path><path d="M543.87,244.52s-11.65,45.69-19.81,77.85l-15.54-77.85Z" style="fill:#263238"></path><path d="M505.43,478c2.11.66,63.6-.67,65.84-2.17.86-.55-3.07-58.83-3.07-58.83l-37.76.75,1.86,39s-22.68,10.75-25,12.66S503.33,477.36,505.43,478Z" style="fill:#f7a9a0"></path><path d="M505.43,478c2.1.66,63.6-.67,65.84-2.17.27-.17.21-5.93,0-13.79-11.15,1.87-51.56,8-54.66,6.16-2.16-1.27-.25-3.25,1.52-4.59-5.08,2.53-9.82,5-10.8,5.79C505,471.31,503.33,477.37,505.43,478Z" style="fill:#263238"></path><path d="M508.51,244.5s2.07,25.83,6.32,32.32a65,65,0,0,1,10.6,5.28s.15,69.11.1,73.26c-.17,15.52,6.28,91.14,6.28,91.14l38.61-.37s-10-131.39-12.32-161.48c0,0,1.76-9.61,1.38-14.46-.93-11.77-5.36-25.68-5.36-25.68Z" style="fill:#FF5600"></path><path d="M508.51,244.5s2.07,25.83,6.32,32.32a65,65,0,0,1,10.6,5.28s.15,69.11.1,73.26c-.17,15.52,6.28,91.14,6.28,91.14l38.61-.37s-10-131.39-12.32-161.48c0,0,1.76-9.61,1.38-14.46-.93-11.77-5.36-25.68-5.36-25.68Z" style="opacity:0.6000000000000001"></path><path d="M522.1,269.07c-.15-1-.29-1.94-.44-2.9-.27-1.77-.64-3.53-.95-5.3-.7-4-1.43-8-2.32-12,0-.09-.19-.07-.18,0q.24,2.4.57,4.8c.23,1.59.39,3.2.61,4.79.45,3.16.89,6.33,1.43,9.48.2,1.21,1,3.39-.79,3.76-1.38.3-2.39-1.06-2.8-2.19a28.31,28.31,0,0,1-.93-4.37c-.28-1.6-.53-3.2-.76-4.81q-.74-5.24-1.6-10.46c0-.1-.18-.07-.18,0a103.81,103.81,0,0,0,.78,10.72c.22,1.7.48,3.4.76,5.09a18.28,18.28,0,0,0,1.17,4.74,3.86,3.86,0,0,0,2.89,2.32h.08a.14.14,0,0,0-.05.1c0,.57,0,1.14.07,1.71s.17,1.12.28,1.67a11.55,11.55,0,0,0,.43,1.66,7.28,7.28,0,0,0,.31.77,6.41,6.41,0,0,0,.45.7c.06.1.18,0,.19-.06h0a2.44,2.44,0,0,0,0-.27V279h0a4.15,4.15,0,0,0,0-.49c0-.27-.1-.54-.16-.81-.12-.54-.27-1.08-.41-1.61s-.26-1.07-.4-1.61-.32-1.08-.45-1.64a.07.07,0,0,0,0-.05,2.52,2.52,0,0,0,2.44-1.53A4.35,4.35,0,0,0,522.1,269.07Z" style="fill:#263238"></path><path d="M528.56,283a30.51,30.51,0,0,0-3.64-2.4,35.21,35.21,0,0,0-4.14-2.14c-2.79-1.22-5.67-2-8.55-3-.08,0-.14.12-.06.15,2.79,1.11,5.47,2.59,8.17,3.91,1.32.65,2.67,1.26,4,1.86s2.7,1.3,4.09,1.81C528.56,283.17,528.64,283,528.56,283Z" style="fill:#263238"></path><path d="M547,261.37c-2,0-8.76-.49-10.77-2.74a13.78,13.78,0,0,1-2.51-4.54,43.5,43.5,0,0,1-1.53-5.5c0-.09-.15-.06-.15,0a21,21,0,0,0,.79,6.25,9.63,9.63,0,0,0,2.5,4.86,9.85,9.85,0,0,0,5.34,1.95,24.47,24.47,0,0,0,6.34-.09A.11.11,0,0,0,547,261.37Z" style="fill:#263238"></path><path d="M503.89,261.9a6.37,6.37,0,0,0,2.6-1.57c1.49-2.23,1.85-9.34,2-11.21,0-.09.05-.06.05,0,0,2.1-.07,4.23-.24,6.25a22.5,22.5,0,0,1-.77,4.86c-.46,1.27-3,2.15-3.61,1.86C503.85,262.1,503.85,261.91,503.89,261.9Z" style="fill:#263238"></path><path d="M568.71,438.65c-2.26-.16-4.55-.13-6.82-.16s-4.54,0-6.81,0c-4.54,0-9.08.12-13.61.25-1.25,0-2.49.07-3.73.13s-2.65.28-4,.33a.08.08,0,0,0,0,.16c1.11,0,2.23.18,3.35.21s2.31,0,3.47,0c2.27,0,4.54,0,6.81,0,4.54,0,9.08-.1,13.61-.29,2.57-.11,5.15-.14,7.71-.39A.12.12,0,0,0,568.71,438.65Z" style="fill:#263238"></path><path d="M564,433.63h0a.49.49,0,0,0,.45-.5L552.41,283.5c.11-.66,2.57-9,2.79-13.29.23-4.51-4.44-22.1-4.64-22.85A.48.48,0,0,0,550,247a.46.46,0,0,0-.34.57c.05.19,4.83,18.2,4.61,22.56s-2.77,13.16-2.79,13.23,12.06,149.79,12.06,149.79A.47.47,0,0,0,564,433.63Z" style="fill:#263238"></path><path d="M507.89,230.06l-2.46,15,50.18-.07s-9.71-42.5-17.94-51.16c-6.54-6.89-14.09-6.25-18.83-1.29-1.19,1.25-13.16,19.23-14.58,26.59C503,225.6,507.89,230.06,507.89,230.06Z" style="fill:#FF5600"></path><g style="opacity:0.1"><path d="M519,228.32a20.78,20.78,0,0,0-5.05.48c-.85.21-1.7.48-2.55.78-.43.15-.85.28-1.27.4a3.4,3.4,0,0,1-1.32.18s0,.09,0,.1a4.84,4.84,0,0,0,1.19.19,5.66,5.66,0,0,0,1.21-.16c.86-.2,1.72-.46,2.58-.67a46.5,46.5,0,0,1,5.2-1.05C519,228.56,519,228.32,519,228.32Z" style="fill:#020100"></path><path d="M526.66,230.48a48.83,48.83,0,0,0-6.39-.61,31.28,31.28,0,0,0-3.21.09c-.51,0-1,.08-1.53.13s-1.12.21-1.68.26c-.06,0-.06.11,0,.1.53,0,1.06.05,1.6.05l1.6,0c1.06,0,2.13,0,3.2,0,2.14,0,4.27,0,6.41.12C526.77,230.68,526.77,230.49,526.66,230.48Z" style="fill:#020100"></path></g><path d="M519.24,192.13c-.74,1-4.67,11.2-4,11.75s9.76,1.29,10.72.7,3.78-12.87,3.75-13.67S519.24,192.13,519.24,192.13Z" style="fill:#f7a9a0"></path><path d="M529.67,190.91c-.15,1-4.25,7.46-8.61,7.57-1.42,0-1.94-7.71-1.94-7.71l-.17-.57-2.37-7.88,9-6.71,1.3-.89s.5,2.19,1.11,4.94c0,.13,0,.25.08.39s.08.3.11.44c.09.41.19.83.27,1.25s.14.63.2,1,.12.67.19,1A52.46,52.46,0,0,1,529.67,190.91Z" style="fill:#f7a9a0"></path><path d="M528,179.66a16.5,16.5,0,0,1-9,10.54l-2.37-7.88,9-6.71,1.3-.89S527.36,176.91,528,179.66Z" style="fill:#263238"></path><path d="M508.67,164.77c-6,13.14,1.22,18.21,4.05,19.49,2.58,1.17,11.49,4.82,18.8-7.63s3.08-19.4-2.66-22.38S514.65,151.62,508.67,164.77Z" style="fill:#f7a9a0"></path><path d="M511.23,164.56a8.13,8.13,0,0,0,1,.14,1.52,1.52,0,0,0,1,0,.51.51,0,0,0,.22-.58,1.26,1.26,0,0,0-1.07-.72,1.89,1.89,0,0,0-1.34.21A.55.55,0,0,0,511.23,164.56Z" style="fill:#263238"></path><path d="M520.4,167.6a9.38,9.38,0,0,1-.85-.54,1.59,1.59,0,0,1-.75-.7.5.5,0,0,1,.22-.59,1.27,1.27,0,0,1,1.28.16,1.84,1.84,0,0,1,.87,1A.55.55,0,0,1,520.4,167.6Z" style="fill:#263238"></path><path d="M512.37,167.51s-.08,0-.1.06c-.29.94-.78,2-1.73,2,0,0,0,0,0,0C511.61,169.82,512.25,168.45,512.37,167.51Z" style="fill:#263238"></path><path d="M511.88,166.25c-1.45-.63-2.61,2.33-1.26,2.91S513.1,166.78,511.88,166.25Z" style="fill:#263238"></path><path d="M511.19,166.21c-.3.06-.64.26-.93.16s-.44-.51-.53-.9c0,0,0,0-.06,0-.23.56-.28,1.22.22,1.54s1-.05,1.37-.56C511.32,166.37,511.31,166.18,511.19,166.21Z" style="fill:#263238"></path><path d="M517.73,169.64s.06.07,0,.1c-.37.92-.64,2,.08,2.64a0,0,0,0,1,0,.05C516.86,171.9,517.24,170.44,517.73,169.64Z" style="fill:#263238"></path><path d="M518.91,169c1.53.44.54,3.45-.87,3.05S517.64,168.61,518.91,169Z" style="fill:#263238"></path><path d="M519.48,169.38c.18.24.33.61.6.72s.68-.11,1-.36c0,0,0,0,0,0-.18.58-.56,1.12-1.15,1.05s-.75-.68-.7-1.3C519.27,169.42,519.4,169.29,519.48,169.38Z" style="fill:#263238"></path><path d="M515.19,177.18c-.28.17-.58.43-.94.38a2.47,2.47,0,0,1-1-.47s-.06,0,0,0a1.34,1.34,0,0,0,1.1.8,1.07,1.07,0,0,0,.95-.68C515.3,177.19,515.23,177.16,515.19,177.18Z" style="fill:#263238"></path><path d="M512.21,172.64s-.6,1.35-.79,2c0,.06.13.14.36.22h0a3.3,3.3,0,0,0,3.41-.3c.07-.05,0-.15-.07-.12a5,5,0,0,1-3.13,0c0-.2,1.1-2.29,1-2.33a6,6,0,0,0-1.61-.08c1.16-2.87,2.77-5.52,3.89-8.39a.09.09,0,0,0-.16-.09,50.18,50.18,0,0,0-4.58,8.85C510.39,172.78,511.91,172.67,512.21,172.64Z" style="fill:#263238"></path><path d="M511.91,174.65a4,4,0,0,0,1.1,1.69,1.78,1.78,0,0,0,1,.43c.81.06,1.07-.61,1.13-1.24a4.14,4.14,0,0,0,0-1A5.19,5.19,0,0,1,511.91,174.65Z" style="fill:#263238"></path><path d="M513,176.34a1.78,1.78,0,0,0,1,.43c.81.06,1.07-.61,1.13-1.24A1.85,1.85,0,0,0,513,176.34Z" style="fill:#ff9abb"></path><path d="M531.25,177.37a6,6,0,0,1-1.87-5.6,15.52,15.52,0,0,1-4.7-6.65c0,.31.09,2.57.17,3.73-8.36-4.18-9.16-11.72-9.16-11.72a15.89,15.89,0,0,0-5.46,4.49s1.49-5.43,5.32-8.27a9.1,9.1,0,0,1,9.09-1.29,13,13,0,0,1,11.12,7.24C539.71,167.2,531.25,177.37,531.25,177.37Z" style="fill:#263238"></path><path d="M518.55,165.46a16.59,16.59,0,0,0,4.06,3s0,0,0,0a14.42,14.42,0,0,1-5.37-5.77,14.11,14.11,0,0,1-1.14-3.21,9.48,9.48,0,0,1-.21-3.71c0-.09-.12-.11-.14,0a10.87,10.87,0,0,0-.29,3.68,9.94,9.94,0,0,0,1.12,3.48,11.37,11.37,0,0,0,2,2.61" style="fill:#263238"></path><path d="M529,176.69s4.47-3.2,6-1.46-2.87,7.11-5.43,7.15a2.44,2.44,0,0,1-2.64-2.33Z" style="fill:#f7a9a0"></path><path d="M533.69,176.74s0,.06,0,.06a6.16,6.16,0,0,0-4.29,2.58,1.34,1.34,0,0,1,2,.32.05.05,0,0,1-.07.07,1.5,1.5,0,0,0-1.74-.05,7.54,7.54,0,0,0-1.19,1c-.12.12-.35-.05-.24-.19l0,0C528.87,178.45,531.45,176.17,533.69,176.74Z" style="fill:#263238"></path><path d="M535.59,192.22c15.81,14.65,29.76,37.26,28.84,50.1-.91,12.68-5.23,11.09-6.47,10.9-7.61-1.12-21.91-36.17-26.28-51C527.7,188.74,531.68,188.59,535.59,192.22Z" style="fill:#FF5600"></path><path d="M548.6,242.5c-.76-1.67-1.54-3.32-2.27-5l-2.25-5c-1.48-3.35-3-6.68-4.41-10.05s-2.9-6.71-4.3-10.08q-1.07-2.53-2.06-5.08c-.69-1.7-1.31-3.42-1.94-5.14a98.86,98.86,0,0,0,3.36,10.47c1.28,3.44,2.7,6.81,4.13,10.19s3,6.68,4.61,10S546.74,239.34,548.6,242.5Z" style="fill:#263238"></path><path d="M532.81,206.55a15,15,0,0,0-.91-1.74c-.17-.28-.33-.56-.51-.83s-.35-.55-.56-.82a5.08,5.08,0,0,0,.69,1.87A5.36,5.36,0,0,0,532.81,206.55Z" style="fill:#263238"></path><rect x="487.81" y="215.39" width="34.35" height="44.72" transform="translate(-51.05 189.24) rotate(-20.23)" style="fill:#FF5600"></rect><rect x="487.81" y="215.39" width="34.35" height="44.72" transform="translate(-51.05 189.24) rotate(-20.23)" style="opacity:0.30000000000000004"></rect><rect x="489.31" y="214.41" width="16.28" height="4.93" transform="translate(-44.27 184.72) rotate(-20.16)" style="fill:#c7c7c7"></rect><polygon points="500.77 213.03 498.89 213.72 498.1 211.59 493.53 213.26 494.31 215.4 492.43 216.09 491 212.2 499.37 209.13 500.77 213.03" style="fill:#c7c7c7"></polygon><path d="M561.24,252.23c-5,2.81-13.21,1.3-35.21-4.43-3-.8-3.22-23.79.07-23.11,4.15.86,20.07,5.08,21.19,5.54C556.78,234.07,564.63,250.32,561.24,252.23Z" style="fill:#f7a9a0"></path><path d="M534.58,228.32s-7.56-4.9-12.32-6.25a31.76,31.76,0,0,0-15.24-.13c-5.42,1.26-17.64,8.07-16.29,11.93,1.22,3.49,13.36-4.09,13.36-4.09s-13.66,5.69-11.42,9.63,15.84-5.67,15.84-5.67-13.9,6.16-10.95,9.86c2.23,2.79,15-5.21,15-5.21s-11.91,5.38-9.74,8.35c2.4,3.28,14.68-3.37,14.68-3.37,6.8,6.63,12.88,6.85,17.14,6.61C535.7,249.93,534.58,228.32,534.58,228.32Z" style="fill:#f7a9a0"></path><path d="M508.68,227.51c-1.63.61-3.28,1.21-4.85,2s-3.11,1.56-4.6,2.45a30,30,0,0,0-5.47,4,64,64,0,0,1,10.3-6.07c1.56-.75,3.09-1.58,4.65-2.34C508.75,227.55,508.72,227.49,508.68,227.51Z" style="fill:#263238"></path><path d="M511.51,233.12c-2.05.87-4.11,1.66-6.12,2.62s-3.81,2-5.74,3.13c-.14.08,0,.13.1,0,2-1,3.87-1.79,5.85-2.78s3.92-2.06,5.93-3A0,0,0,0,0,511.51,233.12Z" style="fill:#263238"></path><path d="M514.79,237.5a50.15,50.15,0,0,0-9,4.72c-.14.09,0,.14.14.06,3-1.62,5.3-2.92,9-4.67C514.89,237.59,514.86,237.48,514.79,237.5Z" style="fill:#263238"></path><path d="M533.51,225.61l2.94,27.18s21.87,4,25.35-.91c3-4.27-5.53-17.48-12.17-21.1C546.86,229.27,533.51,225.61,533.51,225.61Z" style="fill:#FF5600"></path><path d="M533.61,226.52l-.05-.92-.06.05c2.25.72,4.51,1.43,6.75,2.17s4.49,1.48,6.68,2.33a27.08,27.08,0,0,1,3.21,1.4,21.56,21.56,0,0,1,2.88,2,22.29,22.29,0,0,1,4.6,5.3,18.54,18.54,0,0,0-4.28-5.68,16.37,16.37,0,0,0-2.91-2.11,27.34,27.34,0,0,0-3.26-1.5c-2.22-.84-4.49-1.56-6.76-2.23s-4.57-1.23-6.89-1.73l-.06,0v.06Z" style="fill:#263238"></path><path d="M539.87,230.14c.06,1.36.24,2.73.38,4.09s.3,2.72.48,4.08c.35,2.72.71,5.44,1.11,8.15.11.74.22,1.48.34,2.22s.36,1.57.49,2.36c0,.06.1,0,.09,0-.07-.67,0-1.35-.11-2s-.14-1.39-.22-2.08c-.16-1.36-.33-2.72-.5-4.08-.35-2.72-.7-5.43-1.14-8.14-.24-1.53-.45-3.07-.78-4.58A.07.07,0,0,0,539.87,230.14Z" style="fill:#263238"></path><path d="M536.18,250.37c.16.8.29,1.6.42,2.41l-.12-.13c7.25.92,14.55,1.92,21.85,1.09a25.14,25.14,0,0,1-5.46.85,59.21,59.21,0,0,1-16.45-1.65l-.11,0c0-.85-.1-1.69-.13-2.54Z" style="fill:#263238"></path></g><g id="freepik--character-5--inject-30"><polygon points="625.24 371.49 622.96 385.16 607.51 478.19 605.02 478.19 616.25 385.16 617.91 371.49 625.24 371.49" style="fill:#dbdbdb"></polygon><polygon points="617.91 371.49 625.24 371.49 622.96 385.16 616.25 385.16 617.91 371.49" style="opacity:0.1"></polygon><polygon points="673.74 478.19 671.25 478.19 655.8 385.16 653.52 371.49 660.85 371.49 662.51 385.16 673.74 478.19" style="fill:#dbdbdb"></polygon><polygon points="660.85 371.49 662.51 385.16 655.8 385.16 653.52 371.49 660.85 371.49" style="opacity:0.1"></polygon><polygon points="703.46 478.19 700.97 478.19 685.52 385.16 683.24 371.49 690.57 371.49 692.23 385.16 703.46 478.19" style="fill:#dbdbdb"></polygon><polygon points="692.23 385.16 685.52 385.16 683.24 371.49 690.57 371.49 692.23 385.16" style="opacity:0.1"></polygon><polygon points="699.51 377.92 602.94 377.92 602.94 365.99 645.31 365.99 659.55 283.14 695.2 283.14 699.51 377.92" style="fill:#dbdbdb"></polygon><polygon points="699.51 377.92 693.34 377.92 689.32 283.14 695.2 283.14 699.51 377.92" style="opacity:0.1"></polygon><path d="M591.19,476.33c2.17.27,61.82-12.07,63.74-13.94.23-.21-.77-5.62-2.26-13l0-.15c-.93-4.69-17.07-42.84-17.07-42.84L596.87,416l16.4,35.45s-7.38,5-13.72,9.77l0,0a85.85,85.85,0,0,0-8,6.42C589.63,469.87,589,476.08,591.19,476.33Z" style="fill:#ad6359"></path><path d="M591.19,476.33c2.17.27,61.81-12.08,63.74-13.94.24-.21-.77-5.62-2.26-13l0-.14c-.34-1.74-2.81-8.15-5.76-15.49-6.37,1.51-29.2,7-37.5,9.26l3.89,8.4s-7.38,5-13.72,9.77h0a86.28,86.28,0,0,0-8,6.43C589.63,469.87,589,476.08,591.19,476.33Z" style="fill:#ebebeb"></path><path d="M591,476.61c2.23.26,61.92-12.25,63.9-14.17.75-.72-.28-10.11-3.23-20.12l-38.48,8.11s-20,14.87-21.91,17.2S588.76,476.35,591,476.61Z" style="fill:#FF5600"></path><path d="M591.34,474c10-2.34,50.33-10.85,60.35-12.41.08,0,.09,0,0,.06-9.81,2.54-50.25,10.72-60.32,12.51C591.17,474.24,591.13,474.09,591.34,474Z" style="fill:#263238"></path><path d="M610.25,452.1c4-.9,8.94-.46,12.11,2.3.12.1,0,.28-.16.24a56.55,56.55,0,0,0-11.91-2A.25.25,0,0,1,610.25,452.1Z" style="fill:#263238"></path><path d="M607.41,454c4-.9,8.94-.46,12.11,2.3.13.11,0,.28-.16.24a55.79,55.79,0,0,0-11.91-2A.26.26,0,0,1,607.41,454Z" style="fill:#263238"></path><path d="M604.57,455.8c4-.89,8.94-.45,12.11,2.3.13.11,0,.28-.16.25a56.44,56.44,0,0,0-11.91-2A.26.26,0,0,1,604.57,455.8Z" style="fill:#263238"></path><path d="M601.74,457.65c4-.89,8.93-.45,12.1,2.3.13.11,0,.28-.16.25a56.44,56.44,0,0,0-11.91-2A.26.26,0,0,1,601.74,457.65Z" style="fill:#263238"></path><path d="M591,476.61c.69.07,7-1.08,15.34-2.78L601,459.7c-4.55,3.51-8.83,6.91-9.68,7.93C589.35,470,588.75,476.34,591,476.61Z" style="opacity:0.1"></path><path d="M611.73,452.34l41.09-9.7s-34.5-75.94-31.49-79.94c1.51-2,39.76-2.59,51.93-12.91,15.8-13.41,5.2-33.9,5.2-33.9l-42.72-1.27s.51,8.94-1.15,10.28c-1.1.9-52,5.19-57.6,22.37C570.14,368.33,611.73,452.34,611.73,452.34Z" style="fill:#263238"></path><path d="M614,359.16a6.41,6.41,0,0,1,3.22-1l18.5-3.1c5.77-1,11.57-1.84,17.32-2.94,4.75-.92,9.59-2.16,13.7-4.74a19.87,19.87,0,0,0,8.4-11,35.45,35.45,0,0,0,1.09-14.09c-.11-1.15-.32-2.3-.53-3.43,0-.09.12-.12.13,0,1.57,8.76,1.71,18.93-4.86,25.91-3.19,3.41-7.59,5.41-12.07,6.7a138.43,138.43,0,0,1-15.54,3q-9.25,1.56-18.5,3.09c-3,.5-6,.88-8.93,1.5a3,3,0,0,0-1.6.71,2.29,2.29,0,0,0-.26,2.14c.29,1.46.68,2.89,1.1,4.32,3.37,11.5,27.58,65.46,28.24,66.73.07.13-.14.23-.21.1-5.66-10.09-23.61-51.55-27.34-62.43a67.61,67.61,0,0,1-2.43-8.47C613.25,361.09,613.12,359.93,614,359.16Z" style="fill:#37474f"></path><path d="M609.84,442.38c1.12-.52,11.91-3.09,14.29-3.65,4.76-1.12,19.79-4.4,22.54-4.72a.07.07,0,0,1,0,.14c-2.33.81-11.89,3.14-14.27,3.69-4.78,1.09-21.19,4.74-22.55,4.75A.11.11,0,0,1,609.84,442.38Z" style="fill:#37474f"></path><path d="M530.91,477.25c2.07.7,63,.48,65.24-1,.27-.15.37-5.66.38-13.2v-.15c0-4.78,1.49-45.6,1.49-45.6L559.89,417l-2.37,40.19s-8.23,3.43-15.4,6.84v0a85.07,85.07,0,0,0-9.14,4.7C530.67,470.61,528.84,476.57,530.91,477.25Z" style="fill:#ad6359"></path><path d="M530.91,477.25c2.07.7,63,.48,65.24-1,.28-.15.37-5.67.38-13.2v-.15c0-.33,0-.67,0-1s0-.49,0-.73,0-.73,0-1.09c.08-3.18.24-8.33.43-14l-38.84-.25-.67,11.34s-8.22,3.43-15.39,6.84l0,0a85.59,85.59,0,0,0-9.13,4.7C530.68,470.61,528.84,476.57,530.91,477.25Z" style="fill:#ebebeb"></path><path d="M530.66,477.48c2.14.7,63.12.33,65.44-1.16.88-.55,1.74-10,.84-20.36l-39.32.29s-22.53,10.59-24.89,12.49S528.53,476.78,530.66,477.48Z" style="fill:#FF5600"></path><path d="M531.52,475c10.22-.32,51.48-.62,61.61-.15.08,0,.08.06,0,.06-10.13.54-51.39.5-61.61.25C531.3,475.2,531.3,475,531.52,475Z" style="fill:#263238"></path><path d="M554.42,457.3c4.09-.09,8.85,1.33,11.41,4.66.1.13-.09.27-.21.21a55.86,55.86,0,0,0-11.27-4.37A.26.26,0,0,1,554.42,457.3Z" style="fill:#263238"></path><path d="M551.27,458.55c4.09-.08,8.84,1.33,11.41,4.66.1.13-.09.27-.21.21a56.09,56.09,0,0,0-11.27-4.37A.26.26,0,0,1,551.27,458.55Z" style="fill:#263238"></path><path d="M548.12,459.8c4.09-.08,8.84,1.33,11.41,4.66.1.13-.09.27-.21.21a56.69,56.69,0,0,0-11.27-4.37A.25.25,0,0,1,548.12,459.8Z" style="fill:#263238"></path><path d="M545,461.05c4.09-.08,8.84,1.33,11.4,4.66.1.13-.08.27-.2.21a57.31,57.31,0,0,0-11.27-4.37A.25.25,0,0,1,545,461.05Z" style="fill:#263238"></path><path d="M553.71,456l44.67-.39s-.53-70.72,2.84-75c4.49-5.75,67.35-5.62,80.83-24.35,12.11-16.83,1.89-40.65,1.89-40.65l-47.6-1.41a97.56,97.56,0,0,0,4.41,15s-57.35,10.59-73.41,28.18C556.5,369.17,553.71,456,553.71,456Z" style="fill:#263238"></path><path d="M632.38,325.86a23.05,23.05,0,0,1,4,1.29c1.37.52,2.71,1.12,4,1.76a80.84,80.84,0,0,1,7.53,4.26c.08,0,0,.15-.07.11-2.58-1.34-5.24-2.54-7.9-3.69l-3.85-1.66a39.62,39.62,0,0,1-3.89-1.72A.19.19,0,0,1,632.38,325.86Z" style="fill:#37474f"></path><path d="M635.23,314.11c.55,2.17,1,4.36,1.65,6.51a30.82,30.82,0,0,0,.94,3c.31.81.79,1.73,1.72,1.91,1.08.21,1.39-.72,1.3-1.61s-.35-2-.54-3c-.23-1.13-.46-2.25-.66-3.39-.11-.56-.21-1.13-.31-1.69,0-.15-.13-1.23-.21-1.54,0,0,0,0-.06,0h0s-.07,0-.07-.06a.14.14,0,0,1,0-.16.08.08,0,0,1,.1,0c.21.12.22.4.29.61q.27.82.51,1.65c.31,1,.6,2.08.86,3.12s.52,2.1.78,3.15a5,5,0,0,1,.21,2.41,1.84,1.84,0,0,1-1.71,1.39,2.25,2.25,0,0,1,.12.21c.09.22.16.44.24.66s.16.45.23.68a2,2,0,0,1,.06.34c0,.13,0,.25,0,.37s-.24.32-.33.13a3.37,3.37,0,0,0-.21-.31,2.28,2.28,0,0,1-.15-.36c-.08-.22-.14-.44-.2-.66s-.12-.44-.16-.66,0-.27,0-.4a2.54,2.54,0,0,1-1.25-.48,4.18,4.18,0,0,1-1.3-2c-.33-.9-.58-1.84-.84-2.76a40.81,40.81,0,0,1-1.38-7A.2.2,0,0,1,635.23,314.11Z" style="fill:#37474f"></path><path d="M663.54,319.43c.2,1.08.32,2.16.57,3.23s.53,2.1.87,3.11a10.92,10.92,0,0,0,1.33,2.8,10.24,10.24,0,0,0,2.11,2.15,17.87,17.87,0,0,0,5.1,2.84,23.68,23.68,0,0,0,2.84.84c.5.11,1,.2,1.51.26a3.3,3.3,0,0,1,1.22.28.25.25,0,0,1,0,.43,4.43,4.43,0,0,1-2.26.07,16.44,16.44,0,0,1-2.41-.43,17.4,17.4,0,0,1-4.56-1.92A14.45,14.45,0,0,1,666,330a10.83,10.83,0,0,1-2-4.47,22.18,22.18,0,0,1-.67-6.07A.11.11,0,0,1,663.54,319.43Z" style="fill:#37474f"></path><path d="M594.43,383.4a14,14,0,0,1,.84-3.78c1-2.54,3.1-3.81,5.65-4.46,3-.76,6.12-1.21,9.18-1.71s6.26-1,9.4-1.4c6.36-.88,12.72-1.7,19-2.77a151.31,151.31,0,0,0,18.7-4.21c5.62-1.7,11.39-3.8,15.89-7.7,9.69-8.4,10-22.47,8.86-34.25-.17-1.66-.37-3.32-.58-5,0-.08.13-.11.14,0,.76,6.63,1.66,13.31,1,20a32.66,32.66,0,0,1-5.3,15.48c-3.28,4.7-8.14,7.74-13.38,9.86a104.13,104.13,0,0,1-17.83,5.14c-12.57,2.63-25.38,3.75-38,5.91-1.56.27-3.11.55-4.67.85a19.69,19.69,0,0,0-4.21,1.13c-2.87,1.29-3.68,4.08-4,7-1.21,10.55-3,58.6-3,60.28,0,.15-.23.13-.23,0C591.58,425.94,593.23,397,594.43,383.4Z" style="fill:#37474f"></path><path d="M598.51,404.69c.07-4.64.2-2.6.3-7.24.1-4.38,0-8.84.85-13.16.35-1.74.66-4.05,2.53-4.85a22.6,22.6,0,0,1,3-.9c1.1-.29,2.2-.57,3.32-.81,5.13-1.11,10.32-1.8,15.52-2.5.09,0,.13.13,0,.15-4.4.84-8.8,1.71-13.16,2.7-2.19.5-4.37,1-6.52,1.61a5.28,5.28,0,0,0-2.71,1.14,7.13,7.13,0,0,0-1.06,2.94c-1,4.24-.93,8.66-1,13-.12,4.48-.23,2.29-.36,6.77-.14,5-.27,10.08-.62,15.1a.11.11,0,0,1-.21,0C598.32,414,598.45,409.34,598.51,404.69Z" style="fill:#37474f"></path><path d="M558,446.85c1.21-.26,12.3-.42,14.74-.45,4.9,0,20.28,0,23,.31a.07.07,0,0,1,0,.14c-2.45.28-12.29.47-14.74.49-4.9,0-21.71,0-23-.27A.11.11,0,0,1,558,446.85Z" style="fill:#37474f"></path><path d="M640.45,329.24a159.77,159.77,0,0,0-26,5.33,181.53,181.53,0,0,0-25.06,9.08c-4.55,2-9,4.33-13.33,6.74-.09,0,0,.17.08.13a201.9,201.9,0,0,1,24.37-10.64,194.68,194.68,0,0,1,25.37-7.37c4.86-1.06,9.74-1.88,14.63-2.69C640.87,329.76,640.78,329.21,640.45,329.24Z" style="fill:#37474f"></path><path d="M685.44,323.11c-.13.15-53.61-3.77-53.61-3.77l.38-3.43s-2.54-2.66-.58-9.73c4.16-14.95,12.47-44.78,15.27-48.05,3.4-4,9.31-5.22,13.66-2.66,9.13,5.38,22.63,44.16,26.2,53.34,1.76,4.52-1.59,7.39-2.12,9.51A39.52,39.52,0,0,1,685.44,323.11Z" style="fill:#455a64"></path><path d="M634.43,315.69c22.25.93,46.43,2.65,48.37,2.74.09,0,.09.15,0,.15-23.33-.32-46.45-2.41-48.37-2.68C634.3,315.88,634.29,315.68,634.43,315.69Z" style="fill:#263238"></path><path d="M649.38,264.85c3.26.66,9.35-4.89,11.41-9a67.17,67.17,0,0,0-.83-6.69c-.27-2.15-.52-4.54-.6-6.74l-13.68,3.8a35.22,35.22,0,0,1,1.6,8.4,4.49,4.49,0,0,1-.06.91,1,1,0,0,1,0,.15C647,257.44,646.24,264.21,649.38,264.85Z" style="fill:#d3766a"></path><path d="M647.22,255.57s0,.09,0,.14a8.07,8.07,0,0,0,1.41,0c8-.44,9.55-10.27,9.82-13l-3.42.95-9.34,2.59a34.69,34.69,0,0,1,1.6,8.41A4.44,4.44,0,0,1,647.22,255.57Z" style="fill:#263238"></path><path d="M645.71,222.19s-4.57,1.14-6,5.4-1.12,9-.78,9.27S645.71,222.19,645.71,222.19Z" style="fill:#263238"></path><path d="M664,230.44c.39,5.1-5.23,18.33-9.31,20.65-5.93,3.35-14.08,2-16.54-4.8-2.39-6.56,5.23-23.67,9.65-25.61C654.26,217.81,663.38,222.91,664,230.44Z" style="fill:#d3766a"></path><path d="M648.36,236.35s0,.07,0,.11c-.4.88-.72,1.95,0,2.59a0,0,0,0,1,0,0C647.41,238.54,647.84,237.12,648.36,236.35Z" style="fill:#263238"></path><path d="M649.55,235.75c1.48.49.39,3.42-1,3S648.31,235.34,649.55,235.75Z" style="fill:#263238"></path><path d="M643.07,234.52s-.09,0-.1,0c-.31.92-.82,1.92-1.76,1.91,0,0,0,.05,0,.06C642.26,236.77,642.92,235.44,643.07,234.52Z" style="fill:#263238"></path><path d="M642.61,233.27c-1.42-.66-2.62,2.23-1.31,2.83S643.8,233.82,642.61,233.27Z" style="fill:#263238"></path><path d="M651.44,234.32c-.37-.24-.67-.53-1-.8s-.72-.51-.87-1a.67.67,0,0,1,.36-.73,1.63,1.63,0,0,1,1.62.38,2.38,2.38,0,0,1,1,1.43A.71.71,0,0,1,651.44,234.32Z" style="fill:#263238"></path><path d="M642.48,230.38a11,11,0,0,0,1.27.14,2.09,2.09,0,0,0,1.33-.12.66.66,0,0,0,.25-.76,1.63,1.63,0,0,0-1.42-.86,2.41,2.41,0,0,0-1.7.34A.7.7,0,0,0,642.48,230.38Z" style="fill:#263238"></path><path d="M646.91,244.8a1.56,1.56,0,0,1-.95.3,2.62,2.62,0,0,1-.92-.55s-.06,0,0,0a1.3,1.3,0,0,0,1,.87,1.07,1.07,0,0,0,1-.59C647,244.82,647,244.78,646.91,244.8Z" style="fill:#263238"></path><path d="M646.81,241.73a3.3,3.3,0,0,1-2.54.74,4.24,4.24,0,0,1-1.15-.3l-.21-.1-.19-.09a.26.26,0,0,1-.12-.27h0a.25.25,0,0,1,0-.09h0l0-.08c.2-.72.61-1.78.61-1.78-.3.05-1.81.23-1.67-.13a49,49,0,0,1,4.2-9.14.09.09,0,0,1,.16.08c-1,2.94-2.49,5.69-3.53,8.63a5.87,5.87,0,0,1,1.63,0c.09.06-.83,2-.89,2.36a.1.1,0,0,0,0,0,4.57,4.57,0,0,0,3.58,0C646.83,241.59,646.88,241.67,646.81,241.73Z" style="fill:#263238"></path><path d="M643.67,241.94a3.82,3.82,0,0,0,1.11,1.58,1.69,1.69,0,0,0,1,.37c.78,0,1-.62,1-1.23a4,4,0,0,0,0-1A5,5,0,0,1,643.67,241.94Z" style="fill:#263238"></path><path d="M644.78,243.52a1.69,1.69,0,0,0,1,.37c.78,0,1-.62,1-1.23A1.8,1.8,0,0,0,644.78,243.52Z" style="fill:#ff9abb"></path><path d="M659.24,242.47c-1.63-.09-1.7-5.15-1.56-7,.13-1.66,1.39-6.6,1.44-6.95s-8,1.85-11.29-.59-4.57-6.69-4.05-8.27,6.58-3.83,10.64-2.57,7.61,8.32,7.61,8.32a21,21,0,0,1-.91-3,4.64,4.64,0,0,1,2.13,3.83s.34-2.5.55-2.47,1.49,2.74.49,4.07c0,0,1.58,2.86,1,5.14S661.17,242.57,659.24,242.47Z" style="fill:#263238"></path><path d="M645.48,226.16a13.31,13.31,0,0,0,3,2.55,8.92,8.92,0,0,0,4.24.82,13.27,13.27,0,0,0,4.27-.79c1.21-.42,2.37-1,3.61-1.36.31-.08.47.39.23.56a14.22,14.22,0,0,1-8.55,2.48,8.13,8.13,0,0,1-6.87-4.23S645.47,226.15,645.48,226.16Z" style="fill:#263238"></path><path d="M657.36,240.61s3.92-4,5.77-2.5-1.63,7.6-4.19,8.09a2.47,2.47,0,0,1-3-1.87Z" style="fill:#d3766a"></path><path d="M662.09,239.84a0,0,0,0,1,0,.07,6.24,6.24,0,0,0-3.85,3.32,1.36,1.36,0,0,1,2.08,0s0,.1-.06.08a1.52,1.52,0,0,0-1.74.25,6.89,6.89,0,0,0-1,1.2c-.11.14-.37,0-.28-.16l0,0C657.56,242.38,659.75,239.67,662.09,239.84Z" style="fill:#263238"></path><polygon points="646.93 257.71 648.26 264.12 660.67 251.97 661.63 255.58 649.41 269.63 648.04 264.86 644.99 267.74 645.41 260.53 646.93 257.71" style="fill:#ebebeb"></polygon><path d="M661.63,255.58c-4,4.89-8.15,9.7-12.32,14.48l-.1-.37-1.35-4.78.31.09-3.08,2.84-.26.24c.16-2.51.38-5,.58-7.55-.08,2.41-.16,4.81-.28,7.22l-.23-.11,3-2.91.22-.21.09.29,1.39,4.76-.36-.08c4.07-4.68,8.18-9.34,12.38-13.91Z" style="fill:#263238"></path><path d="M663.51,265.85c-3.77,15.58-15.16,42.51-19.7,46-4,3.09-24-.49-32.93-1.92-3.32-.54.64-23.16,4.18-22.52,4.24.78,18.2,1.88,19.05,1.13s12.17-17.14,20.34-26.9C661.86,252.8,664.94,260,663.51,265.85Z" style="fill:#d3766a"></path><path d="M602.65,286.2c-6.87.39-8.58,1.54-14.55-1.21-3.92-1.81-6.76-.09-4,3.48,4.47,5.82,13.44,7.19,16.69,6.76Z" style="fill:#d3766a"></path><path d="M621.68,289.15a69.68,69.68,0,0,0-15.7-3c-5.09-.22-16.22.54-24.51,13.3-2,3-2.61,8.74,2.39,5,3.56-2.69,5-5.46,7.35-6.65,0,0,0,7.36,3.14,9.21a65.67,65.67,0,0,0,8.47,4.26,14.61,14.61,0,0,0,.94-1.52s3.07,1.46,8,0Z" style="fill:#d3766a"></path><path d="M601.09,286.71c-2.09,1.67-6.45,5.28-9,9.47-2.82,4.66-7,14.4-3.54,16.45,2.54,1.5,4.46-2.08,4.46-2.08s-.88,4.39,1.71,5.25c2.36.78,3.68-2.08,3.68-2.08s-.07,2.75,2.35,3.07c2.9.37,2.58-5.46,5.86-7.63C607.35,308.68,601.09,286.71,601.09,286.71Z" style="fill:#d3766a"></path><path d="M597.52,298.34A21.73,21.73,0,0,0,593,310.45c0,.12.08.18.1.08a53.38,53.38,0,0,1,4.5-12.16A0,0,0,0,0,597.52,298.34Z" style="fill:#263238"></path><path d="M602.14,301.33a24.34,24.34,0,0,0-3.82,12.36c0,.11.09.17.11.07a57.71,57.71,0,0,1,3.76-12.41S602.16,301.31,602.14,301.33Z" style="fill:#263238"></path><path d="M612.9,314.1l4.33-28.05,16.38,1.69c5.81-7.79,17.43-23.36,22.25-28.14,5.66-5.61,9.92-2.05,8.3,5.9-3.71,18.2-16.46,45.44-20.16,48.25C638.7,317.77,612.9,314.1,612.9,314.1Z" style="fill:#455a64"></path><path d="M619.43,312.94c.61-1.81,1.85-9.62,2.14-11.57s1.17-9.8,1.46-11.8c0-.11-.14-.16-.15-.05-.32,2-3.58,21.46-3.55,23.4C619.33,313,619.42,313,619.43,312.94Z" style="fill:#263238"></path><path d="M632.74,315.63a52.1,52.1,0,0,0,6.84-.66c2.27-.35,4.42-1,5.6-3.11,4.89-7.69,8.07-16.46,11.61-24.86l5.15-12.79c-1.32,4.41-2.85,8.75-4.42,13.08-3.35,8.56-6.49,17.39-11.76,25-1.35,2.16-3.71,2.9-6.11,3.11a43.2,43.2,0,0,1-6.91.23Z" style="fill:#263238"></path><path d="M660.45,278.53a18.87,18.87,0,0,1,1.5-2.62,6,6,0,0,1-1.5,2.62Z" style="fill:#263238"></path><path d="M646.36,271.21c-4,5.42-7.76,11.35-12.14,16.49a1,1,0,0,1-.68.4c-5.51-.29-10.87-1.19-16.31-2l0,0-.14.76.07-.77v0c3.12.24,6.23.54,9.34.82,1.57.1,5.61.62,7,.53,4.5-5.18,8.25-11,12.84-16.15Z" style="fill:#263238"></path><path d="M645.23,271.54a18.9,18.9,0,0,1-1.19,2.78,6.11,6.11,0,0,1,1.19-2.78Z" style="fill:#263238"></path></g><g id="freepik--character-3--inject-30"><path d="M473.59,344.14c-2.38.74-70-.91-72.5-2.61-1-.63,2.29-60.57,2.29-60.57l40.49,1.14-.56,37.95s25.59,12.21,28.18,14.37S476,343.41,473.59,344.14Z" style="fill:#ffc4c0"></path><path d="M473.59,344.14c-2.38.74-70-.91-72.5-2.62-.47-.3.17-15,.71-29.41l41.62.68-.11,7.26s25.58,12.2,28.18,14.36S476,343.41,473.59,344.14Z" style="fill:#ebebeb"></path><path d="M474.58,344.44c-2.42.77-71.28-.41-73.87-2.12-1-.63.8-23.36.79-23.49l42.08.54,0,.76s26.16,12.24,28.81,14.42S477,343.68,474.58,344.44Z" style="fill:#FF5600"></path><path d="M474.58,344.44c-2.42.77-71.28-.41-73.87-2.12-1-.63.8-23.36.79-23.49l42.08.54,0,.76s26.16,12.24,28.81,14.42S477,343.68,474.58,344.44Z" style="opacity:0.30000000000000004"></path><path d="M473.85,341.76c-11.6-.49-58.45-1.34-70-.94-.09,0-.1.07,0,.07,11.49.73,58.34,1.21,70,1.06C474.09,341.94,474.09,341.77,473.85,341.76Z" style="fill:#263238"></path><path d="M448.52,319.58c-4.55-.93-10.15-.32-13.69,2.87-.14.13,0,.32.19.28a63.57,63.57,0,0,1,13.48-2.57A.29.29,0,0,0,448.52,319.58Z" style="fill:#263238"></path><path d="M451.79,321.63c-4.56-.93-10.15-.33-13.7,2.87-.14.12,0,.32.19.27a64.85,64.85,0,0,1,13.48-2.57A.29.29,0,0,0,451.79,321.63Z" style="fill:#263238"></path><path d="M455.05,323.67c-4.55-.93-10.15-.32-13.7,2.87-.13.13,0,.32.19.27A64.31,64.31,0,0,1,455,324.25.29.29,0,0,0,455.05,323.67Z" style="fill:#263238"></path><path d="M448.53,317.29H399.59S402.18,225,401,221.06c-.46-1.51-58.1-23.34-75.23-35.05C303,170.39,312,135.29,312,135.29h56.79s-2.59,13.84.35,16.85c3.58,3.66,71.51,26.49,77.17,41.19C454.48,214.51,448.53,317.29,448.53,317.29Z" style="fill:#37474f"></path><path d="M448.53,317.29H399.59S402.18,225,401,221.06c-.31-1-26.26-11.14-48.51-21.23-11-5-21.06-10-26.72-13.82C303,170.39,312,135.29,312,135.29h56.79s-2.59,13.84.35,16.85c3.58,3.66,71.51,26.49,77.17,41.19C454.48,214.51,448.53,317.29,448.53,317.29Z" style="fill:#37474f"></path><path d="M445.79,306.74c-7-.16-5-.24-12-.31-3.44,0-26-.24-29.25.43-.07,0-.07.16,0,.17,3.22.65,25.81.37,29.25.32,7-.09,5-.16,12-.35A.13.13,0,0,0,445.79,306.74Z" style="fill:#263238"></path><path d="M317.47,138c.8,12.2,2.78,28.77,10.49,38.57,3.12,3.19,7.19,5.38,11.07,7.55,8,4.26,16.22,7.95,24.5,11.57s16.66,7,25,10.5c4.18,1.74,8.36,3.48,12.49,5.33,2.31,1.14,4.81,2,6.86,3.71a1.09,1.09,0,0,1,.34.6c.19,1.45.19,4.11.26,5.59.59,25.09.5,56.19.41,81.41-.45-19.26-.82-62.8-1.36-81.39-.06-1.41-.11-4.07-.27-5.42v0s0,0,0,0a.36.36,0,0,0-.07-.09,36,36,0,0,0-6.57-3.47c-4.11-1.85-8.28-3.6-12.45-5.35-8.34-3.49-16.7-7-25-10.58s-16.56-7.34-24.51-11.71c-3.95-2.26-8-4.46-11.19-7.78-7.81-10.09-9.41-26.59-10-39Z" style="fill:#263238"></path><path d="M368.63,135.29,352.5,199.83c-11-5-21.06-10-26.72-13.82C303,170.39,312,135.29,312,135.29Z" style="fill:#263238"></path><path d="M340,389.78c-2.38.75-70-.68-72.51-2.37-1-.63-1.34-10.49-1.44-22.42v-.37c0-2.46,10.86-39.81,10.86-39.81l43,.5-10.27,39.74,0,.74s25.62,12.12,28.22,14.28S342.39,389.05,340,389.78Z" style="fill:#ffc4c0"></path><path d="M340,389.78c-2.36.75-70-.68-72.5-2.38-1-.62-1.34-10.48-1.44-22.41,0-.12,0-.25,0-.37,0-.64,2.05-8.66,2.05-8.66l43.62,1.14-2.05,7.95,0,.75s25.64,12.12,28.23,14.26S342.39,389.05,340,389.78Z" style="fill:#ebebeb"></path><path d="M340.67,389.92c-2.42.75-71.28-.87-73.86-2.59-1-.64-1.34-10.69-1.41-22.84v-.38l44.43.55,0,.75s26.08,12.41,28.72,14.61S343.1,389.18,340.67,389.92Z" style="fill:#FF5600"></path><path d="M340.67,389.92c-2.42.75-71.28-.87-73.86-2.59-1-.64-1.34-10.69-1.41-22.84v-.38l44.43.55,0,.75s26.08,12.41,28.72,14.61S343.1,389.18,340.67,389.92Z" style="opacity:0.30000000000000004"></path><path d="M340,387.23c-11.6-.56-58.45-1.71-70-1.38-.09,0-.09.06,0,.07,11.49.8,58.34,1.58,69.95,1.5C340.2,387.42,340.2,387.24,340,387.23Z" style="fill:#263238"></path><path d="M314.78,364.9c-4.55-1-10.15-.39-13.72,2.78-.14.12,0,.32.19.27a64.37,64.37,0,0,1,13.49-2.47A.29.29,0,0,0,314.78,364.9Z" style="fill:#263238"></path><path d="M318,367c-4.55-1-10.15-.39-13.72,2.78-.14.13,0,.32.19.28A63.75,63.75,0,0,1,318,367.54.29.29,0,0,0,318,367Z" style="fill:#263238"></path><path d="M321.28,369c-4.55-1-10.15-.39-13.72,2.78-.14.12,0,.32.19.27a65,65,0,0,1,13.49-2.48A.29.29,0,0,0,321.28,369Z" style="fill:#263238"></path><path d="M368.79,135.29s.33,25.09-7.13,35.17c-.43.58-5.62,2.58-6.58,3.64,0,0-8.12,67.8-12.25,88.77-5.45,27.68-29.95,100.52-29.95,100.52l-49.16-.58s33-102.37,33.21-104.17c1.31-10.24,8.35-78.06,7.76-79.82-1.49-4.44-3.27-7.8-3-12.64.7-12.36,5.66-30.89,5.66-30.89Z" style="fill:#37474f"></path><path d="M312.61,353.46c-7.3-.27-5.2-.31-12.51-.49-3.58-.08-27.09-.62-30.44,0-.08,0-.08.16,0,.18,3.34.69,26.86.75,30.43.75,7.32,0,5.22-.09,12.53-.17A.13.13,0,0,0,312.61,353.46Z" style="fill:#263238"></path><path d="M361.66,170.46a93,93,0,0,0-14.7,6.85.17.17,0,0,0,.14.3c4.95-2.13,10-4.16,14.83-6.56A.32.32,0,0,0,361.66,170.46Z" style="fill:#263238"></path><path d="M363.23,136.48c0-.17-.31-.21-.31,0a163.64,163.64,0,0,1-.83,16.54c-.23,2.55-2.28,16.65-6.71,15.62-.74-.17-1.11-.9-1.23-2a17.83,17.83,0,0,1,.59-4.32c.49-2.95.88-5.91,1.14-8.89a81.56,81.56,0,0,0-.18-16.68.15.15,0,0,0-.29,0,151.44,151.44,0,0,1-1.35,23c-.55,3.67-2.4,9.19,1.44,9.75s6.43-8.67,6.91-11.2A84.37,84.37,0,0,0,363.23,136.48Z" style="fill:#263238"></path><path d="M355.5,169a23.33,23.33,0,0,0-1,2.92,6.87,6.87,0,0,0-.42,2.41.17.17,0,0,0,.31.06,8.47,8.47,0,0,0,1-2.34c.33-.9.69-1.8,1-2.71A.5.5,0,0,0,355.5,169Z" style="fill:#263238"></path><path d="M316.43,155.52c1.07-.18,2.64.19,7.3-.13a23.7,23.7,0,0,0,3.83-.62,8.45,8.45,0,0,0,3.55-1.44,18.72,18.72,0,0,0,4.05-5.58,28.67,28.67,0,0,0,2.83-6.88c0-.15.25-.08.22.06-.24,1.37-.38,2.73-.74,4.07a25.62,25.62,0,0,1-1.36,3.7c-1,2.23-2.16,4.63-4.16,6.14s-5,1.88-7.58,2.06c-1.47.1-7.24-.06-8-.88C316.21,155.87,316.22,155.55,316.43,155.52Z" style="fill:#263238"></path><path d="M312.72,138c-1.38,6.85-2.68,13.73-3.72,20.64-.33,3.34-1.33,7-.63,10.28l3.11,10v.12c-1.92,20-5.41,56-7.14,75.58l-.21,2.7a31.43,31.43,0,0,1-1.56,8.05c-8.13,27.79-17.53,55.14-26.84,82.54,4.47-14,15.53-48.55,19.71-62,2.14-6.91,4.29-13.81,6.23-20.76a29.85,29.85,0,0,0,1.5-7.87c2.11-25.36,5-53.38,7.68-78.16l-3-10c-.75-3.42.36-7.08.76-10.51,1.17-6.9,2.6-13.75,4.1-20.58Z" style="fill:#263238"></path><path d="M359.23,84.75c19.93,5.9,71.55,5.74,77.12,4.86,4.38-.69-.42-27.06-4.27-26.48-23.05,3.44-57.76,7.75-70.18,9.45C350.36,74.16,347.21,81.19,359.23,84.75Z" style="fill:#ffc4c0"></path><path d="M445.6,59.21c4.2.43,9,.59,13,2.55s4.79,8.81,4.07,10.32S456,82.3,452,80.41s1.84-8,2.08-8.89.59-2-.2-2.31S437,69,437,69Z" style="fill:#ffc4c0"></path><path d="M445.6,59.89c.22.1,12.93.94,16.89,2.9s4.78,8.81,4.07,10.32-6.68,10.22-10.67,8.33,1.84-8,2.08-8.88.59-2-.2-2.31S440.82,70,440.82,70Z" style="fill:#ffc4c0"></path><path d="M454.77,80.3a5.31,5.31,0,0,1,.45-2.68,9.33,9.33,0,0,1,1.35-2.48,16,16,0,0,0,1.53-2,5,5,0,0,0,.44-2.38c-.05-.7-.72-.79-1.31-.85a21.15,21.15,0,0,0-2.64,0c-.94,0-1.88,0-2.83.09a22,22,0,0,0-2.92.18.07.07,0,0,0,0,.13c.81.08,1.64,0,2.46,0l2.78,0c.86,0,1.73,0,2.6,0a2.71,2.71,0,0,1,1.2.19c.27.21.07,1,0,1.31A4.18,4.18,0,0,1,456.74,74a12.44,12.44,0,0,0-1.45,2,6.14,6.14,0,0,0-.81,2.16,8.27,8.27,0,0,0,.14,2.16C454.62,80.42,454.79,80.39,454.77,80.3Z" style="fill:#263238"></path><path d="M428,64.38s15.85-4.85,19.1-5.77c6.53-1.84,29.77-.59,32.62.41s1.2,7-14.76,6.56c-8.4-.25-11.53,3.15-12.44,5.43s-.75,7.39,3,9,8.74-2.63,12.45-1.62-1.52,6.21-5.64,8.69a25.26,25.26,0,0,1-13.7,3.08c-3.79-.31-15.77-.73-15.77-.73Z" style="fill:#ffc4c0"></path><path d="M461.35,79.63c-1.91.42-4.17,1.07-6,.27s-2.59-2.65-2.75-4.62a7.79,7.79,0,0,1,1.46-5.6,9.45,9.45,0,0,1,4.52-3,23.16,23.16,0,0,1,6.62-1,.08.08,0,0,0,0-.16c-2.08,0-8.43-.38-11.72,3.82A8,8,0,0,0,452,75.13c.12,1.87.65,3.87,2.38,4.86,2.12,1.22,4.85.33,7.06-.26C461.53,79.7,461.45,79.6,461.35,79.63Z" style="fill:#263238"></path><path d="M433.75,91.78l-1.94-30.34s-59.23,8.53-67.89,10c-17.54,2.91-16.1,10.93-6.23,13.73C372.1,89.22,433.75,91.78,433.75,91.78Z" style="fill:#FF5600"></path><path d="M424.37,64.14a32.65,32.65,0,0,0,.08,3.28c0,1.09.09,2.18.17,3.27.14,2.09.31,4.19.49,6.29s.86,10.66,1.23,12.81a.08.08,0,1,0,.15,0c0-2.17-.61-10.82-.75-13s-.3-4.27-.49-6.41c-.09-1-.19-2.09-.33-3.14a30.69,30.69,0,0,0-.41-3.16C424.49,64,424.37,64.07,424.37,64.14Z" style="fill:#263238"></path><path d="M433.74,91.77v0s-61.63-2.57-76.05-6.66c-9.88-2.79-11.31-10.81,6.23-13.72,3.22-.53,13.46-2,25-3.75Z" style="opacity:0.1"></path><path d="M368.79,149.89s-66.19-7.51-66.43-8c-.64-1.24,29.26-63.74,48.19-74,3.47-1.87,12.45,1.85,14.2,4.44C369.34,79.16,369.83,149.15,368.79,149.89Z" style="fill:#FF5600"></path><path d="M362.57,78.73c-.18,5.71-.47,11.41-.78,17.11s-.69,11.39-1,17.09-.81,11.38-1.28,17.07l-.72,8.53c-.28,2.84-.52,5.68-.83,8.52.08-2.85.22-5.7.33-8.55l.44-8.55c.31-5.7.7-11.4,1.05-17.09s.81-11.39,1.28-17.08S362,84.41,362.57,78.73Z" style="fill:#263238"></path><path d="M365.59,96.49a1.07,1.07,0,1,1-1-1.12A1.07,1.07,0,0,1,365.59,96.49Z" style="fill:#263238"></path><path d="M364.62,107.47a1.07,1.07,0,1,1-1-1.12A1.07,1.07,0,0,1,364.62,107.47Z" style="fill:#263238"></path><path d="M363.66,118.46a1.07,1.07,0,1,1-1-1.12A1.07,1.07,0,0,1,363.66,118.46Z" style="fill:#263238"></path><path d="M362.69,129.44a1.07,1.07,0,1,1-1-1.12A1.07,1.07,0,0,1,362.69,129.44Z" style="fill:#263238"></path><path d="M361.72,140.42a1.07,1.07,0,1,1-1-1.12A1.07,1.07,0,0,1,361.72,140.42Z" style="fill:#263238"></path><path d="M359.67,79.85c-3.59-.13-8-6.88-9.09-11.69-.08-.33,1.19-3.23,2.57-6.82.83-2.19,1.7-4.64,2.33-6.93l13.43,7.46a38,38,0,0,0-3.82,8.43,4.79,4.79,0,0,0-.16,1,1.43,1.43,0,0,1,0,.16C364.7,73.3,363.14,80,359.67,79.85Z" style="fill:#ffc4c0"></path><path d="M356.12,54.76c-.34,3-1,13.86,7.29,16.34a9.41,9.41,0,0,0,1.49.33.52.52,0,0,0,0-.17,6.86,6.86,0,0,1,.16-1,38.31,38.31,0,0,1,3.83-8.43Z" style="fill:#263238"></path><path d="M371.51,35.86a8.78,8.78,0,0,1,4.7,4.67c1.16,3.29.31,8.93.31,8.93Z" style="fill:#263238"></path><path d="M351.56,42c-1.24,5.39,2.62,20.44,6.61,23.58,5.79,4.55,14.74,4.39,18.47-2.45,3.61-6.63-1.77-26.16-6.18-28.95C364,30.07,353.39,34,351.56,42Z" style="fill:#ffc4c0"></path><path d="M372.7,49.11s.09,0,.1.07c.18,1,.57,2.18,1.57,2.33,0,0,0,.06,0,.06C373.21,51.65,372.71,50.11,372.7,49.11Z" style="fill:#263238"></path><path d="M373.39,47.85c1.63-.48,2.45,2.8.95,3.24S372,48.24,373.39,47.85Z" style="fill:#263238"></path><path d="M364.56,48.61a10.48,10.48,0,0,0,1.37.18,2.22,2.22,0,0,0,1.44-.08.7.7,0,0,0,.29-.82,1.77,1.77,0,0,0-1.51-1,2.66,2.66,0,0,0-1.85.32A.76.76,0,0,0,364.56,48.61Z" style="fill:#263238"></path><path d="M374.36,45.47A12.75,12.75,0,0,1,373,45.4a2.29,2.29,0,0,1-1.41-.33.71.71,0,0,1-.13-.86,1.75,1.75,0,0,1,1.65-.69,2.62,2.62,0,0,1,1.76.64A.76.76,0,0,1,374.36,45.47Z" style="fill:#263238"></path><path d="M367.78,60.06a1.67,1.67,0,0,0,1,.42,2.92,2.92,0,0,0,1-.49,0,0,0,0,1,.06,0,1.42,1.42,0,0,1-1.19.83,1.1,1.1,0,0,1-1-.74S367.73,60,367.78,60.06Z" style="fill:#263238"></path><path d="M368.21,56.76a3.57,3.57,0,0,0,2.65,1.07,4.56,4.56,0,0,0,1.27-.21l.23-.08.22-.08a.26.26,0,0,0,.16-.27h0l0-.1h0l0-.09c-.14-.79-.47-2-.47-2,.32.09,1.93.44,1.82,0a54.11,54.11,0,0,0-3.57-10.27.1.1,0,0,0-.19.06c.76,3.28,2.09,6.39,2.9,9.67a6,6,0,0,0-1.75-.15c-.11,0,.67,2.27.71,2.63v0a4.91,4.91,0,0,1-3.84-.36C368.2,56.61,368.13,56.69,368.21,56.76Z" style="fill:#263238"></path><path d="M371.51,57.52A4.22,4.22,0,0,1,370,59a1.89,1.89,0,0,1-1.13.21c-.85-.12-1-.87-.89-1.53a4.65,4.65,0,0,1,.25-1A5.46,5.46,0,0,0,371.51,57.52Z" style="fill:#263238"></path><path d="M370,59a1.89,1.89,0,0,1-1.13.21c-.85-.12-1-.87-.89-1.53A2,2,0,0,1,370,59Z" style="fill:#f291b8"></path><path d="M364.05,50.55a2.79,2.79,0,0,1,.85-.26,3.09,3.09,0,0,1,.91,0,2.35,2.35,0,0,1,1.62,1.12l.33.56-.61,0a6.14,6.14,0,0,0-1.28.06,2.49,2.49,0,0,0-1.2.53,1.85,1.85,0,0,1,1.06-1,3.21,3.21,0,0,1,1.44-.26l-.27.52a2.27,2.27,0,0,0-1.2-.92A6.12,6.12,0,0,0,364.05,50.55Z" style="fill:#263238"></path><path d="M366,53a5,5,0,0,0,1.26-.6c.09-.07.43-.38.4-.46a2.8,2.8,0,0,0-.28-.68,1.92,1.92,0,0,1,.42.66,1,1,0,0,1-.42.67A2.62,2.62,0,0,1,366,53Z" style="fill:#263238"></path><path d="M355.07,58.46c2.92-.55,1.16-8.55,1.16-8.55s5.64-2.07,4.71-9.7c0,0,9,1.21,12.46-4s-10.28-13.64-21.65-.74c0,0-6.14,2.39-6.06,7.8S351.55,59.13,355.07,58.46Z" style="fill:#263238"></path><path d="M360.57,39.39c-.05-.06-.17,0-.14.07,2,4.78-.31,10-5.69,10.71a.14.14,0,0,0,0,.28C360.19,50.25,364,44,360.57,39.39Z" style="fill:#263238"></path><path d="M363.28,28.67s0,0,0,0a18.24,18.24,0,0,1,5.52.26c2.71.66,6.54,3,5.42,6.37-1.54,4.58-8,4.72-11.93,4.51a.21.21,0,0,0-.07.41c4.15.92,12.16-.21,12.75-5.55C375.63,28.77,367.24,28,363.28,28.67Z" style="fill:#263238"></path><path d="M366,56.34a4.41,4.41,0,1,1,3.69-5.91h0A4.42,4.42,0,0,1,367,56.09,4.53,4.53,0,0,1,366,56.34Zm-.84-8.19a3.81,3.81,0,0,0-3.2,5.12,3.82,3.82,0,1,0,3.2-5.12Z" style="fill:#37474f"></path><path d="M375.84,54.09c-1.68.17-3.38-1.4-3.88-3.64a5.21,5.21,0,0,1,.24-3.22,2.75,2.75,0,0,1,4.59-1A5.26,5.26,0,0,1,378.37,49c.53,2.37-.48,4.63-2.25,5ZM374.55,46l-.22,0a2.38,2.38,0,0,0-1.59,1.47,4.7,4.7,0,0,0-.21,2.85c.46,2.06,2,3.47,3.46,3.14s2.26-2.26,1.8-4.31a4.71,4.71,0,0,0-1.39-2.5A2.42,2.42,0,0,0,374.55,46Z" style="fill:#37474f"></path><path d="M369.62,51l-.46-.36c.53-.69,1.87-1.77,3.17-.87l-.33.48C370.84,49.41,369.67,50.9,369.62,51Z" style="fill:#37474f"></path><path d="M350.68,56.34l-.57-.15c.07-.27.73-2.61,2-3.11s9-1.45,9.38-1.49l.07.58c-2.26.29-8.33,1.1-9.23,1.46S350.85,55.7,350.68,56.34Z" style="fill:#37474f"></path><path d="M356.63,53.63s-3.88-4.61-6-3.18,1.11,8.34,3.83,9.07a2.67,2.67,0,0,0,3.44-1.75Z" style="fill:#ffc4c0"></path><path d="M351.6,52.41a0,0,0,0,0,0,.07c1.91.58,3,2.2,3.87,3.9a1.48,1.48,0,0,0-2.24-.2c-.05,0,0,.11.06.09a1.66,1.66,0,0,1,1.86.41,8.54,8.54,0,0,1,1,1.39c.1.15.39,0,.31-.15l0,0C356.26,55.53,354.14,52.42,351.6,52.41Z" style="fill:#263238"></path><path d="M364.9,71.43l-2.79,6.89L350.92,66.73l-3.26,3.36s9.56,18.09,9.67,17.31l5-7.33,3.86,5.55.41-11.09Z" style="fill:#FF5600"></path><path d="M366.75,79.15c0-2.17.11-2.33,0-4.49,0-.08-.12-.12-.15,0-.55,2.06-.52,8.32-.64,10.3l0,0c-.21-.24-3.52-4.91-3.57-4.84-.85,1.14-4.81,6.49-5,7C355.83,84.17,350,73.7,348.18,71a.07.07,0,0,0-.13.07c1.31,3,9,17.1,9.13,17.07a66.7,66.7,0,0,0,5.22-7.74c.72,1,4.05,6.22,4.08,5.9A67.49,67.49,0,0,0,366.75,79.15Z" style="fill:#263238"></path><polygon points="412.38 58.23 373.44 55.69 373.56 46.82 412.56 45.38 412.38 58.23" style="fill:#37474f"></polygon><polygon points="434.17 62.14 395.24 58.48 395.43 44.64 434.45 42.09 434.17 62.14" style="fill:#455a64"></polygon><polygon points="452.66 67.07 423.14 62.09 423.42 41.82 453.08 37.69 452.66 67.07" style="fill:#37474f"></polygon><path d="M454.88,52.4c-.1,7.41-1.09,13.41-2.2,13.39s-1.93-6-1.82-13.44S452,39,453.06,39,455,45,454.88,52.4Z" style="fill:#FF5600"></path><path d="M347.22,85.27c11.61,14.21,36.72,33.32,44.48,31.38,8.62-2.15,27.17-33.31,29.48-40.76,1-3.18-25.17-12.65-26.29-9.27-1,2.94-7.42,22.67-10,23.22-1.07.23-12.24-6.44-29.28-11.7C342.54,74.1,343.78,81.06,347.22,85.27Z" style="fill:#ffc4c0"></path><path d="M393.18,75.35s.29-3.15.64-11.13c.26-6.23,5.24-20.7,21.69-26.78,6.3-2.33,10.69,1.07,4.57,4.65-4.31,2.53-7.51,3.91-8.68,5.13,0,0,7.56,1.08,9.59,5a79.9,79.9,0,0,1,4.56,10.67,16.26,16.26,0,0,1-1.92,1,9.3,9.3,0,0,1-1.73,9.77l-2.33,6.63Z" style="fill:#ffc4c0"></path><path d="M395.73,59c2.2-2.42,6.94-7.48,12.26-10.27,5.91-3.1,18.12-7.47,20.36-3.09,1.64,3.22-2.87,5.3-2.87,5.3s5.43-.75,6.28,2.48c.77,2.94-2.82,4.34-2.82,4.34s3.37.12,3.57,3.1c.24,3.58-6.86,2.75-9.75,6.59C422.11,68.26,395.73,59,395.73,59Z" style="fill:#ffc4c0"></path><path d="M410.22,55.47a26.56,26.56,0,0,1,15.14-4.66c.14,0,.21.11.08.13a65.76,65.76,0,0,0-15.19,4.58S410.19,55.49,410.22,55.47Z" style="fill:#263238"></path><path d="M413.52,61.34c2.28-1.46,9.29-4.23,15.39-3.75.14,0,.2.13.07.14a70.16,70.16,0,0,0-15.43,3.67A0,0,0,0,1,413.52,61.34Z" style="fill:#263238"></path><path d="M419.35,86,392.54,73.8s-6.25,15.22-7.4,15.4c-1.5.23-22.76-10.24-31.86-12.51-9.88-2.47-13.86,4-4.54,13.1,3.7,3.62,27.53,27.94,43,27.46C400.09,117,419.35,86,419.35,86Z" style="fill:#FF5600"></path><path d="M393,81.88a46,46,0,0,0,5,2.59c1.74.86,3.49,1.65,5.24,2.44s8.86,3.71,10.63,4.43c.08,0,.13-.11,0-.15-1.73-.86-8.59-4.27-10.32-5s-3.44-1.56-5.18-2.27A46,46,0,0,0,393,81.79S393,81.85,393,81.88Z" style="fill:#263238"></path><path d="M351.24,92.25a205.9,205.9,0,0,0,21.83,17.38c5.11,3.27,10.52,6.84,16.69,7.47,3.15.31,5.83-1.67,8.14-3.59a85.9,85.9,0,0,0,12.26-14,85.63,85.63,0,0,1-12,14.25c-5.74,5.47-10.83,4.28-17.4,1.15-11.15-5.66-20.66-14-29.51-22.7Z" style="fill:#263238"></path><path d="M351.68,94.11c1.35.75,2.69,1.48,4,2.31a5.82,5.82,0,0,1-4-2.31Z" style="fill:#263238"></path><path d="M358,78.18a51.15,51.15,0,0,1,11.7,4.7c-3.95-1.47-7.87-2.93-11.7-4.7Z" style="fill:#263238"></path><path d="M359.4,78.18a4.83,4.83,0,0,1,2.54,1.45c-.9-.43-1.68-1-2.54-1.45Z" style="fill:#263238"></path></g><g id="freepik--character-2--inject-30"><path d="M151.94,390.43S131,425,131,425.06c-3.64,6.76-6.72,12.75-8,16l0,.06a5.34,5.34,0,0,0-.62,2.35.15.15,0,0,0,0,.07c1.28,2.44,54.48,33.13,56.69,33.57s3.66-5.83,2.55-8.67-16.24-23.7-16.24-23.7l20-34.77Z" style="fill:#ad6359"></path><path d="M127.73,431.23c-2.14,4.14-3.85,7.62-4.74,9.83a.11.11,0,0,0,0,.06,5.31,5.31,0,0,0-.62,2.35.64.64,0,0,0,0,.07c1.27,2.44,54.47,33.12,56.68,33.57s3.66-5.83,2.55-8.67c-.59-1.5-5.06-8-9.15-13.79,5,7.16,6.84,15.93-20.53-4.37C137.51,439.59,130.82,434,127.73,431.23Z" style="fill:#263238"></path><path d="M135.16,418.05,170,436.64s52-70.09,53-88.8C224.38,322,201,238.05,201,238.05l-33.81-.16s14.3,86.21,13.14,100.6C179.67,346,135.16,418.05,135.16,418.05Z" style="fill:#ad6359"></path><path d="M180.28,338.49c-.2,2.53-5.34,12.3-12.08,24.18l4.06,70.86c8.62-11.82,39.13-54.36,48.2-76.54L201,238l-33.81-.15S181.44,324.1,180.28,338.49Z" style="opacity:0.1"></path><path d="M175.39,416.23s-.86,40.13-.86,40.16c.12,7.68.37,14.41.82,17.88a.13.13,0,0,0,0,.06,5.3,5.3,0,0,0,.61,2.36.1.1,0,0,0,0,.05c2.31,1.51,63.72,2.3,65.87,1.61s.34-6.88-2-8.81-25.74-12.75-25.74-12.75l.48-40.11Z" style="fill:#ad6359"></path><path d="M174.68,463.38c.16,4.65.37,8.53.67,10.89a.13.13,0,0,0,0,.06,5.3,5.3,0,0,0,.61,2.36l.05.05c2.3,1.51,63.71,2.3,65.86,1.61s.34-6.87-2-8.81c-1.25-1-8.31-4.49-14.71-7.57,7.82,3.83,13.75,10.57-20.05,6.22C187.3,465.89,178.74,464.31,174.68,463.38Z" style="fill:#263238"></path><path d="M201,238.05v0c-.24.73-9.87,35-11.06,35.52-1.35.62,25.85,47.94,27.59,70.79,1.1,14.62-3.22,101.47-3.22,101.47H174.76s.89-74.36,1.87-97.92c.38-9.14-29.4-54.62-29.76-82.95-.12-8.92,6.3-27.1,6.3-27.1Z" style="fill:#ad6359"></path><path d="M201,238.05H153.17s-7.24,17.4-7.24,28.23c0,20.27,29.15,77.79,28.6,80.21s-17.45,29.41-17.45,30.07,18,13.55,26.39,16.6,35.7-.78,35.31-1.74,5.66-39.1,5.68-45.6S208.7,253.91,201,238.05Z" style="fill:#263238"></path><path d="M192.63,189.16c4.13-6.41,16-25.45,16.49-26.83s8.93-29.19,9.76-33.66c.58-3.16,22.52,6.52,21.85,9.24-1.55,6.38-7,24.24-10.85,31.64-3.12,6.06-25,23.94-32,28.43S185.84,199.69,192.63,189.16Z" style="fill:#ad6359"></path><path d="M244.89,126.72c-.18,4.77-4.36,14.39-6.26,16.33s-18.5-4.64-19.27-7.31,1.07-18.7,4.26-22.39S245.08,121.77,244.89,126.72Z" style="fill:#ad6359"></path><path d="M219.86,120c2.15,1.33,3.13-.5,3.13-.5s-1.8,4.56.35,6.36,4.26-1.64,4.42-1.88c-.09.24-1.64,4.48.7,6.06s4.06-2.11,4.16-2.35c0,.25-.17,3.65,1.88,4.44,3.53,1.37,4.17-7.3,6.57-9.21,0,0,3.69,3.7,3.82,3.79s.78-8.24-2-11.34a2.65,2.65,0,0,0-3.26-.6s.55-2.63-1.26-3.93c-.93-.67-2.82.23-2.82.23a3.31,3.31,0,0,0-1.33-3.18,3.19,3.19,0,0,0-3,.18s.89,0-1.68-1.31c-4.42-2.3-8.54,9.82-10.64,10.48C217.86,117.58,218.92,119.43,219.86,120Z" style="fill:#ad6359"></path><path d="M230.93,108.2a0,0,0,0,0-.05,0,23.56,23.56,0,0,0-8,11.49c0,.15.17.82.23.66A38.22,38.22,0,0,1,230.93,108.2Z" style="fill:#263238"></path><path d="M235.6,111s0-.1-.07-.07a22,22,0,0,0-8,13.09c0,.18.12.37.17.17C228.59,120.72,232.6,114.21,235.6,111Z" style="fill:#263238"></path><path d="M232.69,128.09c1-5,3.58-9.25,6.81-13.2,0,0,0-.1-.08-.07a19.86,19.86,0,0,0-5.13,6.47,13.63,13.63,0,0,0-1.78,6.76C232.51,128.15,232.67,128.2,232.69,128.09Z" style="fill:#263238"></path><path d="M222.91,119.53c0,.18.47,0,.43.14-.48,1.93-1.15,5.41.33,6.14,1.18.59,2.79-.59,3.23-1.29l1.11-1.75-.43,2a8.48,8.48,0,0,0-.15,2.75,3,3,0,0,0,1.13,2.21,1.73,1.73,0,0,0,2.18,0,5.15,5.15,0,0,0,1.49-2.17l.92-2.28-.12,2.44a8.11,8.11,0,0,0,.16,2,3.32,3.32,0,0,0,.83,1.71,1.59,1.59,0,0,0,1.61.36,3.5,3.5,0,0,0,1.4-1.34,27.14,27.14,0,0,0,1.89-3.82c.29-.66.58-1.32.9-2a5.24,5.24,0,0,1,1.25-1.76,5.77,5.77,0,0,0-1.07,1.84c-.27.67-.5,1.34-.74,2a23.12,23.12,0,0,1-1.73,4,4.09,4.09,0,0,1-1.62,1.66,2.23,2.23,0,0,1-2.4-.45,4,4,0,0,1-1.09-2.08,9,9,0,0,1-.21-2.26l.8.17a6.07,6.07,0,0,1-1.74,2.57,2.49,2.49,0,0,1-1.6.58,2.85,2.85,0,0,1-1.59-.55,3.8,3.8,0,0,1-1.43-2.8,9.28,9.28,0,0,1,.21-3l.68.28c-.59.87-2.25,2.39-4.2,1.71C220.93,125.34,222.55,120.41,222.91,119.53Z" style="fill:#263238"></path><path d="M219.36,135.74S213,124.16,214,119.81s10.36-7.62,14-8.27c5-.89,5.11,2.77,3.21,4.72a30.3,30.3,0,0,1-6.81,4.57s6.37,4.41,6.08,10S219.36,135.74,219.36,135.74Z" style="fill:#ad6359"></path><path d="M221.13,113.75a30.22,30.22,0,0,1,5.58-2.23c1.45-.39,3.18-.85,4.66-.1,4.86,3.38-3.82,8.73-6.87,9.83l.07-.8a11.62,11.62,0,0,1,2.26,1.85,12.17,12.17,0,0,1,3.59,7.64,14.27,14.27,0,0,0-.87-2.66,14,14,0,0,0-6.17-6.51,22.57,22.57,0,0,0,5.78-3.38c2.11-1.46,4.58-5,.55-5.59-2.9-.06-5.81,1.08-8.58,2Z" style="fill:#263238"></path><path d="M241.06,142.71l-25.18-9s-6.63,27.88-7.76,29.37-15.46,24-18.6,29.79-.6,11.66,11,3.77,24.25-19.89,28.44-24.31C232.38,168.75,241.06,142.71,241.06,142.71Z" style="fill:#455a64"></path><path d="M241.05,142.71s-8.68,26-12.05,29.61a217.2,217.2,0,0,1-18.5,16.85c-3.25,2.64-6.63,5.22-9.94,7.46-11.64,7.89-14.18,2.07-11-3.77.37-.68.88-1.59,1.51-2.66,4.78-8.13,16.08-25.82,17.09-27.13,1.13-1.49,7.76-29.36,7.76-29.36Z" style="fill:#455a64"></path><path d="M237.09,148.27c-.92-.23-8.84-3.34-10.55-4.05s-8.71-3.57-10.41-4.45a.07.07,0,0,1,0-.13c1.83.55,8.9,3.4,10.66,4.09s9.52,4,10.32,4.42C237.22,148.19,237.16,148.28,237.09,148.27Z" style="fill:#263238"></path><path d="M210.5,189.17c-3.25,2.64-6.63,5.22-9.94,7.46-11.64,7.89-14.18,2.07-11-3.77.37-.68.88-1.59,1.51-2.66Z" style="opacity:0.1"></path><path d="M190.76,149.69s-3-3.69-6.6-3.13-3.95,2.92-6.14,3.44-6.94.15-9.14,2.52-1,6.81-2,8.22-4.55,1.86-5.16,5.27c-.69,4,1.88,6.12,1.9,8.14,0,3.36-2.11,6.22,0,10,2.27,4.08,5.94,3.74,8.43,5s3.17,5.57,8.38,5.51,6.35-3.43,9.31-4.82,7.47.35,10.57-2.07,1.86-5.51,2.65-7.23,3.4-2,4.22-4.95-1.94-5.44-2.22-6.57c-.48-1.93.79-3.09.13-5.85s-4.18-4.47-4.91-5.28c-1.74-1.93-.43-6.32-3.17-8A5.66,5.66,0,0,0,190.76,149.69Z" style="fill:#263238"></path><path d="M167.68,155c-.08,2.06,0,4.54-1.88,5.84-2.82,1.57-5.59,4.19-4.65,7.68.34,2,2.14,3.57,2.36,5.73-.22,2-1.17,4-1,6.1a7,7,0,0,0,1.11,3.83c-1.95-2.12-1.84-5.34-1.25-8,.07-.34.24-1.17.3-1.5a3.27,3.27,0,0,0-.65-2.12c-2.79-3.92-2.83-8.62,1.68-11.25,1.14-.72,2.46-1.14,3.09-2.39a17.06,17.06,0,0,0,.94-3.94Z" style="fill:#263238"></path><path d="M197.57,188.91c3.59-1,5.38-2.14,5.41-6a4.68,4.68,0,0,1,.59-2.51c.87-1,2.08-1.68,2.8-2.68a4.41,4.41,0,0,0,.92-2.65c.24-2-1.11-3.75-2.14-5.53a23.8,23.8,0,0,1,2,2.45,5.65,5.65,0,0,1,0,6.29c-.82,1.22-2.1,1.86-2.92,2.94-.73,5-.85,7.09-6.64,7.7Z" style="fill:#263238"></path><path d="M202.65,238.48l-47.63-1S166.11,199.39,177.5,189c5.18-4.75,9.8-3.61,13.51,0,.93.9,12,17.41,12.63,22.92.55,4.87-3.75,9.89-3.75,9.89Z" style="fill:#ebebeb"></path><polygon points="188.56 198.7 189.94 194.16 193.43 196.79 193.8 200.47 190.63 201.01 188.56 198.7" style="fill:#263238"></polygon><polygon points="190.63 201.01 191.48 227.17 199.98 236.95 200.13 224.4 193.8 200.47 190.63 201.01" style="fill:#263238"></polygon><path d="M190.91,188.75s6.59,13.86,6.72,17.71c.15,4.13-.09,16.29-.09,16.29s-9.43-14.13-11-18.94c-2.46-7.45-2.69-18-2.69-18s-3.51-1-9.88,6.79c-5.65,7-16,30.95-20.29,45.82L198,244.59l2.29-6.34,1.93,4.66,2.24-3.57-4.59-17.6s5.11-4.31,3.74-11C202.14,203.43,190.91,188.75,190.91,188.75Z" style="fill:#455a64"></path><path d="M197.54,222.75l4-15.09-3.27-4.61,3.17-.37s-9.73-12.85-10.5-13.93c.16.55,6.68,14.12,6.72,17.71S197.68,222,197.54,222.75Z" style="fill:#37474f"></path><path d="M185.11,203.13l-2,5.36,14.39,14.28c-.21-.45-9.45-14.23-11-19-2.46-7.45-2.69-18-2.69-18l-2.27,16Z" style="fill:#37474f"></path><path d="M197.54,222.75a80,80,0,0,1,2.77,15.5,81.52,81.52,0,0,1-2.77-15.5Z" style="fill:#263238"></path><path d="M194.74,228.26a.76.76,0,1,0,1.52-.16.76.76,0,1,0-1.52.16Zm0,0A1.14,1.14,0,0,1,197,228a1.14,1.14,0,0,1-2.27.23Z" style="fill:#263238"></path><path d="M195.63,234.13a.76.76,0,1,0,1.52-.15.76.76,0,1,0-1.52.15Zm0,0a1.14,1.14,0,0,1,2.27-.22,1.14,1.14,0,0,1-2.27.22Z" style="fill:#263238"></path><polygon points="182.08 229.79 169.59 226.53 169.06 228.13 181.65 231.42 182.08 229.79" style="opacity:0.1"></polygon><g style="opacity:0.1"><path d="M198.6,221.35a25.61,25.61,0,0,0-4.7,1.81c-.75.4-1.49.84-2.21,1.3-.36.24-.73.45-1.1.66a4.06,4.06,0,0,1-1.2.51s0,.09,0,.08a6.14,6.14,0,0,0,1.2-.2,7.69,7.69,0,0,0,1.11-.47c.76-.39,1.51-.83,2.27-1.23a51.56,51.56,0,0,1,4.67-2.28C198.72,221.5,198.68,221.33,198.6,221.35Z"></path><path d="M199.91,222.55a6.52,6.52,0,0,0-2.07,0,4.4,4.4,0,0,0-1,.32l-.46.23c-.17.09-.33.24-.5.32,0,0,0,.09,0,.08a4.17,4.17,0,0,1,.51-.09l.5-.11c.33-.08.67-.14,1-.23a20.12,20.12,0,0,1,2-.42S199.94,222.55,199.91,222.55Z"></path></g><path d="M145.71,342.1l45-.9c12.16-.24,10-9.93,6.89-20.07S189.83,295.6,179,295.82l-11.68.23-11.68.23c-10.86.22-14.87,15.77-17.59,26S133.55,342.34,145.71,342.1Z" style="fill:#FF5600"></path><path d="M176.1,301.24a3.73,3.73,0,1,0,3.65-3.8A3.73,3.73,0,0,0,176.1,301.24Z" style="opacity:0.1"></path><path d="M151.24,301.74a3.73,3.73,0,1,0,3.65-3.8A3.72,3.72,0,0,0,151.24,301.74Z" style="opacity:0.1"></path><path d="M177.3,301.22a2.53,2.53,0,1,0,2.48-2.58A2.53,2.53,0,0,0,177.3,301.22Z" style="fill:#263238"></path><path d="M152.44,301.72a2.53,2.53,0,1,0,2.48-2.58A2.53,2.53,0,0,0,152.44,301.72Z" style="fill:#263238"></path><path d="M180.52,302.58a1.84,1.84,0,0,1-.33,0,1.51,1.51,0,0,1-1.46-1.57c.35-10.07-.15-37.35-6.68-42.55a3.11,3.11,0,0,0-2.94-.6,1.52,1.52,0,0,1-1.86-1.08,1.51,1.51,0,0,1,1.07-1.85,6.13,6.13,0,0,1,5.62,1.16c3.89,3.1,6.38,11.69,7.4,25.52.74,10.06.42,19.41.42,19.51A1.53,1.53,0,0,1,180.52,302.58Z" style="fill:#FF5600"></path><path d="M155.22,303a1.36,1.36,0,0,1-.29,0,1.52,1.52,0,0,1-1.5-1.54,162.48,162.48,0,0,1,1.94-21.45c2.47-15,6.83-23.47,12.95-25.11a1.52,1.52,0,0,1,1.86,1.07,1.53,1.53,0,0,1-1.07,1.86c-10,2.67-12.51,32.43-12.65,43.67A1.51,1.51,0,0,1,155.22,303Z" style="fill:#FF5600"></path><path d="M173,190.9c-19.31,11.5-34,23.73-34.24,30.61-.31,9.24,8.39,29,14.36,36.39,2.11,2.61,24.26-8.23,22.45-11.32-2.18-3.73-13.76-22.88-13.86-23.31-.21-.91,12.54-19.4,16.22-24.37C184.09,190.6,181.6,185.79,173,190.9Z" style="fill:#ad6359"></path><path d="M183.32,271.62a3.81,3.81,0,0,1-4.34.44,5.74,5.74,0,0,1-2.23,3.15c-2,1.24-4.81-1.32-4.81-1.32a7,7,0,0,1-2.88,2.95c-2,1-5.23-1.17-5.23-1.17a6.1,6.1,0,0,1-4.17,1c-3.89-.63-6.22-6.19-7.73-9.7S149.4,252.05,149,249.9L171.47,240s11.29,13.84,12.48,18.22C185,261.89,185.52,269.59,183.32,271.62Z" style="fill:#ad6359"></path><path d="M179.27,271.74c-.13-4.18-1.49-8.1-2.62-12.09,0-.09-.17,0-.14,0,1.17,3.95,1.55,8.09,2.56,12.08A.1.1,0,0,0,179.27,271.74Z" style="fill:#263238"></path><path d="M172.21,273.69a11.14,11.14,0,0,0-.73-2.76c-.33-1-.67-1.91-1-2.86-.72-1.89-1.47-3.77-2.29-5.63,0-.08-.17-.05-.13,0,.7,1.89,1.38,3.79,2,5.71.31,1,.62,1.93.92,2.89a13.28,13.28,0,0,0,1,2.69A.15.15,0,0,0,172.21,273.69Z" style="fill:#263238"></path><path d="M163.8,275.59a7.39,7.39,0,0,0-.78-2.45q-.53-1.29-1-2.58c-.67-1.72-1.33-3.44-1.94-5.19,0-.09-.17-.05-.13,0,.6,1.78,1.18,3.56,1.81,5.33.3.87.61,1.74.93,2.6a7.08,7.08,0,0,0,1.05,2.28A0,0,0,0,0,163.8,275.59Z" style="fill:#263238"></path><path d="M167.87,232.77l-25,10.73s-6.07-18.05-3.92-23.87,16.8-19.69,30.43-27.36,16.27-2.79,6.94,10.08-13.78,20.41-13.61,20.82S167.87,232.77,167.87,232.77Z" style="fill:#455a64"></path><path d="M163.84,228a.08.08,0,0,0-.06-.14,211.63,211.63,0,0,0-21.34,9c-.07,0,0,.17.07.14A213.78,213.78,0,0,0,163.84,228Z" style="fill:#263238"></path><path d="M167.87,232.77c-1.39-2.41-4.07-7.17-5.41-9.61,4.51-7.78,9.3-15.48,15.16-22.34a249.29,249.29,0,0,0-14.74,22.45v-.2c1.27,2.4,3.77,7.27,5,9.7Z" style="fill:#263238"></path><path d="M180.8,187.67c.23.92,4.77,6.82,9,6.53,1.37-.1,1.18-7.61,1.18-7.61l.12-.56,1.57-7.81-9.26-5.66-1.33-.75s-.29,2.16-.62,4.86c0,.13,0,.25-.05.39a3.32,3.32,0,0,0-.06.44c-.06.4-.11.81-.16,1.22s-.07.62-.1.95l-.09,1A50.3,50.3,0,0,0,180.8,187.67Z" style="fill:#ad6359"></path><path d="M181.44,176.67a16,16,0,0,0,9.64,9.36l1.57-7.81-9.26-5.66-1.33-.75S181.77,174,181.44,176.67Z" style="fill:#263238"></path><path d="M201.69,164.12c5.27,12.95-1.89,17.57-4.69,18.71-2.53,1-11.3,4.21-17.88-8.13s-2.23-18.88,3.45-21.54S196.42,151.17,201.69,164.12Z" style="fill:#ad6359"></path><path d="M199,162.07a7.71,7.71,0,0,1-1,.17,1.56,1.56,0,0,1-1,0,.51.51,0,0,1-.23-.57,1.26,1.26,0,0,1,1-.72,1.83,1.83,0,0,1,1.3.17A.53.53,0,0,1,199,162.07Z" style="fill:#263238"></path><path d="M191,166.42a7.33,7.33,0,0,0,.73-.63,1.55,1.55,0,0,0,.63-.78.52.52,0,0,0-.29-.54,1.25,1.25,0,0,0-1.21.34,1.77,1.77,0,0,0-.69,1.11A.53.53,0,0,0,191,166.42Z" style="fill:#263238"></path><path d="M193.46,167.72s-.05.07,0,.1c.37.89.63,2-.06,2.56,0,0,0,.06,0,0C194.32,169.91,194,168.5,193.46,167.72Z" style="fill:#263238"></path><path d="M192.31,167.09c-1.47.43-.5,3.35.86,2.95S193.55,166.73,192.31,167.09Z" style="fill:#263238"></path><path d="M191.79,167.43c-.2.25-.35.63-.65.76s-.71-.06-1-.28c0,0,0,0,0,.05.18.56.58,1.06,1.21.95s.8-.73.75-1.34C192,167.46,191.87,167.33,191.79,167.43Z" style="fill:#263238"></path><path d="M198.44,165.82s.08,0,.1.05c.3.9.81,1.88,1.73,1.88a0,0,0,0,1,0,.05C199.24,168,198.59,166.72,198.44,165.82Z" style="fill:#263238"></path><path d="M198.88,164.59c1.39-.65,2.59,2.18,1.3,2.78S197.71,165.13,198.88,164.59Z" style="fill:#263238"></path><path d="M199.55,164.52c.29.06.62.24.9.14s.42-.51.49-.89c0,0,0,0,.06,0,.24.54.3,1.18-.17,1.5s-1,0-1.34-.5C199.42,164.69,199.43,164.5,199.55,164.52Z" style="fill:#263238"></path><path d="M195.7,174.93c.27.17.55.43.89.39a2.6,2.6,0,0,0,1-.43s.06,0,0,0a1.29,1.29,0,0,1-1.08.74,1,1,0,0,1-.9-.68C195.59,174.94,195.66,174.9,195.7,174.93Z" style="fill:#263238"></path><path d="M198.69,170.6s.55,1.32.72,2c0,.07-.14.13-.35.2,0,0,0,0,0,0a3.18,3.18,0,0,1-3.3-.38c-.06-.05,0-.14.08-.11a4.83,4.83,0,0,0,3,.08c0-.19-1-2.25-.92-2.28a6.17,6.17,0,0,1,1.57-.05c-1.06-2.8-2.56-5.41-3.57-8.21a.09.09,0,0,1,.16-.09,49.06,49.06,0,0,1,4.22,8.69C200.45,170.78,199,170.64,198.69,170.6Z" style="fill:#263238"></path><path d="M179.76,175.38c2.26-.6,1.14-5.39,1.14-5.39s4.47-1.56,3.69-8.5a10.54,10.54,0,0,1-.11,6s7.58-3.61,8.58-11.36c0,0-.14,3.82-1,5.45a9.78,9.78,0,0,0,3.65-5.33s2.85,3.4,4.28,4.07c0,0-3-16.54-17.56-7.79,0,0-8.2,2.12-8.84,9.46S179.76,175.38,179.76,175.38Z" style="fill:#263238"></path><path d="M182.41,172.88s-4-3.47-5.69-1.92,2.15,7.1,4.62,7.36a2.36,2.36,0,0,0,2.75-2Z" style="fill:#ad6359"></path><path d="M177.85,172.53s0,.06,0,.06a6,6,0,0,1,3.93,2.85,1.32,1.32,0,0,0-2,.14s0,.1.07.08a1.44,1.44,0,0,1,1.68.09,7.59,7.59,0,0,1,1.06,1.06c.11.12.35,0,.25-.17l0,0C182.35,174.59,180.06,172.17,177.85,172.53Z" style="fill:#263238"></path><path d="M183.61,178.29a1.17,1.17,0,1,1-1.38-.92A1.18,1.18,0,0,1,183.61,178.29Z" style="fill:#FF5600"></path><path d="M191.13,186.15l-1.68,6.6-8.84-6.89-1.87,2.84s9.3,11.58,9.27,11l1.86-5.74,4.23,3.25-1.56-9.39Z" style="fill:#ebebeb"></path><path d="M193.59,192.53c-.31-1.54-.58-3.1-1-4.63,0-.05-.1-.07-.11,0-.11,1.54,1.11,7.43,1.29,8.86h0c-.17-.15-3.89-2.85-3.92-2.79-.44.93-1.81,5.11-1.9,5.49-1.47-1.84-7.06-8.5-8.73-10.2-.05,0-.13,0-.09.07,1.35,2,8.76,11,8.85,10.91a62,62,0,0,0,1.94-6.07,42,42,0,0,0,4.44,3.48A51.22,51.22,0,0,0,193.59,192.53Z" style="fill:#263238"></path></g><g id="freepik--character-1--inject-30"><path d="M169.07,478.61c-2.12.68-62.63-.09-64.92-1.58-.88-.55-1.28-9.38-1.46-20v-.34c0-2.2-.07-4.46-.07-6.76,0-.32,0-.63,0-.95l2.93-31.39,39.07.39L142,449l-.05,1.24-.24,6.43,0,.67s23,10.65,25.37,12.56S171.2,477.93,169.07,478.61Z" style="fill:#d3766a"></path><path d="M169.07,478.61c-2.12.68-62.63-.09-64.92-1.58-.88-.55-1.28-9.38-1.46-20v-.34c0-2.2-.07-4.46-.07-6.76,0-.32,0-.63,0-.95L142,449l-.05,1.24-.24,6.43,0,.67s23,10.65,25.37,12.56S171.2,477.93,169.07,478.61Z" style="fill:#ebebeb"></path><path d="M169.08,478.6c-1.09.36-17.53.32-33.6,0-3.24-.06-6.45-.13-9.51-.22-11.46-.31-20.93-.78-21.81-1.35s-1.27-9.13-1.45-19.61c0-.15,0-.3,0-.44s0-.24,0-.35h0l39,.07,0,.67s23,10.65,25.37,12.55S171.2,477.93,169.08,478.6Z" style="fill:#FF5600"></path><path d="M169.08,478.6c-1.09.36-17.53.32-33.6,0-3.24-.06-6.45-.13-9.51-.22-11.46-.31-20.93-.78-21.81-1.35s-1.27-9.13-1.45-19.61c0-.15,0-.3,0-.44s0-.24,0-.35h0l39,.07,0,.67s23,10.65,25.37,12.55S171.2,477.93,169.08,478.6Z" style="opacity:0.5"></path><path d="M168.42,476.25c-10.2-.38-51.37-.95-61.48-.55-.08,0-.08.06,0,.06,10.1.6,51.27.84,61.48.66C168.63,476.42,168.63,476.26,168.42,476.25Z" style="fill:#263238"></path><path d="M146.08,456.87c-4-.8-8.92-.25-12,2.57-.12.11,0,.28.16.24a56.74,56.74,0,0,1,11.84-2.3A.26.26,0,0,0,146.08,456.87Z" style="fill:#263238"></path><path d="M149,458.65c-4-.8-8.92-.24-12,2.58-.12.11,0,.28.17.24a56,56,0,0,1,11.84-2.31A.26.26,0,0,0,149,458.65Z" style="fill:#263238"></path><path d="M151.83,460.44c-4-.8-8.92-.25-12,2.57-.12.11,0,.28.17.24a56.54,56.54,0,0,1,11.83-2.31A.25.25,0,0,0,151.83,460.44Z" style="fill:#263238"></path><path d="M135.48,478.6c-3.24-.06-6.45-.13-9.51-.22-11.46-.31-20.93-.78-21.81-1.35s-1.27-9.13-1.45-19.61c0-.15,0-.3,0-.44s0-.24,0-.35h0C108.08,460.38,126.91,472.91,135.48,478.6Z" style="opacity:0.1"></path><path d="M144.07,456.73H100.49s8.75-103,8.41-104.78c-.44-2.28-3-12.58-6.44-26L99,312.51c-3.25-12.67-6.84-26.5-10-38.55-4.69-18-8.35-27.34-8.35-27.34h36.94s30.36,86.93,31.57,104.9C150.28,367.18,144.07,456.73,144.07,456.73Z" style="fill:#FF5600"></path><path d="M144.07,456.73H100.49s8.75-103,8.41-104.78c-.44-2.28-3-12.58-6.44-26L99,312.51c-3.25-12.67-6.84-26.5-10-38.55-4.69-18-8.35-27.34-8.35-27.34h36.94s30.36,86.93,31.57,104.9C150.28,367.18,144.07,456.73,144.07,456.73Z" style="opacity:0.7000000000000001"></path><path d="M142.14,449.29c-6.66-.13-4.75-.19-11.4-.25-3.26,0-24.67-.21-27.71.29a.07.07,0,0,0,0,.14c3,.5,24.45.31,27.71.28,6.65-.07,4.74-.12,11.4-.26C142.26,449.49,142.26,449.3,142.14,449.29Z" style="fill:#263238"></path><path d="M117.1,345.74c-1.44-6.3-3.57-12.48-5.43-18.66q-5.67-18.84-11.41-37.67c-1.91-6.28-10.77-29.76-11.65-32.88-.35-1.27-.55-.57-.09,1,.92,3.25,16.06,49.8,19.89,62.56q2.88,9.58,5.77,19.17a78.35,78.35,0,0,1,2.36,9.28,42.86,42.86,0,0,1,.39,9.93c-.42,6.66-1.19,13.32-1.8,20s-1.23,13.33-1.85,20c-1.23,13.26-2.45,27.74-3.64,41-.15,1.68-.3,3.36-.43,5.05,0,.56.81.52.87,0,1.43-13.11,2.53-27.48,3.76-40.62l3.66-39.23c.31-3.28.66-6.57.66-9.87A41.23,41.23,0,0,0,117.1,345.74Z" style="fill:#263238"></path><path d="M113.45,246.62c-2.56,19.84-7.44,52.31-11,79.3-8.34-32.69-21.75-79.3-21.75-79.3Z" style="fill:#263238"></path><path d="M124,477.89c-2.12.69-62.64.14-64.92-1.34-.88-.55-1.32-9.38-1.54-20.05v-.34c0-2.2-.09-4.46-.1-6.76,0-.31,0-.63,0-.95-.15-15.4,1-31.39,1-31.39l39.56.25-1.1,31.1,0,1.23-.22,6.44,0,.66s23.07,10.58,25.41,12.48S126.12,477.2,124,477.89Z" style="fill:#d3766a"></path><path d="M124,477.89c-2.12.69-62.64.14-64.92-1.34-.88-.55-1.32-9.38-1.54-20.05v-.34c0-2.2-.09-4.46-.1-6.76,0-.31,0-.63,0-.95l39.42,0,0,1.23-.22,6.44,0,.66s23.07,10.58,25.41,12.48S126.12,477.2,124,477.89Z" style="fill:#ebebeb"></path><path d="M124,477.89c-2.12.69-62.64.14-64.92-1.34-.88-.55-1.32-9.38-1.54-20.05v-.34l39.05-.08,0,.66s23.07,10.58,25.41,12.48S126.12,477.2,124,477.89Z" style="fill:#FF5600"></path><path d="M124,477.89c-2.12.69-62.64.14-64.92-1.34-.88-.55-1.32-9.38-1.54-20.05v-.34l39.05-.08,0,.66s23.07,10.58,25.41,12.48S126.12,477.2,124,477.89Z" style="opacity:0.5"></path><path d="M123.34,475.54c-10.2-.35-51.37-.77-61.48-.33-.08,0-.08.06,0,.06,10.1.56,51.28.65,61.48.43C123.55,475.7,123.55,475.54,123.34,475.54Z" style="fill:#263238"></path><path d="M100.93,456.23c-4-.78-8.92-.21-12,2.62-.12.11,0,.28.16.24a56.74,56.74,0,0,1,11.83-2.35A.26.26,0,0,0,100.93,456.23Z" style="fill:#263238"></path><path d="M103.81,458c-4-.79-8.92-.22-12,2.61-.12.11,0,.28.17.24a56.52,56.52,0,0,1,11.82-2.35A.25.25,0,0,0,103.81,458Z" style="fill:#263238"></path><path d="M106.7,459.78c-4-.79-8.93-.22-12,2.62-.12.11,0,.27.17.24a56,56,0,0,1,11.83-2.35A.26.26,0,0,0,106.7,459.78Z" style="fill:#263238"></path><path d="M117.4,246.62a143.14,143.14,0,0,1-4.89,26.95c-.33,1.16-.68,2.29-1.06,3.39,0,0-3.27,1.53-9.7,5.47,0,0-.42,14.22-.84,30.08-.47,17.73-1,37.5-.86,41.69.38,15.69-1.94,102-1.94,102l-43.57.19s7.86-96.35,7.8-102.1c-.09-9.24,1.89-46.33,3.58-76.11,0,0-2.05-6.83-1.91-9.06a89.21,89.21,0,0,1,4-22.46Z" style="fill:#FF5600"></path><path d="M117.4,246.62a143.14,143.14,0,0,1-4.89,26.95c-.33,1.16-.68,2.29-1.06,3.39,0,0-3.27,1.53-9.7,5.47,0,0-.42,14.22-.84,30.08-.47,17.73-1,37.5-.86,41.69.38,15.69-1.94,102-1.94,102l-43.57.19s7.86-96.35,7.8-102.1c-.09-9.24,1.89-46.33,3.58-76.11,0,0-2.05-6.83-1.91-9.06a89.21,89.21,0,0,1,4-22.46Z" style="opacity:0.7000000000000001"></path><path d="M96.62,448.42c-6.66-.11-4.74-.17-11.4-.2-3.26,0-24.67-.11-27.71.41a.07.07,0,0,0,0,.13c3.05.49,24.45.21,27.71.16,6.66-.09,4.75-.14,11.4-.3A.1.1,0,0,0,96.62,448.42Z" style="fill:#263238"></path><path d="M71.67,252.94c-.8,24.31-1.64,43.91-2.72,68.21s-2.55,48.76-4.59,73.08c-1.13,13.59-2.2,32.7-3.67,46.26,0,.09.13.13.14,0,3.17-24.11,4.93-53.93,6.49-78.2s2.6-48.57,3.43-72.87c.46-13.75.82-22.78,1.22-36.53C72,252.73,71.68,252.75,71.67,252.94Z" style="fill:#263238"></path><path d="M73.35,268.74c1.07-.28,2.22-.37,3.31-.54.88-.14,1.76-.29,2.64-.49a11.29,11.29,0,0,0,4.65-2c2.17-1.7,4.67-10.3,5-10.85.52-.94.68-.11.68,0a50.64,50.64,0,0,1-3.17,9.94c-1.62,2.58-4.51,3.61-7.4,4-.83.1-1.66.16-2.49.21a17.56,17.56,0,0,1-3.16,0A.14.14,0,0,1,73.35,268.74Z" style="fill:#263238"></path><path d="M111.31,277.16A78.17,78.17,0,0,0,99,282.88a.14.14,0,0,0,.11.25c4.14-1.77,8.35-3.47,12.38-5.47A.27.27,0,0,0,111.31,277.16Z" style="fill:#263238"></path><path d="M112.56,248.85c0-.15-.27-.18-.27,0a137.14,137.14,0,0,1-.69,13.81c-.19,2.13-1.9,13.9-5.6,13-.62-.14-.93-.75-1-1.68a15.38,15.38,0,0,1,.49-3.61c.41-2.47.74-4.94,1-7.43a66.77,66.77,0,0,0-.15-13.92.12.12,0,0,0-.24,0,127.32,127.32,0,0,1-1.12,19.22c-.46,3.06-2,7.67,1.2,8.14s5.37-7.24,5.77-9.35A70.73,70.73,0,0,0,112.56,248.85Z" style="fill:#263238"></path><path d="M106.1,276a20.61,20.61,0,0,0-.83,2.44,5.3,5.3,0,0,0-.34,2c0,.13.18.14.25.06a7,7,0,0,0,.86-2c.28-.75.58-1.5.84-2.26A.41.41,0,0,0,106.1,276Z" style="fill:#263238"></path><path d="M62.56,261.27c.15.15,61.16-4.32,61.67-5,.71-.94-20.35-63.21-27.24-70.9-1.47-1.64-5.92-1.79-9.64-1a17.49,17.49,0,0,0-2.85.81.19.19,0,0,1-.09,0,7,7,0,0,0-2,1.2c-9.81,9.14-14.13,36.21-15.52,45.12C64.54,246.19,62,260.73,62.56,261.27Z" style="fill:#ebebeb"></path><path d="M87.35,184.34s13.13,22.36,14.53,29.33,3.34,49.22,3.34,49.22l-47.15,3.56s6.39-25.23,6.37-26.8c0,0,4.57-29,10.3-41.71C81.27,183.51,87.35,184.34,87.35,184.34Z" style="fill:#263238"></path><path d="M97.37,185s9.75,23.4,10.36,25.64,13,50.66,13,50.66l5.41-3.69-6.55-20.06S102.38,190.52,97.37,185Z" style="fill:#263238"></path><path d="M88,191.72c14.18,8.85,37.23,30.71,37.77,36.6.39,4.26.31,8.45-1.41,10.61-3.5,4.4-10.77,3.8-13.31,2.17-11.1-7.12-23-22.66-30.61-38.81C73.75,188.13,83.37,188.83,88,191.72Z" style="fill:#263238"></path><path d="M119.42,218.84c-6.89-6.65-15-14-22.13-20.49a102.11,102.11,0,0,1,22.13,20.49Z" style="fill:#37474f"></path><path d="M82.66,206.78a113.75,113.75,0,0,0,16.51,23.09q2.4,2.63,5,5.09c3.31,3.16,7,6.55,11.81,6.7a15.81,15.81,0,0,0,6.83-1.28,12.46,12.46,0,0,1-6.85,2.13c-5.08.1-9-3.66-12.39-6.92q-2.58-2.51-4.93-5.2a103.77,103.77,0,0,1-15.93-23.61Z" style="fill:#37474f"></path><path d="M85.25,211.6a6.73,6.73,0,0,1-2.93-3.24,16.13,16.13,0,0,1,2.93,3.24Z" style="fill:#37474f"></path><path d="M93.58,195.56c-3.16-2-9.8-6.87-13.42-4.48-3.1,3,.35,10.56,1.64,14-2.09-3.61-6-11.28-2.26-14.81,4.3-2.9,10.9,2.45,14,5.26Z" style="fill:#37474f"></path><path d="M116.15,210.6c-7.66-3.57-10.32-2.88-12.57-2-4.71,1.77-11.79,6.6-10.13,9.9,1.5,3,11.49-5.23,11.49-5.23s-11.57,6.7-9.1,10,13.53-6.94,13.53-6.94-11.74,7.16-8.66,10.12c2.33,2.25,12.86-6.43,12.86-6.43s-10,6.22-7.74,8.63c2.53,2.66,12.76-4.74,12.76-4.74a13.43,13.43,0,0,0,4.64.61C124.11,224.16,121.29,213,116.15,210.6Z" style="fill:#eb9481"></path><path d="M108.79,210.67c-1.38.73-2.79,1.47-4.11,2.33s-2.61,1.76-3.84,2.74A27.29,27.29,0,0,0,96.41,220a58,58,0,0,1,8.52-6.65c1.31-.85,2.58-1.78,3.9-2.64C108.86,210.69,108.83,210.65,108.79,210.67Z" style="fill:#263238"></path><path d="M112,215.37c-1.73,1-3.48,2-5.17,3.06s-3.18,2.27-4.77,3.47c-.13.1,0,.13.09,0,1.65-1.14,3.25-2.07,4.91-3.19s3.28-2.3,5-3.36C112,215.39,112,215.35,112,215.37Z" style="fill:#263238"></path><path d="M115.44,218.91a44.74,44.74,0,0,0-7.55,5.29c-.12.09,0,.13.13,0,2.48-1.81,4.41-3.24,7.47-5.24C115.54,219,115.5,218.88,115.44,218.91Z" style="fill:#263238"></path><path d="M97.57,192.94c-2.84.76-9.91-3.19-12.08-7.21-.14-.28.57-9.74.59-11.94,0-.45,13.78,3.47,13.78,3.47a34.69,34.69,0,0,0-1.4,8.44,5.31,5.31,0,0,0,.08.91.61.61,0,0,1,0,.15C98.83,188.48,100.6,192.12,97.57,192.94Z" style="fill:#eb9481"></path><path d="M98.55,186.61s0,.09,0,.15a10.47,10.47,0,0,1-1.41.06c-8.13-.25-10.19-10.44-10.58-13,2.45.37,13.29,3.46,13.29,3.46a35.14,35.14,0,0,0-1.41,8.45A5.06,5.06,0,0,0,98.55,186.61Z" style="fill:#263238"></path><path d="M80.76,158.21c-.74,5.07,4,18.66,7.89,21.24,5.68,3.76,13.92,2.93,16.84-3.65,2.83-6.39-3.62-24-7.9-26.23C91.29,146.27,81.84,150.73,80.76,158.21Z" style="fill:#eb9481"></path><path d="M105.49,175.8c-2.92,6.58-11.15,7.41-16.84,3.65-1.59-1-3.31-3.91-4.74-7.27l2.14-6s2.32,3.81,4.34,4.74c3.62,1.65,8.74.18,9.82-2.9l1.59-.27s2.92,1.58,3.8-1.36C106.34,170.13,106.46,173.62,105.49,175.8Z" style="fill:#263238;opacity:0.30000000000000004"></path><path d="M83.42,170.18c2.15,0,2.82-2,3-3.36s-2.25-8.88-1.77-11,2.29-3.72,4.06-3.66,5.27,1.18,6.46.75,0-2.66.83-2.89c1.87-.49,5,3.59,5.91,5.54,0,0-2-9.06-12-7.1-8.86,1.76-9.54,8.11-9.61,10.94C80.2,164.8,83.42,170.18,83.42,170.18Z" style="fill:#263238"></path><path d="M86.25,168.71s-3.94-4-5.79-2.47,1.66,7.6,4.22,8.07a2.48,2.48,0,0,0,3-1.88Z" style="fill:#eb9481"></path><path d="M81.51,168s0,.05,0,.06a6.27,6.27,0,0,1,3.86,3.31,1.36,1.36,0,0,0-2.08,0s0,.1.06.08a1.53,1.53,0,0,1,1.75.24,7.88,7.88,0,0,1,1,1.2c.1.13.36,0,.27-.16l0,0C86,170.49,83.85,167.78,81.51,168Z" style="fill:#263238"></path><path d="M95.37,164.14s-.06.07-.05.1c.35.91.58,2-.14,2.59,0,0,0,.07,0,0C96.17,166.39,95.84,164.94,95.37,164.14Z" style="fill:#263238"></path><path d="M94.22,163.46c-1.51.39-.62,3.39.78,3S95.49,163.13,94.22,163.46Z" style="fill:#263238"></path><path d="M100.79,162.69s.08,0,.09.06c.25.94.69,2,1.62,2,0,0,0,.05,0,.05C101.44,165,100.87,163.62,100.79,162.69Z" style="fill:#263238"></path><path d="M101.33,161.47c1.45-.55,2.46,2.41,1.11,2.92S100.1,161.94,101.33,161.47Z" style="fill:#263238"></path><path d="M93.05,163.24c.42-.12.79-.31,1.2-.47a2.06,2.06,0,0,0,1.13-.71.66.66,0,0,0-.14-.79,1.62,1.62,0,0,0-1.65-.12,2.45,2.45,0,0,0-1.36,1.09A.71.71,0,0,0,93.05,163.24Z" style="fill:#263238"></path><path d="M101.72,159.11a10.87,10.87,0,0,1-1.28,0,2.14,2.14,0,0,1-1.32-.2.68.68,0,0,1-.19-.79,1.65,1.65,0,0,1,1.48-.76,2.42,2.42,0,0,1,1.67.46A.7.7,0,0,1,101.72,159.11Z" style="fill:#263238"></path><path d="M96.92,173c.29.15.6.39.94.31a2.28,2.28,0,0,0,.93-.53,0,0,0,0,1,.06,0,1.3,1.3,0,0,1-1,.85,1,1,0,0,1-1-.6C96.81,173,96.88,173,96.92,173Z" style="fill:#263238"></path><path d="M97.26,169.9a3.28,3.28,0,0,0,2.53.77,3.87,3.87,0,0,0,1.15-.28l.21-.09.19-.09a.25.25,0,0,0,.13-.27h0l0-.1h0l0-.08c-.19-.73-.59-1.79-.59-1.79.3.05,1.81.25,1.68-.11a49,49,0,0,0-4.07-9.2.09.09,0,0,0-.17.07c1,3,2.41,5.73,3.41,8.69a6.37,6.37,0,0,0-1.63,0c-.09.06.8,2.05.86,2.38v0a4.56,4.56,0,0,1-3.57,0C97.23,169.75,97.18,169.84,97.26,169.9Z" style="fill:#263238"></path><path d="M100.44,170.45a3.84,3.84,0,0,1-1.23,1.49,1.69,1.69,0,0,1-1,.29c-.77,0-.94-.7-.94-1.31a4,4,0,0,1,.13-.95A5,5,0,0,0,100.44,170.45Z" style="fill:#263238"></path><path d="M99.21,171.94a1.69,1.69,0,0,1-1,.29c-.77,0-.94-.7-.94-1.31A1.79,1.79,0,0,1,99.21,171.94Z" style="fill:#f291b8"></path><polygon points="98.59 186.07 97.92 192.03 85.54 182.01 84.97 185.39 97.35 197.17 98.19 192.7 101.22 195.06 100.21 188.52 98.59 186.07" style="fill:#ebebeb"></polygon><path d="M85,185.39c4.27,3.78,8.42,7.67,12.54,11.6l-.4.14.86-4.47.07-.35.28.22,3,2.41-.27.15c-.31-2.19-.57-4.38-.84-6.57.42,2.3.86,4.61,1.23,6.93l-.33-.25-3.06-2.33.35-.13-.81,4.48-.08.44-.33-.31c-4.13-3.93-8.22-7.89-12.21-12Z" style="fill:#263238"></path><path d="M85.05,185.77,84.71,182s6.43,4.91,7,5.82,2.58,11,2.58,11S86.66,189.91,85.05,185.77Z" style="fill:#263238"></path></g><g id="freepik--speech-bubble-2--inject-30"><path d="M592.44,117.61A27.82,27.82,0,0,1,548,140l-13.64,3.48,5.68-12.69a27.83,27.83,0,1,1,52.37-13.13Z" style="fill:#fff"></path><path d="M592.44,117.61c-.15,23.49-26.88,35.9-44.32,22.69l-13.62,3.56-.88.23.37-.83,5.64-12.72,0,.43c-6.4-11.38-3.3-26.75,6.8-34.93,18.29-15.08,45.92-2.12,46,21.57Zm0,0c.1-17.79-17.32-31.39-34.53-26.71-17.17,4.29-25.89,24.35-17.3,39.82l-.1.21-5.71,12.68-.51-.6,13.65-3.4c18.59,13.46,44.08,1.19,44.5-22Z" style="fill:#263238"></path><polygon points="561 135.41 548.52 122.78 552.72 118.64 560 126.02 575.14 102.28 580.11 105.45 561 135.41" style="fill:#FF5600"></polygon></g><g id="freepik--speech-bubble-1--inject-30"><path d="M161.64,119.38a27.82,27.82,0,0,1-44.41,22.35l-13.63,3.48,5.67-12.7a27.83,27.83,0,1,1,52.37-13.13Z" style="fill:#fff"></path><path d="M161.64,119.38c-.15,23.49-26.88,35.91-44.32,22.69l-13.62,3.57-.88.23.37-.84,5.64-12.71,0,.42c-6.4-11.38-3.3-26.75,6.8-34.92,18.29-15.08,45.92-2.13,46,21.56Zm0,0c.1-17.79-17.32-31.39-34.53-26.7C109.94,97,101.22,117,109.81,132.5l-.1.21L104,145.39l-.51-.61,13.65-3.4c18.6,13.47,44.08,1.2,44.5-22Z" style="fill:#263238"></path><polygon points="130.2 137.18 117.72 124.56 121.92 120.42 129.2 127.79 144.34 104.06 149.31 107.23 130.2 137.18" style="fill:#FF5600"></polygon></g><g id="freepik--Desk--inject-30"><rect x="466.6" y="317.29" width="131.57" height="4.07" transform="translate(1064.77 638.66) rotate(180)" style="fill:#455a64"></rect><rect x="470.05" y="413.4" width="124.68" height="4.07" transform="translate(1064.77 830.86) rotate(180)" style="fill:#455a64"></rect><rect x="473.95" y="321.37" width="116.86" height="8.49" transform="translate(1064.77 651.22) rotate(180)" style="fill:#37474f"></rect><polygon points="603 478.19 606 478.19 584.87 329.86 576.56 329.86 603 478.19" style="fill:#455a64"></polygon><polygon points="461.77 478.19 458.77 478.19 479.9 329.86 488.21 329.86 461.77 478.19" style="fill:#455a64"></polygon><polygon points="488.97 317.3 528.32 317.3 528.32 314.77 494.58 313.03 506.06 271.84 510.89 271.84 510.89 267.58 502.82 267.58 488.97 317.3" style="fill:#dbdbdb"></polygon><polygon points="506.67 267.58 508.19 271.85 510.88 271.85 510.88 267.58 506.67 267.58" style="fill:#c7c7c7"></polygon><rect x="516.57" y="223.67" width="4.4" height="83.53" transform="translate(1076.57 434.03) rotate(169.72)" style="fill:#c7c7c7"></rect><polygon points="504.63 245.26 512.61 289.25 524.06 306.92 509.15 224.73 504.63 245.26" style="fill:#dbdbdb"></polygon><polygon points="536.44 317.3 536.44 312.82 575.8 314.77 575.8 317.3 536.44 317.3" style="fill:#dbdbdb"></polygon></g></svg>
