<svg width="500" height="500" viewBox="0 0 500 500" fill="none" xmlns="http://www.w3.org/2000/svg">
<path d="M164 370.78C164.273 368.096 164.052 365.385 163.35 362.78C162.5 360.25 160.55 357.91 157.93 357.37C154.93 356.75 151.87 358.64 150.2 361.19C148.53 363.74 147.94 366.84 147.45 369.85C144.039 390.632 142.782 411.71 143.7 432.75L155.93 434.47C161.28 412.55 163 393.36 164 370.78Z" fill="#F5F5F5"/>
<path d="M156.2 357.31L156.14 357.51C156.14 357.66 156.02 357.84 155.94 358.06C155.74 358.58 155.47 359.29 155.12 360.18C154.95 360.64 154.73 361.18 154.54 361.71L153.95 363.56C153.74 364.23 153.51 364.93 153.26 365.69L152.63 368.11C151.61 372.097 150.822 376.141 150.27 380.22C149.61 384.82 149.17 389.92 148.83 395.22C148.21 405.94 148.11 415.68 147.83 422.71C147.7 426.23 147.58 429.08 147.45 431.04C147.38 432.04 147.33 432.75 147.29 433.31C147.29 433.54 147.29 433.73 147.29 433.89C147.29 434.05 147.29 434.09 147.29 434.09C147.279 434.024 147.279 433.956 147.29 433.89C147.29 433.73 147.29 433.54 147.29 433.3C147.29 432.75 147.29 431.99 147.36 431.04C147.44 429.04 147.51 426.22 147.6 422.7C147.8 415.7 147.85 405.94 148.48 395.2C148.82 389.83 149.26 384.73 149.95 380.11C150.501 376.029 151.296 371.985 152.33 368C152.57 367.15 152.79 366.34 153 365.58C153.21 364.82 153.49 364.12 153.72 363.45C153.95 362.78 154.15 362.17 154.35 361.6C154.55 361.03 154.78 360.54 154.97 360.08L155.86 358C155.96 357.78 156.04 357.61 156.1 357.46C156.127 357.406 156.161 357.356 156.2 357.31Z" fill="#E0E0E0"/>
<path d="M157.33 357.32C157.968 358.073 158.475 358.929 158.83 359.85C159.766 362.379 160.145 365.081 159.94 367.77C159.62 374.53 159.01 383.84 158.21 394.13C157.41 404.42 156.5 413.72 155.78 420.44C155.42 423.8 155.1 426.52 154.87 428.44C154.76 429.34 154.66 430.06 154.6 430.59C154.6 430.82 154.54 431 154.51 431.15C154.48 431.3 154.51 431.35 154.51 431.34C154.51 431.33 154.51 431.28 154.51 431.15V430.59C154.56 430.05 154.62 429.33 154.7 428.42C154.89 426.5 155.15 423.78 155.47 420.42C156.11 413.69 156.96 404.42 157.77 394.11C158.58 383.8 159.23 374.51 159.63 367.77C159.848 365.112 159.507 362.438 158.63 359.92C158.274 359.016 157.839 358.146 157.33 357.32Z" fill="#E0E0E0"/>
<path d="M165.81 389C164.228 388.742 162.706 388.196 161.32 387.39C162.902 387.648 164.424 388.194 165.81 389Z" fill="#E0E0E0"/>
<path d="M167.29 376.52C166.629 377.051 165.882 377.464 165.08 377.74C164.34 378.151 163.535 378.431 162.7 378.57C164.101 377.628 165.653 376.934 167.29 376.52Z" fill="#E0E0E0"/>
<path d="M166.52 366.34C165.314 366.545 164.076 366.459 162.91 366.09C164.116 365.885 165.354 365.971 166.52 366.34Z" fill="#E0E0E0"/>
<path d="M153.9 359.82C153.79 359.88 153.26 359.22 152.7 358.33C152.298 357.822 152.014 357.231 151.87 356.6C151.98 356.54 152.51 357.21 153.07 358.1C153.473 358.603 153.756 359.191 153.9 359.82Z" fill="#E0E0E0"/>
<path d="M149.72 366C149.167 366.2 148.573 366.261 147.99 366.18C147.402 366.237 146.808 366.151 146.26 365.93C146.817 365.73 147.414 365.668 148 365.75C149 365.74 149.73 365.85 149.72 366Z" fill="#E0E0E0"/>
<path d="M146.73 378.29C146.09 378.256 145.465 378.082 144.9 377.78C143.9 377.4 143.19 376.99 143.24 376.88C143.877 376.907 144.499 377.078 145.06 377.38C146 377.77 146.77 378.17 146.73 378.29Z" fill="#E0E0E0"/>
<path d="M146.41 388.64C146.41 388.76 145.74 389.01 144.85 389.19C143.96 389.37 143.23 389.43 143.21 389.31C143.19 389.19 143.88 388.95 144.76 388.76C145.64 388.57 146.38 388.52 146.41 388.64Z" fill="#E0E0E0"/>
<path d="M145 405.58C145 405.7 144.28 405.93 143.35 406.1C142.42 406.27 141.64 406.31 141.62 406.19C141.6 406.07 142.34 405.84 143.27 405.67C143.83 405.497 144.425 405.466 145 405.58Z" fill="#E0E0E0"/>
<path d="M144.06 414.93C144.12 415.04 143.5 415.47 142.69 415.93C141.88 416.39 141.16 416.62 141.1 416.52C141.04 416.42 141.66 415.97 142.48 415.52C143.3 415.07 144 414.82 144.06 414.93Z" fill="#E0E0E0"/>
<path d="M151.7 425.54C151.59 425.6 151.06 424.86 150.5 423.89C150.095 423.329 149.815 422.688 149.68 422.01C149.78 421.95 150.32 422.69 150.88 423.67C151.281 424.229 151.56 424.866 151.7 425.54Z" fill="#E0E0E0"/>
<path d="M153.9 407.91C153.99 407.99 153.39 408.72 152.56 409.52C151.73 410.32 151 410.92 150.92 410.83C150.84 410.74 151.43 410.02 152.26 409.21C153.09 408.4 153.82 407.82 153.9 407.91Z" fill="#E0E0E0"/>
<path d="M153.41 398.65C153.33 398.74 152.77 398.28 152.17 397.65C151.57 397.02 151.17 396.41 151.25 396.33C151.33 396.25 151.9 396.7 152.49 397.33C153.08 397.96 153.5 398.57 153.41 398.65Z" fill="#E0E0E0"/>
<path d="M154.93 386.83C155.02 386.91 154.52 387.61 153.81 388.4C153.1 389.19 152.46 389.76 152.37 389.68C152.28 389.6 152.78 388.9 153.49 388.11C154.2 387.32 154.84 386.75 154.93 386.83Z" fill="#E0E0E0"/>
<path d="M155.78 378.25C155.7 378.33 155 377.79 154.23 377.03C153.46 376.27 152.89 375.58 152.98 375.49C153.07 375.4 153.76 375.95 154.53 376.71C155.3 377.47 155.87 378.16 155.78 378.25Z" fill="#E0E0E0"/>
<path d="M157.46 366.65C157.329 367.28 157.063 367.873 156.68 368.39C156.14 369.28 155.62 369.96 155.52 369.9C155.42 369.84 155.76 369.06 156.3 368.16C156.84 367.26 157.35 366.59 157.46 366.65Z" fill="#E0E0E0"/>
<path d="M160.61 355.9C160.509 356.523 160.274 357.117 159.92 357.64C159.43 358.54 158.92 359.23 158.84 359.17C158.76 359.11 159.04 358.33 159.53 357.43C160.02 356.53 160.5 355.84 160.61 355.9Z" fill="#E0E0E0"/>
<path d="M164.18 360.78C164.24 360.89 163.75 361.23 163.09 361.55C162.43 361.87 161.86 362.03 161.81 361.92C161.76 361.81 162.25 361.47 162.9 361.15C163.55 360.83 164.13 360.67 164.18 360.78Z" fill="#E0E0E0"/>
<path d="M164.27 399.39C162.609 399.269 161.036 398.597 159.8 397.48C160.579 397.716 161.332 398.027 162.05 398.41C162.823 398.655 163.568 398.984 164.27 399.39Z" fill="#E0E0E0"/>
<path d="M162.81 407.56C162.81 407.68 162.09 407.92 161.16 408.1C160.601 408.279 160.007 408.317 159.43 408.21C159.93 407.903 160.495 407.718 161.08 407.67C161.64 407.496 162.233 407.459 162.81 407.56Z" fill="#E0E0E0"/>
<path d="M161 421.58C160.248 421.208 159.607 420.646 159.14 419.95C158.567 419.333 158.164 418.579 157.97 417.76C158.529 418.354 159.034 418.997 159.48 419.68C160.04 420.268 160.549 420.904 161 421.58Z" fill="#E0E0E0"/>
<path d="M141.34 428C141.27 427.9 141.76 427.35 142.45 426.76C143.14 426.17 143.77 425.76 143.85 425.85C143.93 425.94 143.43 426.5 142.74 427.09C142.05 427.68 141.42 428.09 141.34 428Z" fill="#E0E0E0"/>
<path d="M135.69 397.4C134.89 394.91 133.4 392.01 130.79 391.97C130.014 392.014 129.264 392.265 128.619 392.698C127.973 393.131 127.455 393.729 127.12 394.43C126.402 395.818 126.057 397.369 126.12 398.93C126.438 410.004 128.326 420.977 131.73 431.52H141.28C141.172 419.928 139.287 408.421 135.69 397.4Z" fill="#F5F5F5"/>
<path d="M118.41 381.74C117.939 379.418 116.704 377.321 114.903 375.782C113.101 374.244 110.837 373.352 108.47 373.25C104.24 373.99 102.61 378.15 102.11 382.4C101.61 386.65 102.93 390.9 104.23 394.98C108.417 408.087 112.61 421.197 116.81 434.31L128.69 433C124.93 415.45 122.77 399.17 118.41 381.74Z" fill="#F5F5F5"/>
<path d="M130.79 392C130.485 392.428 130.214 392.88 129.98 393.35C129.496 394.704 129.342 396.154 129.53 397.58C129.72 399.39 129.93 401.58 130.23 403.98C130.53 406.38 130.97 408.98 131.51 411.75C132.59 417.24 133.81 422.16 134.58 425.75C134.97 427.55 135.27 429 135.45 430.01C135.53 430.48 135.6 430.86 135.65 431.18C135.7 431.5 135.71 431.59 135.65 431.59C135.592 431.466 135.552 431.335 135.53 431.2L135.25 430.05C134.99 428.98 134.65 427.56 134.25 425.82C133.4 422.25 132.13 417.34 131.05 411.82C130.51 409.07 130.05 406.43 129.8 404.02C129.65 402.81 129.55 401.66 129.45 400.58C129.35 399.5 129.24 398.51 129.19 397.58C129.024 396.112 129.231 394.627 129.79 393.26C130.032 392.775 130.373 392.346 130.79 392Z" fill="#E0E0E0"/>
<path d="M108.64 372.91C108.114 373.517 107.632 374.162 107.2 374.84C106.105 376.737 105.484 378.871 105.39 381.06C105.34 384.31 105.837 387.545 106.86 390.63C107.86 394.16 109.05 398.05 110.26 402.12L116.34 423C117.09 425.65 117.7 427.8 118.13 429.35C118.33 430.07 118.48 430.65 118.6 431.08C118.658 431.28 118.705 431.484 118.74 431.69C118.643 431.507 118.569 431.312 118.52 431.11L117.97 429.4C117.5 427.86 116.85 425.72 116.04 423.09C114.44 417.7 112.25 410.35 109.84 402.21C108.65 398.13 107.51 394.21 106.48 390.71C105.456 387.582 104.985 384.3 105.09 381.01C105.219 378.779 105.907 376.616 107.09 374.72C107.504 374.036 108.028 373.424 108.64 372.91Z" fill="#E0E0E0"/>
<path d="M126.1 431.75C125.994 431.568 125.904 431.377 125.83 431.18C125.68 430.8 125.42 430.24 125.15 429.51C124.59 428.04 123.86 425.89 123.15 423.19C122.44 420.49 121.65 417.24 120.94 413.61C120.23 409.98 119.49 405.98 118.7 401.79C117.91 397.6 116.95 393.64 115.88 390.11C114.958 386.974 113.801 383.912 112.42 380.95C111.481 378.957 110.409 377.029 109.21 375.18C108.81 374.51 108.43 374.03 108.21 373.69C108.085 373.52 107.974 373.339 107.88 373.15C108.027 373.298 108.16 373.459 108.28 373.63C108.53 373.97 108.92 374.43 109.35 375.09C110.614 376.91 111.734 378.826 112.7 380.82C114.129 383.778 115.322 386.844 116.27 389.99C117.419 393.843 118.374 397.751 119.13 401.7C119.91 405.9 120.65 409.89 121.33 413.53C122.01 417.17 122.73 420.41 123.45 423.11C124.17 425.81 124.84 427.97 125.35 429.45C125.6 430.19 125.82 430.75 125.95 431.14C126.018 431.338 126.068 431.542 126.1 431.75Z" fill="#E0E0E0"/>
<path d="M104.44 393C104.44 393.12 103.83 393.38 103 393.58C102.17 393.78 101.48 393.84 101.45 393.73C101.42 393.62 102.07 393.35 102.9 393.15C103.73 392.95 104.42 392.9 104.44 393Z" fill="#E0E0E0"/>
<path d="M103.18 384.91C102.531 385.095 101.854 385.17 101.18 385.13C100.515 385.224 99.8385 385.204 99.1801 385.07C100.468 384.62 101.861 384.564 103.18 384.91Z" fill="#E0E0E0"/>
<path d="M104.52 377.5C104.45 377.59 103.8 377.17 103.08 376.56C102.36 375.95 101.84 375.39 101.92 375.29C102 375.19 102.65 375.62 103.36 376.23C104.07 376.84 104.6 377.41 104.52 377.5Z" fill="#E0E0E0"/>
<path d="M108.15 370.64C108.27 370.64 108.24 371.25 108.22 371.95C108.2 372.65 108.22 373.22 108.07 373.24C107.92 373.26 107.76 372.68 107.78 371.93C107.8 371.18 108 370.61 108.15 370.64Z" fill="#E0E0E0"/>
<path d="M115.56 373.87C115.66 373.94 115.37 374.53 114.91 375.18C114.45 375.83 114 376.31 113.91 376.24C113.82 376.17 114.1 375.58 114.56 374.93C115.02 374.28 115.46 373.8 115.56 373.87Z" fill="#E0E0E0"/>
<path d="M120.37 382.23C120.37 382.34 119.8 382.69 118.99 383.02C118.18 383.35 117.5 383.53 117.45 383.41C117.4 383.29 118.02 382.95 118.83 382.62C119.64 382.29 120.32 382.11 120.37 382.23Z" fill="#E0E0E0"/>
<path d="M123.28 390.82C122.128 391.607 120.719 391.926 119.34 391.71C119.983 391.462 120.655 391.297 121.34 391.22C121.967 391.003 122.619 390.868 123.28 390.82Z" fill="#E0E0E0"/>
<path d="M109.89 388.38C109.78 388.38 109.89 387.75 110.08 387.05C110.27 386.35 110.57 385.82 110.68 385.86C110.79 385.9 110.68 386.49 110.49 387.18C110.3 387.87 110 388.41 109.89 388.38Z" fill="#E0E0E0"/>
<path d="M111.76 399.17C111.8 398.54 111.985 397.927 112.3 397.38C112.7 396.44 113.12 395.72 113.24 395.77C113.2 396.4 113.015 397.012 112.7 397.56C112.29 398.49 111.87 399.22 111.76 399.17Z" fill="#E0E0E0"/>
<path d="M107.14 402.12C106.551 402.112 105.969 401.986 105.43 401.75C104.52 401.46 103.79 401.2 103.81 401.08C103.83 400.96 104.63 401.08 105.56 401.33C106.49 401.58 107.19 402 107.14 402.12Z" fill="#E0E0E0"/>
<path d="M109.81 410.92C109.88 411.02 109.37 411.5 108.67 412C107.97 412.5 107.35 412.82 107.28 412.72C107.21 412.62 107.72 412.14 108.41 411.64C109.1 411.14 109.73 410.82 109.81 410.92Z" fill="#E0E0E0"/>
<path d="M111.94 419.69C111.94 419.81 111.34 420.06 110.53 420.26C109.72 420.46 109.05 420.51 109.02 420.4C108.99 420.29 109.62 420.03 110.43 419.83C111.24 419.63 111.91 419.57 111.94 419.69Z" fill="#E0E0E0"/>
<path d="M123.52 398.15C123.58 398.25 123.04 398.68 122.26 398.97C121.48 399.26 120.78 399.3 120.76 399.18C120.74 399.06 121.36 398.84 122.1 398.56C122.84 398.28 123.46 398 123.52 398.15Z" fill="#E0E0E0"/>
<path d="M125.17 411.79C125.17 411.9 124.48 411.71 123.74 411.36C123 411.01 122.44 410.64 122.49 410.53C122.54 410.42 123.19 410.61 123.93 410.96C124.67 411.31 125.22 411.68 125.17 411.79Z" fill="#E0E0E0"/>
<path d="M128.09 421.55C127.43 421.528 126.784 421.357 126.2 421.05C125.2 420.66 124.42 420.25 124.47 420.13C125.129 420.164 125.773 420.338 126.36 420.64C127.36 421 128.14 421.44 128.09 421.55Z" fill="#E0E0E0"/>
<path d="M112.41 429.2C112.35 429.09 113.13 428.57 114.03 427.86C114.93 427.15 115.62 426.52 115.72 426.6C115.82 426.68 115.23 427.47 114.3 428.2C113.777 428.705 113.122 429.052 112.41 429.2Z" fill="#E0E0E0"/>
<path d="M120.13 424.24C120 424.24 119.84 423.6 119.54 422.84C119.24 422.08 118.93 421.47 119.03 421.4C119.13 421.33 119.63 421.85 119.94 422.68C120.25 423.51 120.24 424.23 120.13 424.24Z" fill="#E0E0E0"/>
<path d="M118.08 412.5C118.01 412.59 117.51 412.36 116.97 411.97C116.43 411.58 116.04 411.18 116.11 411.08C116.18 410.98 116.68 411.22 117.22 411.61C117.76 412 118.15 412.4 118.08 412.5Z" fill="#E0E0E0"/>
<path d="M136.08 394.09C136.15 394.19 135.66 394.67 134.99 395.17C134.32 395.67 133.72 395.98 133.65 395.89C133.58 395.8 134.06 395.31 134.73 394.81C135.4 394.31 136 394 136.08 394.09Z" fill="#E0E0E0"/>
<path d="M138.79 401.51C138.79 401.63 138.04 401.79 137.1 401.68C136.16 401.57 135.45 401.26 135.48 401.15C135.51 401.04 136.25 401.15 137.15 401.25C138.05 401.35 138.78 401.39 138.79 401.51Z" fill="#E0E0E0"/>
<path d="M127.13 403.17C127.13 403.29 126.45 403.54 125.54 403.6C124.988 403.701 124.418 403.628 123.91 403.39C123.91 403.26 124.64 403.22 125.51 403.16C126.38 403.1 127.1 403.05 127.13 403.17Z" fill="#E0E0E0"/>
<path d="M128.13 396.16C128.13 396.28 127.41 396.3 126.63 395.94C125.85 395.58 125.4 395.03 125.49 394.94C125.58 394.85 126.1 395.21 126.82 395.53C127.54 395.85 128.15 396 128.13 396.16Z" fill="#E0E0E0"/>
<path d="M139.79 409.47C139.72 409.57 139 409.23 138.16 408.7C137.32 408.17 136.7 407.7 136.77 407.57C136.84 407.44 137.56 407.81 138.39 408.33C139.22 408.85 139.85 409.37 139.79 409.47Z" fill="#E0E0E0"/>
<path d="M168.24 430.28H106.04V441.3H168.24V430.28Z" fill="#EBEBEB"/>
<path d="M110.68 439.11L118.25 472.06H155.32L163.59 439.11H110.68Z" fill="#EBEBEB"/>
<path d="M168.2 441.31C168.2 441.43 154.2 441.53 136.87 441.53C119.54 441.53 105.53 441.43 105.53 441.31C105.53 441.19 119.53 441.09 136.87 441.09C154.21 441.09 168.2 441.19 168.2 441.31Z" fill="#E0E0E0"/>
<path d="M133.61 403.41C133.51 403.48 133.08 402.98 132.61 402.31C132.14 401.64 132 401 132.08 401C132.16 401 132.61 401.43 133.03 402.1C133.45 402.77 133.71 403.35 133.61 403.41Z" fill="#E0E0E0"/>
<path d="M133.63 412.28C133.599 411.705 133.713 411.13 133.96 410.61C134.25 409.72 134.58 409.03 134.7 409.07C134.731 409.649 134.617 410.226 134.37 410.75C134.08 411.63 133.75 412.32 133.63 412.28Z" fill="#E0E0E0"/>
<path d="M136.67 421.59C136.56 421.65 136.1 420.9 135.67 419.93C135.325 419.367 135.107 418.736 135.03 418.08C135.14 418.03 135.6 418.77 136.03 419.74C136.375 420.303 136.593 420.934 136.67 421.59Z" fill="#E0E0E0"/>
<path d="M130.1 429.08C130.01 429.01 130.38 428.43 130.93 427.8C131.48 427.17 132 426.71 132.09 426.8C132.18 426.89 131.81 427.46 131.26 428.09C130.71 428.72 130.19 429.16 130.1 429.08Z" fill="#E0E0E0"/>
<path d="M128.72 415.48C128.72 415.6 128.1 415.6 127.38 415.48C126.66 415.36 126.1 415.15 126.12 415.03C126.14 414.91 126.74 414.92 127.46 415.03C128.18 415.14 128.74 415.36 128.72 415.48Z" fill="#E0E0E0"/>
<path d="M329.33 445.78V472.72H368.72H412.17V445.78H329.33Z" fill="#F5F5F5"/>
<path d="M325.85 438.25V445.78H415.06V438.25H368.72H325.85Z" fill="#E0E0E0"/>
<path d="M370.46 472.72H412.17V445.78H415.06V438.25H368.72V445.09L370.46 472.72Z" fill="#E0E0E0"/>
<path d="M357.71 450.13H340.91V454.18H357.71V450.13Z" fill="#E0E0E0"/>
<path d="M360.32 459.25H338.75V467.81H360.32V459.25Z" fill="white"/>
<path d="M342.07 411.35V438.29H381.47H424.91V411.35H342.07Z" fill="#F5F5F5"/>
<path d="M338.6 403.82V411.35H427.81V403.82H381.47H338.6Z" fill="#E0E0E0"/>
<path d="M383.2 438.29H424.91V411.35H427.81V403.82H381.47V410.65L383.2 438.29Z" fill="#E0E0E0"/>
<path d="M370.46 415.7H353.66V419.75H370.46V415.7Z" fill="#E0E0E0"/>
<path d="M373.07 424.82H351.5V433.38H373.07V424.82Z" fill="white"/>
<path d="M263.53 103.04C287.803 103.04 307.48 83.3628 307.48 59.0899C307.48 34.817 287.803 15.1399 263.53 15.1399C239.257 15.1399 219.58 34.817 219.58 59.0899C219.58 83.3628 239.257 103.04 263.53 103.04Z" fill="#F5F5F5"/>
<path d="M414.39 189.24C438.663 189.24 458.34 169.563 458.34 145.29C458.34 121.017 438.663 101.34 414.39 101.34C390.117 101.34 370.44 121.017 370.44 145.29C370.44 169.563 390.117 189.24 414.39 189.24Z" fill="#F5F5F5"/>
<path d="M438.597 313.877C455.761 296.713 455.761 268.886 438.597 251.722C421.434 234.559 393.606 234.559 376.443 251.722C359.279 268.886 359.279 296.713 376.443 313.877C393.606 331.04 421.434 331.04 438.597 313.877Z" fill="#F5F5F5"/>
<path d="M105.31 342.45C130.533 342.45 150.98 322.003 150.98 296.78C150.98 271.557 130.533 251.11 105.31 251.11C80.0872 251.11 59.64 271.557 59.64 296.78C59.64 322.003 80.0872 342.45 105.31 342.45Z" fill="#F5F5F5"/>
<path d="M355.4 191L352.6 190.27L348.71 180.16L350.17 174.57C350.17 174.57 345.91 173.18 344.51 180.63C343.11 188.08 343.05 186.08 343.05 186.08C343.05 186.08 333.84 183.72 332.87 184.32C332.17 184.75 329.54 193.82 328.15 198.75C327.78 199.929 327.814 201.198 328.247 202.356C328.68 203.513 329.487 204.493 330.54 205.14C330.856 205.31 331.192 205.441 331.54 205.53C333.83 206.12 346.03 207.31 346.03 207.31L350.87 208.57L355.4 191Z" fill="#EBEBEB"/>
<path d="M363.82 191.53L357.11 210.23L352.31 208.98L357.2 190.21L363.82 191.53Z" fill="#EBEBEB"/>
<path d="M200 279.72C199.238 277.927 197.942 276.412 196.29 275.38C194.733 274.319 192.884 273.767 191 273.8C189.381 273.88 187.833 274.491 186.596 275.54C185.36 276.588 184.503 278.015 184.16 279.6C183.048 278.498 181.614 277.779 180.066 277.548C178.518 277.316 176.936 277.583 175.55 278.31C173.877 279.235 172.538 280.662 171.72 282.39C170.821 284.121 170.472 286.085 170.72 288.02C171.083 290.482 172.229 292.761 173.99 294.52C175.948 296.255 178.294 297.496 180.83 298.14C184.97 299.31 190.39 300.72 190.39 300.72C190.39 300.72 193.54 296.72 196.52 293.57C198.376 291.726 199.768 289.467 200.58 286.98C201.172 284.56 200.968 282.015 200 279.72Z" fill="#EBEBEB"/>
<path d="M342.11 352.16C343.872 351.366 345.366 350.078 346.411 348.452C347.457 346.826 348.008 344.933 348 343C348 337.51 343.86 333 338.71 333C333.56 333 329.37 337.41 329.35 342.9C329.311 344.862 329.855 346.792 330.912 348.445C331.969 350.099 333.493 351.402 335.29 352.19C320.94 354.35 321.59 369.95 321.59 369.95L355.53 370.11C355.53 370.11 356.34 354.31 342.11 352.16Z" fill="#EBEBEB"/>
<path d="M438.58 472C438.58 472.15 351.45 472.26 244.01 472.26C136.57 472.26 49.42 472.18 49.42 472C49.42 471.82 136.53 471.74 244.01 471.74C351.49 471.74 438.58 471.89 438.58 472Z" fill="#263238"/>
<path d="M111.11 192.23C142.43 192.23 167.82 166.84 167.82 135.52C167.82 104.2 142.43 78.8101 111.11 78.8101C79.79 78.8101 54.4 104.2 54.4 135.52C54.4 166.84 79.79 192.23 111.11 192.23Z" fill="#FAFAFA"/>
<path d="M167.46 135.52C167.46 135.52 167.46 135.21 167.38 134.61C167.3 134.01 167.29 133.09 167.22 131.91C167.22 131.32 167.15 130.66 167.11 129.91C167.07 129.16 166.88 128.4 166.75 127.54C166.62 126.68 166.48 125.76 166.32 124.78C166.251 124.27 166.144 123.765 166 123.27C165.86 122.76 165.73 122.27 165.58 121.68C164.268 116.372 162.157 111.294 159.32 106.62C155.618 100.411 150.757 94.9722 145 90.6001L142.55 88.7701C141.7 88.2101 140.79 87.6901 139.9 87.1401L138.54 86.3201C138.095 86.0265 137.626 85.769 137.14 85.5501L134.21 84.1401L132.72 83.4301L131.15 82.8601L127.97 81.7001C126.89 81.3401 125.76 81.1101 124.64 80.8101L122.95 80.3801C122.67 80.3101 122.39 80.2201 122.1 80.1701L121.22 80.0301C118.862 79.5924 116.476 79.3184 114.08 79.2101C112.86 79.2101 111.64 79.0401 110.4 79.0601L106.66 79.2501C106.04 79.2501 105.4 79.2501 104.78 79.3801L102.89 79.6701C101.64 79.8701 100.36 80.0201 99.09 80.2801C96.5342 80.8508 94.0188 81.5891 91.56 82.4901L89.69 83.1801C89.38 83.2901 89.06 83.4001 88.75 83.5301L87.85 83.9601L84.2 85.7201C83.01 86.3701 81.86 87.1201 80.68 87.8201C80.11 88.1901 79.49 88.5101 78.94 88.9301L77.28 90.1701C75.0272 91.8421 72.886 93.6593 70.87 95.6101L68 98.7701L67.28 99.5701C67.06 99.8501 66.85 100.14 66.63 100.43L65.34 102.16L64 103.89L62.86 105.75L61.73 107.62L61.16 108.56C60.99 108.88 60.84 109.22 60.67 109.56C60.04 110.89 59.4 112.21 58.76 113.56C58.12 114.91 57.76 116.34 57.23 117.74C55.3629 123.495 54.3784 129.5 54.31 135.55C54.3816 141.599 55.3625 147.603 57.22 153.36L58.75 157.54C59.4 158.88 60.03 160.2 60.67 161.54L61.15 162.54L61.72 163.48L62.86 165.35L64 167.15L65.29 168.89L66.59 170.62L67.23 171.48L67.96 172.27L70.83 175.43C72.8421 177.384 74.98 179.205 77.23 180.88L78.9 182.12C79.45 182.54 80.06 182.85 80.64 183.22C81.82 183.92 82.97 184.68 84.16 185.32L87.81 187.08L88.71 187.52C89.02 187.65 89.34 187.75 89.65 187.87L91.52 188.56C93.9832 189.458 96.5018 190.196 99.06 190.77C100.32 191.03 101.6 191.17 102.85 191.38L104.74 191.67C105.37 191.75 106 191.75 106.63 191.79L110.36 191.99C111.6 191.99 112.83 191.88 114.05 191.84C116.447 191.732 118.833 191.455 121.19 191.01L122.06 190.88C122.35 190.82 122.63 190.74 122.91 190.67L124.61 190.24C125.72 189.93 126.86 189.7 127.93 189.35L131.11 188.19L132.68 187.61C133.19 187.39 133.68 187.14 134.17 186.91L137.11 185.5C137.592 185.27 138.06 185.009 138.51 184.72L139.86 183.9C140.76 183.35 141.66 182.84 142.52 182.27L144.96 180.45C150.732 176.088 155.611 170.656 159.33 164.45C159.74 163.77 160.16 163.11 160.54 162.45C160.92 161.79 161.21 161.08 161.54 160.45C161.87 159.82 162.18 159.13 162.54 158.45C162.69 158.12 162.86 157.81 162.99 157.45L163.35 156.45L164.7 152.76C165.1 151.58 165.34 150.42 165.64 149.33C165.79 148.79 165.92 148.26 166.06 147.75C166.203 147.255 166.31 146.75 166.38 146.24C166.54 145.24 166.68 144.33 166.81 143.48C166.94 142.63 167.09 141.83 167.17 141.11C167.25 140.39 167.25 139.72 167.28 139.11C167.35 137.94 167.41 137.04 167.44 136.42C167.47 135.8 167.52 135.5 167.52 135.5C167.52 135.5 167.52 135.81 167.52 136.42C167.52 137.03 167.45 137.94 167.41 139.12C167.41 139.72 167.35 140.38 167.32 141.12C167.29 141.86 167.11 142.64 166.99 143.5C166.87 144.36 166.72 145.28 166.58 146.27C166.513 146.784 166.41 147.292 166.27 147.79C166.13 148.3 166 148.79 165.86 149.38C165.57 150.47 165.33 151.64 164.94 152.83C164.55 154.02 164.06 155.25 163.6 156.54L163.24 157.54C163.11 157.86 162.94 158.18 162.79 158.54L161.85 160.54C161.52 161.21 161.2 161.9 160.85 162.6C160.5 163.3 160.05 163.94 159.64 164.6C155.933 170.878 151.043 176.376 145.24 180.79L142.79 182.63C141.93 183.2 141.02 183.73 140.12 184.28L138.76 185.11C138.308 185.405 137.837 185.668 137.35 185.9L134.4 187.32C133.9 187.56 133.4 187.81 132.9 188.04L131.32 188.62L128.12 189.79C127.03 190.16 125.9 190.39 124.77 190.7L123.07 191.14C122.78 191.21 122.5 191.3 122.21 191.35L121.33 191.49C118.952 191.937 116.547 192.221 114.13 192.34C112.9 192.34 111.67 192.5 110.42 192.49L106.65 192.3C106.02 192.3 105.38 192.3 104.75 192.18L102.85 191.89C101.58 191.68 100.29 191.54 99.02 191.28C96.4407 190.708 93.9019 189.966 91.42 189.06L89.53 188.37C89.22 188.25 88.89 188.14 88.58 188.01L87.67 187.58L83.99 185.8C82.78 185.15 81.63 184.4 80.44 183.69C79.85 183.32 79.23 183 78.68 182.58L77 181.33C74.7249 179.644 72.5635 177.81 70.53 175.84L67.63 172.65L66.9 171.85L66.25 170.98L64.94 169.24L63.63 167.49L62.48 165.61L61.34 163.73L60.76 162.73L60.27 161.73L58.34 157.73C57.82 156.33 57.34 154.93 56.79 153.51C54.909 147.692 53.9178 141.624 53.85 135.51C53.9189 129.396 54.9101 123.328 56.79 117.51C57.31 116.1 57.79 114.69 58.34 113.29L60.28 109.29C60.44 108.95 60.59 108.62 60.77 108.29L61.34 107.29L62.49 105.41L63.64 103.54L64.95 101.78L66.25 100.04C66.47 99.7501 66.68 99.4601 66.91 99.1701L67.64 98.3701L70.53 95.1901C72.5631 93.2193 74.7245 91.3853 77 89.7001L78.68 88.4501C79.23 88.0301 79.86 87.7101 80.44 87.3401C81.63 86.6301 82.78 85.8701 83.99 85.2201L87.67 83.4501L88.58 83.0101C88.89 82.8801 89.22 82.7801 89.53 82.6601L91.35 82.0001C93.8492 81.1057 96.4047 80.3775 99 79.8201C100.27 79.5601 101.56 79.4101 102.83 79.2101L104.73 78.9201C105.36 78.8401 106 78.8401 106.63 78.8001L110.4 78.6101C111.64 78.6101 112.88 78.7201 114.11 78.7601C116.523 78.8789 118.926 79.1629 121.3 79.6101L122.18 79.7401C122.47 79.8001 122.76 79.8901 123.04 79.9601L124.75 80.4001C125.87 80.7101 127.01 80.9401 128.1 81.3001L131.3 82.4801L132.88 83.0601L134.38 83.7701L137.33 85.2001C137.814 85.4284 138.281 85.689 138.73 85.9801L140.1 86.8101C141 87.3701 141.9 87.8901 142.77 88.4601L145.22 90.3001C151.018 94.7187 155.908 100.216 159.62 106.49C162.447 111.199 164.541 116.311 165.83 121.65L166.23 123.25C166.378 123.744 166.485 124.249 166.55 124.76C166.69 125.76 166.83 126.68 166.96 127.54C167.09 128.4 167.22 129.19 167.29 129.92C167.36 130.65 167.35 131.31 167.38 131.92C167.38 133.09 167.46 133.99 167.49 134.62C167.52 135.25 167.46 135.52 167.46 135.52Z" fill="#263238"/>
<path d="M112.11 68.7401C111.97 68.7401 111.85 63.0501 111.85 56.0401C111.85 49.0301 111.97 43.3501 112.11 43.3501C112.25 43.3501 112.37 49.0301 112.37 56.0401C112.37 63.0501 112.25 68.7401 112.11 68.7401Z" fill="#263238"/>
<path d="M88.7599 73.1301C87.2322 71.0506 85.849 68.8688 84.6199 66.6001C83.2431 64.4196 82.0105 62.1515 80.9299 59.8101C82.4535 61.8923 83.8366 64.0738 85.0699 66.3401C86.4491 68.5191 87.6818 70.7874 88.7599 73.1301Z" fill="#263238"/>
<path d="M142.4 58.1302C142.4 58.0802 142.51 58.1302 142.48 58.2902C142.458 58.4542 142.418 58.6152 142.36 58.7702C142.153 59.3292 141.916 59.8767 141.65 60.4102C140.99 61.7702 140.01 63.6002 138.87 65.5902C137.73 67.5802 136.66 69.3502 135.87 70.5902C135.476 71.3048 135.007 71.9752 134.47 72.5902C134.752 71.8276 135.114 71.0969 135.55 70.4102C136.27 69.0902 137.29 67.2802 138.43 65.3002C140.68 61.3702 142.58 58.1202 142.4 58.1302Z" fill="#263238"/>
<path d="M300.55 138.67L301.83 130.55C298.437 125.04 297.228 118.46 298.44 112.104C299.653 105.748 303.198 100.075 308.381 96.2003C313.563 92.3257 320.007 90.5295 326.447 91.1649C332.886 91.8002 338.855 94.8212 343.18 99.6339C347.505 104.447 349.874 110.703 349.821 117.174C349.767 123.644 347.296 129.861 342.891 134.601C338.487 139.342 332.469 142.264 326.02 142.793C319.571 143.322 313.158 141.419 308.04 137.46L300.55 138.67Z" fill="white"/>
<path d="M300.55 138.67L301.05 138.57L302.5 138.32L308.03 137.37L307.97 137.54C307.959 137.531 307.951 137.519 307.945 137.506C307.939 137.493 307.936 137.479 307.936 137.465C307.936 137.451 307.939 137.437 307.945 137.424C307.951 137.411 307.959 137.399 307.97 137.39C307.989 137.376 308.012 137.369 308.035 137.369C308.058 137.369 308.081 137.376 308.1 137.39C311.468 139.97 315.416 141.686 319.6 142.39C320.923 142.606 322.26 142.716 323.6 142.72C325.027 142.718 326.451 142.605 327.86 142.38C330.958 141.893 333.941 140.842 336.66 139.28C341.541 136.477 345.363 132.144 347.532 126.95C349.702 121.756 350.098 115.992 348.66 110.55C347.64 106.495 345.603 102.767 342.74 99.7199C341.336 98.2028 339.754 96.8599 338.03 95.7199C337.173 95.1636 336.285 94.6561 335.37 94.1999L334 93.4599C333.53 93.2599 333.05 93.0999 332.58 92.9199C328.985 91.6062 325.14 91.12 321.331 91.4974C317.522 91.8749 313.847 93.1062 310.58 95.0999C307.684 96.853 305.162 99.1599 303.159 101.889C301.156 104.617 299.71 107.714 298.905 111.002C298.1 114.29 297.95 117.705 298.466 121.05C298.982 124.396 300.152 127.607 301.91 130.5C301.915 130.511 301.917 130.523 301.917 130.535C301.917 130.547 301.915 130.559 301.91 130.57C301.47 133.17 301.13 135.18 300.91 136.57C300.79 137.24 300.7 137.76 300.63 138.14C300.56 138.52 300.53 138.68 300.53 138.68C300.53 138.68 300.53 138.52 300.59 138.17C300.65 137.82 300.71 137.29 300.81 136.63C301.01 135.23 301.31 133.19 301.7 130.55V130.62C299.418 126.971 298.091 122.806 297.84 118.51C297.522 113.137 298.875 107.797 301.713 103.223C304.551 98.6495 308.735 95.0666 313.691 92.9661C318.647 90.8656 324.132 90.3507 329.392 91.4919C334.652 92.6331 339.43 95.3746 343.07 99.3399C345.975 102.463 348.039 106.272 349.07 110.41C350.515 115.956 350.094 121.822 347.873 127.105C345.651 132.388 341.753 136.793 336.78 139.64C333.997 141.222 330.946 142.276 327.78 142.75C326.35 142.968 324.906 143.075 323.46 143.07C317.796 142.996 312.314 141.06 307.86 137.56L308.01 137.41C308.027 137.431 308.036 137.458 308.036 137.485C308.036 137.512 308.027 137.539 308.01 137.56H307.96L302.33 138.39L300.91 138.59L300.55 138.67Z" fill="#263238"/>
<path d="M315.04 126.24C313.76 126.24 312.647 125.973 311.7 125.44C310.767 124.907 310.047 124.127 309.54 123.1C309.033 122.073 308.78 120.807 308.78 119.3C308.78 117.687 309.08 116.32 309.68 115.2C310.293 114.08 311.133 113.227 312.2 112.64C313.28 112.053 314.52 111.76 315.92 111.76C316.667 111.76 317.38 111.84 318.06 112C318.74 112.16 319.327 112.4 319.82 112.72L318.62 115.1C318.233 114.833 317.82 114.653 317.38 114.56C316.94 114.453 316.48 114.4 316 114.4C314.787 114.4 313.827 114.767 313.12 115.5C312.413 116.233 312.06 117.32 312.06 118.76C312.06 119 312.06 119.267 312.06 119.56C312.073 119.853 312.113 120.147 312.18 120.44L311.28 119.6C311.533 119.08 311.86 118.647 312.26 118.3C312.66 117.94 313.133 117.673 313.68 117.5C314.24 117.313 314.853 117.22 315.52 117.22C316.427 117.22 317.24 117.4 317.96 117.76C318.68 118.12 319.253 118.627 319.68 119.28C320.12 119.933 320.34 120.7 320.34 121.58C320.34 122.527 320.1 123.353 319.62 124.06C319.153 124.753 318.52 125.293 317.72 125.68C316.933 126.053 316.04 126.24 315.04 126.24ZM314.86 123.82C315.313 123.82 315.713 123.74 316.06 123.58C316.42 123.407 316.7 123.16 316.9 122.84C317.1 122.52 317.2 122.153 317.2 121.74C317.2 121.1 316.98 120.593 316.54 120.22C316.113 119.833 315.54 119.64 314.82 119.64C314.34 119.64 313.92 119.733 313.56 119.92C313.2 120.093 312.913 120.34 312.7 120.66C312.5 120.967 312.4 121.327 312.4 121.74C312.4 122.14 312.5 122.5 312.7 122.82C312.9 123.127 313.18 123.373 313.54 123.56C313.9 123.733 314.34 123.82 314.86 123.82ZM321.83 129.08L323.15 124.28L323.59 126.08C323.016 126.08 322.543 125.913 322.17 125.58C321.81 125.247 321.63 124.787 321.63 124.2C321.63 123.613 321.816 123.147 322.19 122.8C322.563 122.453 323.023 122.28 323.57 122.28C324.13 122.28 324.59 122.46 324.95 122.82C325.31 123.167 325.49 123.627 325.49 124.2C325.49 124.373 325.476 124.547 325.45 124.72C325.423 124.88 325.37 125.08 325.29 125.32C325.223 125.547 325.11 125.84 324.95 126.2L323.81 129.08H321.83ZM326.784 123.06V120.88L333.384 112H336.784L330.324 120.88L328.744 120.42H339.764V123.06H326.784ZM334.324 126V123.06L334.424 120.42V117.8H337.484V126H334.324Z" fill="black"/>
<path d="M184.36 177.82C183.523 178.088 182.794 178.617 182.28 179.33C181.9 180.07 181.797 180.921 181.99 181.73C182.248 183.658 183.223 185.418 184.72 186.66L191.07 192.83L192.37 201.83L203.8 201.56L200.8 186.42C200.8 186.42 200.74 184.14 200.8 183.24C200.67 182.109 200.443 180.992 200.12 179.9C200.12 179.9 197.34 174.34 196.87 171.55C196.4 168.76 192.87 161.76 191.68 159.81C190.49 157.86 188.92 159.68 189.24 161.51C189.56 163.34 191.61 167 191.98 170.51C191.98 170.51 191.98 171.69 191.2 171.11C190.532 170.872 189.799 170.894 189.147 171.172C188.494 171.45 187.971 171.963 187.68 172.61C187.499 173.015 187.41 173.456 187.42 173.9C187.42 174.33 187.36 174.9 187.06 174.9C186.429 174.886 185.811 175.079 185.3 175.45C184.5 176.06 184.36 177.82 184.36 177.82Z" fill="#91514C"/>
<path d="M187.91 175.23C188.57 177.77 189.24 180.31 189.91 182.85C190.058 183.636 190.402 184.372 190.91 184.99C191.18 185.298 191.546 185.506 191.949 185.581C192.352 185.655 192.768 185.591 193.13 185.4C193.34 185.245 193.512 185.043 193.632 184.811C193.751 184.578 193.816 184.321 193.82 184.06C193.816 183.547 193.731 183.037 193.57 182.55C192.71 179.32 192.01 176.04 191.47 172.74" fill="#91514C"/>
<path d="M191.43 172.74C191.43 172.74 191.43 172.82 191.5 172.99C191.57 173.16 191.59 173.43 191.64 173.73C191.78 174.4 191.97 175.32 192.19 176.44C192.41 177.56 192.74 178.94 193.11 180.44C193.3 181.19 193.5 181.97 193.72 182.78C193.851 183.2 193.912 183.64 193.9 184.08C193.884 184.558 193.687 185.011 193.35 185.35C193.172 185.511 192.96 185.63 192.729 185.695C192.499 185.761 192.256 185.773 192.02 185.73C191.57 185.655 191.154 185.442 190.83 185.12C190.303 184.479 189.958 183.709 189.83 182.89C189.45 181.4 189.1 180.06 188.83 178.89C188.56 177.72 188.33 176.89 188.17 176.21C188.1 175.91 188.04 175.67 188 175.47C187.985 175.384 187.985 175.296 188 175.21C188.042 175.288 188.073 175.373 188.09 175.46L188.3 176.18C188.49 176.84 188.74 177.75 189.04 178.85L190.11 182.85C190.254 183.631 190.599 184.362 191.11 184.97C191.402 185.25 191.771 185.434 192.17 185.5C192.368 185.539 192.572 185.531 192.767 185.477C192.961 185.423 193.14 185.325 193.29 185.19C193.583 184.898 193.751 184.504 193.76 184.09C193.771 183.674 193.717 183.259 193.6 182.86C193.38 182.05 193.18 181.26 193 180.51C192.64 179.01 192.35 177.64 192.13 176.51C191.91 175.38 191.76 174.42 191.66 173.78C191.61 173.45 191.58 173.2 191.56 173.03C191.502 172.941 191.458 172.843 191.43 172.74Z" fill="#6F3C3A"/>
<path d="M198.26 179.45C197.069 179.277 195.887 179.044 194.72 178.75C194.377 178.652 194.015 178.641 193.666 178.716C193.318 178.791 192.993 178.95 192.72 179.18C192.54 179.427 192.428 179.715 192.393 180.019C192.358 180.322 192.401 180.629 192.52 180.91C192.8 181.637 193.282 182.269 193.91 182.73C194.144 182.911 194.395 183.068 194.66 183.2C194.935 183.316 195.224 183.393 195.52 183.43C195.614 183.434 195.704 183.465 195.78 183.52C195.918 183.698 196.032 183.893 196.12 184.1C196.429 184.604 196.859 185.023 197.37 185.32C197.486 185.391 197.606 185.455 197.73 185.51" fill="#91514C"/>
<path d="M197.71 185.51H197.56C197.425 185.457 197.295 185.394 197.17 185.32C196.703 185.044 196.308 184.66 196.02 184.2C195.93 184.04 195.87 183.87 195.78 183.74C195.742 183.675 195.681 183.625 195.61 183.6H195.34C194.909 183.54 194.497 183.379 194.14 183.13C193.284 182.615 192.642 181.809 192.33 180.86C192.249 180.605 192.224 180.336 192.255 180.071C192.286 179.805 192.373 179.549 192.51 179.32C192.663 179.122 192.858 178.961 193.081 178.848C193.304 178.736 193.55 178.675 193.8 178.67C194.231 178.652 194.663 178.699 195.08 178.81C195.47 178.89 195.82 178.99 196.15 179.07C196.8 179.23 197.32 179.36 197.69 179.43C197.882 179.453 198.073 179.49 198.26 179.54C198.065 179.577 197.865 179.577 197.67 179.54C197.3 179.54 196.76 179.4 196.11 179.26L195.04 179.03C194.64 178.937 194.23 178.9 193.82 178.92C193.605 178.924 193.393 178.976 193.201 179.073C193.009 179.17 192.841 179.309 192.71 179.48C192.595 179.679 192.522 179.901 192.498 180.13C192.474 180.359 192.499 180.591 192.57 180.81C192.863 181.703 193.462 182.464 194.26 182.96C194.591 183.199 194.976 183.354 195.38 183.41C195.481 183.427 195.582 183.45 195.68 183.48C195.785 183.519 195.874 183.593 195.93 183.69C196.04 183.86 196.09 184.03 196.17 184.17C196.438 184.615 196.796 185 197.22 185.3C197.387 185.362 197.55 185.432 197.71 185.51Z" fill="#6F3C3A"/>
<path d="M195.92 172.83C195.735 173.714 195.341 174.54 194.77 175.24C194.255 175.989 193.569 176.606 192.77 177.04C192.77 176.98 193.68 176.26 194.55 175.09C195.046 174.361 195.503 173.607 195.92 172.83Z" fill="#6F3C3A"/>
<path d="M192.12 185.7C192.12 185.7 192.12 185.7 192.24 185.81C192.342 185.924 192.432 186.048 192.51 186.18C192.647 186.389 192.723 186.631 192.73 186.88C192.717 187.053 192.66 187.219 192.563 187.363C192.467 187.506 192.335 187.623 192.18 187.7C191.783 187.862 191.355 187.929 190.927 187.896C190.5 187.863 190.087 187.731 189.72 187.51C188.844 186.981 188.096 186.263 187.53 185.41C186.908 184.609 186.356 183.756 185.88 182.86C185.494 182.127 185.205 181.347 185.02 180.54C184.9 179.992 184.847 179.431 184.86 178.87C184.858 178.667 184.885 178.465 184.94 178.27C184.944 179.021 185.031 179.769 185.2 180.5C185.398 181.287 185.694 182.046 186.08 182.76C186.562 183.634 187.11 184.47 187.72 185.26C188.271 186.084 188.99 186.783 189.83 187.31C190.165 187.521 190.544 187.651 190.938 187.691C191.332 187.731 191.729 187.679 192.1 187.54C192.231 187.48 192.344 187.389 192.43 187.273C192.516 187.158 192.571 187.022 192.59 186.88C192.587 186.65 192.529 186.423 192.42 186.22C192.25 185.88 192.11 185.71 192.12 185.7Z" fill="#6F3C3A"/>
<path d="M187.86 177.11C187.93 177.11 188.18 177.96 188.61 178.99C188.91 179.592 189.171 180.214 189.39 180.85C188.952 180.325 188.613 179.726 188.39 179.08C188.087 178.464 187.907 177.795 187.86 177.11Z" fill="#6F3C3A"/>
<path d="M189.25 187.07C189.25 187.07 189.13 187.27 188.83 187.47C188.415 187.708 187.937 187.813 187.46 187.77C186.986 187.736 186.529 187.573 186.14 187.3C185.84 187.09 185.72 186.89 185.74 186.88C185.76 186.87 185.93 186.99 186.23 187.15C186.617 187.356 187.043 187.482 187.48 187.52C187.914 187.555 188.35 187.482 188.75 187.31C189.05 187.17 189.22 187 189.25 187.07Z" fill="#6F3C3A"/>
<path d="M296.06 158.46C295.94 157.03 296.54 155.46 295.96 154.19C294.96 152.01 291.7 152.05 290.1 150.26C287.82 147.7 290.22 143.04 287.87 140.54C285.8 138.33 282.98 138.62 281.17 136.19C280.25 134.96 281.17 132.19 278.07 130.97C276.12 130.2 273.51 130.42 271.53 129.72C268.68 128.72 267.8 126.72 264.89 125.86C261.41 124.86 258.39 128.99 254.77 129.05C251.61 129.11 248.54 126.05 245.67 127.37C243.37 128.37 242.91 131.68 240.67 132.94C238.76 134.03 236.02 133.32 234.44 134.84C232.86 136.36 233.6 139.43 232.21 141.29C230.82 143.15 227.61 143.29 226.8 145.49C225.8 148.02 229.17 150.67 228.27 153.22C227.77 154.171 227.091 155.016 226.27 155.71C225.531 156.545 225.007 157.549 224.744 158.633C224.481 159.717 224.486 160.849 224.76 161.93C225.059 163.01 225.613 164.002 226.375 164.823C227.137 165.645 228.086 166.271 229.14 166.65L267.61 179.18C269.849 180.556 272.356 181.438 274.964 181.767C277.571 182.096 280.219 181.866 282.73 181.09C284.436 180.612 285.992 179.707 287.25 178.46C288.7 176.91 289.41 174.75 291.02 173.35C292.37 172.17 294.18 171.67 295.83 170.94C297.48 170.21 299.14 169.03 299.5 167.28C300.18 164.12 296.34 161.67 296.06 158.46Z" fill="#263238"/>
<path d="M269.39 137.79C271.64 136.37 272.18 133.06 270.96 130.69C270.285 129.538 269.354 128.558 268.239 127.824C267.124 127.091 265.855 126.624 264.53 126.46C262.62 126.179 260.671 126.354 258.841 126.969C257.011 127.584 255.353 128.622 254 130C252.55 131.49 251.37 133.44 249.41 134.12C247.68 134.73 245.77 134.18 243.95 134.42C242.738 134.637 241.59 135.123 240.592 135.843C239.593 136.563 238.769 137.499 238.18 138.58C237.041 140.751 236.36 143.134 236.18 145.58C235.92 147.81 235.75 150.27 234.18 151.9C232.61 153.53 230.28 153.83 228.4 154.96C226.673 156.089 225.456 157.848 225.007 159.862C224.559 161.876 224.915 163.985 226 165.74C226.74 166.83 227.81 167.82 227.9 169.14C227.99 170.46 227.2 171.41 226.84 172.55C226.649 173.29 226.619 174.062 226.752 174.814C226.886 175.567 227.179 176.282 227.612 176.911C228.045 177.541 228.608 178.07 229.264 178.463C229.919 178.856 230.651 179.104 231.41 179.19C232.97 179.28 234.64 178.67 236.04 179.37C237.44 180.07 237.95 181.74 238.84 183.01C239.75 184.241 241.055 185.121 242.538 185.504C244.02 185.886 245.588 185.747 246.98 185.11C248.13 184.55 249.22 183.62 250.49 183.71C251.76 183.8 252.77 184.88 254.02 185.12C255.66 185.44 257.21 184.23 258.19 182.88C259.17 181.53 259.84 179.88 261.09 178.81C262.73 177.36 265.02 177 267.09 176.29C269.38 175.5 271.474 174.228 273.23 172.56C274.987 170.891 276.364 168.864 277.269 166.618C278.175 164.371 278.587 161.955 278.479 159.535C278.37 157.115 277.743 154.747 276.64 152.59" fill="#263238"/>
<path d="M275.26 191.07L277.65 147.24C277.698 146.308 277.394 145.392 276.797 144.675C276.2 143.958 275.355 143.492 274.43 143.37L254.83 137.82C248.53 136.97 244.11 144.64 243.53 150.97C242.88 157.97 242.37 166.62 243.06 171.91C244.44 182.53 252.51 184.1 252.51 184.1C252.51 184.1 252.31 193.63 252.24 197.48L255 233L275.26 191.07Z" fill="#91514C"/>
<path d="M245.25 159.4C245.239 159.753 245.365 160.098 245.601 160.36C245.838 160.623 246.167 160.784 246.52 160.81C246.692 160.829 246.866 160.814 247.032 160.765C247.197 160.715 247.352 160.633 247.485 160.523C247.618 160.413 247.728 160.277 247.808 160.124C247.888 159.97 247.936 159.802 247.95 159.63C247.966 159.277 247.844 158.931 247.608 158.667C247.372 158.404 247.043 158.243 246.69 158.22C246.518 158.202 246.344 158.218 246.178 158.268C246.012 158.318 245.858 158.4 245.724 158.51C245.59 158.619 245.479 158.755 245.398 158.907C245.316 159.06 245.266 159.228 245.25 159.4Z" fill="#263238"/>
<path d="M245.27 155.51C245.43 155.69 246.48 154.96 247.94 155.01C249.4 155.06 250.45 155.81 250.61 155.64C250.77 155.47 250.53 155.24 250.07 154.88C249.452 154.424 248.708 154.172 247.94 154.16C247.182 154.135 246.436 154.352 245.81 154.78C245.35 155.11 245.19 155.43 245.27 155.51Z" fill="#263238"/>
<path d="M258.84 159.4C258.829 159.753 258.955 160.098 259.191 160.36C259.428 160.623 259.757 160.784 260.11 160.81C260.282 160.828 260.456 160.812 260.622 160.762C260.788 160.712 260.942 160.63 261.076 160.52C261.21 160.411 261.321 160.275 261.402 160.123C261.484 159.97 261.534 159.802 261.55 159.63C261.561 159.276 261.435 158.932 261.199 158.669C260.962 158.407 260.633 158.246 260.28 158.22C260.108 158.202 259.934 158.218 259.768 158.268C259.602 158.318 259.448 158.4 259.314 158.51C259.18 158.619 259.069 158.755 258.988 158.907C258.907 159.06 258.856 159.228 258.84 159.4Z" fill="#263238"/>
<path d="M259.61 156.19C259.77 156.37 260.82 155.64 262.28 155.69C263.74 155.74 264.79 156.49 264.95 156.32C265.11 156.15 264.87 155.92 264.41 155.56C263.792 155.105 263.047 154.854 262.28 154.84C261.522 154.815 260.776 155.032 260.15 155.46C259.69 155.79 259.53 156.11 259.61 156.19Z" fill="#263238"/>
<path d="M254 166.86C253.239 166.602 252.45 166.438 251.65 166.37C251.27 166.32 250.92 166.23 250.87 165.98C250.851 165.593 250.949 165.21 251.15 164.88L252.33 162.07C253.98 158.07 255.18 154.79 255.02 154.72C254.86 154.65 253.39 157.84 251.75 161.84L250.61 164.67C250.365 165.111 250.281 165.623 250.37 166.12C250.424 166.252 250.505 166.372 250.608 166.47C250.712 166.568 250.835 166.643 250.97 166.69C251.175 166.748 251.387 166.781 251.6 166.79C252.393 166.919 253.2 166.943 254 166.86Z" fill="#263238"/>
<path d="M252.51 184.1C257.487 184.323 262.428 183.156 266.78 180.73C266.78 180.73 263.13 187.9 252.58 186.61L252.51 184.1Z" fill="#6F3C3A"/>
<path d="M254.12 170.34C255.408 169.461 256.85 168.83 258.37 168.48C259.13 168.42 258.62 169.28 259.01 169.95C259.232 170.324 259.336 170.757 259.307 171.191C259.278 171.625 259.118 172.04 258.848 172.381C258.578 172.723 258.211 172.974 257.796 173.102C257.38 173.231 256.935 173.23 256.52 173.1C255.717 172.809 254.994 172.333 254.41 171.71C254.223 171.557 254.069 171.366 253.96 171.15C253.908 171.03 253.888 170.899 253.902 170.769C253.916 170.64 253.963 170.516 254.04 170.41" fill="#6F3C3A"/>
<path d="M259.13 150.16C259.27 150.56 260.73 150.42 262.44 150.67C264.15 150.92 265.51 151.43 265.75 151.08C265.86 150.92 265.63 150.54 265.08 150.14C264.352 149.639 263.516 149.317 262.64 149.2C261.767 149.07 260.875 149.153 260.04 149.44C259.4 149.67 259.08 150 259.13 150.16Z" fill="#263238"/>
<path d="M245.93 150.5C246.17 150.84 247.19 150.5 248.4 150.5C249.61 150.5 250.63 150.79 250.87 150.5C250.98 150.33 250.87 150 250.39 149.67C249.801 149.269 249.103 149.06 248.39 149.07C247.675 149.055 246.975 149.268 246.39 149.68C246 150 245.82 150.34 245.93 150.5Z" fill="#263238"/>
<path d="M236.4 148.75C236.839 147.134 237.825 145.72 239.19 144.75C239.95 144.25 240.83 143.95 241.54 143.38C243.07 142.14 243.42 140 244.37 138.27C244.995 137.17 245.872 136.234 246.929 135.538C247.986 134.843 249.192 134.408 250.45 134.27C252.55 134.05 254.71 134.68 256.75 134.17C258.26 133.79 259.58 132.81 261.11 132.52C264.11 131.95 266.86 134.09 269.02 136.22C269.02 138.35 267.33 139.77 265.69 141.14C264.865 141.824 263.901 142.32 262.865 142.593C261.828 142.866 260.745 142.909 259.69 142.72C258.06 142.43 256.28 141.6 254.87 142.47C253.46 143.34 253.33 145.62 252.02 146.76C250.14 148.39 247.15 146.86 244.77 147.56C242.93 148.11 241.77 149.87 240.55 151.35C239.33 152.83 237.5 154.24 235.66 153.69C235.712 152.02 235.961 150.362 236.4 148.75Z" fill="#263238"/>
<path d="M258.77 139.74C260.1 139.35 262.83 138.49 263.55 137.33C264.271 136.087 265.307 135.055 266.553 134.339C267.8 133.623 269.213 133.247 270.65 133.25C272.101 133.365 273.476 133.946 274.57 134.907C275.664 135.867 276.418 137.156 276.72 138.58C278.462 138.639 280.155 139.168 281.62 140.112C283.084 141.056 284.266 142.379 285.04 143.94C285.247 144.34 285.424 144.754 285.57 145.18C286.098 146.113 286.416 147.151 286.503 148.22C286.589 149.289 286.441 150.364 286.07 151.37C285.6 152.57 284.82 153.91 285.44 155.05C286.06 156.19 287.66 156.24 288.91 156.66C289.983 157.067 290.878 157.837 291.441 158.837C292.004 159.837 292.198 161.002 291.99 162.13C291.696 162.898 291.564 163.718 291.6 164.54C291.902 165.341 292.397 166.055 293.04 166.62C293.726 167.436 294.186 168.419 294.374 169.469C294.561 170.519 294.469 171.599 294.108 172.603C293.746 173.606 293.128 174.497 292.314 175.186C291.5 175.875 290.519 176.339 289.47 176.53C288.505 176.571 287.557 176.788 286.67 177.17C285.72 177.75 285.31 178.89 284.67 179.77C284.013 180.611 283.116 181.231 282.098 181.549C281.079 181.867 279.988 181.868 278.97 181.55C278.565 181.415 278.181 181.223 277.83 180.98C277.443 181.488 276.934 181.89 276.35 182.149C275.766 182.408 275.126 182.515 274.49 182.46L274.88 160.16C274.757 160.433 274.57 160.671 274.335 160.856C274.1 161.041 273.824 161.166 273.53 161.22C269.95 162.03 269.42 154.65 270.22 152.65C268.87 151.549 267.663 150.283 266.63 148.88C265.482 146.643 264.915 144.153 264.98 141.64C263.67 141.72 258.18 139.9 258.77 139.74Z" fill="#263238"/>
<path d="M273.87 162C273.99 159.74 276.76 159.25 278.72 160.39C279.8 161.01 280.63 162.27 280.53 164.67C280.26 171.09 273.88 169.5 273.87 169.31C273.86 169.12 273.74 164.63 273.87 162Z" fill="#91514C"/>
<path d="M275.93 166.93C275.93 166.93 276.04 167.02 276.23 167.11C276.497 167.216 276.794 167.216 277.06 167.11C277.486 166.864 277.838 166.51 278.08 166.083C278.323 165.655 278.447 165.171 278.44 164.68C278.477 164.132 278.395 163.583 278.2 163.07C278.148 162.867 278.047 162.679 277.906 162.524C277.765 162.369 277.588 162.251 277.39 162.18C277.263 162.139 277.126 162.145 277.004 162.197C276.881 162.248 276.78 162.341 276.72 162.46C276.63 162.63 276.66 162.76 276.63 162.77C276.6 162.78 276.49 162.66 276.56 162.4C276.598 162.243 276.69 162.105 276.82 162.01C276.91 161.946 277.013 161.9 277.121 161.876C277.229 161.852 277.341 161.85 277.45 161.87C277.707 161.929 277.945 162.052 278.142 162.226C278.339 162.401 278.49 162.622 278.58 162.87C278.829 163.436 278.935 164.054 278.89 164.67C278.899 165.243 278.739 165.806 278.429 166.288C278.12 166.77 277.675 167.15 277.15 167.38C276.978 167.421 276.799 167.423 276.627 167.387C276.454 167.35 276.291 167.276 276.15 167.17C275.94 167.09 275.91 167 275.93 166.93Z" fill="#6F3C3A"/>
<path d="M256.89 173C256.89 173 257.06 172.93 257.36 172.89C257.765 172.85 258.157 172.724 258.51 172.52C259.56 172.01 258.76 170.32 258.58 168.74C258.58 168.65 258.53 168.62 258.58 168.65H258.46C258.52 168.95 258 168.22 258.24 168.24H258.3H258.37H258.44C258.44 168.14 258.81 169.07 258.62 168.68L258.35 168.8L257.3 169.23L255.52 169.94C254.983 170.194 254.415 170.376 253.83 170.48C254.306 170.128 254.827 169.842 255.38 169.63L257.12 168.82L258.12 168.36L258.39 168.24C258.22 167.85 258.62 168.78 258.59 168.68H258.52H258.45H258.4C258.406 168.643 258.406 168.606 258.4 168.57L258.34 168.48C258.39 168.48 258.34 168.4 258.34 168.38C258.28 168.17 258.34 168.26 258.34 168.24L258.51 168.19C258.611 168.161 258.719 168.161 258.82 168.19C258.897 168.234 258.963 168.294 259.013 168.367C259.063 168.44 259.096 168.523 259.11 168.61C259.24 169.43 259.37 170.2 259.49 170.94C259.567 171.313 259.543 171.699 259.42 172.06C259.282 172.373 259.042 172.63 258.74 172.79C258.329 172.998 257.87 173.091 257.41 173.06C257.05 173.07 256.89 173 256.89 173Z" fill="#263238"/>
<path d="M292.66 434C292.51 435.14 289.72 466.76 289.72 466.76H275.23L272.69 434.14L292.66 434Z" fill="#91514C"/>
<path d="M275.2 462.09C275.2 462.09 285.37 469.31 290.29 463.09L291.58 466.09L297.37 487.66C297.567 488.338 297.51 489.064 297.21 489.703C296.91 490.341 296.387 490.849 295.74 491.13C295.239 491.337 294.688 491.393 294.155 491.292C293.622 491.19 293.131 490.936 292.74 490.56C288.55 486.56 273.23 471.86 273.38 469.87L273.44 464.57C273.447 464.032 273.615 463.509 273.921 463.067C274.228 462.625 274.659 462.285 275.16 462.09H275.2Z" fill="#461082"/>
<path d="M295.24 491.27L273.42 468V469.16C273.387 469.633 273.459 470.107 273.632 470.548C273.805 470.989 274.074 471.386 274.42 471.71C276.18 474.1 281.07 479.42 292.66 490.54C292.991 490.861 293.396 491.094 293.84 491.218C294.283 491.342 294.751 491.353 295.2 491.25L295.24 491.27Z" fill="#263238"/>
<path d="M276.61 464.58C276.949 464.824 277.186 465.185 277.274 465.593C277.363 466.001 277.297 466.427 277.09 466.79C276.854 467.133 276.497 467.373 276.09 467.463C275.683 467.552 275.258 467.483 274.9 467.27C274.542 467.01 274.294 466.627 274.204 466.194C274.113 465.762 274.187 465.311 274.41 464.93C274.689 464.593 275.089 464.378 275.524 464.332C275.959 464.285 276.396 464.41 276.74 464.68" fill="white"/>
<path d="M289 479.37C289.65 478.508 290.462 477.781 291.39 477.23C292.389 476.831 293.454 476.624 294.53 476.62C294.53 476.55 294.2 476.34 293.53 476.25C292.691 476.157 291.843 476.31 291.09 476.69C290.33 477.065 289.694 477.652 289.26 478.38C288.92 478.94 288.88 479.34 289 479.37Z" fill="#263238"/>
<path d="M290.91 483C291.686 482.551 292.492 482.153 293.32 481.81C294.202 481.641 295.094 481.524 295.99 481.46C296.07 481.32 294.75 480.74 293.15 481.24C291.55 481.74 290.77 482.94 290.91 483Z" fill="#263238"/>
<path d="M285.31 474.69C285.44 474.82 286.77 473.44 288.91 472.61C291.05 471.78 292.91 471.84 292.91 471.61C291.483 471.24 289.971 471.385 288.64 472.02C287.249 472.489 286.07 473.434 285.31 474.69Z" fill="#263238"/>
<path d="M284.82 468.12C284.9 468.29 286.4 467.65 288.37 467.57C290.34 467.49 291.89 467.96 291.95 467.79C290.88 467.103 289.602 466.813 288.34 466.97C287.069 466.935 285.825 467.341 284.82 468.12Z" fill="#263238"/>
<path d="M289.48 467.51C289.508 467.169 289.456 466.827 289.33 466.51C289.056 465.594 288.604 464.741 288 464C287.606 463.42 287.034 462.985 286.37 462.76C286.145 462.706 285.909 462.723 285.694 462.809C285.479 462.895 285.296 463.046 285.17 463.24C284.95 463.632 284.883 464.091 284.98 464.53C285.21 465.424 285.741 466.211 286.485 466.758C287.228 467.305 288.138 467.577 289.06 467.53C289.968 467.455 290.833 467.112 291.546 466.544C292.258 465.976 292.785 465.209 293.06 464.34C293.126 464.122 293.145 463.892 293.116 463.667C293.086 463.441 293.009 463.224 292.89 463.03C292.746 462.846 292.548 462.712 292.323 462.648C292.099 462.583 291.86 462.591 291.64 462.67C291.007 462.936 290.458 463.368 290.05 463.92C289.428 464.633 288.94 465.453 288.61 466.34C288.457 466.651 288.375 466.993 288.37 467.34C288.878 466.197 289.552 465.136 290.37 464.19C290.75 463.726 291.238 463.363 291.79 463.13C291.91 463.085 292.041 463.08 292.163 463.116C292.286 463.152 292.394 463.227 292.47 463.33C292.539 463.463 292.58 463.609 292.591 463.759C292.601 463.908 292.58 464.059 292.53 464.2C292.269 464.94 291.802 465.589 291.183 466.071C290.565 466.553 289.821 466.848 289.04 466.92C288.264 466.967 287.495 466.749 286.859 466.302C286.224 465.855 285.758 465.206 285.54 464.46C285.468 464.154 285.503 463.833 285.64 463.55C285.708 463.441 285.808 463.357 285.926 463.308C286.045 463.26 286.176 463.25 286.3 463.28C286.856 463.461 287.341 463.811 287.69 464.28C288.476 465.24 289.082 466.335 289.48 467.51Z" fill="#263238"/>
<path d="M213.1 423.75L215.59 464.12L233.14 464L236.1 422.06L213.1 423.75Z" fill="#91514C"/>
<path d="M215.28 459.25V460.42C215.28 460.42 195.46 468.28 195.28 472.03H234.56L234 458.92C231.087 460.317 227.906 461.07 224.676 461.127C221.446 461.184 218.241 460.543 215.28 459.25Z" fill="#461082"/>
<path d="M230 463.1C230.379 463.214 230.703 463.464 230.909 463.801C231.116 464.139 231.191 464.541 231.12 464.93C231.018 465.312 230.774 465.642 230.438 465.85C230.101 466.058 229.698 466.13 229.31 466.05C228.911 465.927 228.572 465.661 228.358 465.302C228.144 464.944 228.07 464.519 228.15 464.11C228.287 463.715 228.573 463.389 228.946 463.203C229.32 463.016 229.752 462.982 230.15 463.11" fill="white"/>
<path d="M234.51 472L234.37 468.86L196.78 470C196.78 470 195.03 470.76 195.23 472H234.51Z" fill="#263238"/>
<path d="M215.13 460.53C215.13 460.72 216.13 460.8 217.04 461.42C217.95 462.04 218.49 462.84 218.66 462.77C218.83 462.7 218.55 461.58 217.4 460.86C216.25 460.14 215.09 460.35 215.13 460.53Z" fill="#263238"/>
<path d="M211 462.24C211 462.42 211.79 462.75 212.44 463.56C213.09 464.37 213.28 465.23 213.44 465.22C213.6 465.21 213.75 464.12 212.92 463.13C212.09 462.14 211 462.05 211 462.24Z" fill="#263238"/>
<path d="M208.68 467.17C208.85 467.17 209.12 466.25 208.62 465.17C208.12 464.09 207.23 463.7 207.15 463.86C207.07 464.02 207.63 464.58 208.02 465.45C208.41 466.32 208.49 467.15 208.68 467.17Z" fill="#263238"/>
<path d="M236.1 298.82C235.58 300.33 214.77 370.82 214.77 370.82L211.19 454.45L237.09 455.95L246.36 372.45L270 320.21L259.61 277.73H238.46L236.1 298.82Z" fill="#263238"/>
<path d="M254.53 277.73C254.9 278.73 268.17 326.57 268.17 326.57L270.01 397.87V456.87H293.61L304.61 326.77C304.61 326.77 306.55 303.17 303.24 295.18C299.93 287.19 286.47 273.27 286.47 273.27L254.53 277.73Z" fill="#263238"/>
<path d="M256.43 282.62C256.643 283.164 256.82 283.722 256.96 284.29C257.3 285.46 257.75 287 258.3 288.86L262.82 303.86C264.57 309.75 265.99 315.13 266.82 319.07C267.24 321.07 267.53 322.65 267.69 323.76C267.797 324.335 267.863 324.916 267.89 325.5C267.706 324.946 267.569 324.377 267.48 323.8C267.26 322.7 266.92 321.11 266.48 319.16C265.56 315.25 264.08 309.9 262.34 304.01C260.6 298.12 259 292.85 257.93 289C257.4 287.06 257.01 285.48 256.76 284.38C256.597 283.804 256.487 283.215 256.43 282.62Z" fill="#461082"/>
<path d="M264.57 282.62C263.981 282.82 263.465 283.193 263.09 283.69C262.908 283.949 262.794 284.25 262.759 284.564C262.724 284.879 262.769 285.197 262.89 285.49C263.036 285.839 263.278 286.14 263.588 286.357C263.898 286.574 264.263 286.699 264.641 286.717C265.019 286.734 265.395 286.645 265.724 286.458C266.053 286.27 266.322 285.994 266.5 285.66C266.651 285.381 266.731 285.068 266.731 284.75C266.731 284.432 266.651 284.119 266.5 283.84C266.177 283.311 265.699 282.896 265.13 282.65C265.13 282.65 265.33 282.59 265.67 282.71C266.15 282.886 266.558 283.217 266.83 283.65C267.045 283.977 267.172 284.354 267.198 284.745C267.225 285.136 267.149 285.527 266.98 285.88C266.783 286.327 266.455 286.704 266.04 286.961C265.624 287.219 265.141 287.344 264.653 287.321C264.165 287.299 263.695 287.129 263.306 286.834C262.916 286.539 262.625 286.133 262.47 285.67C262.33 285.304 262.289 284.908 262.352 284.521C262.416 284.135 262.58 283.772 262.83 283.47C263.137 283.058 263.574 282.762 264.07 282.63C264.37 282.55 264.57 282.59 264.57 282.62Z" fill="#461082"/>
<path d="M285.52 317C285.533 317.12 285.533 317.24 285.52 317.36C285.52 317.62 285.52 317.97 285.52 318.41C285.52 319.41 285.52 320.73 285.52 322.46C285.52 325.98 285.52 331.07 285.4 337.37C285.22 349.95 284.65 367.37 283.92 386.51C283.19 405.65 282.56 423.07 282.27 435.65C282.13 441.94 282.03 447.03 281.99 450.54C281.99 452.28 281.94 453.64 281.92 454.59C281.92 455.03 281.92 455.38 281.92 455.65C281.933 455.77 281.933 455.89 281.92 456.01C281.907 455.89 281.907 455.77 281.92 455.65C281.92 455.38 281.92 455.03 281.92 454.59C281.92 453.63 281.92 452.28 281.92 450.54C281.92 447.02 281.92 441.93 282.04 435.64C282.22 423.06 282.79 405.64 283.52 386.49C284.25 367.34 284.88 349.94 285.17 337.36C285.31 331.07 285.41 325.98 285.45 322.46C285.45 320.73 285.5 319.37 285.52 318.41C285.52 317.97 285.52 317.62 285.52 317.36C285.507 317.24 285.507 317.12 285.52 317Z" fill="#461082"/>
<path d="M249.11 308.38C249.084 308.507 249.043 308.631 248.99 308.75L248.59 309.81L247 313.86C245.59 317.4 243.56 322.46 241.06 328.72C238.56 334.98 235.69 342.51 233 351C229.883 360.161 227.696 369.611 226.47 379.21C225.94 384.33 225.7 389.36 225.38 394.21C225.06 399.06 224.87 403.75 224.63 408.21C224.17 417.12 223.75 425.21 223.4 431.91C223.05 438.61 222.68 444.12 222.4 447.91C222.25 449.77 222.13 451.22 222.05 452.24C222 452.72 221.97 453.09 221.94 453.37C221.948 453.496 221.948 453.623 221.94 453.75C221.927 453.624 221.927 453.496 221.94 453.37C221.94 453.08 221.94 452.71 221.94 452.24C222 451.24 222.09 449.75 222.19 447.89C222.41 444.12 222.71 438.66 223.03 431.89C223.35 425.12 223.72 417.1 224.13 408.18C224.37 403.72 224.61 399.04 224.86 394.18C225.11 389.32 225.4 384.3 225.94 379.18C227.163 369.543 229.371 360.056 232.53 350.87C235.3 342.37 238.25 334.87 240.76 328.6C243.27 322.33 245.41 317.29 246.86 313.8C247.58 312.08 248.14 310.73 248.54 309.8L248.99 308.8C249.011 308.655 249.051 308.514 249.11 308.38Z" fill="#461082"/>
<path d="M284.7 193.56C284.7 193.56 298.7 196.18 301.83 198.75C304.96 201.32 333 238 333.61 245.39C334.22 252.78 330.77 255.51 328.82 257.27C326.87 259.03 293.28 281.83 293.28 281.83L283 264.68L311.19 246.18L296.39 225.58L284.7 193.56Z" fill="#461082"/>
<path d="M252.29 195.08L254.41 229.08L273.41 191L285.66 203.44C285.66 203.44 293.18 247.92 293.29 248.23C293.4 248.54 288.14 273.67 288.14 273.67L253.33 280.4L242.72 277.7L241 238.18L240.1 200L252.29 195.08Z" fill="white"/>
<path d="M246.18 196.78L237.18 198.88C235.989 199.203 234.877 199.764 233.91 200.53C223.75 207.96 210.91 215.91 210.91 215.91L205 193.85L187.74 194.85C187.74 194.85 189.97 225.13 192.22 234.24C194.51 243.52 201.36 246.13 213.81 241C221.504 237.901 228.952 234.224 236.09 230L246.18 196.78Z" fill="#461082"/>
<path d="M296.58 223.46L294.93 253.08L296.59 258.84C296.59 258.84 312.18 288.26 314.71 307.74L295.42 310.86C295.42 310.86 290.16 285.73 286.42 273.26C282.68 260.79 271.81 255.52 268.1 242.67C265.874 235.354 265.08 227.677 265.76 220.06C265.76 219.28 273.36 191.06 273.36 191.06L275.36 185.76L281.55 191.65L299.08 197.49L296.58 223.46Z" fill="#461082"/>
<g opacity="0.3">
<path d="M305.78 278.53C302.585 280.994 299.246 283.264 295.78 285.33C295.529 285.454 295.272 285.564 295.01 285.66C294.314 285.916 293.55 285.913 292.856 285.653C292.162 285.392 291.585 284.891 291.23 284.24C290.82 283.49 290.4 282.69 290.12 282.1C289.41 280.57 288.65 278.73 287.96 277.1L290.12 276.57L293.27 281.79L302.34 275.57L304.07 274.39L305.78 278.53Z" fill="black"/>
</g>
<path d="M252.38 189.41L247.92 195.9L236.54 200C236.54 200 234.05 227.58 235.39 233.92C236.69 240.02 239.16 249.71 239.39 258.48C239.62 267.25 229.58 313.61 229.58 313.61L241.69 318.2C241.69 318.2 247.87 264.53 246.69 252.84C245.51 241.15 248.61 217.55 248.61 217.55L252.38 189.41Z" fill="#461082"/>
<path d="M273.79 248.9C273.625 248.751 273.475 248.587 273.34 248.41C272.959 247.915 272.625 247.386 272.34 246.83C271.336 244.72 270.804 242.416 270.78 240.08C270.737 236.646 270.975 233.215 271.49 229.82C272.036 225.656 272.875 221.536 274 217.49C275.945 210.519 278.714 203.805 282.25 197.49L282.42 197.79L278.13 197.65H277.82L278 197.41C279.18 195.82 280.12 194.55 280.82 193.62L281.58 192.62C281.76 192.4 281.85 192.29 281.87 192.3C281.808 192.43 281.734 192.554 281.65 192.67C281.47 192.95 281.24 193.29 280.95 193.67L278.26 197.54L278.13 197.29L282.42 197.35H282.75L282.59 197.64C279.168 203.961 276.458 210.642 274.51 217.56C273.401 221.61 272.563 225.729 272 229.89C271.469 233.258 271.195 236.661 271.18 240.07C271.169 242.361 271.635 244.629 272.55 246.73C272.923 247.476 273.337 248.2 273.79 248.9Z" fill="#263238"/>
<path d="M285.65 221.54C284.035 222.084 282.352 222.4 280.65 222.48C278.978 222.739 277.278 222.763 275.6 222.55C277.25 222.23 278.921 222.03 280.6 221.95C282.271 221.688 283.959 221.551 285.65 221.54Z" fill="#263238"/>
<path d="M298 214.67C297.974 215.175 297.904 215.677 297.79 216.17C297.65 217.17 297.48 218.53 297.31 220.27C296.98 223.74 296.65 228.54 296.31 233.85C295.97 239.16 295.7 243.85 295.49 247.45C295.37 249.19 295.26 250.6 295.18 251.57C295.158 252.079 295.087 252.584 294.97 253.08C294.925 252.574 294.925 252.066 294.97 251.56C294.97 250.48 295.05 249.1 295.11 247.43C295.24 243.95 295.46 239.13 295.78 233.82C296.1 228.51 296.5 223.69 296.93 220.23C297.14 218.49 297.37 217.1 297.57 216.14C297.668 215.638 297.812 215.146 298 214.67Z" fill="#263238"/>
<path d="M245.43 235C245.383 234.498 245.383 233.992 245.43 233.49C245.43 232.42 245.51 231.04 245.57 229.39C245.71 225.93 245.94 221.15 246.23 215.87C246.52 210.59 246.82 205.81 247.06 202.36C247.18 200.71 247.28 199.36 247.37 198.27C247.387 197.766 247.448 197.264 247.55 196.77C247.597 197.272 247.597 197.778 247.55 198.28C247.55 199.35 247.47 200.73 247.41 202.38C247.27 205.84 247.04 210.62 246.75 215.9C246.46 221.18 246.17 225.9 245.93 229.41C245.8 231.06 245.7 232.41 245.62 233.5C245.602 234.005 245.539 234.507 245.43 235Z" fill="#263238"/>
<g opacity="0.3">
<path d="M272.38 246.68C272.047 242.261 272.449 237.817 273.57 233.53C276.236 221.507 280.614 209.929 286.57 199.15C285.878 198.77 285.085 198.615 284.301 198.704C283.516 198.794 282.779 199.124 282.19 199.65C281.037 200.73 280.141 202.057 279.57 203.53C275.035 213.227 272.169 223.619 271.09 234.27C270.819 236.329 270.769 238.41 270.94 240.48C271.14 242.63 271.14 244.9 272.48 246.6" fill="black"/>
</g>
<g opacity="0.3">
<path d="M234.76 212.76C231.57 218.31 231.99 225 235.05 230.63C235.05 224.43 235.05 219.06 234.68 212.84" fill="black"/>
</g>
<path d="M276.38 168.59C276.234 168.208 275.965 167.886 275.615 167.674C275.266 167.462 274.856 167.373 274.45 167.42C274.221 167.449 274.002 167.527 273.806 167.65C273.611 167.772 273.445 167.936 273.32 168.13C273.116 168.463 273.024 168.852 273.058 169.241C273.092 169.63 273.251 169.998 273.51 170.29C273.78 170.572 274.135 170.756 274.52 170.814C274.906 170.872 275.3 170.8 275.64 170.61C275.977 170.41 276.235 170.1 276.37 169.732C276.505 169.364 276.509 168.96 276.38 168.59Z" fill="white"/>
<path d="M283.4 265.7L271.51 255.16L261.46 256.03C261.46 256.03 261.81 257.67 263.19 257.93C264.57 258.19 269.6 258.28 269.6 258.28L271.96 260.62L265.96 260.01L258.34 264.51C258.34 264.51 258.17 265.9 260.16 265.51C262.14 265.027 264.079 264.392 265.96 263.61L270.4 263.87L265.56 264.56L259.3 269C259.716 269.432 260.244 269.741 260.824 269.893C261.405 270.045 262.016 270.033 262.59 269.86C264.59 269.26 267 268.3 267 268.3L272.46 267.78L267 269.19L262.93 274.19C263.316 274.459 263.775 274.603 264.245 274.603C264.715 274.603 265.174 274.459 265.56 274.19C266.365 273.629 267.137 273.022 267.87 272.37L273.93 272.11C273.93 272.11 280.63 276.96 282.93 277.48C285.23 278 290.11 276.59 290.11 276.59L283.4 265.7Z" fill="#91514C"/>
<path d="M327.12 258.55L326.96 258.69L326.48 259.05L324.59 260.4L317.51 265.4L293.42 282L293.2 282.15L293.06 281.92L288.65 274.61C286.65 271.21 284.65 267.9 282.73 264.77L282.61 264.56L282.81 264.43L305.58 249.43L312.26 245.08L314.07 243.93C314.269 243.783 314.483 243.659 314.71 243.56C314.525 243.722 314.328 243.869 314.12 244L312.36 245.22L305.76 249.7L283.09 264.86L283.17 264.52C285.05 267.65 287.05 270.95 289.1 274.35L293.5 281.67L293.13 281.59L317.32 265.06L324.48 260.22L326.43 258.94L326.94 258.62L327.12 258.55Z" fill="#263238"/>
<path d="M235 210.82C235.043 211.275 235.043 211.734 235 212.19C235 213.19 235 214.42 235 215.91C235 219.06 235 223.4 235.28 228.18C235.531 232.257 236.032 236.314 236.78 240.33C237.08 241.87 237.34 243.12 237.54 243.97C237.662 244.412 237.746 244.863 237.79 245.32C237.595 244.903 237.444 244.468 237.34 244.02C237.08 243.18 236.77 241.95 236.42 240.41C235.558 236.391 235.003 232.313 234.76 228.21C234.508 224.115 234.465 220.009 234.63 215.91C234.69 214.33 234.76 213.06 234.83 212.18C234.84 211.722 234.897 211.266 235 210.82Z" fill="#263238"/>
<path d="M267.89 251.35C267.074 251.379 266.26 251.271 265.48 251.03C261.611 250.02 258.267 247.583 256.12 244.21C255.658 243.542 255.32 242.797 255.12 242.01C255.2 242.01 255.61 242.8 256.47 244.01C257.584 245.566 258.934 246.939 260.47 248.08C262.028 249.21 263.756 250.085 265.59 250.67C267 251.12 267.91 251.26 267.89 251.35Z" fill="#263238"/>
<path d="M403.984 163V129.4H419.248C422.896 129.4 426.112 130.104 428.896 131.512C431.68 132.888 433.856 134.824 435.424 137.32C436.992 139.816 437.776 142.776 437.776 146.2C437.776 149.592 436.992 152.552 435.424 155.08C433.856 157.576 431.68 159.528 428.896 160.936C426.112 162.312 422.896 163 419.248 163H403.984ZM411.76 156.616H418.864C421.104 156.616 423.04 156.2 424.672 155.368C426.336 154.504 427.616 153.288 428.512 151.72C429.44 150.152 429.904 148.312 429.904 146.2C429.904 144.056 429.44 142.216 428.512 140.68C427.616 139.112 426.336 137.912 424.672 137.08C423.04 136.216 421.104 135.784 418.864 135.784H411.76V156.616Z" fill="#FF5600"/>
<path d="M410.064 300.576C407.472 300.576 405.056 300.16 402.816 299.328C400.608 298.464 398.688 297.248 397.056 295.68C395.424 294.112 394.144 292.272 393.216 290.16C392.32 288.048 391.872 285.728 391.872 283.2C391.872 280.672 392.32 278.352 393.216 276.24C394.144 274.128 395.424 272.288 397.056 270.72C398.72 269.152 400.656 267.952 402.864 267.12C405.072 266.256 407.488 265.824 410.112 265.824C413.024 265.824 415.648 266.336 417.984 267.36C420.352 268.352 422.336 269.824 423.936 271.776L418.944 276.384C417.792 275.072 416.512 274.096 415.104 273.456C413.696 272.784 412.16 272.448 410.496 272.448C408.928 272.448 407.488 272.704 406.176 273.216C404.864 273.728 403.728 274.464 402.768 275.424C401.808 276.384 401.056 277.52 400.512 278.832C400 280.144 399.744 281.6 399.744 283.2C399.744 284.8 400 286.256 400.512 287.568C401.056 288.88 401.808 290.016 402.768 290.976C403.728 291.936 404.864 292.672 406.176 293.184C407.488 293.696 408.928 293.952 410.496 293.952C412.16 293.952 413.696 293.632 415.104 292.992C416.512 292.32 417.792 291.312 418.944 289.968L423.936 294.576C422.336 296.528 420.352 298.016 417.984 299.04C415.648 300.064 413.008 300.576 410.064 300.576Z" fill="#461082"/>
<path d="M245.568 73L260.544 39.4H268.224L283.248 73H275.088L262.8 43.336H265.872L253.536 73H245.568ZM253.056 65.8L255.12 59.896H272.4L274.512 65.8H253.056Z" fill="#461082"/>
<path d="M106.136 136.936H122.312V142.984H106.136V136.936ZM106.712 150.76H125V157H98.984V123.4H124.376V129.64H106.712V150.76Z" fill="#FF5600"/>
<path d="M90.984 314V280.4H107.4C111.624 280.4 114.792 281.2 116.904 282.8C119.048 284.4 120.12 286.512 120.12 289.136C120.12 290.896 119.688 292.432 118.824 293.744C117.96 295.024 116.776 296.016 115.272 296.72C113.768 297.424 112.04 297.776 110.088 297.776L111 295.808C113.112 295.808 114.984 296.16 116.616 296.864C118.248 297.536 119.512 298.544 120.408 299.888C121.336 301.232 121.8 302.88 121.8 304.832C121.8 307.712 120.664 309.968 118.392 311.6C116.12 313.2 112.776 314 108.36 314H90.984ZM98.712 308.144H107.784C109.8 308.144 111.32 307.824 112.344 307.184C113.4 306.512 113.928 305.456 113.928 304.016C113.928 302.608 113.4 301.568 112.344 300.896C111.32 300.192 109.8 299.84 107.784 299.84H98.136V294.176H106.44C108.328 294.176 109.768 293.856 110.76 293.216C111.784 292.544 112.296 291.536 112.296 290.192C112.296 288.88 111.784 287.904 110.76 287.264C109.768 286.592 108.328 286.256 106.44 286.256H98.712V308.144Z" fill="#461082"/>
</svg>
